<?xml version="1.0" encoding="UTF-8" standalone="no"?>
<!-- Created with Inkscape (http://www.inkscape.org/) -->

<svg
   xmlns:dc="http://purl.org/dc/elements/1.1/"
   xmlns:cc="http://creativecommons.org/ns#"
   xmlns:rdf="http://www.w3.org/1999/02/22-rdf-syntax-ns#"
   xmlns:svg="http://www.w3.org/2000/svg"
   xmlns="http://www.w3.org/2000/svg"
   xmlns:sodipodi="http://sodipodi.sourceforge.net/DTD/sodipodi-0.dtd"
   xmlns:inkscape="http://www.inkscape.org/namespaces/inkscape"
   width="1024"
   height="768"
   viewBox="0 0 1024 768"
   version="1.1"
   id="svg8"
   inkscape:version="0.92.3 (2405546, 2018-03-11)"
   sodipodi:docname="Alphabet.svg"
   inkscape:export-filename="D:\Низкогория\Alphabet.png"
   inkscape:export-xdpi="96"
   inkscape:export-ydpi="96">
  <defs
     id="defs2" />
  <sodipodi:namedview
     id="base"
     pagecolor="#ffffff"
     bordercolor="#666666"
     borderopacity="1.0"
     inkscape:pageopacity="0.0"
     inkscape:pageshadow="2"
     inkscape:zoom="0.54987071"
     inkscape:cx="611.81547"
     inkscape:cy="603.24444"
     inkscape:document-units="px"
     inkscape:current-layer="layer1"
     showgrid="false"
     units="px"
     inkscape:window-width="1920"
     inkscape:window-height="1017"
     inkscape:window-x="-8"
     inkscape:window-y="-8"
     inkscape:window-maximized="1"
     inkscape:snap-bbox="true"
     inkscape:bbox-paths="true"
     inkscape:bbox-nodes="true"
     inkscape:snap-bbox-edge-midpoints="true"
     inkscape:snap-bbox-midpoints="true"
     inkscape:object-paths="true"
     inkscape:snap-smooth-nodes="true"
     inkscape:snap-page="true"
     inkscape:snap-object-midpoints="true"
     inkscape:snap-center="true"
     showguides="true"
     inkscape:guide-bbox="true" />
  <metadata
     id="metadata5">
    <rdf:RDF>
      <cc:Work
         rdf:about="">
        <dc:format>image/svg+xml</dc:format>
        <dc:type
           rdf:resource="http://purl.org/dc/dcmitype/StillImage" />
        <dc:title />
      </cc:Work>
    </rdf:RDF>
  </metadata>
  <g
     inkscape:label="Layer 1"
     inkscape:groupmode="layer"
     id="layer1"
     transform="translate(0,-587.99998)">
    <rect
       style="opacity:1;fill:#f2f2f2;fill-opacity:1;stroke:none;stroke-width:6;stroke-linecap:round;stroke-linejoin:round;stroke-miterlimit:4;stroke-dasharray:none;stroke-dashoffset:0;stroke-opacity:1;paint-order:normal"
       id="rect831"
       width="1024"
       height="768"
       x="0"
       y="588" />
    <path
       style="font-style:normal;font-variant:normal;font-weight:300;font-stretch:normal;font-size:80px;line-height:1.25;font-family:'Roboto Mono';-inkscape-font-specification:'Roboto Mono weight=251';letter-spacing:0px;word-spacing:16px;fill:#ffbf00;fill-opacity:1;stroke:none;"
       d="M 764.38281 31.023438 C 764.4349 32.559896 764.73438 33.953125 765.28125 35.203125 C 765.85417 36.427083 766.63542 37.481771 767.625 38.367188 C 768.64062 39.226562 769.82552 39.890625 771.17969 40.359375 C 772.5599 40.828125 774.07031 41.0625 775.71094 41.0625 C 777.35156 41.0625 778.84896 40.828125 780.20312 40.359375 C 781.55729 39.890625 782.72917 39.226562 783.71875 38.367188 C 784.70833 37.481771 785.47656 36.427083 786.02344 35.203125 C 786.59635 33.953125 786.90885 32.559896 786.96094 31.023438 L 782.97656 31.023438 C 782.8724 33.080729 782.18229 34.708333 780.90625 35.90625 C 779.65625 37.104167 777.92448 37.703125 775.71094 37.703125 C 773.41927 37.703125 771.63542 37.117188 770.35938 35.945312 C 769.10938 34.747396 768.44531 33.106771 768.36719 31.023438 L 764.38281 31.023438 z M 502.11719 31.84375 L 502.11719 45.671875 L 471.88281 45.671875 L 471.88281 102.54688 L 476.57031 102.54688 L 476.57031 49.65625 L 506.80469 49.65625 L 506.80469 31.84375 L 502.11719 31.84375 z M 297.23438 44.890625 C 294.05729 44.890625 291.27083 45.567708 288.875 46.921875 C 286.50521 48.25 284.52604 50.033854 282.9375 52.273438 C 281.34896 54.486979 280.15104 57.039062 279.34375 59.929688 C 278.53646 62.820312 278.13281 65.828125 278.13281 68.953125 L 278.13281 79.265625 C 278.13281 82.390625 278.53646 85.398438 279.34375 88.289062 C 280.15104 91.179687 281.34896 93.744792 282.9375 95.984375 C 284.52604 98.197917 286.50521 99.981771 288.875 101.33594 C 291.27083 102.66406 294.05729 103.32812 297.23438 103.32812 C 300.07292 103.32812 302.59896 102.88542 304.8125 102 C 307.05208 101.08854 308.96615 99.838542 310.55469 98.25 C 312.14323 96.635417 313.39323 94.734375 314.30469 92.546875 C 315.24219 90.333333 315.82812 87.911458 316.0625 85.28125 L 311.41406 85.28125 C 311.1276 87.442708 310.64583 89.395833 309.96875 91.140625 C 309.29167 92.885417 308.38021 94.369792 307.23438 95.59375 C 306.11458 96.817708 304.72135 97.755208 303.05469 98.40625 C 301.41406 99.057292 299.47396 99.382812 297.23438 99.382812 C 294.70833 99.382812 292.53385 98.796875 290.71094 97.625 C 288.91406 96.453125 287.42969 94.929688 286.25781 93.054688 C 285.08594 91.153646 284.21354 89.005208 283.64062 86.609375 C 283.06771 84.213542 282.78125 81.765625 282.78125 79.265625 L 282.78125 75.75 L 305.16406 75.75 L 305.16406 71.765625 L 282.78125 71.765625 L 282.78125 68.875 C 282.78125 66.401042 283.06771 63.966146 283.64062 61.570312 C 284.21354 59.174479 285.08594 57.039062 286.25781 55.164062 C 287.42969 53.263021 288.91406 51.739583 290.71094 50.59375 C 292.53385 49.421875 294.70833 48.835938 297.23438 48.835938 C 299.44792 48.835938 301.375 49.174479 303.01562 49.851562 C 304.68229 50.528646 306.07552 51.492188 307.19531 52.742188 C 308.34115 53.992187 309.2526 55.489583 309.92969 57.234375 C 310.60677 58.979167 311.10156 60.919271 311.41406 63.054688 L 316.0625 63.054688 C 315.82812 60.320312 315.24219 57.833333 314.30469 55.59375 C 313.36719 53.354167 312.10417 51.440104 310.51562 49.851562 C 308.95312 48.263021 307.05208 47.039062 304.8125 46.179688 C 302.59896 45.320312 300.07292 44.890625 297.23438 44.890625 z M 343.91406 44.890625 C 341.4401 44.890625 339.07031 45.255208 336.80469 45.984375 C 334.53906 46.6875 332.53385 47.716146 330.78906 49.070312 C 329.07031 50.398438 327.67708 52.039062 326.60938 53.992188 C 325.54167 55.919271 324.98177 58.106771 324.92969 60.554688 L 329.61719 60.554688 C 329.66927 58.731771 330.08594 57.104167 330.86719 55.671875 C 331.67448 54.213542 332.72917 52.989583 334.03125 52 C 335.35938 50.984375 336.86979 50.216146 338.5625 49.695312 C 340.28125 49.148438 342.0651 48.875 343.91406 48.875 C 346.02344 48.875 347.98958 49.122396 349.8125 49.617188 C 351.63542 50.111979 353.21094 50.854167 354.53906 51.84375 C 355.86719 52.807292 356.90885 54.018229 357.66406 55.476562 C 358.44531 56.908854 358.83594 58.575521 358.83594 60.476562 C 358.83594 62.429688 358.44531 64.109375 357.66406 65.515625 C 356.90885 66.895833 355.86719 68.028646 354.53906 68.914062 C 353.21094 69.799479 351.64844 70.463542 349.85156 70.90625 C 348.08073 71.322917 346.16667 71.53125 344.10938 71.53125 L 336.92188 71.53125 L 336.92188 75.554688 L 344.10938 75.554688 C 346.24479 75.554688 348.25 75.763021 350.125 76.179688 C 352.02604 76.570312 353.67969 77.221354 355.08594 78.132812 C 356.51823 79.044271 357.65104 80.242188 358.48438 81.726562 C 359.31771 83.210938 359.73438 85.059896 359.73438 87.273438 C 359.73438 89.304688 359.30469 91.075521 358.44531 92.585938 C 357.61198 94.096354 356.46615 95.359375 355.00781 96.375 C 353.57552 97.390625 351.89583 98.158854 349.96875 98.679688 C 348.06771 99.174479 346.04948 99.421875 343.91406 99.421875 C 341.88281 99.421875 339.95573 99.122396 338.13281 98.523438 C 336.33594 97.924479 334.7474 97.078125 333.36719 95.984375 C 332.01302 94.890625 330.93229 93.5625 330.125 92 C 329.31771 90.4375 328.88802 88.692708 328.83594 86.765625 L 324.14844 86.765625 C 324.20052 89.552083 324.78646 91.986979 325.90625 94.070312 C 327.05208 96.127604 328.53646 97.846354 330.35938 99.226562 C 332.20833 100.60677 334.30469 101.64844 336.64844 102.35156 C 338.99219 103.02865 341.41406 103.36719 343.91406 103.36719 C 346.6224 103.36719 349.21354 103.02865 351.6875 102.35156 C 354.16146 101.67448 356.33594 100.65885 358.21094 99.304688 C 360.08594 97.950521 361.58333 96.257812 362.70312 94.226562 C 363.84896 92.195313 364.42188 89.825521 364.42188 87.117188 C 364.42187 85.242188 364.13542 83.5625 363.5625 82.078125 C 363.01562 80.567708 362.23438 79.252604 361.21875 78.132812 C 360.22917 77.013021 359.03125 76.075521 357.625 75.320312 C 356.21875 74.539062 354.68229 73.914062 353.01562 73.445312 C 354.52604 72.924479 355.91927 72.260417 357.19531 71.453125 C 358.47135 70.645833 359.57812 69.708333 360.51562 68.640625 C 361.45312 67.572917 362.18229 66.375 362.70312 65.046875 C 363.25 63.692708 363.52344 62.221354 363.52344 60.632812 C 363.52344 57.950521 363.0026 55.619792 361.96094 53.640625 C 360.94531 51.661458 359.55208 50.020833 357.78125 48.71875 C 356.01042 47.416667 353.92708 46.453125 351.53125 45.828125 C 349.13542 45.203125 346.59635 44.890625 343.91406 44.890625 z M 440.24219 44.890625 C 437.97656 44.890625 435.93229 45.255208 434.10938 45.984375 C 432.3125 46.6875 430.71094 47.664062 429.30469 48.914062 C 427.89844 50.164062 426.67448 51.622396 425.63281 53.289062 C 424.61719 54.955729 423.78385 56.739583 423.13281 58.640625 C 422.48177 60.515625 421.98698 62.46875 421.64844 64.5 C 421.33594 66.505208 421.16667 68.471354 421.14062 70.398438 L 421.14062 77.898438 C 421.16667 79.825521 421.33594 81.791667 421.64844 83.796875 C 421.98698 85.802083 422.48177 87.755208 423.13281 89.65625 C 423.8099 91.53125 424.65625 93.302083 425.67188 94.96875 C 426.71354 96.635417 427.9375 98.09375 429.34375 99.34375 C 430.77604 100.56771 432.40365 101.54427 434.22656 102.27344 C 436.04948 102.97656 438.08073 103.32812 440.32031 103.32812 C 442.58594 103.32812 444.63021 102.97656 446.45312 102.27344 C 448.27604 101.54427 449.8776 100.56771 451.25781 99.34375 C 452.66406 98.09375 453.875 96.648438 454.89062 95.007812 C 455.90625 93.341146 456.73958 91.570312 457.39062 89.695312 C 458.06771 87.794271 458.5625 85.841146 458.875 83.835938 C 459.1875 81.804688 459.35677 79.825521 459.38281 77.898438 L 459.38281 70.398438 C 459.35677 68.445312 459.1875 66.466146 458.875 64.460938 C 458.5625 62.429688 458.06771 60.476562 457.39062 58.601562 C 456.73958 56.700521 455.90625 54.916667 454.89062 53.25 C 453.875 51.583333 452.65104 50.138021 451.21875 48.914062 C 449.8125 47.664062 448.19792 46.6875 446.375 45.984375 C 444.55208 45.255208 442.50781 44.890625 440.24219 44.890625 z M 536.17969 44.890625 C 533.91406 44.890625 531.86979 45.255208 530.04688 45.984375 C 528.25 46.6875 526.64844 47.664062 525.24219 48.914062 C 523.83594 50.164062 522.61198 51.622396 521.57031 53.289062 C 520.55469 54.955729 519.72135 56.739583 519.07031 58.640625 C 518.41927 60.515625 517.92448 62.46875 517.58594 64.5 C 517.27344 66.505208 517.10417 68.471354 517.07812 70.398438 L 517.07812 77.898438 C 517.10417 79.825521 517.27344 81.791667 517.58594 83.796875 C 517.92448 85.802083 518.41927 87.755208 519.07031 89.65625 C 519.7474 91.53125 520.59375 93.302083 521.60938 94.96875 C 522.65104 96.635417 523.875 98.09375 525.28125 99.34375 C 526.71354 100.56771 528.34115 101.54427 530.16406 102.27344 C 531.98698 102.97656 534.01823 103.32812 536.25781 103.32812 C 538.52344 103.32812 540.56771 102.97656 542.39062 102.27344 C 544.21354 101.54427 545.8151 100.56771 547.19531 99.34375 C 548.60156 98.09375 549.8125 96.648438 550.82812 95.007812 C 551.84375 93.341146 552.67708 91.570312 553.32812 89.695312 C 554.00521 87.794271 554.5 85.841146 554.8125 83.835938 C 555.125 81.804688 555.29427 79.825521 555.32031 77.898438 L 555.32031 70.398438 C 555.29427 68.445312 555.125 66.466146 554.8125 64.460938 C 554.5 62.429688 554.00521 60.476562 553.32812 58.601562 C 552.67708 56.700521 551.84375 54.916667 550.82812 53.25 C 549.8125 51.583333 548.58854 50.138021 547.15625 48.914062 C 545.75 47.664062 544.13542 46.6875 542.3125 45.984375 C 540.48958 45.255208 538.44531 44.890625 536.17969 44.890625 z M 632.39062 44.890625 C 630.125 44.890625 628.06771 45.242188 626.21875 45.945312 C 624.39583 46.622396 622.76823 47.572917 621.33594 48.796875 C 619.92969 49.994792 618.70573 51.401042 617.66406 53.015625 C 616.6224 54.630208 615.76302 56.375 615.08594 58.25 C 614.40885 60.098958 613.90104 62.026042 613.5625 64.03125 C 613.25 66.036458 613.08073 68.028646 613.05469 70.007812 L 613.05469 78.25 C 613.08073 80.229167 613.25 82.221354 613.5625 84.226562 C 613.90104 86.231771 614.40885 88.171875 615.08594 90.046875 C 615.76302 91.895833 616.6224 93.627604 617.66406 95.242188 C 618.70573 96.856771 619.92969 98.263021 621.33594 99.460938 C 622.76823 100.65885 624.39583 101.60938 626.21875 102.3125 C 628.06771 102.98958 630.125 103.32812 632.39062 103.32812 C 635.09896 103.32813 637.53385 102.8724 639.69531 101.96094 C 641.88281 101.04948 643.77083 99.786458 645.35938 98.171875 C 646.94792 96.53125 648.22396 94.617188 649.1875 92.429688 C 650.15104 90.216146 650.78906 87.833333 651.10156 85.28125 L 646.45312 85.28125 C 646.16667 87.260417 645.67188 89.109375 644.96875 90.828125 C 644.29167 92.546875 643.38021 94.044271 642.23438 95.320312 C 641.11458 96.596354 639.73438 97.598958 638.09375 98.328125 C 636.47917 99.03125 634.57812 99.382812 632.39062 99.382812 C 630.54167 99.382812 628.90104 99.070312 627.46875 98.445312 C 626.03646 97.820312 624.77344 96.986979 623.67969 95.945312 C 622.61198 94.877604 621.70052 93.653646 620.94531 92.273438 C 620.1901 90.867188 619.57812 89.382812 619.10938 87.820312 C 618.64062 86.257812 618.28906 84.65625 618.05469 83.015625 C 617.84635 81.375 617.74219 79.786458 617.74219 78.25 L 617.74219 69.929688 C 617.74219 68.393229 617.84635 66.817708 618.05469 65.203125 C 618.28906 63.5625 618.64062 61.960938 619.10938 60.398438 C 619.57812 58.835937 620.1901 57.364583 620.94531 55.984375 C 621.70052 54.578125 622.61198 53.354167 623.67969 52.3125 C 624.77344 51.270833 626.03646 50.4375 627.46875 49.8125 C 628.90104 49.1875 630.54167 48.875 632.39062 48.875 C 634.55208 48.875 636.4401 49.252604 638.05469 50.007812 C 639.66927 50.736979 641.04948 51.752604 642.19531 53.054688 C 643.34115 54.330729 644.2526 55.828125 644.92969 57.546875 C 645.63281 59.265625 646.14062 61.101562 646.45312 63.054688 L 651.10156 63.054688 C 650.8151 60.450521 650.1901 58.041667 649.22656 55.828125 C 648.28906 53.614583 647.02604 51.700521 645.4375 50.085938 C 643.84896 48.445312 641.96094 47.169271 639.77344 46.257812 C 637.61198 45.346354 635.15104 44.890625 632.39062 44.890625 z M 728.95312 44.890625 C 725.77604 44.890625 722.98958 45.567708 720.59375 46.921875 C 718.22396 48.25 716.24479 50.033854 714.65625 52.273438 C 713.06771 54.486979 711.86979 57.039062 711.0625 59.929688 C 710.25521 62.820312 709.85156 65.828125 709.85156 68.953125 L 709.85156 79.265625 C 709.85156 82.390625 710.25521 85.398438 711.0625 88.289062 C 711.86979 91.179687 713.06771 93.744792 714.65625 95.984375 C 716.24479 98.197917 718.22396 99.981771 720.59375 101.33594 C 722.98958 102.66406 725.77604 103.32812 728.95312 103.32812 C 731.79167 103.32812 734.31771 102.88542 736.53125 102 C 738.77083 101.08854 740.6849 99.838542 742.27344 98.25 C 743.86198 96.635417 745.11198 94.734375 746.02344 92.546875 C 746.96094 90.333333 747.54688 87.911458 747.78125 85.28125 L 743.13281 85.28125 C 742.84635 87.442708 742.36458 89.395833 741.6875 91.140625 C 741.01042 92.885417 740.09896 94.369792 738.95312 95.59375 C 737.83333 96.817708 736.4401 97.755208 734.77344 98.40625 C 733.13281 99.057292 731.19271 99.382812 728.95312 99.382812 C 726.42708 99.382812 724.2526 98.796875 722.42969 97.625 C 720.63281 96.453125 719.14844 94.929688 717.97656 93.054688 C 716.80469 91.153646 715.93229 89.005208 715.35938 86.609375 C 714.78646 84.213542 714.5 81.765625 714.5 79.265625 L 714.5 75.75 L 736.88281 75.75 L 736.88281 71.765625 L 714.5 71.765625 L 714.5 68.875 C 714.5 66.401042 714.78646 63.966146 715.35938 61.570312 C 715.93229 59.174479 716.80469 57.039062 717.97656 55.164062 C 719.14844 53.263021 720.63281 51.739583 722.42969 50.59375 C 724.2526 49.421875 726.42708 48.835938 728.95312 48.835938 C 731.16667 48.835938 733.09375 49.174479 734.73438 49.851562 C 736.40104 50.528646 737.79427 51.492188 738.91406 52.742188 C 740.0599 53.992187 740.97135 55.489583 741.64844 57.234375 C 742.32552 58.979167 742.82031 60.919271 743.13281 63.054688 L 747.78125 63.054688 C 747.54688 60.320312 746.96094 57.833333 746.02344 55.59375 C 745.08594 53.354167 743.82292 51.440104 742.23438 49.851562 C 740.67187 48.263021 738.77083 47.039062 736.53125 46.179688 C 734.31771 45.320312 731.79167 44.890625 728.95312 44.890625 z M 230.63281 45.671875 L 230.63281 102.54688 L 235.04688 102.54688 L 235.04688 75.28125 L 261.76562 75.28125 L 261.76562 102.54688 L 266.17969 102.54688 L 266.17969 45.671875 L 261.76562 45.671875 L 261.76562 71.21875 L 235.04688 71.21875 L 235.04688 45.671875 L 230.63281 45.671875 z M 376.53125 45.671875 L 376.53125 102.54688 L 381.14062 102.54688 L 381.14062 75.789062 L 388.44531 75.789062 L 409.46094 102.54688 L 415.24219 102.54688 L 392.42969 73.640625 L 413.60156 45.671875 L 408.13281 45.671875 L 388.40625 71.84375 L 381.14062 71.84375 L 381.14062 45.671875 L 376.53125 45.671875 z M 568.64062 45.671875 L 568.64062 102.54688 L 573.32812 102.54688 L 573.32812 79.109375 L 586.53125 79.109375 C 589.00521 79.083333 591.33594 78.692708 593.52344 77.9375 C 595.71094 77.182292 597.61198 76.101562 599.22656 74.695312 C 600.86719 73.263021 602.15625 71.53125 603.09375 69.5 C 604.03125 67.442708 604.5 65.111979 604.5 62.507812 C 604.5 59.903646 604.03125 57.572917 603.09375 55.515625 C 602.15625 53.458333 600.86719 51.713542 599.22656 50.28125 C 597.61198 48.822917 595.71094 47.703125 593.52344 46.921875 C 591.36198 46.140625 589.03125 45.723958 586.53125 45.671875 L 568.64062 45.671875 z M 664.34375 45.671875 L 664.34375 102.54688 L 668.95312 102.54688 L 668.95312 75.789062 L 676.25781 75.789062 L 697.27344 102.54688 L 703.05469 102.54688 L 680.24219 73.640625 L 701.41406 45.671875 L 695.94531 45.671875 L 676.21875 71.84375 L 668.95312 71.84375 L 668.95312 45.671875 L 664.34375 45.671875 z M 758.75781 45.671875 L 758.75781 102.54688 L 763.36719 102.54688 L 788.79688 54.851562 L 788.75781 102.54688 L 793.36719 102.54688 L 793.36719 45.671875 L 788.75781 45.671875 L 763.32812 93.328125 L 763.36719 45.671875 L 758.75781 45.671875 z M 440.24219 49.109375 C 442.0651 49.109375 443.69271 49.421875 445.125 50.046875 C 446.55729 50.671875 447.80729 51.518229 448.875 52.585938 C 449.94271 53.653646 450.84115 54.903646 451.57031 56.335938 C 452.32552 57.742188 452.9375 59.226562 453.40625 60.789062 C 453.875 62.351562 454.21354 63.953125 454.42188 65.59375 C 454.63021 67.234375 454.7474 68.809896 454.77344 70.320312 L 454.77344 77.898438 C 454.7474 79.408854 454.63021 80.984375 454.42188 82.625 C 454.23958 84.239583 453.91406 85.841146 453.44531 87.429688 C 453.0026 88.992188 452.40365 90.489583 451.64844 91.921875 C 450.91927 93.328125 450.02083 94.565104 448.95312 95.632812 C 447.88542 96.700521 446.63542 97.559896 445.20312 98.210938 C 443.79688 98.835938 442.16927 99.148438 440.32031 99.148438 C 438.4974 99.148438 436.86979 98.835938 435.4375 98.210938 C 434.00521 97.559896 432.75521 96.700521 431.6875 95.632812 C 430.61979 94.565104 429.70833 93.328125 428.95312 91.921875 C 428.22396 90.489583 427.625 88.992188 427.15625 87.429688 C 426.6875 85.841146 426.33594 84.239583 426.10156 82.625 C 425.89323 80.984375 425.77604 79.408854 425.75 77.898438 L 425.75 70.320312 C 425.77604 68.835938 425.89323 67.273438 426.10156 65.632812 C 426.3099 63.992188 426.64844 62.390625 427.11719 60.828125 C 427.58594 59.265625 428.1849 57.78125 428.91406 56.375 C 429.66927 54.942708 430.58073 53.692708 431.64844 52.625 C 432.71615 51.557292 433.95312 50.710938 435.35938 50.085938 C 436.79167 49.434896 438.41927 49.109375 440.24219 49.109375 z M 536.17969 49.109375 C 538.0026 49.109375 539.63021 49.421875 541.0625 50.046875 C 542.49479 50.671875 543.74479 51.518229 544.8125 52.585938 C 545.88021 53.653646 546.77865 54.903646 547.50781 56.335938 C 548.26302 57.742188 548.875 59.226562 549.34375 60.789062 C 549.8125 62.351562 550.15104 63.953125 550.35938 65.59375 C 550.56771 67.234375 550.6849 68.809896 550.71094 70.320312 L 550.71094 77.898438 C 550.6849 79.408854 550.56771 80.984375 550.35938 82.625 C 550.17708 84.239583 549.85156 85.841146 549.38281 87.429688 C 548.9401 88.992188 548.34115 90.489583 547.58594 91.921875 C 546.85677 93.328125 545.95833 94.565104 544.89062 95.632812 C 543.82292 96.700521 542.57292 97.559896 541.14062 98.210938 C 539.73438 98.835938 538.10677 99.148438 536.25781 99.148438 C 534.4349 99.148438 532.80729 98.835938 531.375 98.210938 C 529.94271 97.559896 528.69271 96.700521 527.625 95.632812 C 526.55729 94.565104 525.64583 93.328125 524.89062 91.921875 C 524.16146 90.489583 523.5625 88.992188 523.09375 87.429688 C 522.625 85.841146 522.27344 84.239583 522.03906 82.625 C 521.83073 80.984375 521.71354 79.408854 521.6875 77.898438 L 521.6875 70.320312 C 521.71354 68.835938 521.83073 67.273438 522.03906 65.632812 C 522.2474 63.992188 522.58594 62.390625 523.05469 60.828125 C 523.52344 59.265625 524.1224 57.78125 524.85156 56.375 C 525.60677 54.942708 526.51823 53.692708 527.58594 52.625 C 528.65365 51.557292 529.89062 50.710938 531.29688 50.085938 C 532.72917 49.434896 534.35677 49.109375 536.17969 49.109375 z M 573.32812 49.65625 L 586.53125 49.65625 C 588.43229 49.708333 590.1901 50.046875 591.80469 50.671875 C 593.41927 51.270833 594.82552 52.130208 596.02344 53.25 C 597.22135 54.34375 598.15885 55.684896 598.83594 57.273438 C 599.51302 58.861979 599.85156 60.632812 599.85156 62.585938 C 599.85156 64.539062 599.5 66.283854 598.79688 67.820312 C 598.11979 69.356771 597.18229 70.658854 595.98438 71.726562 C 594.78646 72.794271 593.38021 73.627604 591.76562 74.226562 C 590.15104 74.825521 588.40625 75.138021 586.53125 75.164062 L 573.32812 75.164062 L 573.32812 49.65625 z "
       transform="translate(0,587.99998)"
       id="text842" />
    <path
       style="font-style:normal;font-variant:normal;font-weight:300;font-stretch:normal;font-size:80px;line-height:1.25;font-family:'Roboto Mono';-inkscape-font-specification:'Roboto Mono weight=251';letter-spacing:0px;word-spacing:16px;fill:#ffbf00;fill-opacity:1;stroke:none;"
       d="M 608.69922 664.65234 C 605.52214 664.65234 602.73568 665.32943 600.33984 666.68359 C 597.97005 668.01172 595.99089 669.79557 594.40234 672.03516 C 592.8138 674.2487 591.61589 676.80078 590.80859 679.69141 C 590.0013 682.58203 589.59766 685.58984 589.59766 688.71484 L 589.59766 699.02734 C 589.59766 702.15234 590.0013 705.16016 590.80859 708.05078 C 591.61589 710.94141 592.8138 713.50651 594.40234 715.74609 C 595.99089 717.95964 597.97005 719.74349 600.33984 721.09766 C 602.73568 722.42578 605.52214 723.08984 608.69922 723.08984 C 611.53776 723.08984 614.0638 722.64714 616.27734 721.76172 C 618.51693 720.85026 620.43099 719.60026 622.01953 718.01172 C 623.60807 716.39714 624.85807 714.49609 625.76953 712.30859 C 626.70703 710.09505 627.29297 707.67318 627.52734 705.04297 L 622.87891 705.04297 C 622.59245 707.20443 622.11068 709.15755 621.43359 710.90234 C 620.75651 712.64714 619.84505 714.13151 618.69922 715.35547 C 617.57943 716.57943 616.1862 717.51693 614.51953 718.16797 C 612.87891 718.81901 610.9388 719.14453 608.69922 719.14453 C 606.17318 719.14453 603.9987 718.55859 602.17578 717.38672 C 600.37891 716.21484 598.89453 714.69141 597.72266 712.81641 C 596.55078 710.91536 595.67839 708.76693 595.10547 706.37109 C 594.53255 703.97526 594.24609 701.52734 594.24609 699.02734 L 594.24609 695.51172 L 616.62891 695.51172 L 616.62891 691.52734 L 594.24609 691.52734 L 594.24609 688.63672 C 594.24609 686.16276 594.53255 683.72786 595.10547 681.33203 C 595.67839 678.9362 596.55078 676.80078 597.72266 674.92578 C 598.89453 673.02474 600.37891 671.5013 602.17578 670.35547 C 603.9987 669.18359 606.17318 668.59766 608.69922 668.59766 C 610.91276 668.59766 612.83984 668.9362 614.48047 669.61328 C 616.14714 670.29036 617.54036 671.25391 618.66016 672.50391 C 619.80599 673.75391 620.71745 675.2513 621.39453 676.99609 C 622.07161 678.74089 622.56641 680.68099 622.87891 682.81641 L 627.52734 682.81641 C 627.29297 680.08203 626.70703 677.59505 625.76953 675.35547 C 624.83203 673.11589 623.56901 671.20182 621.98047 669.61328 C 620.41797 668.02474 618.51693 666.80078 616.27734 665.94141 C 614.0638 665.08203 611.53776 664.65234 608.69922 664.65234 z M 366.47266 665.43359 L 347.95703 722.30859 L 352.68359 722.30859 L 357.72266 706.44922 L 379.36328 706.44922 L 384.36328 722.30859 L 389.05078 722.30859 L 370.69141 665.43359 L 366.47266 665.43359 z M 404.67578 665.43359 L 403.89453 692.93359 C 403.86849 694.6263 403.79036 696.42318 403.66016 698.32422 C 403.55599 700.22526 403.3737 702.11328 403.11328 703.98828 C 402.85286 705.86328 402.5013 707.67318 402.05859 709.41797 C 401.64193 711.13672 401.12109 712.66016 400.49609 713.98828 C 399.87109 715.29036 399.12891 716.34505 398.26953 717.15234 C 397.41016 717.95964 396.42057 718.36328 395.30078 718.36328 L 393.89453 718.36328 L 393.89453 722.30859 L 395.45703 722.30859 C 397.20182 722.30859 398.72526 721.87891 400.02734 721.01953 C 401.32943 720.13411 402.46224 718.96224 403.42578 717.50391 C 404.38932 716.01953 405.18359 714.30078 405.80859 712.34766 C 406.45964 710.39453 406.98047 708.33724 407.37109 706.17578 C 407.76172 703.98828 408.03516 701.76172 408.19141 699.49609 C 408.3737 697.23047 408.49089 695.04297 408.54297 692.93359 L 409.16797 669.41797 L 428.85547 669.41797 L 428.85547 722.30859 L 433.46484 722.30859 L 433.46484 665.43359 L 404.67578 665.43359 z M 461.62891 665.43359 L 461.62891 673.16797 C 458.92057 673.29818 456.42057 673.91016 454.12891 675.00391 C 451.86328 676.07161 449.91016 677.52995 448.26953 679.37891 C 446.62891 681.20182 445.33984 683.35026 444.40234 685.82422 C 443.49089 688.27214 443.03516 690.92839 443.03516 693.79297 C 443.03516 696.68359 443.49089 699.36589 444.40234 701.83984 C 445.33984 704.28776 446.62891 706.42318 448.26953 708.24609 C 449.91016 710.06901 451.86328 711.52734 454.12891 712.62109 C 456.42057 713.6888 458.92057 714.28776 461.62891 714.41797 L 461.62891 722.30859 L 466.23828 722.30859 L 466.23828 714.41797 C 468.92057 714.28776 471.39453 713.67578 473.66016 712.58203 C 475.95182 711.48828 477.93099 710.02995 479.59766 708.20703 C 481.26432 706.35807 482.55339 704.20964 483.46484 701.76172 C 484.40234 699.28776 484.87109 696.60547 484.87109 693.71484 C 484.87109 690.85026 484.40234 688.19401 483.46484 685.74609 C 482.55339 683.27214 481.26432 681.13672 479.59766 679.33984 C 477.93099 677.51693 475.95182 676.07161 473.66016 675.00391 C 471.39453 673.91016 468.92057 673.29818 466.23828 673.16797 L 466.23828 665.43359 L 461.62891 665.43359 z M 510.37891 665.43359 L 491.86328 722.30859 L 496.58984 722.30859 L 501.62891 706.44922 L 523.26953 706.44922 L 528.26953 722.30859 L 532.95703 722.30859 L 514.59766 665.43359 L 510.37891 665.43359 z M 543.46484 665.43359 L 543.46484 722.30859 L 561.35547 722.30859 C 563.69922 722.28255 565.9388 721.90495 568.07422 721.17578 C 570.23568 720.44661 572.13672 719.40495 573.77734 718.05078 C 575.41797 716.67057 576.72005 715.00391 577.68359 713.05078 C 578.64714 711.07161 579.11589 708.81901 579.08984 706.29297 C 579.08984 704.54818 578.79036 702.92057 578.19141 701.41016 C 577.61849 699.89974 576.82422 698.55859 575.80859 697.38672 C 574.79297 696.1888 573.58203 695.1862 572.17578 694.37891 C 570.79557 693.57161 569.28516 692.97266 567.64453 692.58203 C 568.97266 692.08724 570.20964 691.47526 571.35547 690.74609 C 572.5013 689.99089 573.49089 689.11849 574.32422 688.12891 C 575.18359 687.11328 575.86068 685.96745 576.35547 684.69141 C 576.85026 683.38932 577.09766 681.93099 577.09766 680.31641 C 577.1237 677.73828 576.61589 675.52474 575.57422 673.67578 C 574.55859 671.80078 573.20443 670.26432 571.51172 669.06641 C 569.81901 667.84245 567.87891 666.94401 565.69141 666.37109 C 563.52995 665.77214 561.30339 665.45964 559.01172 665.43359 L 543.46484 665.43359 z M 635.49609 665.43359 L 635.49609 669.53516 L 653.66016 669.53516 L 653.62109 722.30859 L 658.19141 722.30859 L 658.19141 669.53516 L 676.31641 669.53516 L 676.31641 665.43359 L 635.49609 665.43359 z M 548.15234 669.53516 L 559.12891 669.53516 C 560.79557 669.5612 562.42318 669.78255 564.01172 670.19922 C 565.60026 670.58984 567.01953 671.21484 568.26953 672.07422 C 569.51953 672.90755 570.52214 674.0013 571.27734 675.35547 C 572.03255 676.68359 572.41016 678.29818 572.41016 680.19922 C 572.41016 682.02214 572.04557 683.59766 571.31641 684.92578 C 570.58724 686.25391 569.6237 687.36068 568.42578 688.24609 C 567.25391 689.13151 565.89974 689.79557 564.36328 690.23828 C 562.82682 690.68099 561.23828 690.91536 559.59766 690.94141 L 548.15234 690.94141 L 548.15234 669.53516 z M 368.58203 672.34766 L 378.03516 702.26953 L 359.05078 702.26953 L 368.58203 672.34766 z M 512.48828 672.34766 L 521.94141 702.26953 L 502.95703 702.26953 L 512.48828 672.34766 z M 461.62891 677.15234 L 461.62891 710.43359 C 459.46745 710.32943 457.52734 709.84766 455.80859 708.98828 C 454.08984 708.10286 452.63151 706.93099 451.43359 705.47266 C 450.23568 703.98828 449.3112 702.25651 448.66016 700.27734 C 448.00911 698.29818 447.68359 696.13672 447.68359 693.79297 C 447.68359 691.47526 448.00911 689.32682 448.66016 687.34766 C 449.3112 685.36849 450.23568 683.64974 451.43359 682.19141 C 452.63151 680.70703 454.08984 679.53516 455.80859 678.67578 C 457.52734 677.79036 459.46745 677.28255 461.62891 677.15234 z M 466.23828 677.15234 C 468.3737 677.28255 470.30078 677.77734 472.01953 678.63672 C 473.76432 679.49609 475.23568 680.65495 476.43359 682.11328 C 477.65755 683.57161 478.59505 685.29036 479.24609 687.26953 C 479.89714 689.2487 480.22266 691.39714 480.22266 693.71484 C 480.22266 696.05859 479.89714 698.23307 479.24609 700.23828 C 478.59505 702.21745 477.65755 703.94922 476.43359 705.43359 C 475.23568 706.91797 473.76432 708.10286 472.01953 708.98828 C 470.30078 709.8737 468.3737 710.36849 466.23828 710.47266 L 466.23828 677.15234 z M 548.15234 694.96484 L 561.82422 694.96484 C 563.49089 695.01693 565.07943 695.30339 566.58984 695.82422 C 568.1263 696.34505 569.46745 697.08724 570.61328 698.05078 C 571.78516 699.01432 572.69661 700.19922 573.34766 701.60547 C 574.02474 702.98568 574.36328 704.57422 574.36328 706.37109 C 574.36328 708.22005 574.01172 709.8737 573.30859 711.33203 C 572.63151 712.76432 571.69401 713.98828 570.49609 715.00391 C 569.32422 716.01953 567.95703 716.8138 566.39453 717.38672 C 564.83203 717.93359 563.19141 718.22005 561.47266 718.24609 L 548.15234 718.24609 L 548.15234 694.96484 z "
       transform="translate(0,587.99998)"
       id="text846" />
    <text
       id="text901"
       y="46.960693"
       x="151.01172"
       style="font-style:normal;font-variant:normal;font-weight:300;font-stretch:normal;font-size:80px;line-height:1.25;font-family:'Roboto Mono';-inkscape-font-specification:'Roboto Mono Light';letter-spacing:0px;word-spacing:16px;fill:#000000;fill-opacity:1;stroke:none"
       xml:space="preserve"><tspan
         id="tspan891"
         y="46.960693"
         x="151.01172"
         sodipodi:role="line">А Б В Ґ Д Ы Ж</tspan><tspan
         id="tspan893"
         y="146.96069"
         x="151.01172"
         sodipodi:role="line">З Є Й К Л М Н</tspan><tspan
         id="tspan895"
         y="246.96069"
         x="151.01172"
         sodipodi:role="line">О П Р С Т И Ф</tspan><tspan
         id="tspan897"
         y="346.96069"
         x="151.01172"
         sodipodi:role="line">Х Ц Ч Ш Щ Ъ Ў</tspan><tspan
         id="tspan899"
         y="446.96069"
         x="151.01172"
         sodipodi:role="line">Ь Я Э Ю</tspan></text>
    <text
       id="text905"
       y="-69.453003"
       x="224.42188"
       style="font-style:normal;font-variant:normal;font-weight:300;font-stretch:normal;font-size:80px;line-height:1.25;font-family:'Roboto Mono';-inkscape-font-specification:'Roboto Mono weight=251';letter-spacing:0px;word-spacing:16px;fill:#000000;fill-opacity:1;stroke:none"
       xml:space="preserve"><tspan
         y="-69.453003"
         x="224.42188"
         id="tspan903"
         sodipodi:role="line">НЄЗКОҐОРСКЄЙ</tspan></text>
    <text
       xml:space="preserve"
       style="font-style:normal;font-variant:normal;font-weight:300;font-stretch:normal;font-size:80px;line-height:1.25;font-family:'Roboto Mono';-inkscape-font-specification:'Roboto Mono weight=251';letter-spacing:0px;word-spacing:16px;fill:#000000;fill-opacity:1;stroke:none"
       x="344.01172"
       y="550.30872"
       id="text909"><tspan
         sodipodi:role="line"
         id="tspan907"
         x="344.01172"
         y="550.30872">АЛФАВЄТ</tspan></text>
    <path
       style="font-style:normal;font-variant:normal;font-weight:300;font-stretch:normal;font-size:80px;line-height:1.25;font-family:'Roboto Mono';-inkscape-font-specification:'Roboto Mono Light';letter-spacing:0px;word-spacing:16px;fill:#ffbf00;fill-opacity:1;stroke:none"
       d="M 524.67578 148.25781 L 524.67578 162.08594 L 494.44141 162.08594 L 494.44141 218.96094 L 499.12891 218.96094 L 499.12891 166.07031 L 529.36328 166.07031 L 529.36328 148.25781 L 524.67578 148.25781 z M 173.47266 162.08594 L 154.95703 218.96094 L 159.68359 218.96094 L 164.72266 203.10156 L 186.36328 203.10156 L 191.36328 218.96094 L 196.05078 218.96094 L 177.69141 162.08594 L 173.47266 162.08594 z M 269.86328 162.08594 L 269.86328 218.96094 L 286.23047 218.96094 C 288.91276 218.96094 291.34766 218.58333 293.53516 217.82812 C 295.72266 217.07292 297.59766 216.00521 299.16016 214.625 C 300.72266 213.21875 301.92057 211.52604 302.75391 209.54688 C 303.61328 207.54167 304.04297 205.30208 304.04297 202.82812 C 304.04297 200.32812 303.61328 198.10156 302.75391 196.14844 C 301.92057 194.16927 300.72266 192.5026 299.16016 191.14844 C 297.59766 189.76823 295.72266 188.71354 293.53516 187.98438 C 291.34766 187.25521 288.91276 186.8776 286.23047 186.85156 L 274.55078 186.85156 L 274.55078 166.07031 L 304.00391 166.07031 L 304.00391 162.08594 L 269.86328 162.08594 z M 382.46484 162.08594 L 382.46484 218.96094 L 400.35547 218.96094 C 402.69922 218.9349 404.9388 218.55729 407.07422 217.82812 C 409.23568 217.09896 411.13672 216.05729 412.77734 214.70312 C 414.41797 213.32292 415.72005 211.65625 416.68359 209.70312 C 417.64714 207.72396 418.11589 205.47135 418.08984 202.94531 C 418.08984 201.20052 417.79036 199.57292 417.19141 198.0625 C 416.61849 196.55208 415.82422 195.21094 414.80859 194.03906 C 413.79297 192.84115 412.58203 191.83854 411.17578 191.03125 C 409.79557 190.22396 408.28516 189.625 406.64453 189.23438 C 407.97266 188.73958 409.20964 188.1276 410.35547 187.39844 C 411.5013 186.64323 412.49089 185.77083 413.32422 184.78125 C 414.18359 183.76563 414.86068 182.61979 415.35547 181.34375 C 415.85026 180.04167 416.09766 178.58333 416.09766 176.96875 C 416.1237 174.39062 415.61589 172.17708 414.57422 170.32812 C 413.55859 168.45312 412.20443 166.91667 410.51172 165.71875 C 408.81901 164.49479 406.87891 163.59635 404.69141 163.02344 C 402.52995 162.42448 400.30339 162.11198 398.01172 162.08594 L 382.46484 162.08594 z M 614.23047 162.08594 L 613.25391 182.55469 C 613.1237 186.46094 612.88932 190.17188 612.55078 193.6875 C 612.21224 197.17708 611.71745 200.35417 611.06641 203.21875 C 610.44141 206.05729 609.63411 208.49219 608.64453 210.52344 C 607.65495 212.55469 606.43099 214.05208 604.97266 215.01562 L 602.55078 215.01562 L 603.05859 232.75 L 607.12109 232.75 L 607.12109 218.96094 L 637.58984 218.96094 L 637.58984 232.75 L 641.80859 232.75 L 642.16016 215.01562 L 637.94141 215.01562 L 637.94141 162.08594 L 614.23047 162.08594 z M 717.26172 162.08594 L 717.26172 218.96094 L 727.80859 218.96094 C 730.25651 218.9349 732.39193 218.50521 734.21484 217.67188 C 736.0638 216.8125 737.58724 215.66667 738.78516 214.23438 C 740.00911 212.77604 740.92057 211.07031 741.51953 209.11719 C 742.11849 207.16406 742.41797 205.06771 742.41797 202.82812 C 742.41797 200.58854 742.11849 198.50521 741.51953 196.57812 C 740.92057 194.65104 740.00911 192.97135 738.78516 191.53906 C 737.58724 190.10677 736.0638 188.97396 734.21484 188.14062 C 732.39193 187.30729 730.25651 186.8776 727.80859 186.85156 L 721.83203 186.85156 L 721.83203 162.08594 L 717.26172 162.08594 z M 748.19922 162.08594 L 748.19922 218.96094 L 752.76953 218.96094 L 752.76953 162.08594 L 748.19922 162.08594 z M 825.56641 162.08594 L 837.08984 190.44531 L 824.35547 218.96094 L 829.98047 218.96094 L 841.30859 192.16406 L 844.39453 192.16406 L 844.39453 218.96094 L 848.92578 218.96094 L 848.92578 192.16406 L 851.85547 192.16406 L 863.18359 218.96094 L 868.80859 218.96094 L 856.07422 190.44531 L 867.59766 162.08594 L 862.24609 162.08594 L 852.24609 188.17969 L 848.92578 188.17969 L 848.92578 162.08594 L 844.39453 162.08594 L 844.39453 188.17969 L 840.91797 188.17969 L 830.87891 162.08594 L 825.56641 162.08594 z M 618.60547 166.07031 L 633.33203 166.07031 L 633.33203 215.01562 L 611.22266 215.01562 C 612.47266 213.21875 613.5013 211.01823 614.30859 208.41406 C 615.11589 205.78385 615.76693 202.9974 616.26172 200.05469 C 616.78255 197.11198 617.16016 194.13021 617.39453 191.10938 C 617.65495 188.0625 617.83724 185.21094 617.94141 182.55469 L 618.60547 166.07031 z M 387.15234 166.1875 L 398.12891 166.1875 C 399.79557 166.21354 401.42318 166.4349 403.01172 166.85156 C 404.60026 167.24219 406.01953 167.86719 407.26953 168.72656 C 408.51953 169.5599 409.52214 170.65365 410.27734 172.00781 C 411.03255 173.33594 411.41016 174.95052 411.41016 176.85156 C 411.41016 178.67448 411.04557 180.25 410.31641 181.57812 C 409.58724 182.90625 408.6237 184.01302 407.42578 184.89844 C 406.25391 185.78385 404.89974 186.44792 403.36328 186.89062 C 401.82682 187.33333 400.23828 187.56771 398.59766 187.59375 L 387.15234 187.59375 L 387.15234 166.1875 z M 175.58203 169 L 185.03516 198.92188 L 166.05078 198.92188 L 175.58203 169 z M 274.55078 190.83594 L 286.23047 190.83594 C 288.23568 190.86198 290.04557 191.16146 291.66016 191.73438 C 293.30078 192.30729 294.68099 193.11458 295.80078 194.15625 C 296.94661 195.17188 297.81901 196.40885 298.41797 197.86719 C 299.04297 199.32552 299.35547 200.95312 299.35547 202.75 C 299.35547 204.57292 299.04297 206.23958 298.41797 207.75 C 297.81901 209.23438 296.94661 210.52344 295.80078 211.61719 C 294.68099 212.6849 293.3138 213.51823 291.69922 214.11719 C 290.08464 214.6901 288.26172 214.98958 286.23047 215.01562 L 274.55078 215.01562 L 274.55078 190.83594 z M 721.83203 190.83594 L 727.80859 190.83594 C 729.57943 190.86198 731.08984 191.20052 732.33984 191.85156 C 733.58984 192.5026 734.60547 193.375 735.38672 194.46875 C 736.19401 195.5625 736.77995 196.82552 737.14453 198.25781 C 737.50911 199.6901 737.69141 201.1875 737.69141 202.75 C 737.69141 204.33854 737.50911 205.875 737.14453 207.35938 C 736.80599 208.81771 736.24609 210.11979 735.46484 211.26562 C 734.68359 212.38542 733.65495 213.28385 732.37891 213.96094 C 731.12891 214.63802 729.60547 214.98958 727.80859 215.01562 L 721.83203 215.01562 L 721.83203 190.83594 z M 387.15234 191.61719 L 400.82422 191.61719 C 402.49089 191.66927 404.07943 191.95573 405.58984 192.47656 C 407.1263 192.9974 408.46745 193.73958 409.61328 194.70312 C 410.78516 195.66667 411.69661 196.85156 412.34766 198.25781 C 413.02474 199.63802 413.36328 201.22656 413.36328 203.02344 C 413.36328 204.8724 413.01172 206.52604 412.30859 207.98438 C 411.63151 209.41667 410.69401 210.64062 409.49609 211.65625 C 408.32422 212.67187 406.95703 213.46615 405.39453 214.03906 C 403.83203 214.58594 402.19141 214.8724 400.47266 214.89844 L 387.15234 214.89844 L 387.15234 191.61719 z M 387.19141 247.4375 C 387.24349 248.97396 387.54297 250.36719 388.08984 251.61719 C 388.66276 252.84115 389.44401 253.89583 390.43359 254.78125 C 391.44922 255.64062 392.63411 256.30469 393.98828 256.77344 C 395.36849 257.24219 396.87891 257.47656 398.51953 257.47656 C 400.16016 257.47656 401.65755 257.24219 403.01172 256.77344 C 404.36589 256.30469 405.53776 255.64062 406.52734 254.78125 C 407.51693 253.89583 408.28516 252.84115 408.83203 251.61719 C 409.40495 250.36719 409.71745 248.97396 409.76953 247.4375 L 405.78516 247.4375 C 405.68099 249.49479 404.99089 251.1224 403.71484 252.32031 C 402.46484 253.51823 400.73307 254.11719 398.51953 254.11719 C 396.22786 254.11719 394.44401 253.53125 393.16797 252.35938 C 391.91797 251.16146 391.25391 249.52083 391.17578 247.4375 L 387.19141 247.4375 z M 174.56641 261.30469 C 172.09245 261.30469 169.72266 261.66927 167.45703 262.39844 C 165.19141 263.10156 163.1862 264.13021 161.44141 265.48438 C 159.72266 266.8125 158.32943 268.45312 157.26172 270.40625 C 156.19401 272.33333 155.63411 274.52083 155.58203 276.96875 L 160.26953 276.96875 C 160.32161 275.14583 160.73828 273.51823 161.51953 272.08594 C 162.32682 270.6276 163.38151 269.40365 164.68359 268.41406 C 166.01172 267.39844 167.52214 266.63021 169.21484 266.10938 C 170.93359 265.5625 172.71745 265.28906 174.56641 265.28906 C 176.67578 265.28906 178.64193 265.53646 180.46484 266.03125 C 182.28776 266.52604 183.86328 267.26823 185.19141 268.25781 C 186.51953 269.22135 187.5612 270.43229 188.31641 271.89062 C 189.09766 273.32292 189.48828 274.98958 189.48828 276.89062 C 189.48828 278.84375 189.09766 280.52344 188.31641 281.92969 C 187.5612 283.3099 186.51953 284.44271 185.19141 285.32812 C 183.86328 286.21354 182.30078 286.8776 180.50391 287.32031 C 178.73307 287.73698 176.81901 287.94531 174.76172 287.94531 L 167.57422 287.94531 L 167.57422 291.96875 L 174.76172 291.96875 C 176.89714 291.96875 178.90234 292.17708 180.77734 292.59375 C 182.67839 292.98438 184.33203 293.63542 185.73828 294.54688 C 187.17057 295.45833 188.30339 296.65625 189.13672 298.14062 C 189.97005 299.625 190.38672 301.47396 190.38672 303.6875 C 190.38672 305.71875 189.95703 307.48958 189.09766 309 C 188.26432 310.51042 187.11849 311.77344 185.66016 312.78906 C 184.22786 313.80469 182.54818 314.57292 180.62109 315.09375 C 178.72005 315.58854 176.70182 315.83594 174.56641 315.83594 C 172.53516 315.83594 170.60807 315.53646 168.78516 314.9375 C 166.98828 314.33854 165.39974 313.49219 164.01953 312.39844 C 162.66536 311.30469 161.58464 309.97656 160.77734 308.41406 C 159.97005 306.85156 159.54036 305.10677 159.48828 303.17969 L 154.80078 303.17969 C 154.85286 305.96615 155.4388 308.40104 156.55859 310.48438 C 157.70443 312.54167 159.1888 314.26042 161.01172 315.64062 C 162.86068 317.02083 164.95703 318.0625 167.30078 318.76562 C 169.64453 319.44271 172.06641 319.78125 174.56641 319.78125 C 177.27474 319.78125 179.86589 319.44271 182.33984 318.76562 C 184.8138 318.08854 186.98828 317.07292 188.86328 315.71875 C 190.73828 314.36458 192.23568 312.67188 193.35547 310.64062 C 194.5013 308.60938 195.07422 306.23958 195.07422 303.53125 C 195.07422 301.65625 194.78776 299.97656 194.21484 298.49219 C 193.66797 296.98177 192.88672 295.66667 191.87109 294.54688 C 190.88151 293.42708 189.68359 292.48958 188.27734 291.73438 C 186.87109 290.95312 185.33464 290.32812 183.66797 289.85938 C 185.17839 289.33854 186.57161 288.67448 187.84766 287.86719 C 189.1237 287.0599 190.23047 286.1224 191.16797 285.05469 C 192.10547 283.98698 192.83464 282.78906 193.35547 281.46094 C 193.90234 280.10677 194.17578 278.63542 194.17578 277.04688 C 194.17578 274.36458 193.65495 272.03385 192.61328 270.05469 C 191.59766 268.07552 190.20443 266.4349 188.43359 265.13281 C 186.66276 263.83073 184.57943 262.86719 182.18359 262.24219 C 179.78776 261.61719 177.2487 261.30469 174.56641 261.30469 z M 287.79297 261.30469 C 284.61589 261.30469 281.82943 261.98177 279.43359 263.33594 C 277.0638 264.66406 275.08464 266.44792 273.49609 268.6875 C 271.90755 270.90104 270.70964 273.45312 269.90234 276.34375 C 269.09505 279.23438 268.69141 282.24219 268.69141 285.36719 L 268.69141 295.67969 C 268.69141 298.80469 269.09505 301.8125 269.90234 304.70312 C 270.70964 307.59375 271.90755 310.15885 273.49609 312.39844 C 275.08464 314.61198 277.0638 316.39583 279.43359 317.75 C 281.82943 319.07812 284.61589 319.74219 287.79297 319.74219 C 290.63151 319.74219 293.15755 319.29948 295.37109 318.41406 C 297.61068 317.5026 299.52474 316.2526 301.11328 314.66406 C 302.70182 313.04948 303.95182 311.14844 304.86328 308.96094 C 305.80078 306.7474 306.38672 304.32552 306.62109 301.69531 L 301.97266 301.69531 C 301.6862 303.85677 301.20443 305.8099 300.52734 307.55469 C 299.85026 309.29948 298.9388 310.78385 297.79297 312.00781 C 296.67318 313.23177 295.27995 314.16927 293.61328 314.82031 C 291.97266 315.47135 290.03255 315.79688 287.79297 315.79688 C 285.26693 315.79688 283.09245 315.21094 281.26953 314.03906 C 279.47266 312.86719 277.98828 311.34375 276.81641 309.46875 C 275.64453 307.56771 274.77214 305.41927 274.19922 303.02344 C 273.6263 300.6276 273.33984 298.17969 273.33984 295.67969 L 273.33984 292.16406 L 295.72266 292.16406 L 295.72266 288.17969 L 273.33984 288.17969 L 273.33984 285.28906 C 273.33984 282.8151 273.6263 280.38021 274.19922 277.98438 C 274.77214 275.58854 275.64453 273.45312 276.81641 271.57812 C 277.98828 269.67708 279.47266 268.15365 281.26953 267.00781 C 283.09245 265.83594 285.26693 265.25 287.79297 265.25 C 290.00651 265.25 291.93359 265.58854 293.57422 266.26562 C 295.24089 266.94271 296.63411 267.90625 297.75391 269.15625 C 298.89974 270.40625 299.8112 271.90365 300.48828 273.64844 C 301.16536 275.39323 301.66016 277.33333 301.97266 279.46875 L 306.62109 279.46875 C 306.38672 276.73438 305.80078 274.2474 304.86328 272.00781 C 303.92578 269.76823 302.66276 267.85417 301.07422 266.26562 C 299.51172 264.67708 297.61068 263.45312 295.37109 262.59375 C 293.15755 261.73438 290.63151 261.30469 287.79297 261.30469 z M 381.56641 262.08594 L 381.56641 318.96094 L 386.17578 318.96094 L 411.60547 271.26562 L 411.56641 318.96094 L 416.17578 318.96094 L 416.17578 262.08594 L 411.56641 262.08594 L 386.13672 309.74219 L 386.17578 262.08594 L 381.56641 262.08594 z M 495.02734 262.08594 L 495.02734 318.96094 L 499.63672 318.96094 L 499.63672 292.20312 L 506.94141 292.20312 L 527.95703 318.96094 L 533.73828 318.96094 L 510.92578 290.05469 L 532.09766 262.08594 L 526.62891 262.08594 L 506.90234 288.25781 L 499.63672 288.25781 L 499.63672 262.08594 L 495.02734 262.08594 z M 611.45703 262.08594 L 610.67578 289.58594 C 610.64974 291.27865 610.57161 293.07552 610.44141 294.97656 C 610.33724 296.8776 610.15495 298.76562 609.89453 300.64062 C 609.63411 302.51562 609.28255 304.32552 608.83984 306.07031 C 608.42318 307.78906 607.90234 309.3125 607.27734 310.64062 C 606.65234 311.94271 605.91016 312.9974 605.05078 313.80469 C 604.19141 314.61198 603.20182 315.01562 602.08203 315.01562 L 600.67578 315.01562 L 600.67578 318.96094 L 602.23828 318.96094 C 603.98307 318.96094 605.50651 318.53125 606.80859 317.67188 C 608.11068 316.78646 609.24349 315.61458 610.20703 314.15625 C 611.17057 312.67188 611.96484 310.95312 612.58984 309 C 613.24089 307.04688 613.76172 304.98958 614.15234 302.82812 C 614.54297 300.64062 614.81641 298.41406 614.97266 296.14844 C 615.15495 293.88281 615.27214 291.69531 615.32422 289.58594 L 615.94922 266.07031 L 635.63672 266.07031 L 635.63672 318.96094 L 640.24609 318.96094 L 640.24609 262.08594 L 611.45703 262.08594 z M 717.22266 262.08594 L 717.22266 318.96094 L 721.79297 318.96094 L 721.79297 293.76562 L 721.40234 268.88281 L 733.12109 301.85156 L 736.16797 301.85156 L 748.78516 268.33594 L 748.43359 293.76562 L 748.43359 318.96094 L 753.00391 318.96094 L 753.00391 262.08594 L 746.87109 262.08594 L 734.68359 294.27344 L 723.23828 262.08594 L 717.22266 262.08594 z M 828.84766 262.08594 L 828.84766 318.96094 L 833.26172 318.96094 L 833.26172 291.69531 L 859.98047 291.69531 L 859.98047 318.96094 L 864.39453 318.96094 L 864.39453 262.08594 L 859.98047 262.08594 L 859.98047 287.63281 L 833.26172 287.63281 L 833.26172 262.08594 L 828.84766 262.08594 z M 174.95703 361.30469 C 172.69141 361.30469 170.64714 361.66927 168.82422 362.39844 C 167.02734 363.10156 165.42578 364.07812 164.01953 365.32812 C 162.61328 366.57813 161.38932 368.03646 160.34766 369.70312 C 159.33203 371.36979 158.4987 373.15365 157.84766 375.05469 C 157.19661 376.92969 156.70182 378.88281 156.36328 380.91406 C 156.05078 382.91927 155.88151 384.88542 155.85547 386.8125 L 155.85547 394.3125 C 155.88151 396.23958 156.05078 398.20573 156.36328 400.21094 C 156.70182 402.21615 157.19661 404.16927 157.84766 406.07031 C 158.52474 407.94531 159.37109 409.71615 160.38672 411.38281 C 161.42839 413.04948 162.65234 414.50781 164.05859 415.75781 C 165.49089 416.98177 167.11849 417.95833 168.94141 418.6875 C 170.76432 419.39062 172.79557 419.74219 175.03516 419.74219 C 177.30078 419.74219 179.34505 419.39062 181.16797 418.6875 C 182.99089 417.95833 184.59245 416.98177 185.97266 415.75781 C 187.37891 414.50781 188.58984 413.0625 189.60547 411.42188 C 190.62109 409.75521 191.45443 407.98438 192.10547 406.10938 C 192.78255 404.20833 193.27734 402.25521 193.58984 400.25 C 193.90234 398.21875 194.07161 396.23958 194.09766 394.3125 L 194.09766 386.8125 C 194.07161 384.85938 193.90234 382.88021 193.58984 380.875 C 193.27734 378.84375 192.78255 376.89062 192.10547 375.01562 C 191.45443 373.11458 190.62109 371.33073 189.60547 369.66406 C 188.58984 367.9974 187.36589 366.55208 185.93359 365.32812 C 184.52734 364.07812 182.91276 363.10156 181.08984 362.39844 C 179.26693 361.66927 177.22266 361.30469 174.95703 361.30469 z M 511.04297 361.30469 C 508.77734 361.30469 506.72005 361.65625 504.87109 362.35938 C 503.04818 363.03646 501.42057 363.98698 499.98828 365.21094 C 498.58203 366.40885 497.35807 367.8151 496.31641 369.42969 C 495.27474 371.04427 494.41536 372.78906 493.73828 374.66406 C 493.0612 376.51302 492.55339 378.4401 492.21484 380.44531 C 491.90234 382.45052 491.73307 384.44271 491.70703 386.42188 L 491.70703 394.66406 C 491.73307 396.64323 491.90234 398.63542 492.21484 400.64062 C 492.55339 402.64583 493.0612 404.58594 493.73828 406.46094 C 494.41536 408.3099 495.27474 410.04167 496.31641 411.65625 C 497.35807 413.27083 498.58203 414.67708 499.98828 415.875 C 501.42057 417.07292 503.04818 418.02344 504.87109 418.72656 C 506.72005 419.40365 508.77734 419.74219 511.04297 419.74219 C 513.7513 419.74219 516.1862 419.28646 518.34766 418.375 C 520.53516 417.46354 522.42318 416.20052 524.01172 414.58594 C 525.60026 412.94531 526.8763 411.03125 527.83984 408.84375 C 528.80339 406.63021 529.44141 404.2474 529.75391 401.69531 L 525.10547 401.69531 C 524.81901 403.67448 524.32422 405.52344 523.62109 407.24219 C 522.94401 408.96094 522.03255 410.45833 520.88672 411.73438 C 519.76693 413.01042 518.38672 414.01302 516.74609 414.74219 C 515.13151 415.44531 513.23047 415.79688 511.04297 415.79688 C 509.19401 415.79688 507.55339 415.48438 506.12109 414.85938 C 504.6888 414.23437 503.42578 413.40104 502.33203 412.35938 C 501.26432 411.29167 500.35286 410.06771 499.59766 408.6875 C 498.84245 407.28125 498.23047 405.79688 497.76172 404.23438 C 497.29297 402.67188 496.94141 401.07031 496.70703 399.42969 C 496.4987 397.78906 496.39453 396.20052 496.39453 394.66406 L 496.39453 386.34375 C 496.39453 384.80729 496.4987 383.23177 496.70703 381.61719 C 496.94141 379.97656 497.29297 378.375 497.76172 376.8125 C 498.23047 375.25 498.84245 373.77865 499.59766 372.39844 C 500.35286 370.99219 501.26432 369.76823 502.33203 368.72656 C 503.42578 367.6849 504.6888 366.85156 506.12109 366.22656 C 507.55339 365.60156 509.19401 365.28906 511.04297 365.28906 C 513.20443 365.28906 515.09245 365.66667 516.70703 366.42188 C 518.32161 367.15104 519.70182 368.16667 520.84766 369.46875 C 521.99349 370.74479 522.90495 372.24219 523.58203 373.96094 C 524.28516 375.67969 524.79297 377.51562 525.10547 379.46875 L 529.75391 379.46875 C 529.46745 376.86458 528.84245 374.45573 527.87891 372.24219 C 526.94141 370.02865 525.67839 368.11458 524.08984 366.5 C 522.5013 364.85938 520.61328 363.58333 518.42578 362.67188 C 516.26432 361.76042 513.80339 361.30469 511.04297 361.30469 z M 269.74609 362.08594 L 269.74609 418.96094 L 274.35547 418.96094 L 274.35547 366.07031 L 299.51172 366.07031 L 299.51172 418.96094 L 304.12109 418.96094 L 304.12109 362.08594 L 269.74609 362.08594 z M 383.32422 362.08594 L 383.32422 418.96094 L 388.01172 418.96094 L 388.01172 395.52344 L 401.21484 395.52344 C 403.6888 395.4974 406.01953 395.10677 408.20703 394.35156 C 410.39453 393.59635 412.29557 392.51562 413.91016 391.10938 C 415.55078 389.67708 416.83984 387.94531 417.77734 385.91406 C 418.71484 383.85677 419.18359 381.52604 419.18359 378.92188 C 419.18359 376.31771 418.71484 373.98698 417.77734 371.92969 C 416.83984 369.8724 415.55078 368.1276 413.91016 366.69531 C 412.29557 365.23698 410.39453 364.11719 408.20703 363.33594 C 406.04557 362.55469 403.71484 362.13802 401.21484 362.08594 L 383.32422 362.08594 z M 602.43359 362.08594 L 602.43359 366.1875 L 620.59766 366.1875 L 620.55859 418.96094 L 625.12891 418.96094 L 625.12891 366.1875 L 643.25391 366.1875 L 643.25391 362.08594 L 602.43359 362.08594 z M 717.37891 362.08594 L 717.37891 418.96094 L 721.98828 418.96094 L 747.41797 371.26562 L 747.37891 418.96094 L 751.98828 418.96094 L 751.98828 362.08594 L 747.37891 362.08594 L 721.94922 409.74219 L 721.98828 362.08594 L 717.37891 362.08594 z M 844.31641 362.08594 L 844.31641 369.82031 C 841.60807 369.95052 839.10807 370.5625 836.81641 371.65625 C 834.55078 372.72396 832.59766 374.18229 830.95703 376.03125 C 829.31641 377.85417 828.02734 380.0026 827.08984 382.47656 C 826.17839 384.92448 825.72266 387.58073 825.72266 390.44531 C 825.72266 393.33594 826.17839 396.01823 827.08984 398.49219 C 828.02734 400.9401 829.31641 403.07552 830.95703 404.89844 C 832.59766 406.72135 834.55078 408.17969 836.81641 409.27344 C 839.10807 410.34115 841.60807 410.9401 844.31641 411.07031 L 844.31641 418.96094 L 848.92578 418.96094 L 848.92578 411.07031 C 851.60807 410.9401 854.08203 410.32812 856.34766 409.23438 C 858.63932 408.14062 860.61849 406.68229 862.28516 404.85938 C 863.95182 403.01042 865.24089 400.86198 866.15234 398.41406 C 867.08984 395.9401 867.55859 393.25781 867.55859 390.36719 C 867.55859 387.5026 867.08984 384.84635 866.15234 382.39844 C 865.24089 379.92448 863.95182 377.78906 862.28516 375.99219 C 860.61849 374.16927 858.63932 372.72396 856.34766 371.65625 C 854.08203 370.5625 851.60807 369.95052 848.92578 369.82031 L 848.92578 362.08594 L 844.31641 362.08594 z M 174.95703 365.52344 C 176.77995 365.52344 178.40755 365.83594 179.83984 366.46094 C 181.27214 367.08594 182.52214 367.93229 183.58984 369 C 184.65755 370.06771 185.55599 371.31771 186.28516 372.75 C 187.04036 374.15625 187.65234 375.64062 188.12109 377.20312 C 188.58984 378.76562 188.92839 380.36719 189.13672 382.00781 C 189.34505 383.64844 189.46224 385.22396 189.48828 386.73438 L 189.48828 394.3125 C 189.46224 395.82292 189.34505 397.39844 189.13672 399.03906 C 188.95443 400.65365 188.62891 402.25521 188.16016 403.84375 C 187.71745 405.40625 187.11849 406.90365 186.36328 408.33594 C 185.63411 409.74219 184.73568 410.97917 183.66797 412.04688 C 182.60026 413.11458 181.35026 413.97396 179.91797 414.625 C 178.51172 415.25 176.88411 415.5625 175.03516 415.5625 C 173.21224 415.5625 171.58464 415.25 170.15234 414.625 C 168.72005 413.97396 167.47005 413.11458 166.40234 412.04688 C 165.33464 410.97917 164.42318 409.74219 163.66797 408.33594 C 162.9388 406.90365 162.33984 405.40625 161.87109 403.84375 C 161.40234 402.25521 161.05078 400.65365 160.81641 399.03906 C 160.60807 397.39844 160.49089 395.82292 160.46484 394.3125 L 160.46484 386.73438 C 160.49089 385.25 160.60807 383.6875 160.81641 382.04688 C 161.02474 380.40625 161.36328 378.80469 161.83203 377.24219 C 162.30078 375.67969 162.89974 374.19531 163.62891 372.78906 C 164.38411 371.35677 165.29557 370.10677 166.36328 369.03906 C 167.43099 367.97135 168.66797 367.125 170.07422 366.5 C 171.50651 365.84896 173.13411 365.52344 174.95703 365.52344 z M 388.01172 366.07031 L 401.21484 366.07031 C 403.11589 366.1224 404.8737 366.46094 406.48828 367.08594 C 408.10286 367.6849 409.50911 368.54427 410.70703 369.66406 C 411.90495 370.75781 412.84245 372.09896 413.51953 373.6875 C 414.19661 375.27604 414.53516 377.04688 414.53516 379 C 414.53516 380.95312 414.18359 382.69792 413.48047 384.23438 C 412.80339 385.77083 411.86589 387.07292 410.66797 388.14062 C 409.47005 389.20833 408.0638 390.04167 406.44922 390.64062 C 404.83464 391.23958 403.08984 391.55208 401.21484 391.57812 L 388.01172 391.57812 L 388.01172 366.07031 z M 844.31641 373.80469 L 844.31641 407.08594 C 842.15495 406.98177 840.21484 406.5 838.49609 405.64062 C 836.77734 404.75521 835.31901 403.58333 834.12109 402.125 C 832.92318 400.64062 831.9987 398.90885 831.34766 396.92969 C 830.69661 394.95052 830.37109 392.78906 830.37109 390.44531 C 830.37109 388.1276 830.69661 385.97917 831.34766 384 C 831.9987 382.02083 832.92318 380.30208 834.12109 378.84375 C 835.31901 377.35938 836.77734 376.1875 838.49609 375.32812 C 840.21484 374.44271 842.15495 373.9349 844.31641 373.80469 z M 848.92578 373.80469 C 851.0612 373.9349 852.98828 374.42969 854.70703 375.28906 C 856.45182 376.14844 857.92318 377.30729 859.12109 378.76562 C 860.34505 380.22396 861.28255 381.94271 861.93359 383.92188 C 862.58464 385.90104 862.91016 388.04948 862.91016 390.36719 C 862.91016 392.71094 862.58464 394.88542 861.93359 396.89062 C 861.28255 398.86979 860.34505 400.60156 859.12109 402.08594 C 857.92318 403.57031 856.45182 404.75521 854.70703 405.64062 C 852.98828 406.52604 851.0612 407.02083 848.92578 407.125 L 848.92578 373.80469 z M 836.81641 447.20312 C 836.86849 448.73958 837.16797 450.13281 837.71484 451.38281 C 838.28776 452.60677 839.06901 453.66146 840.05859 454.54688 C 841.07422 455.40625 842.25911 456.07031 843.61328 456.53906 C 844.99349 457.00781 846.50391 457.24219 848.14453 457.24219 C 849.78516 457.24219 851.28255 457.00781 852.63672 456.53906 C 853.99089 456.07031 855.16276 455.40625 856.15234 454.54688 C 857.14193 453.66146 857.91016 452.60677 858.45703 451.38281 C 859.02995 450.13281 859.34245 448.73958 859.39453 447.20312 L 855.41016 447.20312 C 855.30599 449.26042 854.61589 450.88802 853.33984 452.08594 C 852.08984 453.28385 850.35807 453.88281 848.14453 453.88281 C 845.85286 453.88281 844.06901 453.29688 842.79297 452.125 C 841.54297 450.92708 840.87891 449.28646 840.80078 447.20312 L 836.81641 447.20312 z M 155.73828 462.08594 L 172.88672 490.13281 L 155.19141 518.96094 L 160.69922 518.96094 L 175.66016 493.88281 L 190.58203 518.96094 L 196.05078 518.96094 L 178.35547 490.13281 L 195.50391 462.08594 L 189.99609 462.08594 L 175.58203 486.38281 L 161.24609 462.08594 L 155.73828 462.08594 z M 270.52734 462.08594 L 270.52734 518.96094 L 305.21484 518.96094 L 305.21484 532.67188 L 309.47266 532.67188 L 309.82422 514.9375 L 304.78516 514.9375 L 304.78516 462.08594 L 300.17578 462.08594 L 300.17578 514.9375 L 300.13672 514.9375 L 300.13672 515.01562 L 275.13672 515.01562 L 275.13672 462.08594 L 270.52734 462.08594 z M 382.66016 462.08594 L 382.62109 477.82812 C 382.67318 483.55729 384.0013 487.90625 386.60547 490.875 C 389.23568 493.81771 393.18099 495.28906 398.44141 495.28906 C 400.83724 495.28906 402.9987 495.08073 404.92578 494.66406 C 406.87891 494.2474 408.81901 493.72656 410.74609 493.10156 L 410.74609 518.96094 L 415.35547 518.96094 L 415.35547 462.08594 L 410.74609 462.08594 L 410.74609 489.11719 C 408.76693 489.74219 406.77474 490.27604 404.76953 490.71875 C 402.79036 491.13542 400.69401 491.33073 398.48047 491.30469 C 394.60026 491.30469 391.77474 490.1849 390.00391 487.94531 C 388.23307 485.67969 387.33464 482.30729 387.30859 477.82812 L 387.26953 462.08594 L 382.66016 462.08594 z M 492.09766 462.08594 L 492.09766 518.96094 L 529.55859 518.96094 L 529.55859 462.08594 L 525.02734 462.08594 L 525.02734 515.01562 L 513.11328 515.01562 L 513.11328 462.08594 L 508.58203 462.08594 L 508.58203 515.01562 L 496.66797 515.01562 L 496.66797 462.08594 L 492.09766 462.08594 z M 604.11328 462.08594 L 604.11328 518.96094 L 640.32422 518.96094 L 640.32422 532.67188 L 644.46484 532.67188 L 644.81641 514.97656 L 641.57422 514.97656 L 641.57422 462.08594 L 637.04297 462.08594 L 637.04297 514.97656 L 635.94922 514.97656 L 635.94922 515.01562 L 625.12891 515.01562 L 625.12891 462.08594 L 620.59766 462.08594 L 620.59766 515.01562 L 608.68359 515.01562 L 608.68359 462.08594 L 604.11328 462.08594 z M 712.49609 462.08594 L 712.49609 466.07031 L 726.83203 466.07031 L 726.83203 518.96094 L 739.56641 518.96094 C 742.14453 518.96094 744.42318 518.55729 746.40234 517.75 C 748.40755 516.91667 750.08724 515.78385 751.44141 514.35156 C 752.82161 512.91927 753.86328 511.22656 754.56641 509.27344 C 755.29557 507.29427 755.66016 505.14583 755.66016 502.82812 C 755.66016 500.51042 755.29557 498.375 754.56641 496.42188 C 753.86328 494.46875 752.82161 492.78906 751.44141 491.38281 C 750.08724 489.97656 748.40755 488.88281 746.40234 488.10156 C 744.42318 487.29427 742.14453 486.8776 739.56641 486.85156 L 731.40234 486.85156 L 731.40234 462.08594 L 712.49609 462.08594 z M 823.69141 462.08594 L 845.37109 504.03906 L 843.26172 508.21875 C 842.79297 509.15625 842.25911 510.08073 841.66016 510.99219 C 841.0612 511.90365 840.35807 512.72396 839.55078 513.45312 C 838.74349 514.15625 837.83203 514.72917 836.81641 515.17188 C 835.80078 515.61458 834.62891 515.83594 833.30078 515.83594 C 832.54557 515.83594 831.7513 515.75781 830.91797 515.60156 C 830.08464 515.44531 829.36849 515.30208 828.76953 515.17188 L 827.98828 518.88281 C 828.61328 519.09115 829.40755 519.28646 830.37109 519.46875 C 831.36068 519.67708 832.44141 519.78125 833.61328 519.78125 C 835.56641 519.78125 837.27214 519.49479 838.73047 518.92188 C 840.21484 518.34896 841.50391 517.58073 842.59766 516.61719 C 843.71745 515.6276 844.68099 514.50781 845.48828 513.25781 C 846.32161 511.98177 847.07682 510.65365 847.75391 509.27344 L 870.01953 462.08594 L 864.51172 462.08594 L 847.79297 499.11719 L 846.38672 495.64062 L 829.08203 462.08594 L 823.69141 462.08594 z M 731.40234 490.83594 L 739.56641 490.83594 C 741.46745 490.86198 743.13411 491.1875 744.56641 491.8125 C 745.9987 492.4375 747.18359 493.28385 748.12109 494.35156 C 749.08464 495.41927 749.80078 496.68229 750.26953 498.14062 C 750.73828 499.57292 750.97266 501.10938 750.97266 502.75 C 750.97266 504.41667 750.73828 505.99219 750.26953 507.47656 C 749.82682 508.96094 749.1237 510.26302 748.16016 511.38281 C 747.22266 512.47656 746.03776 513.34896 744.60547 514 C 743.17318 514.65104 741.49349 514.98958 739.56641 515.01562 L 731.40234 515.01562 L 731.40234 490.83594 z M 398.28516 561.30469 C 395.4987 561.30469 392.9987 561.78646 390.78516 562.75 C 388.57161 563.6875 386.68359 564.98958 385.12109 566.65625 C 383.55859 568.32292 382.32161 570.28906 381.41016 572.55469 C 380.52474 574.82031 380.02995 577.25521 379.92578 579.85938 L 384.53516 579.85938 C 384.71745 577.72396 385.12109 575.75781 385.74609 573.96094 C 386.39714 572.16406 387.28255 570.6276 388.40234 569.35156 C 389.54818 568.04948 390.94141 567.04688 392.58203 566.34375 C 394.22266 565.61458 396.1237 565.25 398.28516 565.25 C 399.95182 565.25 401.47526 565.52344 402.85547 566.07031 C 404.23568 566.59115 405.45964 567.32031 406.52734 568.25781 C 407.59505 569.16927 408.51953 570.25 409.30078 571.5 C 410.10807 572.75 410.77214 574.11719 411.29297 575.60156 C 411.8138 577.0599 412.19141 578.60938 412.42578 580.25 C 412.6862 581.86458 412.82943 583.49219 412.85547 585.13281 L 412.85547 588.41406 L 392.30859 588.41406 L 392.30859 592.35938 L 412.85547 592.35938 L 412.85547 595.91406 C 412.82943 597.55469 412.6862 599.19531 412.42578 600.83594 C 412.19141 602.45052 411.8138 604 411.29297 605.48438 C 410.77214 606.94271 410.10807 608.29688 409.30078 609.54688 C 408.51953 610.79688 407.59505 611.89062 406.52734 612.82812 C 405.45964 613.73958 404.23568 614.46875 402.85547 615.01562 C 401.47526 615.53646 399.95182 615.79688 398.28516 615.79688 C 396.09766 615.79688 394.18359 615.44531 392.54297 614.74219 C 390.90234 614.01302 389.52214 613.01042 388.40234 611.73438 C 387.28255 610.43229 386.39714 608.89583 385.74609 607.125 C 385.12109 605.32812 384.71745 603.34896 384.53516 601.1875 L 379.92578 601.1875 C 380.02995 603.92188 380.52474 606.42188 381.41016 608.6875 C 382.29557 610.95312 383.51953 612.90625 385.08203 614.54688 C 386.64453 616.1875 388.53255 617.46354 390.74609 618.375 C 392.98568 619.28646 395.4987 619.74219 398.28516 619.74219 C 400.39453 619.74219 402.33464 619.44271 404.10547 618.84375 C 405.90234 618.21875 407.50391 617.3724 408.91016 616.30469 C 410.34245 615.21094 411.59245 613.92188 412.66016 612.4375 C 413.72786 610.95312 414.61328 609.32552 415.31641 607.55469 C 416.04557 605.78385 416.59245 603.90885 416.95703 601.92969 C 417.32161 599.95052 417.50391 597.93229 417.50391 595.875 L 417.50391 585.17188 C 417.50391 583.11458 417.32161 581.09635 416.95703 579.11719 C 416.59245 577.13802 416.04557 575.26302 415.31641 573.49219 C 414.61328 571.72135 413.72786 570.09375 412.66016 568.60938 C 411.59245 567.09896 410.34245 565.8099 408.91016 564.74219 C 407.50391 563.64844 405.90234 562.80208 404.10547 562.20312 C 402.33464 561.60417 400.39453 561.30469 398.28516 561.30469 z M 516.31641 561.30469 C 514.57161 561.30469 513.02214 561.61719 511.66797 562.24219 C 510.3138 562.86719 509.12891 563.73958 508.11328 564.85938 C 507.09766 565.95312 506.22526 567.24219 505.49609 568.72656 C 504.79297 570.1849 504.22005 571.77344 503.77734 573.49219 C 503.33464 575.1849 503.00911 576.95573 502.80078 578.80469 C 502.61849 580.65365 502.52734 582.48958 502.52734 584.3125 L 502.52734 588.21875 L 496.51172 588.21875 L 496.51172 562.08594 L 491.94141 562.08594 L 491.94141 618.96094 L 496.51172 618.96094 L 496.51172 592.16406 L 502.52734 592.16406 L 502.52734 596.77344 C 502.52734 599.50781 502.76172 602.24219 503.23047 604.97656 C 503.69922 607.71094 504.46745 610.17188 505.53516 612.35938 C 506.62891 614.54688 508.0612 616.33073 509.83203 617.71094 C 511.60286 619.0651 513.77734 619.74219 516.35547 619.74219 C 519.01172 619.74219 521.23828 619.0651 523.03516 617.71094 C 524.85807 616.33073 526.31641 614.54688 527.41016 612.35938 C 528.52995 610.17188 529.33724 607.71094 529.83203 604.97656 C 530.32682 602.24219 530.57422 599.50781 530.57422 596.77344 L 530.57422 584.3125 C 530.57422 582.48958 530.45703 580.65365 530.22266 578.80469 C 530.01432 576.95573 529.67578 575.1849 529.20703 573.49219 C 528.73828 571.77344 528.13932 570.1849 527.41016 568.72656 C 526.68099 567.24219 525.78255 565.95312 524.71484 564.85938 C 523.67318 563.73958 522.44922 562.86719 521.04297 562.24219 C 519.66276 561.61719 518.08724 561.30469 516.31641 561.30469 z M 158.98047 562.08594 L 158.98047 618.96094 L 175.30859 618.96094 C 177.99089 618.96094 180.42578 618.58333 182.61328 617.82812 C 184.80078 617.07292 186.67578 616.00521 188.23828 614.625 C 189.80078 613.21875 190.9987 611.52604 191.83203 609.54688 C 192.69141 607.54167 193.12109 605.30208 193.12109 602.82812 C 193.12109 600.32812 192.69141 598.10156 191.83203 596.14844 C 190.9987 594.16927 189.80078 592.5026 188.23828 591.14844 C 186.67578 589.76823 184.80078 588.71354 182.61328 587.98438 C 180.42578 587.25521 177.99089 586.8776 175.30859 586.85156 L 163.62891 586.85156 L 163.62891 562.08594 L 158.98047 562.08594 z M 286.81641 562.08594 C 284.00391 562.11198 281.42578 562.5026 279.08203 563.25781 C 276.76432 564.01302 274.77214 565.10677 273.10547 566.53906 C 271.46484 567.97135 270.1888 569.72917 269.27734 571.8125 C 268.39193 573.86979 267.94922 576.22656 267.94922 578.88281 C 267.94922 582.5026 268.92578 585.57552 270.87891 588.10156 C 272.83203 590.60156 275.59245 592.47656 279.16016 593.72656 L 265.91797 618.96094 L 270.95703 618.96094 L 283.18359 595.01562 L 298.65234 595.01562 L 298.65234 618.96094 L 303.33984 618.96094 L 303.33984 562.08594 L 286.81641 562.08594 z M 516.31641 565.40625 C 518.26953 565.40625 519.87109 565.97917 521.12109 567.125 C 522.37109 568.27083 523.34766 569.75521 524.05078 571.57812 C 524.75391 573.40104 525.23568 575.43229 525.49609 577.67188 C 525.75651 579.88542 525.88672 582.07292 525.88672 584.23438 L 525.88672 596.77344 C 525.88672 598.23177 525.83464 599.70312 525.73047 601.1875 C 525.6263 602.67188 525.43099 604.11719 525.14453 605.52344 C 524.88411 606.92969 524.51953 608.25781 524.05078 609.50781 C 523.60807 610.73177 523.03516 611.79948 522.33203 612.71094 C 521.62891 613.6224 520.78255 614.35156 519.79297 614.89844 C 518.80339 615.41927 517.65755 615.67969 516.35547 615.67969 C 515.07943 615.67969 513.97266 615.41927 513.03516 614.89844 C 512.09766 614.35156 511.29036 613.6224 510.61328 612.71094 C 509.9362 611.79948 509.3763 610.73177 508.93359 609.50781 C 508.49089 608.25781 508.13932 606.92969 507.87891 605.52344 C 507.61849 604.11719 507.4362 602.67188 507.33203 601.1875 C 507.22786 599.70312 507.17578 598.23177 507.17578 596.77344 L 507.17578 584.23438 C 507.17578 582.80208 507.22786 581.34375 507.33203 579.85938 C 507.4362 578.34896 507.61849 576.90365 507.87891 575.52344 C 508.13932 574.11719 508.47786 572.80208 508.89453 571.57812 C 509.33724 570.35417 509.89714 569.28646 510.57422 568.375 C 511.2513 567.46354 512.05859 566.7474 512.99609 566.22656 C 513.93359 565.67969 515.04036 565.40625 516.31641 565.40625 z M 286.81641 566.07031 L 298.65234 566.07031 L 298.65234 590.99219 L 285.56641 590.99219 C 283.5612 590.96615 281.7513 590.65365 280.13672 590.05469 C 278.54818 589.42969 277.19401 588.58333 276.07422 587.51562 C 274.95443 586.44792 274.09505 585.17188 273.49609 583.6875 C 272.89714 582.20312 272.59766 580.57552 272.59766 578.80469 C 272.59766 576.79948 272.92318 575.01562 273.57422 573.45312 C 274.2513 571.89062 275.20182 570.5625 276.42578 569.46875 C 277.64974 568.375 279.13411 567.54167 280.87891 566.96875 C 282.64974 566.39583 284.62891 566.09635 286.81641 566.07031 z M 163.62891 590.83594 L 175.30859 590.83594 C 177.3138 590.86198 179.1237 591.16146 180.73828 591.73438 C 182.37891 592.30729 183.75911 593.11458 184.87891 594.15625 C 186.02474 595.17188 186.89714 596.40885 187.49609 597.86719 C 188.12109 599.32552 188.43359 600.95312 188.43359 602.75 C 188.43359 604.57292 188.12109 606.23958 187.49609 607.75 C 186.89714 609.23438 186.02474 610.52344 184.87891 611.61719 C 183.75911 612.6849 182.39193 613.51823 180.77734 614.11719 C 179.16276 614.6901 177.33984 614.98958 175.30859 615.01562 L 163.62891 615.01562 L 163.62891 590.83594 z "
       transform="translate(0,587.99998)"
       id="text836" />
  </g>
</svg>
