<?xml version="1.0" encoding="UTF-8" standalone="no"?>
<!-- Created with Inkscape (http://www.inkscape.org/) -->

<svg
   xmlns:dc="http://purl.org/dc/elements/1.1/"
   xmlns:cc="http://creativecommons.org/ns#"
   xmlns:rdf="http://www.w3.org/1999/02/22-rdf-syntax-ns#"
   xmlns:svg="http://www.w3.org/2000/svg"
   xmlns="http://www.w3.org/2000/svg"
   xmlns:sodipodi="http://sodipodi.sourceforge.net/DTD/sodipodi-0.dtd"
   xmlns:inkscape="http://www.inkscape.org/namespaces/inkscape"
   width="1024"
   height="768"
   viewBox="0 0 1024 768"
   version="1.1"
   id="svg8"
   inkscape:version="0.92.4 (5da689c313, 2019-01-14)"
   sodipodi:docname="Alphabet.svg"
   inkscape:export-filename="F:\Низкогория\Alphabet.png"
   inkscape:export-xdpi="96"
   inkscape:export-ydpi="96">
  <defs
     id="defs2" />
  <sodipodi:namedview
     id="base"
     pagecolor="#ffffff"
     bordercolor="#666666"
     borderopacity="1.0"
     inkscape:pageopacity="0.0"
     inkscape:pageshadow="2"
     inkscape:zoom="0.5"
     inkscape:cx="440.87602"
     inkscape:cy="409.64889"
     inkscape:document-units="px"
     inkscape:current-layer="layer1"
     showgrid="false"
     units="px"
     inkscape:window-width="1366"
     inkscape:window-height="706"
     inkscape:window-x="-8"
     inkscape:window-y="-8"
     inkscape:window-maximized="1"
     inkscape:snap-bbox="true"
     inkscape:bbox-paths="true"
     inkscape:bbox-nodes="true"
     inkscape:snap-bbox-edge-midpoints="true"
     inkscape:snap-bbox-midpoints="true"
     inkscape:object-paths="true"
     inkscape:snap-smooth-nodes="true"
     inkscape:snap-page="true"
     inkscape:snap-object-midpoints="true"
     inkscape:snap-center="true"
     showguides="true"
     inkscape:guide-bbox="true" />
  <metadata
     id="metadata5">
    <rdf:RDF>
      <cc:Work
         rdf:about="">
        <dc:format>image/svg+xml</dc:format>
        <dc:type
           rdf:resource="http://purl.org/dc/dcmitype/StillImage" />
        <dc:title />
      </cc:Work>
    </rdf:RDF>
  </metadata>
  <g
     inkscape:label="Layer 1"
     inkscape:groupmode="layer"
     id="layer1"
     transform="translate(0,-587.99998)">
    <rect
       style="opacity:1;fill:#ffffff;fill-opacity:1;stroke:none;stroke-width:6;stroke-linecap:round;stroke-linejoin:round;stroke-miterlimit:4;stroke-dasharray:none;stroke-dashoffset:0;stroke-opacity:1;paint-order:normal"
       id="rect831"
       width="1024"
       height="768"
       x="0"
       y="588" />
    <rect
       y="588"
       x="0"
       height="768"
       width="1024"
       id="rect824"
       style="opacity:0.125;fill:#000000;fill-opacity:0.25;stroke:none;stroke-width:6;stroke-linecap:round;stroke-linejoin:round;stroke-miterlimit:4;stroke-dasharray:none;stroke-dashoffset:0;stroke-opacity:1;paint-order:normal" />
    <text
       id="text901"
       y="46.960693"
       x="151.01172"
       style="font-style:normal;font-variant:normal;font-weight:300;font-stretch:normal;font-size:80px;line-height:1.25;font-family:'Roboto Mono';-inkscape-font-specification:'Roboto Mono Light';letter-spacing:0px;word-spacing:16px;fill:#000000;fill-opacity:1;stroke:none"
       xml:space="preserve"><tspan
         id="tspan891"
         y="46.960693"
         x="151.01172"
         sodipodi:role="line">А Б В Ґ Д Є Ж</tspan><tspan
         id="tspan893"
         y="146.96069"
         x="151.01172"
         sodipodi:role="line">З И Й К Л М Н</tspan><tspan
         id="tspan895"
         y="246.96069"
         x="151.01172"
         sodipodi:role="line">О П Р С Т Ў Ф</tspan><tspan
         id="tspan897"
         y="346.96069"
         x="151.01172"
         sodipodi:role="line">Х Ц Ч Ш Щ Ъ Ы</tspan><tspan
         id="tspan899"
         y="446.96069"
         x="151.01172"
         sodipodi:role="line">Ь Э Ю Я</tspan></text>
    <text
       id="text905"
       y="-69.453003"
       x="224.42188"
       style="font-style:normal;font-variant:normal;font-weight:300;font-stretch:normal;font-size:80px;line-height:1.25;font-family:'Roboto Mono';-inkscape-font-specification:'Roboto Mono weight=251';letter-spacing:0px;word-spacing:16px;fill:#000000;fill-opacity:1;stroke:none"
       xml:space="preserve"><tspan
         y="-69.453003"
         x="224.42188"
         id="tspan903"
         sodipodi:role="line">НИЗКОҐОРСКИЙ</tspan></text>
    <text
       xml:space="preserve"
       style="font-style:normal;font-variant:normal;font-weight:300;font-stretch:normal;font-size:80px;line-height:1.25;font-family:'Roboto Mono';-inkscape-font-specification:'Roboto Mono weight=251';letter-spacing:0px;word-spacing:16px;fill:#000000;fill-opacity:1;stroke:none"
       x="344.01172"
       y="550.30872"
       id="text909"><tspan
         sodipodi:role="line"
         id="tspan907"
         x="344.01172"
         y="550.30872">АЛФАВИТ</tspan></text>
    <path
       style="font-style:normal;font-variant:normal;font-weight:300;font-stretch:normal;font-size:80px;line-height:1.25;font-family:'Roboto Mono';-inkscape-font-specification:'Roboto Mono Light';letter-spacing:0px;word-spacing:16px;fill:#800080;fill-opacity:1;stroke:none"
       d="m 764.38281,619.02342 c 0.0521,1.53646 0.35156,2.92969 0.89844,4.17969 0.57292,1.22395 1.35417,2.27864 2.34375,3.16406 1.01562,0.85937 2.20052,1.52344 3.55469,1.99219 1.38021,0.46875 2.89062,0.70312 4.53125,0.70312 1.64062,0 3.13802,-0.23437 4.49218,-0.70312 1.35417,-0.46875 2.52605,-1.13282 3.51563,-1.99219 0.98958,-0.88542 1.75781,-1.94011 2.30469,-3.16406 0.57291,-1.25 0.88541,-2.64323 0.9375,-4.17969 h -3.98438 c -0.10416,2.05729 -0.79427,3.68489 -2.07031,4.88281 -1.25,1.19792 -2.98177,1.79688 -5.19531,1.79688 -2.29167,0 -4.07552,-0.58594 -5.35157,-1.75782 -1.25,-1.19791 -1.91406,-2.83854 -1.99218,-4.92187 z m -262.26562,0.82031 v 13.82813 h -30.23438 v 56.875 h 4.6875 v -52.89063 h 30.23438 v -17.8125 z m -158.20313,13.04688 c -2.47396,0 -4.84375,0.36458 -7.10937,1.09375 -2.26563,0.70312 -4.27084,1.73177 -6.01563,3.08593 -1.71875,1.32813 -3.11198,2.96875 -4.17968,4.92188 -1.06771,1.92708 -1.62761,4.11458 -1.67969,6.5625 h 4.6875 c 0.0521,-1.82292 0.46875,-3.45052 1.25,-4.88281 0.80729,-1.45834 1.86198,-2.6823 3.16406,-3.67188 1.32813,-1.01562 2.83854,-1.78385 4.53125,-2.30469 1.71875,-0.54687 3.5026,-0.82031 5.35156,-0.82031 2.10938,0 4.07552,0.2474 5.89844,0.74219 1.82292,0.49479 3.39844,1.23698 4.72656,2.22656 1.32813,0.96354 2.36979,2.17448 3.125,3.63281 0.78125,1.43229 1.17188,3.09896 1.17188,5 0,1.95313 -0.39063,3.63282 -1.17188,5.03907 -0.75521,1.3802 -1.79687,2.51302 -3.125,3.39843 -1.32812,0.88542 -2.89062,1.54948 -4.6875,1.99219 -1.77083,0.41667 -3.68489,0.625 -5.74218,0.625 h -7.1875 v 4.02344 h 7.1875 c 2.13541,0 4.14062,0.20833 6.01562,0.625 1.90104,0.39062 3.55469,1.04166 4.96094,1.95312 1.43229,0.91146 2.5651,2.10938 3.39844,3.59375 0.83333,1.48438 1.25,3.33334 1.25,5.54688 0,2.03125 -0.42969,3.80208 -1.28907,5.3125 -0.83333,1.51041 -1.97916,2.77344 -3.4375,3.78906 -1.43229,1.01563 -3.11198,1.78385 -5.03906,2.30469 -1.90104,0.49479 -3.91927,0.74219 -6.05469,0.74219 -2.03125,0 -3.95833,-0.29948 -5.78125,-0.89844 -1.79687,-0.59896 -3.38541,-1.44531 -4.76562,-2.53906 -1.35417,-1.09375 -2.4349,-2.42188 -3.24219,-3.98438 -0.80729,-1.5625 -1.23698,-3.30729 -1.28906,-5.23437 h -4.6875 c 0.0521,2.78645 0.63802,5.22135 1.75781,7.30468 1.14583,2.05729 2.63021,3.77604 4.45313,5.15625 1.84895,1.38021 3.94531,2.42188 6.28906,3.125 2.34375,0.67709 4.76562,1.01563 7.26562,1.01563 2.70834,0 5.29948,-0.33854 7.77344,-1.01563 2.47396,-0.67708 4.64844,-1.69271 6.52344,-3.04687 1.875,-1.35417 3.37239,-3.04688 4.49218,-5.07813 1.14584,-2.03125 1.71876,-4.40104 1.71876,-7.10937 0,-1.875 -0.28646,-3.55469 -0.85938,-5.03906 -0.54688,-1.51042 -1.32812,-2.82553 -2.34375,-3.94532 -0.98958,-1.11979 -2.1875,-2.05729 -3.59375,-2.8125 -1.40625,-0.78125 -2.94271,-1.40625 -4.60938,-1.875 1.51042,-0.52083 2.90365,-1.18489 4.17969,-1.99218 1.27604,-0.8073 2.38281,-1.7448 3.32031,-2.8125 0.9375,-1.06771 1.66667,-2.26563 2.1875,-3.59375 0.54688,-1.35417 0.82032,-2.82553 0.82032,-4.41407 0,-2.68229 -0.52084,-5.01302 -1.5625,-6.99218 -1.01563,-1.97917 -2.40886,-3.6198 -4.17969,-4.92188 -1.77083,-1.30208 -3.85417,-2.26562 -6.25,-2.89062 -2.39583,-0.625 -4.9349,-0.9375 -7.61719,-0.9375 z m 96.32813,0 c -2.26563,0 -4.3099,0.36458 -6.13281,1.09375 -1.79688,0.70312 -3.39844,1.67968 -4.80469,2.92968 -1.40625,1.25 -2.63021,2.70834 -3.67188,4.375 -1.01562,1.66667 -1.84896,3.45052 -2.5,5.35157 -0.65104,1.875 -1.14583,3.82812 -1.48437,5.85937 -0.3125,2.00521 -0.48177,3.97135 -0.50782,5.89844 v 7.5 c 0.026,1.92708 0.19532,3.89323 0.50782,5.89844 0.33854,2.0052 0.83333,3.95833 1.48437,5.85937 0.67709,1.875 1.52344,3.64583 2.53907,5.3125 1.04166,1.66667 2.26562,3.125 3.67187,4.375 1.43229,1.22396 3.0599,2.20052 4.88281,2.92969 1.82292,0.70312 3.85417,1.05468 6.09375,1.05468 2.26563,0 4.3099,-0.35156 6.13281,-1.05468 1.82292,-0.72917 3.42448,-1.70573 4.80469,-2.92969 1.40625,-1.25 2.61719,-2.69531 3.63281,-4.33594 1.01563,-1.66666 1.84896,-3.4375 2.5,-5.3125 0.67709,-1.90104 1.17188,-3.85416 1.48438,-5.85937 0.3125,-2.03125 0.48177,-4.01042 0.50781,-5.9375 v -7.5 c -0.026,-1.95313 -0.19531,-3.93229 -0.50781,-5.9375 -0.3125,-2.03125 -0.80729,-3.98438 -1.48438,-5.85938 -0.65104,-1.90104 -1.48437,-3.68489 -2.5,-5.35156 -1.01562,-1.66667 -2.23958,-3.11198 -3.67187,-4.33594 -1.40625,-1.25 -3.02083,-2.22656 -4.84375,-2.92968 -1.82292,-0.72917 -3.86719,-1.09375 -6.13281,-1.09375 z m 95.9375,0 c -2.26563,0 -4.3099,0.36458 -6.13281,1.09375 -1.79688,0.70312 -3.39844,1.67968 -4.80469,2.92968 -1.40625,1.25 -2.63021,2.70834 -3.67188,4.375 -1.01562,1.66667 -1.84896,3.45052 -2.5,5.35157 -0.65104,1.875 -1.14583,3.82812 -1.48437,5.85937 -0.3125,2.00521 -0.48177,3.97135 -0.50782,5.89844 v 7.5 c 0.026,1.92708 0.19532,3.89323 0.50782,5.89844 0.33854,2.0052 0.83333,3.95833 1.48437,5.85937 0.67709,1.875 1.52344,3.64583 2.53907,5.3125 1.04166,1.66667 2.26562,3.125 3.67187,4.375 1.43229,1.22396 3.0599,2.20052 4.88281,2.92969 1.82292,0.70312 3.85417,1.05468 6.09375,1.05468 2.26563,0 4.3099,-0.35156 6.13281,-1.05468 1.82292,-0.72917 3.42448,-1.70573 4.80469,-2.92969 1.40625,-1.25 2.61719,-2.69531 3.63281,-4.33594 1.01563,-1.66666 1.84896,-3.4375 2.5,-5.3125 0.67709,-1.90104 1.17188,-3.85416 1.48438,-5.85937 0.3125,-2.03125 0.48177,-4.01042 0.50781,-5.9375 v -7.5 c -0.026,-1.95313 -0.19531,-3.93229 -0.50781,-5.9375 -0.3125,-2.03125 -0.80729,-3.98438 -1.48438,-5.85938 -0.65104,-1.90104 -1.48437,-3.68489 -2.5,-5.35156 -1.01562,-1.66667 -2.23958,-3.11198 -3.67187,-4.33594 -1.40625,-1.25 -3.02083,-2.22656 -4.84375,-2.92968 -1.82292,-0.72917 -3.86719,-1.09375 -6.13281,-1.09375 z m 96.21093,0 c -2.26562,0 -4.32291,0.35156 -6.17187,1.05468 -1.82292,0.67709 -3.45052,1.62761 -4.88281,2.85157 -1.40625,1.19791 -2.63021,2.60416 -3.67188,4.21875 -1.04166,1.61458 -1.90104,3.35937 -2.57812,5.23437 -0.67709,1.84896 -1.1849,3.77604 -1.52344,5.78125 -0.3125,2.00521 -0.48177,3.9974 -0.50781,5.97656 v 8.24219 c 0.026,1.97917 0.19531,3.97135 0.50781,5.97656 0.33854,2.00521 0.84635,3.94532 1.52344,5.82032 0.67708,1.84895 1.53646,3.58072 2.57812,5.19531 1.04167,1.61458 2.26563,3.02083 3.67188,4.21875 1.43229,1.19791 3.05989,2.14844 4.88281,2.85156 1.84896,0.67708 3.90625,1.01562 6.17187,1.01562 2.70834,0 5.14323,-0.45572 7.30469,-1.36718 2.1875,-0.91146 4.07552,-2.17448 5.66407,-3.78906 1.58854,-1.64063 2.86458,-3.55469 3.82812,-5.74219 0.96354,-2.21354 1.60156,-4.59636 1.91406,-7.14844 h -4.64844 c -0.28645,1.97917 -0.78124,3.82813 -1.48437,5.54688 -0.67708,1.71875 -1.58854,3.21614 -2.73437,4.49218 -1.1198,1.27604 -2.5,2.27865 -4.14063,3.00782 -1.61458,0.70312 -3.51563,1.05468 -5.70313,1.05468 -1.84895,0 -3.48958,-0.3125 -4.92187,-0.9375 -1.43229,-0.625 -2.69531,-1.45833 -3.78906,-2.5 -1.06771,-1.06771 -1.97917,-2.29166 -2.73438,-3.67187 -0.75521,-1.40625 -1.36719,-2.89063 -1.83593,-4.45313 -0.46876,-1.5625 -0.82032,-3.16406 -1.05469,-4.80468 -0.20834,-1.64063 -0.3125,-3.22917 -0.3125,-4.76563 v -8.32031 c 0,-1.53646 0.10416,-3.11198 0.3125,-4.72656 0.23437,-1.64063 0.58593,-3.24219 1.05469,-4.80469 0.46874,-1.5625 1.08072,-3.03386 1.83593,-4.41406 0.75521,-1.40625 1.66667,-2.63021 2.73438,-3.67188 1.09375,-1.04167 2.35677,-1.875 3.78906,-2.5 1.43229,-0.625 3.07292,-0.9375 4.92187,-0.9375 2.16146,0 4.04948,0.3776 5.66407,1.13281 1.61458,0.72917 2.99479,1.74479 4.14062,3.04688 1.14584,1.27604 2.05729,2.77344 2.73438,4.49219 0.70312,1.71875 1.21093,3.55468 1.52343,5.50781 h 4.64844 c -0.28646,-2.60417 -0.91146,-5.01302 -1.875,-7.22656 -0.9375,-2.21355 -2.20052,-4.12761 -3.78906,-5.74219 -1.58854,-1.64063 -3.47656,-2.91667 -5.66406,-3.82813 -2.16146,-0.91146 -4.6224,-1.36718 -7.38282,-1.36718 z m -401.75781,0.78125 v 56.875 h 4.41407 v -27.26563 h 26.71874 v 27.26563 h 4.41407 v -56.875 h -4.41407 v 25.54687 h -26.71874 v -25.54687 z m 48.4375,0 v 56.875 h 4.60938 l 25.42969,-47.69532 -0.0391,47.69532 h 4.60938 v -56.875 h -4.60938 l -25.42969,47.65625 0.0391,-47.65625 z m 97.46094,0 v 56.875 h 4.60937 v -26.75782 h 7.30469 l 21.01563,26.75782 h 5.78125 l -22.8125,-28.90625 21.17187,-27.96875 h -5.46875 l -19.72656,26.17187 h -7.26563 v -26.17187 z m 192.10937,0 v 56.875 h 4.6875 v -23.4375 h 13.20313 c 2.47396,-0.0261 4.80469,-0.41667 6.99219,-1.17188 2.1875,-0.75521 4.08854,-1.83594 5.70312,-3.24219 1.64063,-1.43229 2.92969,-3.16406 3.86719,-5.19531 0.9375,-2.05729 1.40625,-4.38802 1.40625,-6.99219 0,-2.60416 -0.46875,-4.93489 -1.40625,-6.99218 -0.9375,-2.0573 -2.22656,-3.80209 -3.86719,-5.23438 -1.61458,-1.45833 -3.51562,-2.57812 -5.70312,-3.35937 -2.16146,-0.78125 -4.49219,-1.19792 -6.99219,-1.25 z m 95.70313,0 v 56.875 h 4.60937 v -26.75782 h 7.30469 l 21.01563,26.75782 h 5.78125 l -22.8125,-28.90625 21.17187,-27.96875 h -5.46875 l -19.72656,26.17187 h -7.26563 v -26.17187 z m 46.44531,0 v 56.875 h 4.60938 l 25.42969,-47.69532 -0.0391,47.69532 h 4.60937 v -56.875 h -4.60937 l -25.42969,47.65625 0.0391,-47.65625 z m 47.96875,0 v 56.875 h 4.60938 l 25.42969,-47.69532 -0.0391,47.69532 h 4.60937 v -56.875 h -4.60937 l -25.42969,47.65625 0.0391,-47.65625 z m -318.51562,3.4375 c 1.82291,0 3.45052,0.3125 4.88281,0.9375 1.43229,0.625 2.68229,1.47135 3.75,2.53906 1.06771,1.06771 1.96615,2.31771 2.69531,3.75 0.75521,1.40625 1.36719,2.89062 1.83594,4.45312 0.46875,1.5625 0.80729,3.16407 1.01563,4.80469 0.20833,1.64063 0.32552,3.21615 0.35156,4.72656 v 7.57813 c -0.026,1.51041 -0.14323,3.08594 -0.35156,4.72656 -0.1823,1.61458 -0.50782,3.21615 -0.97657,4.80469 -0.44271,1.5625 -1.04166,3.05989 -1.79687,4.49219 -0.72917,1.40625 -1.62761,2.64322 -2.69532,3.71093 -1.0677,1.06771 -2.3177,1.92709 -3.75,2.57813 -1.40624,0.625 -3.03385,0.9375 -4.88281,0.9375 -1.82291,0 -3.45052,-0.3125 -4.88281,-0.9375 -1.43229,-0.65104 -2.68229,-1.51042 -3.75,-2.57813 -1.06771,-1.06771 -1.97917,-2.30468 -2.73438,-3.71093 -0.72916,-1.4323 -1.32812,-2.92969 -1.79687,-4.49219 -0.46875,-1.58854 -0.82031,-3.19011 -1.05469,-4.80469 -0.20833,-1.64062 -0.32552,-3.21615 -0.35156,-4.72656 v -7.57813 c 0.026,-1.48437 0.14323,-3.04687 0.35156,-4.6875 0.20834,-1.64062 0.54688,-3.24218 1.01563,-4.80468 0.46875,-1.5625 1.06771,-3.04688 1.79687,-4.45313 0.75521,-1.43229 1.66667,-2.68229 2.73438,-3.75 1.06771,-1.06771 2.30468,-1.91406 3.71094,-2.53906 1.43229,-0.65104 3.05989,-0.97656 4.88281,-0.97656 z m 95.9375,0 c 1.82291,0 3.45052,0.3125 4.88281,0.9375 1.43229,0.625 2.68229,1.47135 3.75,2.53906 1.06771,1.06771 1.96615,2.31771 2.69531,3.75 0.75521,1.40625 1.36719,2.89062 1.83594,4.45312 0.46875,1.5625 0.80729,3.16407 1.01563,4.80469 0.20833,1.64063 0.32552,3.21615 0.35156,4.72656 v 7.57813 c -0.026,1.51041 -0.14323,3.08594 -0.35156,4.72656 -0.1823,1.61458 -0.50782,3.21615 -0.97657,4.80469 -0.44271,1.5625 -1.04166,3.05989 -1.79687,4.49219 -0.72917,1.40625 -1.62761,2.64322 -2.69532,3.71093 -1.0677,1.06771 -2.3177,1.92709 -3.75,2.57813 -1.40624,0.625 -3.03385,0.9375 -4.88281,0.9375 -1.82291,0 -3.45052,-0.3125 -4.88281,-0.9375 -1.43229,-0.65104 -2.68229,-1.51042 -3.75,-2.57813 -1.06771,-1.06771 -1.97917,-2.30468 -2.73438,-3.71093 -0.72916,-1.4323 -1.32812,-2.92969 -1.79687,-4.49219 -0.46875,-1.58854 -0.82031,-3.19011 -1.05469,-4.80469 -0.20833,-1.64062 -0.32552,-3.21615 -0.35156,-4.72656 v -7.57813 c 0.026,-1.48437 0.14323,-3.04687 0.35156,-4.6875 0.20834,-1.64062 0.54688,-3.24218 1.01563,-4.80468 0.46875,-1.5625 1.06771,-3.04688 1.79687,-4.45313 0.75521,-1.43229 1.66667,-2.68229 2.73438,-3.75 1.06771,-1.06771 2.30468,-1.91406 3.71094,-2.53906 1.43229,-0.65104 3.05989,-0.97656 4.88281,-0.97656 z m 37.14843,0.54687 h 13.20313 c 1.90104,0.0521 3.65885,0.39063 5.27344,1.01563 1.61458,0.59895 3.02083,1.45833 4.21875,2.57812 1.19791,1.09375 2.13541,2.4349 2.8125,4.02344 0.67708,1.58854 1.01562,3.35937 1.01562,5.3125 0,1.95312 -0.35156,3.69791 -1.05468,5.23437 -0.67709,1.53646 -1.61459,2.83854 -2.8125,3.90625 -1.19792,1.06771 -2.60417,1.90104 -4.21876,2.5 -1.61458,0.59896 -3.35937,0.91146 -5.23437,0.9375 h -13.20313 z m -48.65234,98.60156 v 13.82813 h -30.23437 v 56.875 h 4.6875 v -52.89063 h 30.23437 v -17.8125 z m 210.86719,13.04688 c -3.17709,0 -5.96354,0.67708 -8.35938,2.03125 -2.36979,1.32812 -4.34896,3.11198 -5.9375,5.35156 -1.58854,2.21354 -2.78645,4.76562 -3.59375,7.65625 -0.80729,2.89063 -1.21093,5.89844 -1.21093,9.02344 v 10.3125 c 0,3.125 0.40364,6.13281 1.21093,9.02343 0.8073,2.89063 2.00521,5.45573 3.59375,7.69532 1.58854,2.21354 3.56771,3.99739 5.9375,5.35156 2.39584,1.32812 5.18229,1.99219 8.35938,1.99219 2.83854,0 5.36458,-0.44271 7.57812,-1.32813 2.23959,-0.91146 4.15365,-2.16146 5.74219,-3.75 1.58854,-1.61458 2.83854,-3.51562 3.75,-5.70312 0.9375,-2.21354 1.52344,-4.63542 1.75781,-7.26563 h -4.64843 c -0.28646,2.16146 -0.76823,4.11459 -1.44532,5.85938 -0.67708,1.74479 -1.58854,3.22916 -2.73437,4.45312 -1.11979,1.22396 -2.51302,2.16146 -4.17969,2.8125 -1.64062,0.65104 -3.58073,0.97657 -5.82031,0.97657 -2.52604,0 -4.70052,-0.58594 -6.52344,-1.75782 -1.79687,-1.17187 -3.28125,-2.69531 -4.45312,-4.57031 -1.17188,-1.90104 -2.04428,-4.04948 -2.61719,-6.44531 -0.57292,-2.39584 -0.85938,-4.84375 -0.85938,-7.34375 v -3.51563 h 22.38282 v -3.98437 h -22.38282 v -2.89063 c 0,-2.47396 0.28646,-4.90885 0.85938,-7.30468 0.57292,-2.39584 1.44531,-4.53126 2.61719,-6.40626 1.17187,-1.90104 2.65625,-3.42447 4.45312,-4.57031 1.82292,-1.17187 3.9974,-1.75781 6.52344,-1.75781 2.21354,0 4.14062,0.33854 5.78125,1.01562 1.66667,0.67709 3.05989,1.64063 4.17969,2.89063 1.14583,1.25 2.05729,2.7474 2.73437,4.49219 0.67708,1.74479 1.17188,3.68489 1.48438,5.82031 h 4.64843 c -0.23437,-2.73437 -0.82031,-5.22135 -1.75781,-7.46094 -0.9375,-2.23958 -2.20052,-4.15364 -3.78906,-5.74219 -1.5625,-1.58854 -3.46354,-2.8125 -5.70313,-3.67187 -2.21354,-0.85937 -4.73958,-1.28906 -7.57812,-1.28906 z m -562.07031,0.78125 -18.51563,56.875 h 4.72656 l 5.03907,-15.85938 h 21.64062 l 5,15.85938 h 4.6875 l -18.35937,-56.875 z m 96.39062,0 v 56.875 h 16.36719 c 2.68229,0 5.11719,-0.37761 7.30469,-1.13282 2.1875,-0.7552 4.0625,-1.82291 5.625,-3.20312 1.5625,-1.40625 2.76041,-3.09896 3.59375,-5.07812 0.85937,-2.00521 1.28906,-4.2448 1.28906,-6.71876 0,-2.5 -0.42969,-4.72656 -1.28906,-6.67968 -0.83334,-1.97917 -2.03125,-3.64584 -3.59375,-5 -1.5625,-1.38021 -3.4375,-2.4349 -5.625,-3.16406 -2.1875,-0.72917 -4.6224,-1.10678 -7.30469,-1.13282 h -11.67969 v -20.78125 h 29.45313 v -3.98437 z m 112.60156,0 v 56.875 h 17.89063 c 2.34375,-0.026 4.58333,-0.40365 6.71875,-1.13282 2.16146,-0.72916 4.0625,-1.77083 5.70312,-3.125 1.64063,-1.3802 2.94271,-3.04687 3.90625,-5 0.96355,-1.97916 1.4323,-4.23177 1.40625,-6.75781 0,-1.74479 -0.29948,-3.37239 -0.89843,-4.88281 -0.57292,-1.51042 -1.36719,-2.85156 -2.38282,-4.02344 -1.01562,-1.19791 -2.22656,-2.20052 -3.63281,-3.00781 -1.38021,-0.80729 -2.89062,-1.40625 -4.53125,-1.79687 1.32813,-0.4948 2.56511,-1.10678 3.71094,-1.83594 1.14583,-0.75521 2.13542,-1.62761 2.96875,-2.61719 0.85937,-1.01563 1.53646,-2.16146 2.03125,-3.4375 0.49479,-1.30208 0.74219,-2.76042 0.74219,-4.375 0.026,-2.57813 -0.48177,-4.79167 -1.52344,-6.64063 -1.01563,-1.875 -2.36979,-3.41145 -4.0625,-4.60937 -1.69271,-1.22396 -3.63281,-2.1224 -5.82031,-2.69531 -2.16146,-0.59896 -4.38802,-0.91146 -6.67969,-0.9375 z m 231.76563,0 -0.97656,20.46875 c -0.13021,3.90625 -0.36459,7.61719 -0.70313,11.13281 -0.33854,3.48958 -0.83333,6.66667 -1.48437,9.53125 -0.625,2.83854 -1.4323,5.27344 -2.42188,7.30469 -0.98958,2.03125 -2.21354,3.52864 -3.67187,4.49218 h -2.42188 l 0.50781,17.73438 h 4.0625 v -13.78906 h 30.46875 v 13.78906 h 4.21875 l 0.35157,-17.73438 h -4.21875 v -52.92968 z m 211.33594,0 11.52343,28.35937 -12.73437,28.51563 h 5.625 l 11.32812,-26.79688 h 3.08594 v 26.79688 h 4.53125 v -26.79688 h 2.92969 l 11.32812,26.79688 h 5.625 l -12.73437,-28.51563 11.52344,-28.35937 h -5.35157 l -10,26.09375 h -3.32031 v -26.09375 h -4.53125 v 26.09375 h -3.47656 l -10.03906,-26.09375 z m -206.96094,3.98437 h 14.72656 v 48.94531 h -22.10937 c 1.25,-1.79687 2.27864,-3.99739 3.08593,-6.60156 0.8073,-2.63021 1.45834,-5.41666 1.95313,-8.35937 0.52083,-2.94271 0.89844,-5.92448 1.13281,-8.94531 0.26042,-3.04688 0.44271,-5.89844 0.54688,-8.55469 z m -231.45313,0.11719 h 10.97657 c 1.66666,0.026 3.29427,0.2474 4.88281,0.66406 1.58854,0.39063 3.00781,1.01563 4.25781,1.875 1.25,0.83334 2.25261,1.92709 3.00781,3.28125 0.75521,1.32813 1.13282,2.94271 1.13282,4.84375 0,1.82292 -0.36459,3.39844 -1.09375,4.72656 -0.72917,1.32813 -1.69271,2.4349 -2.89063,3.32032 -1.17187,0.88541 -2.52604,1.54948 -4.0625,1.99218 -1.53646,0.44271 -3.125,0.67709 -4.76562,0.70313 h -11.44532 z m -211.57031,2.8125 9.45313,29.92188 h -18.98438 z m 98.96875,21.83594 h 11.67969 c 2.00521,0.026 3.8151,0.32552 5.42969,0.89844 1.64062,0.57291 3.02083,1.3802 4.14062,2.42187 1.14583,1.01563 2.01823,2.2526 2.61719,3.71094 0.625,1.45833 0.9375,3.08593 0.9375,4.88281 0,1.82292 -0.3125,3.48958 -0.9375,5 -0.59896,1.48438 -1.47136,2.77344 -2.61719,3.86719 -1.11979,1.06771 -2.48698,1.90104 -4.10156,2.5 -1.61458,0.57291 -3.4375,0.87239 -5.46875,0.89843 h -11.67969 z m 112.60156,0.78125 h 13.67188 c 1.66667,0.0521 3.25521,0.33854 4.76562,0.85937 1.53646,0.52084 2.87761,1.26302 4.02344,2.22656 1.17188,0.96355 2.08333,2.14844 2.73438,3.55469 0.67708,1.38021 1.01562,2.96875 1.01562,4.76563 0,1.84896 -0.35156,3.5026 -1.05469,4.96094 -0.67708,1.43229 -1.61458,2.65624 -2.8125,3.67187 -1.17187,1.01563 -2.53906,1.8099 -4.10156,2.38281 -1.5625,0.54688 -3.20312,0.83334 -4.92187,0.85938 h -13.32032 z m 0.0391,55.82031 c 0.0521,1.53646 0.35156,2.92969 0.89843,4.17969 0.57292,1.22396 1.35417,2.27864 2.34375,3.16406 1.01563,0.85937 2.20052,1.52344 3.55469,1.99219 1.38021,0.46875 2.89063,0.70312 4.53125,0.70312 1.64063,0 3.13802,-0.23437 4.49219,-0.70312 1.35417,-0.46875 2.52604,-1.13282 3.51562,-1.99219 0.98959,-0.88542 1.75782,-1.9401 2.30469,-3.16406 0.57292,-1.25 0.88542,-2.64323 0.9375,-4.17969 h -3.98437 c -0.10417,2.05729 -0.79427,3.6849 -2.07032,4.88281 -1.25,1.19792 -2.98177,1.79688 -5.19531,1.79688 -2.29167,0 -4.07552,-0.58594 -5.35156,-1.75781 -1.25,-1.19792 -1.91406,-2.83855 -1.99219,-4.92188 z m -212.625,13.86719 c -2.47396,0 -4.84375,0.36458 -7.10938,1.09375 -2.26562,0.70312 -4.27083,1.73177 -6.01562,3.08594 -1.71875,1.32812 -3.11198,2.96874 -4.17969,4.92187 -1.06771,1.92708 -1.62761,4.11458 -1.67969,6.5625 h 4.6875 c 0.0521,-1.82292 0.46875,-3.45052 1.25,-4.88281 0.80729,-1.45834 1.86198,-2.68229 3.16406,-3.67188 1.32813,-1.01562 2.83855,-1.78385 4.53125,-2.30468 1.71875,-0.54688 3.50261,-0.82032 5.35157,-0.82032 2.10937,0 4.07552,0.2474 5.89843,0.74219 1.82292,0.49479 3.39844,1.23698 4.72657,2.22656 1.32812,0.96354 2.36979,2.17448 3.125,3.63281 0.78125,1.4323 1.17187,3.09896 1.17187,5 0,1.95313 -0.39062,3.63282 -1.17187,5.03907 -0.75521,1.38021 -1.79688,2.51302 -3.125,3.39843 -1.32813,0.88542 -2.89063,1.54948 -4.6875,1.99219 -1.77084,0.41667 -3.6849,0.625 -5.74219,0.625 h -7.1875 v 4.02344 h 7.1875 c 2.13542,0 4.14062,0.20833 6.01562,0.625 1.90105,0.39063 3.55469,1.04167 4.96094,1.95313 1.43229,0.91145 2.56511,2.10937 3.39844,3.59374 0.83333,1.48438 1.25,3.33334 1.25,5.54688 0,2.03125 -0.42969,3.80208 -1.28906,5.3125 -0.83334,1.51042 -1.97917,2.77344 -3.4375,3.78906 -1.4323,1.01563 -3.11198,1.78386 -5.03907,2.30469 -1.90104,0.49479 -3.91927,0.74219 -6.05468,0.74219 -2.03125,0 -3.95834,-0.29948 -5.78125,-0.89844 -1.79688,-0.59896 -3.38542,-1.44531 -4.76563,-2.53906 -1.35417,-1.09375 -2.43489,-2.42188 -3.24219,-3.98438 -0.80729,-1.5625 -1.23698,-3.30729 -1.28906,-5.23437 h -4.6875 c 0.0521,2.78646 0.63802,5.22135 1.75781,7.30469 1.14584,2.05729 2.63021,3.77604 4.45313,5.15624 1.84896,1.38021 3.94531,2.42188 6.28906,3.125 2.34375,0.67709 4.76563,1.01563 7.26563,1.01563 2.70833,0 5.29948,-0.33854 7.77343,-1.01563 2.47396,-0.67708 4.64844,-1.6927 6.52344,-3.04687 1.875,-1.35417 3.3724,-3.04687 4.49219,-5.07813 1.14583,-2.03124 1.71875,-4.40104 1.71875,-7.10937 0,-1.875 -0.28646,-3.55469 -0.85938,-5.03906 -0.54687,-1.51042 -1.32812,-2.82552 -2.34375,-3.94531 -0.98958,-1.1198 -2.1875,-2.0573 -3.59375,-2.8125 -1.40625,-0.78126 -2.9427,-1.40626 -4.60937,-1.875 1.51042,-0.52084 2.90364,-1.1849 4.17969,-1.99219 1.27604,-0.80729 2.38281,-1.74479 3.32031,-2.8125 0.9375,-1.06771 1.66667,-2.26563 2.1875,-3.59375 0.54687,-1.35417 0.82031,-2.82552 0.82031,-4.41406 0,-2.6823 -0.52083,-5.01303 -1.5625,-6.99219 -1.01562,-1.97917 -2.40885,-3.61979 -4.17969,-4.92188 -1.77083,-1.30208 -3.85416,-2.26562 -6.25,-2.89062 -2.39583,-0.625 -4.93489,-0.9375 -7.61718,-0.9375 z m 95.0625,0.78125 v 56.875 h 4.60937 l 25.42969,-47.69532 -0.0391,47.69532 h 4.60937 v -56.875 h -4.60937 l -25.42969,47.65625 0.0391,-47.65625 z m 111.9375,0 v 56.875 h 4.60937 l 25.42969,-47.69532 -0.0391,47.69532 h 4.60937 v -56.875 h -4.60937 l -25.42969,47.65625 0.0391,-47.65625 z m 113.46093,0 v 56.875 h 4.60938 V 880.2031 h 7.30469 l 21.01562,26.75782 h 5.78125 l -22.8125,-28.90625 21.17188,-27.96875 h -5.46875 l -19.72657,26.17187 h -7.26562 v -26.17187 z m 116.42969,0 -0.78125,27.5 c -0.026,1.69271 -0.10417,3.48958 -0.23437,5.39062 -0.10417,1.90104 -0.28646,3.78906 -0.54688,5.66406 -0.26042,1.875 -0.61198,3.6849 -1.05469,5.42969 -0.41666,1.71875 -0.9375,3.24219 -1.5625,4.57031 -0.625,1.30209 -1.36718,2.35678 -2.22656,3.16407 -0.85937,0.80729 -1.84896,1.21093 -2.96875,1.21093 h -1.40625 v 3.94532 h 1.5625 c 1.74479,0 3.26823,-0.42969 4.57031,-1.28906 1.30209,-0.88542 2.4349,-2.0573 3.39844,-3.51563 0.96354,-1.48437 1.75781,-3.20313 2.38281,-5.15625 0.65105,-1.95312 1.17188,-4.01042 1.5625,-6.17188 0.39063,-2.1875 0.66407,-4.41406 0.82032,-6.67968 0.18229,-2.26563 0.29948,-4.45313 0.35156,-6.5625 l 0.625,-23.51563 h 19.6875 v 52.89063 h 4.60937 v -56.875 z m 105.76563,0 v 56.875 H 721.793 V 881.7656 l -0.39063,-24.88281 11.71875,32.96875 h 3.04688 l 12.61719,-33.51562 -0.35157,25.42968 v 25.19532 h 4.57032 v -56.875 h -6.13282 l -12.1875,32.1875 -11.44531,-32.1875 z m 111.625,0 v 56.875 h 4.41406 v -27.26563 h 26.71875 v 27.26563 h 4.41406 v -56.875 h -4.41406 v 25.54687 H 833.26175 V 850.08592 Z M 724.87894,935.2031 c 0.0521,1.53646 0.35156,2.92969 0.89843,4.17969 0.57292,1.22396 1.35417,2.27865 2.34375,3.16407 1.01563,0.85937 2.20052,1.52343 3.55469,1.99218 1.38021,0.46875 2.89063,0.70313 4.53125,0.70313 1.64063,0 3.13802,-0.23438 4.49219,-0.70313 1.35417,-0.46875 2.52604,-1.13281 3.51562,-1.99218 0.98959,-0.88542 1.75782,-1.94011 2.30469,-3.16407 0.57292,-1.25 0.88542,-2.64323 0.9375,-4.17969 h -3.98437 c -0.10417,2.0573 -0.79427,3.6849 -2.07032,4.88282 -1.25,1.19791 -2.98177,1.79687 -5.19531,1.79687 -2.29167,0 -4.07552,-0.58593 -5.35156,-1.75781 -1.25,-1.19792 -1.91406,-2.83854 -1.99219,-4.92188 z m -549.92188,14.10157 c -2.26562,0 -4.30989,0.36458 -6.13281,1.09375 -1.79688,0.70312 -3.39844,1.67968 -4.80469,2.92968 -1.40625,1.25 -2.63021,2.70834 -3.67187,4.375 -1.01563,1.66667 -1.84896,3.45053 -2.5,5.35157 -0.65105,1.875 -1.14584,3.82812 -1.48438,5.85937 -0.3125,2.00521 -0.48177,3.97136 -0.50781,5.89844 v 7.5 c 0.026,1.92708 0.19531,3.89323 0.50781,5.89844 0.33854,2.00521 0.83333,3.95833 1.48438,5.85937 0.67708,1.875 1.52343,3.64584 2.53906,5.3125 1.04167,1.66671 2.26562,3.12501 3.67187,4.37501 1.4323,1.224 3.0599,2.2005 4.88282,2.9297 1.82291,0.7031 3.85416,1.0547 6.09375,1.0547 2.26562,0 4.30989,-0.3516 6.13281,-1.0547 1.82292,-0.7292 3.42448,-1.7057 4.80469,-2.9297 1.40625,-1.25 2.61718,-2.6953 3.63281,-4.33594 1.01562,-1.66667 1.84896,-3.4375 2.5,-5.3125 0.67708,-1.90105 1.17187,-3.85417 1.48437,-5.85938 0.3125,-2.03125 0.48177,-4.01042 0.50782,-5.9375 v -7.5 c -0.0261,-1.95312 -0.19532,-3.93229 -0.50782,-5.9375 -0.3125,-2.03125 -0.80729,-3.98438 -1.48437,-5.85938 -0.65104,-1.90104 -1.48438,-3.68489 -2.5,-5.35156 -1.01563,-1.66666 -2.23958,-3.11198 -3.67188,-4.33594 -1.40625,-1.25 -3.02083,-2.22656 -4.84375,-2.92968 -1.82291,-0.72917 -3.86718,-1.09375 -6.13281,-1.09375 z m 336.08594,0 c -2.26563,0 -4.32292,0.35156 -6.17188,1.05469 -1.82291,0.67708 -3.45052,1.6276 -4.88281,2.85156 -1.40625,1.19791 -2.63021,2.60416 -3.67187,4.21875 -1.04167,1.61458 -1.90105,3.35937 -2.57813,5.23437 -0.67708,1.84896 -1.18489,3.77604 -1.52344,5.78125 -0.3125,2.00521 -0.48177,3.9974 -0.50781,5.97657 v 8.24218 c 0.026,1.97917 0.19531,3.97136 0.50781,5.97656 0.33855,2.00521 0.84636,3.94532 1.52344,5.82032 0.67708,1.84896 1.53646,3.58073 2.57813,5.19531 1.04166,1.61457 2.26562,3.02087 3.67187,4.21877 1.43229,1.1979 3.0599,2.1484 4.88281,2.8515 1.84896,0.6771 3.90625,1.0157 6.17188,1.0157 2.70833,0 5.14323,-0.4558 7.30469,-1.3672 2.1875,-0.9115 4.07552,-2.1745 5.66406,-3.7891 1.58854,-1.6406 2.86458,-3.55467 3.82812,-5.74217 0.96355,-2.21354 1.60157,-4.59635 1.91407,-7.14844 h -4.64844 c -0.28646,1.97917 -0.78125,3.82813 -1.48438,5.54688 -0.67708,1.71875 -1.58854,3.21614 -2.73437,4.49219 -1.11979,1.27604 -2.5,2.27864 -4.14063,3.00784 -1.61458,0.7031 -3.51562,1.0547 -5.70312,1.0547 -1.84896,0 -3.48958,-0.3125 -4.92188,-0.9375 -1.43229,-0.625 -2.69531,-1.4584 -3.78906,-2.5 -1.06771,-1.06775 -1.97917,-2.29171 -2.73437,-3.67192 -0.75521,-1.40625 -1.36719,-2.89062 -1.83594,-4.45312 -0.46875,-1.5625 -0.82031,-3.16407 -1.05469,-4.80469 -0.20833,-1.64063 -0.3125,-3.22917 -0.3125,-4.76563 v -8.32031 c 0,-1.53646 0.10417,-3.11198 0.3125,-4.72656 0.23438,-1.64063 0.58594,-3.24219 1.05469,-4.80469 0.46875,-1.5625 1.08073,-3.03385 1.83594,-4.41406 0.7552,-1.40625 1.66666,-2.63021 2.73437,-3.67188 1.09375,-1.04166 2.35677,-1.875 3.78906,-2.5 1.4323,-0.625 3.07292,-0.9375 4.92188,-0.9375 2.16146,0 4.04948,0.37761 5.66406,1.13282 1.61458,0.72916 2.99479,1.74479 4.14063,3.04687 1.14583,1.27604 2.05729,2.77344 2.73437,4.49219 0.70313,1.71875 1.21094,3.55468 1.52344,5.50781 h 4.64844 c -0.28646,-2.60417 -0.91146,-5.01302 -1.875,-7.22656 -0.9375,-2.21354 -2.20052,-4.12761 -3.78907,-5.74219 -1.58854,-1.64062 -3.47656,-2.91667 -5.66406,-3.82812 -2.16146,-0.91146 -4.62239,-1.36719 -7.38281,-1.36719 z m -241.29688,0.78125 v 56.87498 h 4.60938 v -52.89061 h 25.15625 v 52.89061 h 4.60937 v -56.87498 z m 113.57813,0 v 56.87498 h 4.6875 v -23.43748 h 13.20312 c 2.47396,-0.026 4.80469,-0.41667 6.99219,-1.17188 2.1875,-0.75521 4.08854,-1.83594 5.70313,-3.24218 1.64062,-1.4323 2.92968,-3.16407 3.86718,-5.19532 0.9375,-2.05729 1.40625,-4.38802 1.40625,-6.99218 0,-2.60417 -0.46875,-4.9349 -1.40625,-6.99219 -0.9375,-2.05729 -2.22656,-3.80209 -3.86718,-5.23438 -1.61459,-1.45833 -3.51563,-2.57812 -5.70313,-3.35937 -2.16146,-0.78125 -4.49219,-1.19792 -6.99219,-1.25 z m 219.10937,0 v 4.10156 h 18.16407 l -0.0391,52.77342 h 4.57032 v -52.77342 h 18.125 v -4.10156 z m 109.32032,0 21.67968,41.95312 -2.10937,4.17969 c -0.46875,0.9375 -1.0026,1.86198 -1.60156,2.77344 -0.59896,0.91146 -1.30209,1.73173 -2.10938,2.46093 -0.80729,0.7031 -1.71875,1.2761 -2.73437,1.7188 -1.01563,0.4427 -2.1875,0.664 -3.51563,0.664 -0.75521,0 -1.54948,-0.078 -2.38281,-0.2344 -0.83333,-0.1562 -1.54948,-0.2994 -2.14844,-0.4296 l -0.78125,3.7109 c 0.625,0.2083 1.41927,0.4036 2.38281,0.5859 0.98959,0.2084 2.07032,0.3125 3.24219,0.3125 1.95313,0 3.65886,-0.2864 5.11719,-0.8593 1.48437,-0.573 2.77344,-1.3412 3.86719,-2.3047 1.11979,-0.9896 2.08333,-2.1094 2.89062,-3.3594 0.83334,-1.27605 1.58854,-2.60417 2.26563,-3.98438 l 22.26562,-47.1875 h -5.50781 l -16.71875,37.03125 -1.40625,-3.47657 -17.30469,-33.55468 z m 132.5625,0 v 7.73437 c -2.70834,0.13021 -5.20834,0.74219 -7.5,1.83594 -2.26563,1.06771 -4.21875,2.52604 -5.85938,4.375 -1.64062,1.82292 -2.92969,3.97135 -3.86719,6.44531 -0.91145,2.44792 -1.36718,5.10417 -1.36718,7.96875 0,2.89063 0.45573,5.57292 1.36718,8.04688 0.9375,2.44791 2.22657,4.58333 3.86719,6.40625 1.64063,1.82291 3.59375,3.28125 5.85938,4.375 2.29166,1.06771 4.79166,1.66666 7.5,1.79687 v 7.89061 h 4.60937 v -7.89061 c 2.68229,-0.13021 5.15625,-0.74219 7.42188,-1.83593 2.29166,-1.09376 4.27083,-2.55209 5.9375,-4.375 1.66666,-1.84896 2.95573,-3.9974 3.86718,-6.44532 0.9375,-2.47396 1.40625,-5.15625 1.40625,-8.04687 0,-2.86459 -0.46875,-5.52084 -1.40625,-7.96875 -0.91145,-2.47396 -2.20052,-4.60938 -3.86718,-6.40625 -1.66667,-1.82292 -3.64584,-3.26823 -5.9375,-4.33594 -2.26563,-1.09375 -4.73959,-1.70573 -7.42188,-1.83594 v -7.73437 z m -669.35938,3.4375 c 1.82292,0 3.45052,0.3125 4.88281,0.9375 1.4323,0.625 2.6823,1.47135 3.75,2.53906 1.06771,1.06771 1.96615,2.31771 2.69532,3.75 0.7552,1.40625 1.36718,2.89062 1.83593,4.45312 0.46875,1.5625 0.8073,3.16407 1.01563,4.80469 0.20833,1.64063 0.32552,3.21615 0.35156,4.72657 v 7.57812 c -0.026,1.51042 -0.14323,3.08594 -0.35156,4.72656 -0.18229,1.61459 -0.50781,3.21615 -0.97656,4.80469 -0.44271,1.5625 -1.04167,3.0599 -1.79688,4.49219 -0.72917,1.40625 -1.6276,2.64323 -2.69531,3.71098 -1.06771,1.0677 -2.31771,1.927 -3.75,2.5781 -1.40625,0.625 -3.03386,0.9375 -4.88281,0.9375 -1.82292,0 -3.45052,-0.3125 -4.88282,-0.9375 -1.43229,-0.6511 -2.68229,-1.5104 -3.75,-2.5781 -1.0677,-1.06775 -1.97916,-2.30473 -2.73437,-3.71098 -0.72917,-1.43229 -1.32813,-2.92969 -1.79688,-4.49219 -0.46875,-1.58854 -0.82031,-3.1901 -1.05468,-4.80469 -0.20834,-1.64062 -0.32552,-3.21614 -0.35157,-4.72656 v -7.57812 c 0.0261,-1.48438 0.14323,-3.04688 0.35157,-4.6875 0.20833,-1.64063 0.54687,-3.24219 1.01562,-4.80469 0.46875,-1.5625 1.06771,-3.04688 1.79688,-4.45313 0.7552,-1.43229 1.66666,-2.68229 2.73437,-3.75 1.06771,-1.06771 2.30469,-1.91406 3.71094,-2.53906 1.43229,-0.65104 3.05989,-0.97656 4.88281,-0.97656 z m 213.05469,0.54687 h 13.20312 c 1.90105,0.0521 3.65886,0.39063 5.27344,1.01563 1.61458,0.59896 3.02083,1.45833 4.21875,2.57812 1.19792,1.09375 2.13542,2.4349 2.8125,4.02344 0.67708,1.58854 1.01563,3.35938 1.01563,5.3125 0,1.95312 -0.35157,3.69792 -1.05469,5.23438 -0.67708,1.53645 -1.61458,2.83854 -2.8125,3.90624 -1.19792,1.06771 -2.60417,1.90105 -4.21875,2.5 -1.61458,0.59896 -3.35938,0.91146 -5.23438,0.9375 h -13.20312 z m 456.30469,7.73438 v 33.28125 c -2.16146,-0.10417 -4.10157,-0.58594 -5.82032,-1.44532 -1.71875,-0.88541 -3.17708,-2.05729 -4.375,-3.51562 -1.19791,-1.48438 -2.12239,-3.21615 -2.77343,-5.19531 -0.65104,-1.97917 -0.97657,-4.14063 -0.97657,-6.48438 0,-2.31771 0.32553,-4.46614 0.97657,-6.44531 0.65104,-1.97917 1.57552,-3.69792 2.77343,-5.15625 1.19792,-1.48437 2.65625,-2.65625 4.375,-3.51563 1.71875,-0.88541 3.65886,-1.39322 5.82032,-1.52343 z m 4.60937,0 c 2.13542,0.13021 4.0625,0.625 5.78125,1.48437 1.74479,0.85938 3.21615,2.01823 4.41406,3.47656 1.22396,1.45834 2.16146,3.17709 2.8125,5.15626 0.65105,1.97916 0.97657,4.1276 0.97657,6.44531 0,2.34375 -0.32552,4.51823 -0.97657,6.52343 -0.65104,1.97917 -1.58854,3.71094 -2.8125,5.19532 -1.19791,1.48437 -2.66927,2.66927 -4.41406,3.55468 -1.71875,0.88542 -3.64583,1.38021 -5.78125,1.48438 z m -693.1875,88.28123 17.14844,28.0469 -17.69531,28.8281 h 5.50781 l 14.96094,-25.0781 14.92187,25.0781 h 5.46875 l -17.69531,-28.8281 17.14844,-28.0469 h -5.50782 l -14.41406,24.2969 -14.33594,-24.2969 z m 114.78906,0 v 56.875 h 34.6875 v 13.711 h 4.25782 l 0.35156,-17.7344 h -5.03906 v -52.8516 h -4.60938 v 52.8516 h -0.0391 v 0.078 h -25 v -52.9297 z m 112.13282,0 -0.0391,15.7422 c 0.0521,5.7292 1.38021,10.0781 3.98438,13.0469 2.63021,2.9427 6.57552,4.414 11.83594,4.414 2.39583,0 4.55729,-0.2083 6.48437,-0.625 1.95313,-0.4166 3.89323,-0.9375 5.82031,-1.5625 v 25.8594 h 4.60938 v -56.875 h -4.60938 v 27.0313 c -1.97916,0.625 -3.97135,1.1588 -5.97656,1.6015 -1.97917,0.4167 -4.07552,0.612 -6.28906,0.586 -3.88021,0 -6.70573,-1.1198 -8.47656,-3.3594 -1.77084,-2.2656 -2.66927,-5.638 -2.69532,-10.1172 l -0.0391,-15.7422 z m 109.4375,0 v 56.875 h 37.46093 v -56.875 h -4.53125 v 52.9297 h -11.91406 v -52.9297 h -4.53125 v 52.9297 H 496.668 v -52.9297 z m 112.01562,0 v 56.875 h 36.21094 v 13.711 h 4.14062 l 0.35157,-17.6954 h -3.24219 v -52.8906 H 637.043 v 52.8906 h -1.09375 v 0.039 h -10.82031 v -52.9297 h -4.53125 v 52.9297 h -11.91407 v -52.9297 z m 108.38281,0 v 3.9844 h 14.33594 v 52.8906 h 12.73438 c 2.57812,0 4.85677,-0.4036 6.83593,-1.2109 2.00521,-0.8333 3.6849,-1.9662 5.03907,-3.3985 1.38021,-1.4323 2.42187,-3.125 3.125,-5.0781 0.72916,-1.9792 1.09375,-4.1276 1.09375,-6.4453 0,-2.3177 -0.36459,-4.4531 -1.09375,-6.4062 -0.70313,-1.9532 -1.74479,-3.6329 -3.125,-5.0391 -1.35417,-1.4063 -3.03386,-2.5 -5.03907,-3.2813 -1.97916,-0.8073 -4.25781,-1.2239 -6.83593,-1.25 h -8.16407 v -24.7656 z m 116.70313,0 v 56.875 h 10.54687 c 2.44792,-0.026 4.58334,-0.4557 6.40625,-1.289 1.84896,-0.8594 3.3724,-2.0052 4.57032,-3.4375 1.22395,-1.4584 2.13541,-3.1641 2.73437,-5.1172 0.59896,-1.9532 0.89844,-4.0495 0.89844,-6.2891 0,-2.2396 -0.29948,-4.3229 -0.89844,-6.25 -0.59896,-1.9271 -1.51042,-3.6068 -2.73437,-5.0391 -1.19792,-1.4323 -2.72136,-2.5651 -4.57032,-3.3984 -1.82291,-0.8333 -3.95833,-1.263 -6.40625,-1.2891 h -5.97656 v -24.7656 z m 30.9375,0 v 56.875 h 4.57031 v -56.875 z m -128.73438,28.75 h 8.16407 c 1.90104,0.026 3.56771,0.3516 5,0.9766 1.43229,0.625 2.61718,1.4713 3.55468,2.539 0.96355,1.0677 1.67969,2.3308 2.14844,3.7891 0.46875,1.4323 0.70313,2.9688 0.70313,4.6094 0,1.6667 -0.23438,3.2422 -0.70313,4.7265 -0.44271,1.4844 -1.14583,2.7865 -2.10937,3.9063 -0.9375,1.0937 -2.1224,1.9661 -3.55469,2.6172 -1.43229,0.651 -3.11198,0.9896 -5.03906,1.0156 h -8.16407 z m 102.36719,0 h 5.97656 c 1.77084,0.026 3.28125,0.3646 4.53125,1.0156 1.25,0.6511 2.26563,1.5235 3.04688,2.6172 0.80729,1.0938 1.39323,2.3568 1.75781,3.7891 0.36458,1.4323 0.54688,2.9297 0.54688,4.4922 0,1.5885 -0.1823,3.125 -0.54688,4.6094 -0.33854,1.4583 -0.89844,2.7604 -1.67969,3.9062 -0.78125,1.1198 -1.80989,2.0182 -3.08593,2.6953 -1.25,0.6771 -2.77344,1.0287 -4.57032,1.0547 h -5.97656 z m -547.42187,70.4688 c -2.78646,0 -5.28646,0.4817 -7.5,1.4453 -2.21355,0.9375 -4.10157,2.2396 -5.66407,3.9062 -1.5625,1.6667 -2.79948,3.6328 -3.71093,5.8985 -0.88542,2.2656 -1.38021,4.7005 -1.48438,7.3047 h 4.60938 c 0.18229,-2.1355 0.58593,-4.1016 1.21093,-5.8985 0.65105,-1.7969 1.53646,-3.3333 2.65625,-4.6094 1.14584,-1.302 2.53907,-2.3046 4.17969,-3.0078 1.64063,-0.7291 3.54167,-1.0937 5.70313,-1.0937 1.66666,0 3.1901,0.2734 4.57031,0.8203 1.38021,0.5208 2.60417,1.25 3.67187,2.1875 1.06771,0.9114 1.99219,1.9922 2.77344,3.2422 0.80729,1.25 1.47136,2.6172 1.99219,4.1015 0.52083,1.4584 0.89844,3.0079 1.13281,4.6485 0.26042,1.6146 0.40365,3.2422 0.42969,4.8828 v 3.2812 h -20.54688 v 3.9454 H 300.918 v 3.5546 c -0.026,1.6407 -0.16927,3.2813 -0.42969,4.9219 -0.23437,1.6146 -0.61198,3.1641 -1.13281,4.6485 -0.52083,1.4583 -1.1849,2.8125 -1.99219,4.0625 -0.78125,1.25 -1.70573,2.3437 -2.77344,3.2812 -1.0677,0.9115 -2.29166,1.6406 -3.67187,2.1875 -1.38021,0.5208 -2.90365,0.7813 -4.57031,0.7813 -2.1875,0 -4.10157,-0.3516 -5.74219,-1.0547 -1.64063,-0.7292 -3.02083,-1.7318 -4.14063,-3.0078 -1.11979,-1.3021 -2.0052,-2.8386 -2.65625,-4.6094 -0.625,-1.7969 -1.02864,-3.7761 -1.21093,-5.9375 h -4.60938 c 0.10417,2.7344 0.59896,5.2344 1.48438,7.5 0.88541,2.2656 2.10937,4.2187 3.67187,5.8594 1.5625,1.6406 3.45052,2.9166 5.66406,3.8281 2.23959,0.9114 4.75261,1.3672 7.53907,1.3672 2.10937,0 4.04948,-0.2995 5.82031,-0.8985 1.79687,-0.625 3.39844,-1.4713 4.80469,-2.539 1.43229,-1.0938 2.68229,-2.3828 3.75,-3.8672 1.0677,-1.4844 1.95312,-3.112 2.65625,-4.8828 0.72916,-1.7709 1.27604,-3.6459 1.64062,-5.625 0.36458,-1.9792 0.54688,-3.9974 0.54688,-6.0547 v -10.7031 c 0,-2.0573 -0.1823,-4.0756 -0.54688,-6.0547 -0.36458,-1.9792 -0.91146,-3.8542 -1.64062,-5.625 -0.70313,-1.7709 -1.58855,-3.3985 -2.65625,-4.8828 -1.06771,-1.5105 -2.31771,-2.7995 -3.75,-3.8672 -1.40625,-1.0938 -3.00782,-1.9401 -4.80469,-2.5391 -1.77083,-0.5989 -3.71094,-0.8984 -5.82031,-0.8984 z m 118.03125,0 c -1.7448,0 -3.29427,0.3125 -4.64844,0.9375 -1.35417,0.625 -2.53906,1.4974 -3.55469,2.6172 -1.01562,1.0937 -1.88802,2.3828 -2.61719,3.8671 -0.70312,1.4584 -1.27604,3.0469 -1.71875,4.7657 -0.4427,1.6927 -0.76823,3.4635 -0.97656,5.3125 -0.18229,1.8489 -0.27344,3.6849 -0.27344,5.5078 v 3.9062 h -6.01562 v -26.1328 h -4.57031 v 56.875 h 4.57031 v -26.7969 h 6.01562 v 4.6094 c 0,2.7344 0.23438,5.4688 0.70313,8.2031 0.46875,2.7344 1.23698,5.1954 2.30469,7.3829 1.09375,2.1875 2.52604,3.9713 4.29687,5.3515 1.77083,1.3542 3.94531,2.0313 6.52344,2.0313 2.65625,0 4.88281,-0.6771 6.67969,-2.0313 1.82291,-1.3802 3.28125,-3.164 4.375,-5.3515 1.11979,-2.1875 1.92708,-4.6485 2.42187,-7.3829 0.49479,-2.7343 0.74219,-5.4687 0.74219,-8.2031 v -12.4609 c 0,-1.8229 -0.11719,-3.6589 -0.35156,-5.5078 -0.20834,-1.849 -0.54688,-3.6198 -1.01563,-5.3125 -0.46875,-1.7188 -1.06771,-3.3073 -1.79687,-4.7657 -0.72917,-1.4843 -1.62761,-2.7734 -2.69532,-3.8671 -1.04166,-1.1198 -2.26562,-1.9922 -3.67187,-2.6172 -1.38021,-0.625 -2.95573,-0.9375 -4.72656,-0.9375 z m -245.39844,0.7812 v 56.875 h 16.32812 c 2.6823,0 5.11719,-0.3776 7.30469,-1.1328 2.1875,-0.7552 4.0625,-1.8229 5.625,-3.2031 1.5625,-1.4063 2.76042,-3.099 3.59375,-5.0781 0.85938,-2.0052 1.28906,-4.2448 1.28906,-6.7188 0,-2.5 -0.42968,-4.7266 -1.28906,-6.6797 -0.83333,-1.9792 -2.03125,-3.6458 -3.59375,-5 -1.5625,-1.3802 -3.4375,-2.4349 -5.625,-3.164 -2.1875,-0.7292 -4.62239,-1.1068 -7.30469,-1.1329 h -11.67968 v -24.7656 z m 351.71094,0 c -2.8125,0.026 -5.39063,0.4167 -7.73438,1.1719 -2.31771,0.7552 -4.30989,1.8489 -5.97656,3.2812 -1.64063,1.4323 -2.91667,3.1902 -3.82813,5.2735 -0.88541,2.0573 -1.32812,4.414 -1.32812,7.0703 0,3.6198 0.97656,6.6927 2.92969,9.2187 1.95312,2.5 4.71354,4.375 8.28125,5.625 l -13.24219,25.2344 h 5.03906 l 12.22656,-23.9453 h 15.46875 v 23.9453 h 4.6875 v -56.875 z m -106.3125,3.3203 c 1.95312,0 3.55468,0.573 4.80468,1.7188 1.25,1.1458 2.22657,2.6302 2.92969,4.4531 0.70313,1.8229 1.1849,3.8542 1.44531,6.0938 0.26042,2.2135 0.39063,4.401 0.39063,6.5625 v 12.539 c 0,1.4583 -0.0521,2.9297 -0.15625,4.4141 -0.10417,1.4844 -0.29948,2.9297 -0.58594,4.3359 -0.26042,1.4063 -0.625,2.7344 -1.09375,3.9844 -0.44271,1.2239 -1.01562,2.2917 -1.71875,3.2031 -0.70312,0.9115 -1.54948,1.6406 -2.53906,2.1875 -0.98958,0.5208 -2.13542,0.7813 -3.4375,0.7813 -1.27604,0 -2.38281,-0.2605 -3.32031,-0.7813 -0.9375,-0.5469 -1.7448,-1.276 -2.42188,-2.1875 -0.67708,-0.9114 -1.23698,-1.9792 -1.67969,-3.2031 -0.4427,-1.25 -0.79427,-2.5781 -1.05468,-3.9844 -0.26042,-1.4062 -0.44271,-2.8515 -0.54688,-4.3359 -0.10417,-1.4844 -0.15625,-2.9558 -0.15625,-4.4141 v -12.539 c 0,-1.4323 0.0521,-2.8907 0.15625,-4.375 0.10417,-1.5105 0.28646,-2.9558 0.54688,-4.336 0.26041,-1.4062 0.59895,-2.7213 1.01562,-3.9453 0.44271,-1.2239 1.00261,-2.2917 1.67969,-3.2031 0.67708,-0.9115 1.48437,-1.6276 2.42187,-2.1485 0.9375,-0.5468 2.04427,-0.8203 3.32032,-0.8203 z m 106.3125,0.6641 h 11.83593 v 24.9219 h -13.08593 c -2.00521,-0.026 -3.81511,-0.3386 -5.42969,-0.9375 -1.58854,-0.625 -2.94271,-1.4714 -4.0625,-2.5391 -1.11979,-1.0677 -1.97917,-2.3437 -2.57813,-3.8281 -0.59895,-1.4844 -0.89843,-3.112 -0.89843,-4.8828 0,-2.0052 0.32552,-3.7891 0.97656,-5.3516 0.67708,-1.5625 1.6276,-2.8906 2.85156,-3.9844 1.22396,-1.0937 2.70833,-1.927 4.45313,-2.5 1.77083,-0.5729 3.75,-0.8724 5.9375,-0.8984 z m -347.0625,24.7656 h 11.67968 c 2.00521,0.026 3.81511,0.3255 5.42969,0.8985 1.64063,0.5729 3.02083,1.3802 4.14063,2.4218 1.14583,1.0157 2.01823,2.2526 2.61718,3.711 0.625,1.4583 0.9375,3.0859 0.9375,4.8828 0,1.8229 -0.3125,3.4896 -0.9375,5 -0.59895,1.4844 -1.47135,2.7734 -2.61718,3.8672 -1.1198,1.0677 -2.48698,1.901 -4.10157,2.5 -1.61458,0.5729 -3.4375,0.8724 -5.46875,0.8984 h -11.67968 z m 202.84375,74.5977 -18.51563,56.875 h 4.72656 l 5.03907,-15.8594 h 21.64062 l 5,15.8594 h 4.6875 l -18.35937,-56.875 z m 38.20312,0 -0.78125,27.5 c -0.026,1.6927 -0.10417,3.4896 -0.23437,5.3906 -0.10417,1.901 -0.28646,3.7891 -0.54688,5.6641 -0.26042,1.875 -0.61198,3.6849 -1.05469,5.4297 -0.41666,1.7187 -0.9375,3.2421 -1.5625,4.5703 -0.625,1.302 -1.36718,2.3567 -2.22656,3.164 -0.85937,0.8073 -1.84896,1.211 -2.96875,1.211 h -1.40625 v 3.9453 h 1.5625 c 1.74479,0 3.26823,-0.4297 4.57031,-1.2891 1.30209,-0.8854 2.4349,-2.0573 3.39844,-3.5156 0.96354,-1.4844 1.75781,-3.2031 2.38281,-5.1563 0.65105,-1.9531 1.17188,-4.0104 1.5625,-6.1718 0.39063,-2.1875 0.66407,-4.4141 0.82032,-6.6797 0.18229,-2.2656 0.29948,-4.4531 0.35156,-6.5625 l 0.625,-23.5156 h 19.6875 v 52.8906 h 4.60937 v -56.875 z m 56.95313,0 v 7.7344 c -2.70834,0.1302 -5.20834,0.7421 -7.5,1.8359 -2.26563,1.0677 -4.21875,2.526 -5.85938,4.375 -1.64062,1.8229 -2.92969,3.9713 -3.86719,6.4453 -0.91145,2.4479 -1.36718,5.1042 -1.36718,7.9688 0,2.8906 0.45573,5.5729 1.36718,8.0468 0.9375,2.4479 2.22657,4.5834 3.86719,6.4063 1.64063,1.8229 3.59375,3.2812 5.85938,4.375 2.29166,1.0677 4.79166,1.6666 7.5,1.7969 v 7.8906 h 4.60937 v -7.8906 c 2.68229,-0.1303 5.15625,-0.7422 7.42188,-1.836 2.29166,-1.0937 4.27083,-2.5521 5.9375,-4.375 1.66666,-1.8489 2.95573,-3.9974 3.86718,-6.4453 0.9375,-2.474 1.40625,-5.1562 1.40625,-8.0469 0,-2.8646 -0.46875,-5.5208 -1.40625,-7.9687 -0.91145,-2.474 -2.20052,-4.6094 -3.86718,-6.4063 -1.66667,-1.8229 -3.64584,-3.2682 -5.9375,-4.3359 -2.26563,-1.0938 -4.73959,-1.7057 -7.42188,-1.8359 v -7.7344 z m 48.75,0 -18.51563,56.875 h 4.72656 l 5.03907,-15.8594 h 21.64062 l 5,15.8594 h 4.6875 l -18.35937,-56.875 z m 33.08593,0 v 56.875 h 17.89063 c 2.34375,-0.026 4.58333,-0.4037 6.71875,-1.1328 2.16146,-0.7292 4.0625,-1.7709 5.70312,-3.125 1.64063,-1.3802 2.94271,-3.0469 3.90625,-5 0.96355,-1.9792 1.4323,-4.2318 1.40625,-6.7578 0,-1.7448 -0.29948,-3.3724 -0.89843,-4.8829 -0.57292,-1.5104 -1.36719,-2.8515 -2.38282,-4.0234 -1.01562,-1.1979 -2.22656,-2.2005 -3.63281,-3.0078 -1.38021,-0.8073 -2.89062,-1.4063 -4.53125,-1.7969 1.32813,-0.4948 2.56511,-1.1068 3.71094,-1.8359 1.14583,-0.7552 2.13542,-1.6276 2.96875,-2.6172 0.85937,-1.0156 1.53646,-2.1615 2.03125,-3.4375 0.49479,-1.3021 0.74219,-2.7604 0.74219,-4.375 0.026,-2.5781 -0.48177,-4.7917 -1.52344,-6.6406 -1.01563,-1.875 -2.36979,-3.4115 -4.0625,-4.6094 -1.69271,-1.224 -3.63281,-2.1224 -5.82031,-2.6953 -2.16146,-0.599 -4.38802,-0.9115 -6.67969,-0.9375 z m 47.07032,0 v 56.875 h 4.60937 l 25.42969,-47.6953 -0.0391,47.6953 h 4.60937 v -56.875 h -4.60937 l -25.42969,47.6562 0.0391,-47.6562 z m 44.96093,0 v 4.1015 h 18.16407 l -0.0391,52.7735 h 4.57032 v -52.7735 h 18.125 v -4.1015 z m -87.34375,4.1015 h 10.97657 c 1.66666,0.026 3.29427,0.2474 4.88281,0.6641 1.58854,0.3906 3.00781,1.0156 4.25781,1.875 1.25,0.8333 2.25261,1.9271 3.00781,3.2813 0.75521,1.3281 1.13282,2.9427 1.13282,4.8437 0,1.8229 -0.36459,3.3984 -1.09375,4.7266 -0.72917,1.3281 -1.69271,2.4349 -2.89063,3.3203 -1.17187,0.8854 -2.52604,1.5495 -4.0625,1.9922 -1.53646,0.4427 -3.125,0.677 -4.76562,0.7031 h -11.44532 z m -179.57031,2.8125 9.45313,29.9219 h -18.98438 z m 143.90625,0 9.45313,29.9219 h -18.98438 z m -50.85937,4.8047 v 33.2813 c -2.16146,-0.1042 -4.10157,-0.586 -5.82032,-1.4453 -1.71875,-0.8855 -3.17708,-2.0573 -4.375,-3.5157 -1.19791,-1.4843 -2.12239,-3.2161 -2.77343,-5.1953 -0.65105,-1.9791 -0.97657,-4.1406 -0.97657,-6.4843 0,-2.3178 0.32552,-4.4662 0.97657,-6.4454 0.65104,-1.9791 1.57552,-3.6979 2.77343,-5.1562 1.19792,-1.4844 2.65625,-2.6563 4.375,-3.5156 1.71875,-0.8855 3.65886,-1.3933 5.82032,-1.5235 z m 4.60937,0 c 2.13542,0.1302 4.0625,0.625 5.78125,1.4844 1.74479,0.8594 3.21615,2.0182 4.41406,3.4766 1.22396,1.4583 2.16146,3.177 2.8125,5.1562 0.65105,1.9792 0.97657,4.1276 0.97657,6.4453 0,2.3438 -0.32552,4.5183 -0.97657,6.5235 -0.65104,1.9791 -1.58854,3.7109 -2.8125,5.1953 -1.19791,1.4844 -2.66927,2.6692 -4.41406,3.5547 -1.71875,0.8854 -3.64583,1.3802 -5.78125,1.4843 z m 81.91406,17.8125 h 13.67188 c 1.66667,0.052 3.25521,0.3386 4.76562,0.8594 1.53646,0.5208 2.87761,1.263 4.02344,2.2266 1.17188,0.9635 2.08333,2.1484 2.73438,3.5547 0.67708,1.3802 1.01562,2.9687 1.01562,4.7656 0,1.8489 -0.35156,3.5026 -1.05469,4.9609 -0.67708,1.4323 -1.61458,2.6563 -2.8125,3.6719 -1.17187,1.0156 -2.53906,1.8099 -4.10156,2.3828 -1.5625,0.5469 -3.20312,0.8333 -4.92187,0.8594 h -13.32032 z"
       id="text847"
       inkscape:connector-curvature="0" />
  </g>
</svg>
