<?xml version="1.0" encoding="UTF-8" standalone="no"?>
<svg
   xmlns:dc="http://purl.org/dc/elements/1.1/"
   xmlns:cc="http://creativecommons.org/ns#"
   xmlns:rdf="http://www.w3.org/1999/02/22-rdf-syntax-ns#"
   xmlns:svg="http://www.w3.org/2000/svg"
   xmlns="http://www.w3.org/2000/svg"
   xmlns:sodipodi="http://sodipodi.sourceforge.net/DTD/sodipodi-0.dtd"
   xmlns:inkscape="http://www.inkscape.org/namespaces/inkscape"
   width="1024"
   height="768"
   viewBox="0 0 1024 768"
   version="1.1"
   id="svg8"
   inkscape:version="1.0beta2 (2715ced, 2020-01-03)"
   sodipodi:docname="Alphabet.svg"
   inkscape:export-filename="G:\Низкогория\Alphabet.png"
   inkscape:export-xdpi="96"
   inkscape:export-ydpi="96">
  <defs
     id="defs2" />
  <sodipodi:namedview
     id="base"
     pagecolor="#ffffff"
     bordercolor="#666666"
     borderopacity="1.0"
     inkscape:pageopacity="0.0"
     inkscape:pageshadow="2"
     inkscape:zoom="0.5"
     inkscape:cx="419.40203"
     inkscape:cy="320.0613"
     inkscape:document-units="px"
     inkscape:current-layer="layer1"
     showgrid="false"
     units="px"
     inkscape:window-width="1366"
     inkscape:window-height="706"
     inkscape:window-x="-8"
     inkscape:window-y="-8"
     inkscape:window-maximized="1"
     inkscape:snap-bbox="true"
     inkscape:bbox-paths="true"
     inkscape:bbox-nodes="true"
     inkscape:snap-bbox-edge-midpoints="true"
     inkscape:snap-bbox-midpoints="true"
     inkscape:object-paths="true"
     inkscape:snap-smooth-nodes="true"
     inkscape:snap-page="true"
     inkscape:snap-object-midpoints="true"
     inkscape:snap-center="true"
     showguides="true"
     inkscape:guide-bbox="true"
     inkscape:document-rotation="0">
    <inkscape:grid
       type="xygrid"
       id="grid60"
       empspacing="4" />
  </sodipodi:namedview>
  <metadata
     id="metadata5">
    <rdf:RDF>
      <cc:Work
         rdf:about="">
        <dc:format>image/svg+xml</dc:format>
        <dc:type
           rdf:resource="http://purl.org/dc/dcmitype/StillImage" />
        <dc:title />
      </cc:Work>
    </rdf:RDF>
  </metadata>
  <g
     inkscape:label="Layer 1"
     inkscape:groupmode="layer"
     id="layer1"
     transform="translate(0,-587.99998)">
    <rect
       style="opacity:1;fill:#ffffff;fill-opacity:1;stroke:none;stroke-width:6;stroke-linecap:round;stroke-linejoin:round;stroke-miterlimit:4;stroke-dasharray:none;stroke-dashoffset:0;stroke-opacity:1;paint-order:normal"
       id="rect831"
       width="1024"
       height="768"
       x="0"
       y="588" />
    <rect
       y="588"
       x="0"
       height="768"
       width="1024"
       id="rect824"
       style="opacity:0.125;fill:#000000;fill-opacity:0.25;stroke:none;stroke-width:6;stroke-linecap:round;stroke-linejoin:round;stroke-miterlimit:4;stroke-dasharray:none;stroke-dashoffset:0;stroke-opacity:1;paint-order:normal" />
    <g
       aria-label="НИЗКОГОРСКИЙ"
       id="text54"
       style="font-style:normal;font-variant:normal;font-weight:300;font-stretch:normal;font-size:45.011px;line-height:1.25;font-family:'Roboto Mono';-inkscape-font-specification:'Roboto Mono weight=251';letter-spacing:0px;word-spacing:9.0022px;fill:#800080;fill-opacity:1;stroke:none;stroke-width:0.562635">
      <path
         d="m 373.69227,652 h -2.48352 V 636.65934 H 356.17578 V 652 h -2.48352 v -32.00001 h 2.48352 v 14.37363 h 15.03297 v -14.37363 h 2.48352 z"
         style="stroke-width:0.562635;fill:#800080;fill-opacity:1"
         id="path183" />
      <path
         d="m 397.82414,619.99999 h 2.59341 V 652 h -2.59341 l 0.022,-26.83517 L 383.53842,652 h -2.5934 v -32.00001 h 2.5934 l -0.022,26.8132 z"
         style="stroke-width:0.562635;fill:#800080;fill-opacity:1"
         id="path185" />
      <path
         d="m 417.53843,634.54945 q 1.73627,0 3.23077,-0.35165 1.51649,-0.37363 2.63737,-1.12088 1.12088,-0.74726 1.75824,-1.91209 0.65934,-1.18681 0.65934,-2.83517 0,-1.60439 -0.65934,-2.81318 -0.63736,-1.23077 -1.75824,-2.04396 -1.12088,-0.83517 -2.65934,-1.25275 -1.53847,-0.41758 -3.31869,-0.41758 -1.56044,0 -3.01099,0.46154 -1.42857,0.43956 -2.54945,1.2967 -1.0989,0.83517 -1.78022,2.06594 -0.65934,1.20879 -0.70329,2.74725 h -2.63737 q 0.044,-2.06593 0.94506,-3.69231 0.9011,-1.64835 2.35165,-2.76923 1.47252,-1.14286 3.38461,-1.73626 1.91209,-0.61539 4,-0.61539 2.26374,0 4.28572,0.52747 2.02198,0.52748 3.51648,1.62638 1.49451,1.0989 2.35165,2.76923 0.87912,1.67033 0.87912,3.93407 0,1.34066 -0.46153,2.48351 -0.43957,1.12088 -1.23077,2.02198 -0.79121,0.9011 -1.86814,1.58242 -1.07692,0.68132 -2.35165,1.12088 1.4066,0.3956 2.59341,1.05494 1.18682,0.63737 2.02198,1.58242 0.85714,0.94506 1.31868,2.21978 0.48352,1.25275 0.48352,2.83517 0,2.28571 -0.96703,4 -0.94506,1.71429 -2.52748,2.85714 -1.58242,1.14286 -3.67033,1.71429 -2.08791,0.57143 -4.37363,0.57143 -2.10989,0 -4.08791,-0.57143 -1.97802,-0.59341 -3.53846,-1.75824 -1.53846,-1.16484 -2.5055,-2.9011 -0.94505,-1.75824 -0.98901,-4.10989 h 2.63736 q 0.044,1.62637 0.72528,2.94505 0.68132,1.31868 1.82418,2.24176 1.16483,0.92308 2.68132,1.42857 1.53846,0.5055 3.25274,0.5055 1.8022,0 3.4066,-0.41758 1.62637,-0.43957 2.83516,-1.29671 1.23077,-0.85714 1.93407,-2.13187 0.72528,-1.27472 0.72528,-2.98901 0,-1.86813 -0.7033,-3.12088 -0.7033,-1.25275 -1.91209,-2.02198 -1.18681,-0.76923 -2.79121,-1.0989 -1.58242,-0.35165 -3.38462,-0.35165 h -4.04395 v -2.26373 z"
         style="stroke-width:0.562635;fill:#800080;fill-opacity:1"
         id="path187" />
      <path
         d="M 442.48349,636.94505 H 438.3736 V 652 h -2.5934 v -32.00001 h 2.5934 v 14.72528 h 4.08792 l 11.0989,-14.72528 h 3.07692 L 444.72525,635.73626 457.56042,652 h -3.25275 z"
         style="stroke-width:0.562635;fill:#800080;fill-opacity:1"
         id="path189" />
      <path
         d="m 482.3956,638.13186 q -0.022,1.62638 -0.28572,3.34066 -0.26373,1.69231 -0.83516,3.29671 -0.54945,1.58242 -1.4066,2.98901 -0.85714,1.38462 -2.04395,2.43956 -1.16484,1.03297 -2.7033,1.64835 -1.53846,0.59341 -3.45055,0.59341 -1.89011,0 -3.42857,-0.59341 -1.53847,-0.61538 -2.74726,-1.64835 -1.18681,-1.05494 -2.06593,-2.46154 -0.85714,-1.40659 -1.42857,-2.98901 -0.54945,-1.6044 -0.83517,-3.2967 -0.26374,-1.69231 -0.28571,-3.31869 v -4.21978 q 0.022,-1.62637 0.28571,-3.31868 0.28572,-1.71429 0.83517,-3.2967 0.54945,-1.6044 1.40659,-3.01099 0.87912,-1.4066 2.06593,-2.46154 1.18682,-1.05495 2.7033,-1.64835 1.53846,-0.61539 3.45055,-0.61539 1.91209,0 3.45055,0.61539 1.53847,0.5934 2.72528,1.64835 1.20879,1.03296 2.06593,2.43956 0.85715,1.40659 1.4066,3.01099 0.57143,1.58242 0.83516,3.2967 0.26374,1.69231 0.28572,3.34066 z m -2.59341,-4.26373 q -0.022,-1.27473 -0.1978,-2.65934 -0.17583,-1.38462 -0.57143,-2.7033 -0.39561,-1.31868 -1.03297,-2.5055 -0.61538,-1.20879 -1.51648,-2.10989 -0.9011,-0.9011 -2.10989,-1.42857 -1.2088,-0.52747 -2.74726,-0.52747 -1.53846,0 -2.74725,0.54945 -1.18681,0.52747 -2.08791,1.42857 -0.9011,0.9011 -1.53847,2.10989 -0.61538,1.18681 -1.01098,2.5055 -0.39561,1.31868 -0.57143,2.70329 -0.17583,1.38462 -0.19781,2.63737 v 4.26373 q 0.022,1.27473 0.19781,2.65935 0.1978,1.36263 0.5934,2.70329 0.39561,1.31868 1.01099,2.52748 0.63737,1.18681 1.53846,2.08791 0.9011,0.9011 2.1099,1.45055 1.20879,0.52747 2.74725,0.52747 1.56044,0 2.74725,-0.52747 1.20879,-0.54945 2.10989,-1.45055 0.9011,-0.9011 1.51649,-2.08791 0.63736,-1.2088 1.01099,-2.52748 0.3956,-1.34066 0.54945,-2.70329 0.17582,-1.38462 0.1978,-2.65935 z"
         style="stroke-width:0.562635;fill:#800080;fill-opacity:1"
         id="path191" />
      <path
         d="M 508.52747,622.24175 H 491.95604 V 652 h -2.63736 v -32.00001 h 19.20879 z"
         style="stroke-width:0.562635;fill:#800080;fill-opacity:1"
         id="path193" />
      <path
         d="m 536.37363,638.13186 q -0.022,1.62638 -0.28571,3.34066 -0.26374,1.69231 -0.83517,3.29671 -0.54945,1.58242 -1.40659,2.98901 -0.85714,1.38462 -2.04396,2.43956 -1.16483,1.03297 -2.7033,1.64835 -1.53846,0.59341 -3.45055,0.59341 -1.89011,0 -3.42857,-0.59341 -1.53846,-0.61538 -2.74725,-1.64835 -1.18682,-1.05494 -2.06594,-2.46154 -0.85714,-1.40659 -1.42857,-2.98901 -0.54945,-1.6044 -0.83516,-3.2967 -0.26374,-1.69231 -0.28572,-3.31869 v -4.21978 q 0.022,-1.62637 0.28572,-3.31868 0.28571,-1.71429 0.83516,-3.2967 0.54945,-1.6044 1.4066,-3.01099 0.87912,-1.4066 2.06593,-2.46154 1.18681,-1.05495 2.7033,-1.64835 1.53846,-0.61539 3.45055,-0.61539 1.91209,0 3.45055,0.61539 1.53846,0.5934 2.72527,1.64835 1.2088,1.03296 2.06594,2.43956 0.85714,1.40659 1.40659,3.01099 0.57143,1.58242 0.83517,3.2967 0.26373,1.69231 0.28571,3.34066 z m -2.59341,-4.26373 q -0.022,-1.27473 -0.1978,-2.65934 -0.17582,-1.38462 -0.57143,-2.7033 -0.3956,-1.31868 -1.03296,-2.5055 -0.61539,-1.20879 -1.51649,-2.10989 -0.9011,-0.9011 -2.10989,-1.42857 -1.20879,-0.52747 -2.74725,-0.52747 -1.53846,0 -2.74726,0.54945 -1.18681,0.52747 -2.08791,1.42857 -0.9011,0.9011 -1.53846,2.10989 -0.61539,1.18681 -1.01099,2.5055 -0.3956,1.31868 -0.57143,2.70329 -0.17582,1.38462 -0.1978,2.63737 v 4.26373 q 0.022,1.27473 0.1978,2.65935 0.1978,1.36263 0.59341,2.70329 0.3956,1.31868 1.01099,2.52748 0.63736,1.18681 1.53846,2.08791 0.9011,0.9011 2.10989,1.45055 1.20879,0.52747 2.74725,0.52747 1.56044,0 2.74726,-0.52747 1.20879,-0.54945 2.10989,-1.45055 0.9011,-0.9011 1.51648,-2.08791 0.63736,-1.2088 1.01099,-2.52748 0.39561,-1.34066 0.54945,-2.70329 0.17583,-1.38462 0.1978,-2.65935 z"
         style="stroke-width:0.562635;fill:#800080;fill-opacity:1"
         id="path195" />
      <path
         d="M 546.50551,638.81318 V 652 h -2.63736 v -32.00001 h 10.06594 q 2.10989,0.044 3.93406,0.7033 1.84616,0.65934 3.2088,1.89011 1.38461,1.20879 2.17582,2.94505 0.79121,1.73627 0.79121,3.93407 0,2.1978 -0.79121,3.93407 -0.79121,1.71428 -2.17582,2.92308 -1.36264,1.18681 -3.2088,1.82417 -1.84615,0.63737 -3.93406,0.65934 z m 0,-2.21978 h 7.42858 q 1.58241,-0.022 2.94505,-0.52747 1.36264,-0.5055 2.37363,-1.40659 1.01099,-0.9011 1.58242,-2.19781 0.5934,-1.2967 0.5934,-2.94505 0,-1.64835 -0.57142,-2.98901 -0.57143,-1.34066 -1.58242,-2.26374 -1.01099,-0.94506 -2.37363,-1.45055 -1.36264,-0.52747 -2.96703,-0.57143 h -7.42858 z"
         style="stroke-width:0.562635;fill:#800080;fill-opacity:1"
         id="path197" />
      <path
         d="m 590.26376,642.28571 q -0.26373,2.15385 -1.07692,4.02198 -0.81319,1.84616 -2.15385,3.23077 -1.34066,1.36264 -3.18681,2.13187 -1.82418,0.76923 -4.10989,0.76923 -1.91209,0 -3.47253,-0.57143 -1.53846,-0.5934 -2.74726,-1.60439 -1.18681,-1.01099 -2.06593,-2.37363 -0.87912,-1.36264 -1.45055,-2.92308 -0.57143,-1.58242 -0.85714,-3.27473 -0.26374,-1.6923 -0.28572,-3.36263 v -4.63737 q 0.022,-1.67033 0.28572,-3.36264 0.28571,-1.6923 0.85714,-3.25274 0.57143,-1.58242 1.45055,-2.94506 0.87912,-1.36264 2.06593,-2.37363 1.2088,-1.03296 2.74726,-1.60439 1.56044,-0.59341 3.47253,-0.59341 2.32967,0 4.15384,0.76923 1.84616,0.76923 3.18682,2.15385 1.34066,1.36264 2.13187,3.23077 0.81318,1.86813 1.05494,4.06593 h -2.61538 q -0.26374,-1.64835 -0.85715,-3.0989 -0.57143,-1.45055 -1.53846,-2.52747 -0.96703,-1.0989 -2.32967,-1.71429 -1.36264,-0.63736 -3.18681,-0.63736 -1.56044,0 -2.76924,0.52747 -1.20879,0.52747 -2.13186,1.4066 -0.9011,0.87912 -1.53847,2.06593 -0.63736,1.16484 -1.03296,2.48352 -0.39561,1.31868 -0.59341,2.7033 -0.17582,1.36263 -0.17582,2.65934 v 4.68132 q 0,1.2967 0.17582,2.68132 0.1978,1.38461 0.59341,2.70329 0.3956,1.31869 1.03296,2.5055 0.63737,1.16483 1.53847,2.06593 0.92307,0.87912 2.13186,1.4066 1.2088,0.52747 2.76924,0.52747 1.84615,0 3.20879,-0.59341 1.38461,-0.61538 2.32967,-1.69231 0.96703,-1.07692 1.53846,-2.52747 0.59341,-1.45055 0.83517,-3.12088 z"
         style="stroke-width:0.562635;fill:#800080;fill-opacity:1"
         id="path199" />
      <path
         d="m 604.41761,636.94505 h -4.10989 V 652 h -2.59341 v -32.00001 h 2.59341 v 14.72528 h 4.08791 l 11.0989,-14.72528 h 3.07693 L 606.65937,635.73626 619.49453,652 h -3.25274 z"
         style="stroke-width:0.562635;fill:#800080;fill-opacity:1"
         id="path201" />
      <path
         d="m 640.72532,619.99999 h 2.59341 V 652 h -2.59341 l 0.022,-26.83517 L 626.4396,652 h -2.59341 v -32.00001 h 2.59341 l -0.022,26.8132 z"
         style="stroke-width:0.562635;fill:#800080;fill-opacity:1"
         id="path203" />
      <path
         d="m 667.71433,619.99999 h 2.59341 V 652 h -2.59341 l 0.022,-26.83517 L 653.42862,652 h -2.59341 v -32.00001 h 2.59341 l -0.022,26.8132 z m -1.01099,-8.24176 q -0.0439,1.2967 -0.52747,2.35165 -0.46154,1.03297 -1.2967,1.78022 -0.83517,0.72527 -1.97802,1.12088 -1.14286,0.3956 -2.52748,0.3956 -1.38461,0 -2.54945,-0.3956 -1.14286,-0.39561 -2,-1.12088 -0.83516,-0.74725 -1.31868,-1.78022 -0.46154,-1.05495 -0.5055,-2.35165 h 2.24176 q 0.0659,1.75824 1.12088,2.76923 1.07693,0.98901 3.01099,0.98901 1.86813,0 2.92308,-1.01099 1.07692,-1.01099 1.16484,-2.74725 z"
         style="stroke-width:0.562635;fill:#800080;fill-opacity:1"
         id="path205" />
    </g>
    <g
       aria-label="АЛФАВИТ"
       id="text64"
       style="font-style:normal;font-variant:normal;font-weight:300;font-stretch:normal;font-size:45.011px;line-height:1.25;font-family:'Roboto Mono';-inkscape-font-specification:'Roboto Mono weight=251';letter-spacing:0px;word-spacing:9.0022px;fill:#800080;fill-opacity:1;stroke:none;stroke-width:0.562635">
      <path
         d="M 437.29667,1315.0769 H 425.12084 L 422.28568,1324 h -2.65934 l 10.41758,-32 h 2.37363 l 10.32967,32 h -2.63736 z m -11.42857,-2.3516 h 10.68132 l -5.31869,-16.8352 z"
         style="stroke-width:0.562635;fill:#800080;fill-opacity:1"
         id="path208" />
      <path
         d="m 467.73624,1292 v 32 h -2.59341 v -29.7583 h -11.07692 l -0.35165,13.2308 q -0.044,1.7802 -0.1978,3.6923 -0.13187,1.9121 -0.46154,3.7583 -0.32967,1.8242 -0.87912,3.4725 -0.52748,1.6484 -1.34066,2.9011 -0.81319,1.2308 -1.91209,1.978 -1.0989,0.7253 -2.57143,0.7253 h -0.87912 v -2.2198 h 0.79121 q 0.94505,0 1.67033,-0.6813 0.72527,-0.6813 1.25274,-1.7802 0.52748,-1.1209 0.87913,-2.5714 0.37362,-1.4726 0.5934,-3.055 0.21978,-1.5824 0.30769,-3.1868 0.1099,-1.6044 0.13187,-3.033 L 451.53843,1292 Z"
         style="stroke-width:0.562635;fill:#800080;fill-opacity:1"
         id="path210" />
      <path
         d="m 486.17581,1296.3516 q 2.26373,0.1099 4.17582,1.033 1.93407,0.9011 3.34066,2.4396 1.4066,1.5165 2.17583,3.6044 0.79121,2.0659 0.79121,4.4835 0,2.4395 -0.79121,4.5275 -0.76923,2.0659 -2.17583,3.6263 -1.40659,1.5385 -3.34066,2.4616 -1.91209,0.923 -4.17582,1.0329 V 1324 h -2.59341 v -4.4396 q -2.28572,-0.1099 -4.21978,-1.011 -1.91209,-0.923 -3.29671,-2.4615 -1.38461,-1.5385 -2.17582,-3.6044 -0.76923,-2.0879 -0.76923,-4.5275 0,-2.4175 0.76923,-4.4835 0.79121,-2.0879 2.17582,-3.6264 1.38462,-1.5604 3.29671,-2.4615 1.93406,-0.9231 4.21978,-1.033 V 1292 h 2.59341 z m 7.86813,11.5605 q 0,-1.9561 -0.54945,-3.6264 -0.54945,-1.6703 -1.58242,-2.9011 -1.01099,-1.2308 -2.48351,-1.956 -1.45055,-0.7253 -3.25275,-0.8352 v 18.7473 q 1.8022,-0.088 3.25275,-0.8352 1.47252,-0.7473 2.48351,-2 1.03297,-1.2528 1.58242,-2.9231 0.54945,-1.6923 0.54945,-3.6703 z m -18.3077,0.044 q 0,1.9781 0.54945,3.6484 0.54945,1.6703 1.56044,2.9231 1.01099,1.2307 2.46154,1.978 1.45055,0.7253 3.27473,0.8132 v -18.7253 q -1.82418,0.1099 -3.27473,0.8571 -1.45055,0.7253 -2.46154,1.9781 -1.01099,1.2307 -1.56044,2.9011 -0.54945,1.6703 -0.54945,3.6263 z"
         style="stroke-width:0.562635;fill:#800080;fill-opacity:1"
         id="path212" />
      <path
         d="M 518.26373,1315.0769 H 506.0879 L 503.25273,1324 h -2.65934 l 10.41759,-32 h 2.37362 l 10.32968,32 h -2.63737 z m -11.42858,-2.3516 h 10.68132 l -5.31868,-16.8352 z"
         style="stroke-width:0.562635;fill:#800080;fill-opacity:1"
         id="path214" />
      <path
         d="m 529.62637,1324 v -32 h 8.74726 q 1.93406,0.022 3.75824,0.5275 1.84615,0.4835 3.27472,1.5164 1.42858,1.011 2.28572,2.5935 0.87912,1.5604 0.85714,3.7362 0,1.3627 -0.41758,2.4616 -0.41758,1.0769 -1.14286,1.934 -0.70329,0.8352 -1.67033,1.4726 -0.96703,0.6153 -2.08791,1.0329 1.38462,0.3297 2.54945,1.011 1.18681,0.6813 2.04396,1.6923 0.85714,0.989 1.34066,2.2638 0.50549,1.2747 0.50549,2.7472 0.022,2.1319 -0.79121,3.8022 -0.81318,1.6484 -2.1978,2.8132 -1.38462,1.1429 -3.20879,1.7582 -1.8022,0.6154 -3.78022,0.6374 z m 2.63736,-15.3846 v 13.0989 h 7.49451 q 1.45055,-0.022 2.76923,-0.4835 1.31868,-0.4835 2.3077,-1.3407 1.01098,-0.8571 1.58241,-2.0659 0.59341,-1.2308 0.59341,-2.7912 0,-1.5165 -0.57143,-2.6814 -0.54945,-1.1868 -1.53846,-2 -0.96703,-0.8131 -2.26374,-1.2527 -1.27472,-0.4396 -2.68132,-0.4835 z m 0,-2.2638 h 6.43957 q 1.38461,-0.022 2.68132,-0.3956 1.2967,-0.3736 2.28571,-1.1208 1.01099,-0.7473 1.62637,-1.8682 0.61539,-1.1209 0.61539,-2.6593 0,-1.6044 -0.63736,-2.7253 -0.63737,-1.1428 -1.69231,-1.8461 -1.05495,-0.7253 -2.39561,-1.055 -1.34066,-0.3516 -2.74725,-0.3736 h -6.17583 z"
         style="stroke-width:0.562635;fill:#800080;fill-opacity:1"
         id="path216" />
      <path
         d="m 572.98902,1292 h 2.59341 v 32 h -2.59341 l 0.022,-26.8352 L 558.7033,1324 h -2.5934 v -32 h 2.5934 l -0.022,26.8132 z"
         style="stroke-width:0.562635;fill:#800080;fill-opacity:1"
         id="path218" />
      <path
         d="m 604.37364,1294.3077 h -10.1978 V 1324 h -2.57143 l 0.022,-29.6923 H 581.4066 V 1292 h 22.96704 z"
         style="stroke-width:0.562635;fill:#800080;fill-opacity:1"
         id="path220" />
    </g>
    <text
       xml:space="preserve"
       style="font-style:normal;font-variant:normal;font-weight:300;font-stretch:normal;font-size:90.022px;line-height:1.25;font-family:'Roboto Mono';-inkscape-font-specification:'Roboto Mono Light';letter-spacing:0px;word-spacing:18.0044px;fill:#000000;fill-opacity:1;stroke:none;stroke-width:1.12527"
       x="106.49218"
       y="0"
       id="text106"><tspan
         style="stroke-width:1.12527"
         sodipodi:role="line"
         x="106.49218"
         y="0"
         id="tspan96">А Б В Г Ґ Д Е</tspan><tspan
         id="tspan98"
         style="stroke-width:1.12527"
         sodipodi:role="line"
         x="106.49218"
         y="112.5275">Ж З И Й К Л М</tspan><tspan
         id="tspan100"
         style="stroke-width:1.12527"
         sodipodi:role="line"
         x="106.49218"
         y="225.05501">Н О П Р С Т Ў</tspan><tspan
         id="tspan102"
         style="stroke-width:1.12527"
         sodipodi:role="line"
         x="106.49218"
         y="337.58252">Ф Х Ц Ч Ш Щ Ъ</tspan><tspan
         id="tspan104"
         style="stroke-width:1.12527"
         sodipodi:role="line"
         x="106.49218"
         y="450.11002">Ы Ь Э Ю Я</tspan></text>
    <text
       id="text110"
       y="-128"
       x="350.19775"
       style="font-style:normal;font-variant:normal;font-weight:300;font-stretch:normal;font-size:45.011px;line-height:1.25;font-family:'Roboto Mono';-inkscape-font-specification:'Roboto Mono weight=251';letter-spacing:0px;word-spacing:9.0022px;fill:#000000;fill-opacity:1;stroke:none;stroke-width:0.562635"
       xml:space="preserve"><tspan
         style="stroke-width:0.562635"
         y="-128"
         x="350.19775"
         id="tspan108"
         sodipodi:role="line">НИЗКОГОРСКИЙ</tspan></text>
    <text
       xml:space="preserve"
       style="font-style:normal;font-variant:normal;font-weight:300;font-stretch:normal;font-size:45.011px;line-height:1.25;font-family:'Roboto Mono';-inkscape-font-specification:'Roboto Mono weight=251';letter-spacing:0px;word-spacing:9.0022px;fill:#000000;fill-opacity:1;stroke:none;stroke-width:0.562635"
       x="417.40656"
       y="544"
       id="text114"><tspan
         sodipodi:role="line"
         id="tspan112"
         x="417.40656"
         y="544"
         style="stroke-width:0.562635">АЛФАВИТ</tspan></text>
    <g
       style="font-style:normal;font-variant:normal;font-weight:300;font-stretch:normal;font-size:90.022px;line-height:1.25;font-family:'Roboto Mono';-inkscape-font-specification:'Roboto Mono Light';letter-spacing:0px;word-spacing:18.0044px;fill:#800080;fill-opacity:1;stroke:none;stroke-width:1.12527"
       id="text85"
       aria-label="А Б В Г Ґ Д Е
Ж З И Й К Л М
Н О П Р С Т Ў
Ф Х Ц Ч Ш Щ Ъ
Ы Ь Э Ю Я">
      <path
         id="path87"
         style="fill:#800080;fill-opacity:1;stroke-width:1.12527"
         d="M 146.27241,762.15384 H 121.92076 L 116.25042,780 h -5.31868 l 20.83517,-64.00002 h 4.74726 L 157.17351,780 h -5.27472 z m -22.85715,-4.7033 H 144.7779 L 134.14054,723.7802 Z" />
      <path
         id="path89"
         style="fill:#800080;fill-opacity:1;stroke-width:1.12527"
         d="m 278.65047,720.4835 h -33.14286 v 23.38462 h 13.14286 q 4.52747,0.044 8.21978,1.27473 3.69231,1.23077 6.32967,3.56044 2.63737,2.28571 4.04396,5.62637 1.45055,3.29671 1.45055,7.51649 0,4.17582 -1.45055,7.56044 -1.40659,3.34066 -4.04396,5.71429 -2.63736,2.32967 -6.32967,3.60439 Q 263.17794,780 258.65047,780 h -18.41759 v -64.00002 h 38.41759 z m -33.14286,27.86814 v 27.2088 h 13.14286 q 3.42857,-0.044 6.15385,-1.01099 2.72527,-1.01099 4.61538,-2.81319 1.93407,-1.84615 2.94506,-4.35165 1.05494,-2.54945 1.05494,-5.62637 0,-3.03297 -1.05494,-5.49451 -1.01099,-2.46154 -2.94506,-4.17583 -1.89011,-1.75824 -4.65934,-2.72527 -2.72527,-0.96703 -6.10989,-1.01099 z" />
      <path
         id="path91"
         style="fill:#800080;fill-opacity:1;stroke-width:1.12527"
         d="m 366.94061,780 v -64.00002 h 17.49451 q 3.86814,0.044 7.51649,1.05495 3.69231,0.96703 6.54945,3.03297 2.85715,2.02197 4.57143,5.18681 1.75824,3.12088 1.71429,7.47253 0,2.72528 -0.83517,4.92308 -0.83516,2.15384 -2.28571,3.86813 -1.4066,1.67033 -3.34066,2.94506 -1.93407,1.23077 -4.17583,2.06593 2.76923,0.65934 5.09891,2.02198 2.37362,1.36264 4.08791,3.38462 1.71429,1.97802 2.68132,4.52747 1.01099,2.54945 1.01099,5.49451 0.0439,4.26373 -1.58242,7.60439 -1.62637,3.29671 -4.39561,5.62638 -2.76923,2.28571 -6.41758,3.51648 -3.6044,1.23077 -7.56044,1.27473 z m 5.27473,-30.76924 v 26.19781 h 14.98902 q 2.9011,-0.044 5.53846,-0.96703 2.63736,-0.96704 4.61539,-2.68132 2.02197,-1.71429 3.16483,-4.13187 1.18681,-2.46154 1.18681,-5.58242 0,-3.03297 -1.14285,-5.36264 -1.0989,-2.37363 -3.07693,-4 -1.93406,-1.62638 -4.52747,-2.5055 -2.54945,-0.87912 -5.36264,-0.96703 z m 0,-4.52747 h 12.87913 q 2.76923,-0.044 5.36263,-0.79121 2.59341,-0.74726 4.57143,-2.24176 2.02198,-1.49451 3.25275,-3.73627 1.23077,-2.24175 1.23077,-5.31868 0,-3.20879 -1.27472,-5.45055 -1.27473,-2.28571 -3.38462,-3.69231 -2.10989,-1.45055 -4.79121,-2.10989 -2.68132,-0.7033 -5.49451,-0.74725 h -12.35165 z" />
      <path
         id="path93"
         style="fill:#800080;fill-opacity:1;stroke-width:1.12527"
         d="M 531.14286,720.4835 H 498 V 780 h -5.27473 v -64.00002 h 38.41759 z" />
      <path
         id="path95"
         style="fill:#800080;fill-opacity:1;stroke-width:1.12527"
         d="M 658.20224,720.4835 H 624.18026 V 780 h -5.27473 v -64.00002 h 34.02199 v -15.56044 h 5.27472 z" />
      <path
         id="path97"
         style="fill:#800080;fill-opacity:1;stroke-width:1.12527"
         d="m 780.38247,775.56044 h 4.74726 l -0.39561,19.95605 h -4.74725 V 780 h -34.28573 v 15.51649 h -4.57143 l -0.57142,-19.95605 h 2.72527 q 2.46154,-1.62638 4.13187,-5.05495 1.67033,-3.42857 2.72528,-8.21978 1.0989,-4.83517 1.67033,-10.72528 0.57142,-5.93407 0.7912,-12.52747 l 1.09891,-23.03298 h 26.68132 z m -22.5055,-36.52748 q -0.17582,4.48351 -0.61538,9.62637 -0.39561,5.0989 -1.27473,10.06594 -0.83516,4.96703 -2.1978,9.40659 -1.36264,4.39561 -3.47253,7.42858 h 24.87913 V 720.4835 h -16.57144 z" />
      <path
         id="path99"
         style="fill:#800080;fill-opacity:1;stroke-width:1.12527"
         d="M 904.54078,749.31867 H 876.321 v 26.1099 h 32.52748 V 780 h -37.75825 v -64.00002 h 37.58242 v 4.61539 H 876.321 v 24.13187 h 28.21978 z" />
      <path
         id="path101"
         style="fill:#800080;fill-opacity:1;stroke-width:1.12527"
         d="m 139.37131,862.37365 h -3.2967 v 30.15385 h -5.09891 v -30.15385 h -3.47253 l -12.74725,30.15385 h -6.32967 l 14.32967,-32.08792 -12.96704,-31.91209 h 5.97803 l 11.2967,29.36264 h 3.91209 v -29.36264 h 5.09891 v 29.36264 h 3.73626 l 11.25275,-29.36264 h 6.02198 l -12.96704,31.91209 14.32968,32.08792 h -6.32967 z" />
      <path
         id="path103"
         style="fill:#800080;fill-opacity:1;stroke-width:1.12527"
         d="m 259.17794,857.6264 q 3.47253,0 6.46154,-0.7033 3.03297,-0.74725 5.27473,-2.24176 2.24176,-1.49451 3.51648,-3.82418 1.31869,-2.37362 1.31869,-5.67033 0,-3.20879 -1.31869,-5.62637 -1.27472,-2.46154 -3.51648,-4.08792 -2.24176,-1.67033 -5.31868,-2.50549 -3.07693,-0.83517 -6.63737,-0.83517 -3.12088,0 -6.02198,0.92308 -2.85714,0.87912 -5.0989,2.59341 -2.1978,1.67033 -3.56044,4.13187 -1.31868,2.41758 -1.4066,5.4945 h -5.27472 q 0.0879,-4.13187 1.89011,-7.38461 1.8022,-3.29671 4.7033,-5.53847 2.94505,-2.28571 6.76923,-3.47253 3.82418,-1.23077 8,-1.23077 4.52748,0 8.57143,1.05495 4.04396,1.05495 7.03297,3.25275 2.98901,2.1978 4.7033,5.53846 1.75824,3.34066 1.75824,7.86814 0,2.68132 -0.92308,4.96703 -0.87912,2.24176 -2.46153,4.04396 -1.58242,1.8022 -3.73627,3.16483 -2.15385,1.36264 -4.7033,2.24176 2.81319,0.79121 5.18682,2.10989 2.37362,1.27473 4.04395,3.16484 1.71429,1.89011 2.63737,4.43956 0.96703,2.5055 0.96703,5.67033 0,4.57143 -1.93407,8 -1.89011,3.42858 -5.05494,5.71429 -3.16484,2.28572 -7.34066,3.42857 -4.17583,1.14286 -8.74726,1.14286 -4.21978,0 -8.17582,-1.14286 -3.95605,-1.18681 -7.07693,-3.51648 -3.07692,-2.32967 -5.01099,-5.8022 -1.89011,-3.51648 -1.97802,-8.21978 h 5.27472 q 0.0879,3.25275 1.45055,5.89011 1.36264,2.63736 3.64836,4.48352 2.32967,1.84615 5.36264,2.85714 3.07692,1.01099 6.50549,1.01099 3.6044,0 6.81319,-0.83517 3.25275,-0.87912 5.67033,-2.5934 2.46154,-1.71429 3.86813,-4.26374 1.45055,-2.54945 1.45055,-5.97802 0,-3.73627 -1.40659,-6.24176 -1.40659,-2.5055 -3.82418,-4.04396 -2.37362,-1.53846 -5.58242,-2.1978 -3.16483,-0.7033 -6.76923,-0.7033 h -8.08791 v -4.52747 z" />
      <path
         id="path105"
         style="fill:#800080;fill-opacity:1;stroke-width:1.12527"
         d="m 399.68788,828.52749 h 5.18681 v 64.00001 h -5.18681 l 0.0439,-53.67034 -28.61539,53.67034 h -5.18682 v -64.00001 h 5.18682 l -0.044,53.62638 z" />
      <path
         id="path107"
         style="fill:#800080;fill-opacity:1;stroke-width:1.12527"
         d="m 525.64836,828.52749 h 5.18681 v 64.00001 h -5.18681 l 0.0439,-53.67034 -28.61539,53.67034 h -5.18682 v -64.00001 h 5.18682 l -0.044,53.62638 z m -2.02198,-16.48353 q -0.0879,2.59341 -1.05495,4.7033 -0.92308,2.06594 -2.59341,3.56044 -1.67033,1.45055 -3.95604,2.24176 -2.28572,0.79121 -5.05495,0.79121 -2.76923,0 -5.0989,-0.79121 -2.28571,-0.79121 -4,-2.24176 -1.67033,-1.4945 -2.63736,-3.56044 -0.92308,-2.10989 -1.01099,-4.7033 h 4.48351 q 0.13187,3.51649 2.24176,5.53847 2.15385,1.97802 6.02198,1.97802 3.73627,0 5.84616,-2.02198 2.15385,-2.02198 2.32967,-5.49451 z" />
      <path
         id="path109"
         style="fill:#800080;fill-opacity:1;stroke-width:1.12527"
         d="m 632.97147,862.41761 h -8.21978 v 30.10989 h -5.18682 v -64.00001 h 5.18682 v 29.45055 h 8.17582 l 22.19781,-29.45055 h 6.15385 l -23.82418,31.47253 25.67033,32.52748 h -6.50549 z" />
      <path
         id="path111"
         style="fill:#800080;fill-opacity:1;stroke-width:1.12527"
         d="m 782.97588,828.52749 v 64.00001 h -5.18681 V 833.011 h -22.15386 l -0.70329,26.46155 q -0.0879,3.56044 -0.39561,7.38462 -0.26373,3.82417 -0.92308,7.51648 -0.65934,3.64836 -1.75824,6.94506 -1.05494,3.2967 -2.68132,5.8022 -1.62637,2.46154 -3.82417,3.95604 -2.19781,1.45055 -5.14286,1.45055 h -1.75825 v -4.43956 h 1.58242 q 1.89011,0 3.34066,-1.36264 1.45055,-1.36263 2.5055,-3.56044 1.05494,-2.24175 1.75824,-5.14285 0.74725,-2.94506 1.18681,-6.1099 0.43956,-3.16483 0.61539,-6.37362 0.21978,-3.2088 0.26374,-6.06594 l 0.87912,-30.94506 z" />
      <path
         id="path113"
         style="fill:#800080;fill-opacity:1;stroke-width:1.12527"
         d="m 876.36495,828.52749 12.87913,36.21979 13.71429,-36.21979 h 6.9011 v 64.00001 h -5.14286 v -28.35165 l 0.3956,-28.61539 -14.1978,37.71429 h -3.42858 l -13.18681,-37.09891 0.43956,28.00001 v 28.35165 h -5.14286 v -64.00001 z" />
      <path
         id="path115"
         style="fill:#800080;fill-opacity:1;stroke-width:1.12527"
         d="m 153.4812,1005.055 h -4.96703 v -30.68132 h -30.06594 v 30.68132 h -4.96704 v -64.00001 h 4.96704 v 28.74726 h 30.06594 v -28.74726 h 4.96703 z" />
      <path
         id="path117"
         style="fill:#800080;fill-opacity:1;stroke-width:1.12527"
         d="m 280.93619,977.31874 q -0.044,3.25274 -0.57143,6.68132 -0.52747,3.38461 -1.67033,6.59341 -1.0989,3.16483 -2.81319,5.97802 -1.71428,2.76923 -4.08791,4.87911 -2.32967,2.0659 -5.40659,3.2967 -3.07693,1.1868 -6.90111,1.1868 -3.78022,0 -6.85714,-1.1868 -3.07692,-1.2308 -5.49451,-3.2967 -2.37362,-2.10988 -4.13187,-4.92307 -1.71428,-2.81318 -2.85714,-5.97802 -1.0989,-3.20879 -1.67033,-6.59341 -0.52747,-3.38462 -0.57143,-6.63736 v -8.43957 q 0.044,-3.25274 0.57143,-6.63736 0.57143,-3.42857 1.67033,-6.59341 1.0989,-3.20879 2.81319,-6.02198 1.75824,-2.81319 4.13187,-4.92308 2.37362,-2.10989 5.40659,-3.2967 3.07693,-1.23077 6.9011,-1.23077 3.82418,0 6.9011,1.23077 3.07693,1.18681 5.45055,3.2967 2.41759,2.06594 4.13187,4.87912 1.71429,2.81319 2.81319,6.02198 1.14286,3.16484 1.67033,6.59341 0.52747,3.38462 0.57143,6.68132 z m -5.18681,-8.52748 q -0.044,-2.54945 -0.39561,-5.31868 -0.35165,-2.76923 -1.14286,-5.4066 -0.79121,-2.63736 -2.06593,-5.01099 -1.23077,-2.41758 -3.03297,-4.21978 -1.8022,-1.8022 -4.21978,-2.85714 -2.41758,-1.05495 -5.49451,-1.05495 -3.07692,0 -5.4945,1.0989 -2.37363,1.05495 -4.17583,2.85715 -1.8022,1.8022 -3.07692,4.21978 -1.23077,2.37363 -2.02198,5.01099 -0.79121,2.63736 -1.14286,5.40659 -0.35165,2.76924 -0.3956,5.27473 v 8.52748 q 0.0439,2.54945 0.3956,5.31868 0.3956,2.72527 1.18681,5.40659 0.79121,2.63737 2.02198,5.05495 1.27473,2.37363 3.07693,4.17583 1.80219,1.80219 4.21978,2.90111 2.41758,1.0549 5.4945,1.0549 3.12088,0 5.49451,-1.0549 2.41758,-1.09892 4.21978,-2.90111 1.8022,-1.8022 3.03297,-4.17583 1.27473,-2.41758 2.02198,-5.05495 0.79121,-2.68132 1.0989,-5.40659 0.35165,-2.76923 0.39561,-5.31868 z" />
      <path
         id="path119"
         style="fill:#800080;fill-opacity:1;stroke-width:1.12527"
         d="m 404.74282,1005.055 h -5.18681 v -59.51649 h -28.3077 v 59.51649 h -5.18682 v -64.00001 h 38.68133 z" />
      <path
         id="path121"
         style="fill:#800080;fill-opacity:1;stroke-width:1.12527"
         d="m 499.14285,978.68137 v 26.37363 h -5.27472 V 941.05499 H 514 q 4.21978,0.0879 7.86814,1.40659 3.6923,1.31869 6.41758,3.78022 2.76923,2.41759 4.35165,5.89012 1.58242,3.47252 1.58242,7.86813 0,4.39561 -1.58242,7.86813 -1.58242,3.42858 -4.35165,5.84616 -2.72528,2.37363 -6.41758,3.64835 -3.69231,1.27473 -7.86814,1.31868 z m 0,-4.43956 H 514 q 3.16484,-0.0439 5.89011,-1.05494 2.72528,-1.01099 4.74726,-2.81319 2.02198,-1.8022 3.16483,-4.39561 1.18682,-2.5934 1.18682,-5.89011 0,-3.2967 -1.14286,-5.97802 -1.14286,-2.68132 -3.16484,-4.52748 -2.02198,-1.89011 -4.74725,-2.90109 -2.72528,-1.05495 -5.93407,-1.14286 h -14.85715 z" />
      <path
         id="path123"
         style="fill:#800080;fill-opacity:1;stroke-width:1.12527"
         d="m 658.6418,985.62643 q -0.52747,4.30769 -2.15384,8.04396 -1.62638,3.69231 -4.3077,6.46151 -2.68132,2.7253 -6.37362,4.2638 -3.64836,1.5384 -8.21979,1.5384 -3.82417,0 -6.94505,-1.1428 -3.07693,-1.1868 -5.49451,-3.2088 -2.37363,-2.022 -4.13187,-4.74727 -1.75824,-2.72528 -2.9011,-5.84616 -1.14286,-3.16484 -1.71429,-6.54945 -0.52747,-3.38462 -0.57142,-6.72528 v -9.27473 q 0.0439,-3.34066 0.57142,-6.72527 0.57143,-3.38462 1.71429,-6.5055 1.14286,-3.16484 2.9011,-5.89011 1.75824,-2.72528 4.13187,-4.74726 2.41758,-2.06593 5.49451,-3.20879 3.12088,-1.18681 6.94505,-1.18681 4.65935,0 8.3077,1.53846 3.69231,1.53846 6.37363,4.30769 2.68132,2.72528 4.26373,6.46154 1.62638,3.73627 2.10989,8.13188 h -5.23077 q -0.52747,-3.29671 -1.71428,-6.19781 -1.14286,-2.9011 -3.07693,-5.05495 -1.93406,-2.1978 -4.65934,-3.42857 -2.72527,-1.27472 -6.37363,-1.27472 -3.12088,0 -5.53846,1.05494 -2.41758,1.05495 -4.26374,2.81319 -1.8022,1.75824 -3.07692,4.13187 -1.27473,2.32967 -2.06594,4.96703 -0.7912,2.63737 -1.18681,5.4066 -0.35165,2.72527 -0.35165,5.31868 v 9.36264 q 0,2.59341 0.35165,5.36264 0.39561,2.76923 1.18681,5.40659 0.79121,2.63737 2.06594,5.011 1.27472,2.32967 3.07692,4.13186 1.84616,1.75825 4.26374,2.81317 2.41758,1.055 5.53846,1.055 3.69231,0 6.41759,-1.1868 2.76923,-1.23082 4.65934,-3.38466 1.93407,-2.15385 3.07692,-5.05495 1.18682,-2.9011 1.67033,-6.24176 z" />
      <path
         id="path125"
         style="fill:#800080;fill-opacity:1;stroke-width:1.12527"
         d="m 786.3605,945.67038 h -20.39561 v 59.38462 h -5.14286 l 0.0439,-59.38462 h -20.43956 v -4.61539 h 45.93408 z" />
      <path
         id="path127"
         style="fill:#800080;fill-opacity:1;stroke-width:1.12527"
         d="m 888.98034,978.81324 1.58242,3.91209 18.81319,-41.67034 h 6.1978 l -25.05495,53.09892 q -1.14286,2.32967 -2.54945,4.48351 -1.36264,2.10988 -3.25275,3.78018 -1.84615,1.6264 -4.35165,2.5935 -2.46154,0.967 -5.75824,0.967 -1.97802,0 -3.64835,-0.3517 -1.62638,-0.3077 -2.68132,-0.6593 l 0.87912,-4.1758 q 1.01099,0.2198 2.41758,0.4835 1.4066,0.2637 2.68132,0.2637 2.24176,0 3.95605,-0.7472 1.71428,-0.7473 3.07692,-1.9341 1.36264,-1.23077 2.37363,-2.76923 1.01099,-1.53846 1.8022,-3.12088 l 2.37362,-4.7033 -24.39561,-47.2088 h 6.06594 z m 14.63737,-54.50551 q -0.0879,2.59341 -1.05495,4.7033 -0.92308,2.06594 -2.59341,3.56044 -1.67033,1.45055 -3.95604,2.24176 -2.28572,0.79121 -5.05495,0.79121 -2.76923,0 -5.0989,-0.79121 -2.28571,-0.79121 -4,-2.24176 -1.67033,-1.4945 -2.63736,-3.56044 -0.92308,-2.10989 -1.01099,-4.7033 h 4.48351 q 0.13187,3.51649 2.24176,5.53847 2.15385,1.97802 6.02198,1.97802 3.73627,0 5.84616,-2.02198 2.15385,-2.02198 2.32967,-5.49451 z" />
      <path
         id="path129"
         style="fill:#800080;fill-opacity:1;stroke-width:1.12527"
         d="m 136.07461,1062.2858 q 4.52747,0.2198 8.35165,2.0659 3.86813,1.8022 6.68132,4.8792 2.81318,3.0329 4.35165,7.2087 1.58241,4.1319 1.58241,8.9671 0,4.8791 -1.58241,9.0549 -1.53847,4.1319 -4.35165,7.2528 -2.81319,3.0769 -6.68132,4.9231 -3.82418,1.8461 -8.35165,2.0659 v 8.8791 h -5.18682 v -8.8791 q -4.57143,-0.2198 -8.43956,-2.022 -3.82418,-1.8461 -6.59341,-4.9231 -2.76923,-3.0769 -4.35165,-7.2088 -1.53846,-4.1758 -1.53846,-9.0549 0,-4.8352 1.53846,-8.967 1.58242,-4.1759 4.35165,-7.2528 2.76923,-3.1209 6.59341,-4.9231 3.86813,-1.8461 8.43956,-2.0659 v -8.7033 h 5.18682 z m 15.73626,23.1209 q 0,-3.9121 -1.0989,-7.2528 -1.0989,-3.3406 -3.16483,-5.8022 -2.02198,-2.4615 -4.96704,-3.9121 -2.9011,-1.4505 -6.50549,-1.6703 v 37.4945 q 3.60439,-0.1758 6.50549,-1.6703 2.94506,-1.4945 4.96704,-4 2.06593,-2.5055 3.16483,-5.8462 1.0989,-3.3846 1.0989,-7.3406 z m -36.61539,0.088 q 0,3.956 1.0989,7.2967 1.0989,3.3407 3.12088,5.8462 2.02198,2.4615 4.92308,3.956 2.9011,1.4505 6.54945,1.6264 v -37.4506 q -3.64835,0.2198 -6.54945,1.7143 -2.9011,1.4505 -4.92308,3.956 -2.02198,2.4616 -3.12088,5.8022 -1.0989,3.3407 -1.0989,7.2528 z" />
      <path
         id="path131"
         style="fill:#800080;fill-opacity:1;stroke-width:1.12527"
         d="m 260.10102,1080.9232 16.21978,-27.3407 h 6.19781 l -19.29671,31.5604 19.91209,32.4396 h -6.15385 l -16.79121,-28.2198 -16.83517,28.2198 h -6.1978 l 19.91209,-32.4396 -19.29671,-31.5604 h 6.19781 z" />
      <path
         id="path133"
         style="fill:#800080;fill-opacity:1;stroke-width:1.12527"
         d="m 366.94061,1053.5825 h 5.18682 v 59.5605 h 28.13187 v -0.088 h 0.044 v -59.4725 h 5.18682 v 59.4725 h 5.67033 l -0.39561,19.9561 h -4.79121 v -15.4286 h -39.03298 z" />
      <path
         id="path135"
         style="fill:#800080;fill-opacity:1;stroke-width:1.12527"
         d="m 529.91209,1053.5825 v 64 h -5.18681 v -29.0989 q -3.25275,1.0549 -6.54945,1.7582 -3.25275,0.7033 -7.29671,0.7033 -8.87912,0 -13.31868,-4.967 -4.39561,-5.011 -4.48352,-14.6813 l 0.044,-17.7143 h 5.18682 l 0.0439,17.7143 q 0.044,7.5604 3.03297,11.3846 2.98901,3.7802 9.53847,3.7802 3.73626,0.044 7.07692,-0.6593 3.38462,-0.7473 6.72528,-1.8022 v -30.4176 z" />
      <path
         id="path137"
         style="fill:#800080;fill-opacity:1;stroke-width:1.12527"
         d="m 621.41102,1053.5825 v 59.5605 h 13.4066 v -59.5605 h 5.0989 v 59.5605 h 13.4066 v -59.5605 h 5.0989 v 64 h -42.15385 v -64 z" />
      <path
         id="path139"
         style="fill:#800080;fill-opacity:1;stroke-width:1.12527"
         d="m 747.45939,1053.5825 v 59.5605 h 13.40659 v -59.5605 h 5.09891 v 59.5605 h 12.17582 v -0.044 h 1.23077 v -59.5165 h 5.09891 v 59.5165 h 3.64835 l -0.39561,19.9121 h -4.65934 v -15.4286 h -40.74726 v -64 z" />
      <path
         id="path141"
         style="fill:#800080;fill-opacity:1;stroke-width:1.12527"
         d="m 864.27704,1053.5825 h 21.27473 v 27.8681 h 9.18681 q 4.35165,0.044 7.69231,1.4066 3.38462,1.3187 5.67033,3.6923 2.32968,2.3737 3.51649,5.6704 1.23077,3.2967 1.23077,7.2088 0,3.912 -1.23077,7.2527 -1.18681,3.2967 -3.51649,5.7143 -2.28571,2.4176 -5.67033,3.8242 -3.34066,1.3626 -7.69231,1.3626 h -14.32967 v -59.5165 h -16.13187 z m 21.27473,32.3517 v 27.2088 h 9.18681 q 3.25275,-0.044 5.67034,-1.1429 2.41758,-1.0989 4,-2.9451 1.62637,-1.8901 2.37362,-4.3956 0.79121,-2.5055 0.79121,-5.3187 0,-2.7692 -0.79121,-5.1868 -0.79121,-2.4615 -2.41758,-4.2637 -1.58242,-1.8022 -4,-2.8571 -2.41758,-1.055 -5.62638,-1.0989 z" />
      <path
         id="path143"
         style="fill:#800080;fill-opacity:1;stroke-width:1.12527"
         d="m 119.01966,1193.9781 h 6.72527 q 4.13187,0.044 7.2088,1.4506 3.12088,1.4066 5.14285,3.8242 2.06594,2.4175 3.07693,5.6703 1.01099,3.2527 1.01099,7.033 0,3.7802 -1.01099,7.0769 -1.01099,3.2967 -3.07693,5.7582 -2.02197,2.4176 -5.14285,3.8682 -3.07693,1.4066 -7.2088,1.4505 H 113.8768 v -64 h 5.14286 z m 0,4.4836 v 27.2088 h 6.72527 q 3.03297,-0.044 5.14286,-1.1869 2.15385,-1.1428 3.47253,-3.0329 1.31868,-1.9341 1.89011,-4.3956 0.61538,-2.5055 0.61538,-5.1868 0,-2.6374 -0.61538,-5.055 -0.61538,-2.4176 -1.97802,-4.2637 -1.31868,-1.8462 -3.42857,-2.9451 -2.1099,-1.0989 -5.09891,-1.1428 z m 34.81319,31.6483 h -5.14286 v -64 h 5.14286 z" />
      <path
         id="path145"
         style="fill:#800080;fill-opacity:1;stroke-width:1.12527"
         d="m 246.65047,1193.9781 h 13.14286 q 4.52747,0.044 8.21978,1.2748 3.69231,1.2307 6.32967,3.5604 2.63736,2.2857 4.04396,5.6264 1.45055,3.2967 1.45055,7.5165 0,4.1758 -1.45055,7.5604 -1.4066,3.3407 -4.04396,5.7143 -2.63736,2.3297 -6.32967,3.6044 -3.69231,1.2747 -8.21978,1.2747 H 241.4197 v -64 h 5.23077 z m 0,4.4836 v 27.2088 h 13.14286 q 3.42857,-0.044 6.15384,-1.011 2.72528,-1.011 4.61539,-2.8132 1.93407,-1.8462 2.94506,-4.3517 1.05494,-2.5494 1.05494,-5.6263 0,-3.033 -1.05494,-5.4946 -1.01099,-2.4615 -2.94506,-4.1758 -1.89011,-1.7582 -4.65934,-2.7253 -2.72528,-0.967 -6.10989,-1.0109 z" />
      <path
         id="path147"
         style="fill:#800080;fill-opacity:1;stroke-width:1.12527"
         d="m 369.27029,1210.11 q 0.30769,3.6484 1.36263,6.6813 1.0989,2.989 2.98901,5.1868 1.89012,2.1539 4.65935,3.3847 2.76923,1.1868 6.46154,1.1868 2.81318,0 5.14286,-0.8791 2.32967,-0.9231 4.13186,-2.4616 1.8022,-1.5824 3.12088,-3.6923 1.36264,-2.1099 2.24176,-4.5714 0.87912,-2.5055 1.27473,-5.2308 0.43956,-2.7692 0.48352,-5.5385 v -4 h -23.12089 v -4.4395 h 23.12089 v -3.6923 q -0.044,-2.7693 -0.48352,-5.4945 -0.39561,-2.7693 -1.27473,-5.2308 -0.87912,-2.5055 -2.24176,-4.6154 -1.31868,-2.1099 -3.12088,-3.6483 -1.80219,-1.5825 -4.13186,-2.4616 -2.32968,-0.9231 -5.14286,-0.9231 -3.64836,0 -6.41759,1.2308 -2.76923,1.1868 -4.7033,3.3846 -1.89011,2.1539 -2.98901,5.1868 -1.05494,3.033 -1.36263,6.6374 h -5.18682 q 0.17582,-4.3956 1.67033,-8.2198 1.53846,-3.8242 4.17583,-6.6373 2.63736,-2.8132 6.37362,-4.3956 3.73627,-1.6264 8.43957,-1.6264 3.56044,0 6.54945,1.011 3.03297,1.011 5.40659,2.8571 2.41759,1.8022 4.21979,4.3517 1.80219,2.5055 2.98901,5.4945 1.23077,2.989 1.84615,6.3296 0.61539,3.3407 0.61539,6.8132 v 12.044 q 0,3.4725 -0.61539,6.8132 -0.61538,3.3406 -1.84615,6.3296 -1.18682,2.9891 -2.98901,5.4946 -1.8022,2.5054 -4.21979,4.3516 -2.37362,1.8022 -5.40659,2.8571 -2.98901,1.011 -6.54945,1.011 -4.7033,0 -8.48352,-1.5384 -3.73627,-1.5385 -6.37363,-4.3077 -2.63736,-2.7693 -4.13187,-6.5934 -1.49451,-3.8242 -1.67033,-8.4396 z" />
      <path
         id="path149"
         style="fill:#800080;fill-opacity:1;stroke-width:1.12527"
         d="m 533.6044,1205.143 q 0,4.6154 -0.83516,9.2307 -0.83517,4.6154 -2.72528,8.3077 -1.84615,3.6924 -4.92308,6.022 -3.03296,2.2857 -7.51648,2.2857 -4.35165,0 -7.34066,-2.2857 -2.98902,-2.3296 -4.83517,-6.022 -1.8022,-3.6923 -2.59341,-8.3077 -0.79121,-4.6153 -0.79121,-9.2307 v -5.1868 h -6.76923 v 30.1538 h -5.14286 v -64 h 5.14286 v 29.4066 h 6.76923 v -4.3956 q 0,-3.0769 0.3077,-6.1978 0.35164,-3.1209 1.0989,-5.978 0.74725,-2.9011 1.93406,-5.3627 1.23077,-2.5055 2.94506,-4.3516 1.71429,-1.8901 4,-2.9451 2.28572,-1.0549 5.23077,-1.0549 2.98901,0 5.31868,1.0549 2.37363,1.055 4.13187,2.9451 1.8022,1.8461 3.03297,4.3516 1.23077,2.4616 2.02198,5.3627 0.79121,2.8571 1.14286,5.978 0.3956,3.1209 0.3956,6.1978 z m -5.27472,-14.1099 q 0,-3.6484 -0.43957,-7.3846 -0.43956,-3.7803 -1.62637,-6.8572 -1.18681,-3.0769 -3.2967,-5.011 -2.10989,-1.934 -5.4066,-1.934 -2.15385,0 -3.73626,0.923 -1.58242,0.8792 -2.72528,2.4176 -1.14286,1.5385 -1.89011,3.6044 -0.7033,2.066 -1.14286,4.4396 -0.43956,2.3297 -0.61538,4.8791 -0.17583,2.5055 -0.17583,4.9231 v 14.1099 q 0,2.4615 0.17583,4.967 0.17582,2.5055 0.61538,4.8791 0.43956,2.3737 1.18682,4.4836 0.74725,2.0659 1.89011,3.6043 1.14285,1.5385 2.72527,2.4616 1.58242,0.8791 3.73627,0.8791 2.1978,0 3.86813,-0.8791 1.67033,-0.9231 2.85714,-2.4616 1.18682,-1.5384 1.93407,-3.6043 0.79121,-2.1099 1.23077,-4.4836 0.48352,-2.3736 0.65934,-4.8791 0.17583,-2.5055 0.17583,-4.967 z" />
      <path
         id="path151"
         style="fill:#800080;fill-opacity:1;stroke-width:1.12527"
         d="m 650.50993,1230.11 v -26.945 h -17.40659 l -13.75825,26.945 h -5.67033 l 14.9011,-28.3956 q -6.02198,-2.1099 -9.31868,-6.3297 -3.29671,-4.2637 -3.29671,-10.3736 0,-4.4835 1.49451,-7.956 1.53846,-3.5165 4.30769,-5.9341 2.81319,-2.4176 6.72528,-3.6923 3.95605,-1.2747 8.7033,-1.3187 h 18.59341 v 64 z m -29.31869,-45.1868 q 0,2.989 1.01099,5.4945 1.01099,2.5055 2.9011,4.3077 1.89011,1.8022 4.57143,2.8571 2.72528,1.011 6.1099,1.055 h 14.72527 v -28.044 h -13.31868 q -3.69231,0.044 -6.68132,1.011 -2.94506,0.967 -5.01099,2.8132 -2.06594,1.8461 -3.20879,4.4835 -1.09891,2.6374 -1.09891,6.022 z" />
    </g>
  </g>
</svg>
