<?xml version="1.0" encoding="UTF-8" standalone="no"?>
<!-- Created with Inkscape (http://www.inkscape.org/) -->

<svg
   xmlns:dc="http://purl.org/dc/elements/1.1/"
   xmlns:cc="http://creativecommons.org/ns#"
   xmlns:rdf="http://www.w3.org/1999/02/22-rdf-syntax-ns#"
   xmlns:svg="http://www.w3.org/2000/svg"
   xmlns="http://www.w3.org/2000/svg"
   xmlns:sodipodi="http://sodipodi.sourceforge.net/DTD/sodipodi-0.dtd"
   xmlns:inkscape="http://www.inkscape.org/namespaces/inkscape"
   width="1024"
   height="448"
   viewBox="0 0 1024 448"
   version="1.1"
   id="svg8"
   inkscape:version="0.92.4 (5da689c313, 2019-01-14)"
   sodipodi:docname="Language.svg"
   inkscape:export-filename="F:\Низкогория\Language.png"
   inkscape:export-xdpi="96"
   inkscape:export-ydpi="96">
  <defs
     id="defs2" />
  <sodipodi:namedview
     id="base"
     pagecolor="#ffffff"
     bordercolor="#666666"
     borderopacity="1.0"
     inkscape:pageopacity="0.0"
     inkscape:pageshadow="2"
     inkscape:zoom="0.5"
     inkscape:cx="671.36107"
     inkscape:cy="395.58164"
     inkscape:document-units="px"
     inkscape:current-layer="layer1"
     showgrid="false"
     units="px"
     inkscape:window-width="1366"
     inkscape:window-height="706"
     inkscape:window-x="-8"
     inkscape:window-y="-8"
     inkscape:window-maximized="1"
     inkscape:snap-bbox="true"
     inkscape:bbox-paths="true"
     inkscape:bbox-nodes="true"
     inkscape:snap-bbox-edge-midpoints="true"
     inkscape:snap-bbox-midpoints="true"
     inkscape:object-paths="true"
     inkscape:snap-smooth-nodes="true"
     inkscape:snap-page="true"
     inkscape:snap-object-midpoints="true"
     inkscape:snap-center="true"
     showguides="true"
     inkscape:guide-bbox="true">
    <inkscape:grid
       type="xygrid"
       id="grid832"
       empspacing="4" />
  </sodipodi:namedview>
  <metadata
     id="metadata5">
    <rdf:RDF>
      <cc:Work
         rdf:about="">
        <dc:format>image/svg+xml</dc:format>
        <dc:type
           rdf:resource="http://purl.org/dc/dcmitype/StillImage" />
        <dc:title></dc:title>
      </cc:Work>
    </rdf:RDF>
  </metadata>
  <g
     inkscape:label="Layer 1"
     inkscape:groupmode="layer"
     id="layer1"
     transform="translate(0,-907.99998)">
    <rect
       style="opacity:1;fill:#ffffff;fill-opacity:1;stroke:none;stroke-width:4.58257532;stroke-linecap:round;stroke-linejoin:round;stroke-miterlimit:4;stroke-dasharray:none;stroke-dashoffset:0;stroke-opacity:1;paint-order:normal"
       id="rect831"
       width="1024"
       height="447.99997"
       x="0"
       y="908" />
    <rect
       y="908"
       x="0"
       height="447.99997"
       width="1024"
       id="rect824"
       style="opacity:0.125;fill:#000000;fill-opacity:0.25;stroke:none;stroke-width:4.58257532;stroke-linecap:round;stroke-linejoin:round;stroke-miterlimit:4;stroke-dasharray:none;stroke-dashoffset:0;stroke-opacity:1;paint-order:normal" />
    <path
       style="font-style:normal;font-variant:normal;font-weight:300;font-stretch:normal;font-size:22.50549507px;line-height:1.25;font-family:'Roboto Mono';-inkscape-font-specification:'Roboto Mono weight=251';text-align:start;letter-spacing:0px;word-spacing:4.50109911px;text-anchor:start;fill:#800080;fill-opacity:1;stroke:none;stroke-width:0.28131869"
       d="m 619.96875,731.8125 c 0.0146,0.43223 0.0981,0.82413 0.25195,1.17578 0.16118,0.34432 0.38177,0.64154 0.66016,0.89063 0.28571,0.24175 0.61905,0.42867 1,0.56054 0.38828,0.13187 0.8119,0.19727 1.27344,0.19727 0.46154,0 0.88272,-0.0654 1.26367,-0.19727 0.38095,-0.13187 0.71184,-0.31879 0.99023,-0.56054 0.27839,-0.24909 0.49459,-0.54631 0.64844,-0.89063 0.16117,-0.35165 0.24902,-0.74355 0.26367,-1.17578 h -1.12109 c -0.0293,0.57875 -0.22306,1.038 -0.58203,1.375 -0.35165,0.337 -0.84018,0.50391 -1.46289,0.50391 -0.64469,0 -1.14494,-0.16447 -1.50391,-0.49414 -0.35165,-0.337 -0.53857,-0.79869 -0.56055,-1.38477 z m -315.42969,0.0664 c 0.0147,0.43223 0.10006,0.82413 0.25391,1.17578 0.16117,0.34432 0.37981,0.64154 0.6582,0.89062 0.28572,0.24176 0.61905,0.42868 1,0.56055 0.38828,0.13187 0.81385,0.19726 1.27539,0.19726 0.46154,0 0.88272,-0.0654 1.26367,-0.19726 0.38096,-0.13187 0.7099,-0.31879 0.98829,-0.56055 0.27838,-0.24908 0.49459,-0.5463 0.64843,-0.89062 0.16118,-0.35165 0.24902,-0.74355 0.26367,-1.17578 h -1.12109 c -0.0293,0.57875 -0.22306,1.03605 -0.58203,1.37304 -0.35165,0.337 -0.83823,0.50586 -1.46094,0.50586 -0.64469,0 -1.14688,-0.16447 -1.50586,-0.49414 -0.35165,-0.33699 -0.53857,-0.79868 -0.56054,-1.38476 z m -181.7539,0.23047 V 736 h -8.50586 v 16 h 1.32031 v -14.87891 h 8.50391 v -5.01171 z m 59.32226,3.66992 c -0.89377,0 -1.67757,0.19131 -2.35156,0.57226 -0.66667,0.37363 -1.22499,0.87583 -1.67188,1.50586 -0.44688,0.62271 -0.78266,1.34111 -1.00976,2.1543 -0.22711,0.81319 -0.3418,1.65799 -0.3418,2.53711 v 2.90234 c 0,0.87912 0.11469,1.72392 0.3418,2.53711 0.2271,0.81319 0.56288,1.53598 1.00976,2.16602 0.44689,0.62271 1.00521,1.1249 1.67188,1.50586 0.67399,0.37362 1.45779,0.56054 2.35156,0.56054 0.79854,0 1.50815,-0.12591 2.13086,-0.375 0.63004,-0.25641 1.16835,-0.6078 1.61524,-1.05468 0.44688,-0.45422 0.79827,-0.98814 1.05468,-1.60352 0.26374,-0.62271 0.42821,-1.305 0.49414,-2.04492 h -1.30664 c -0.0806,0.60806 -0.21577,1.15759 -0.40625,1.64844 -0.19047,0.49084 -0.44718,0.90958 -0.76953,1.2539 -0.31502,0.34432 -0.70691,0.60787 -1.17578,0.79102 -0.46154,0.18315 -1.00668,0.27344 -1.63672,0.27344 -0.71062,0 -1.32312,-0.16448 -1.83594,-0.49415 -0.50549,-0.32967 -0.92228,-0.75768 -1.25195,-1.28515 -0.32967,-0.5348 -0.57515,-1.14046 -0.73633,-1.81446 -0.16117,-0.67399 -0.24218,-1.36115 -0.24218,-2.06445 v -0.99023 h 6.29687 v -1.1211 h -6.29687 v -0.8125 c 0,-0.69597 0.081,-1.38069 0.24218,-2.05468 0.16118,-0.674 0.40666,-1.27527 0.73633,-1.80274 0.32967,-0.5348 0.74646,-0.96281 1.25195,-1.28515 0.51282,-0.32967 1.12532,-0.49415 1.83594,-0.49415 0.62271,0 1.16346,0.0947 1.625,0.28516 0.46887,0.19048 0.86076,0.46085 1.17578,0.8125 0.32235,0.35165 0.57906,0.77283 0.76953,1.26367 0.19048,0.49085 0.33006,1.03794 0.41797,1.63867 h 1.30664 c -0.0659,-0.76923 -0.2304,-1.46957 -0.49414,-2.0996 -0.26373,-0.63004 -0.61756,-1.16835 -1.06445,-1.61524 -0.43956,-0.44689 -0.97543,-0.79144 -1.60547,-1.0332 -0.62271,-0.24176 -1.33232,-0.36328 -2.13086,-0.36328 z m 62.61719,0 c -0.69597,0 -1.36264,0.10346 -2,0.30859 -0.63736,0.1978 -1.20252,0.48819 -1.69336,0.86914 -0.48352,0.37363 -0.87541,0.83336 -1.17578,1.38281 -0.30037,0.54213 -0.45801,1.15902 -0.47266,1.84766 h 1.32031 c 0.0147,-0.51282 0.13179,-0.97207 0.35157,-1.375 0.2271,-0.41026 0.52237,-0.75481 0.88867,-1.0332 0.37363,-0.28572 0.7992,-0.49997 1.27539,-0.64649 0.48352,-0.15384 0.98571,-0.23242 1.50586,-0.23242 0.59341,0 1.14538,0.0698 1.6582,0.20899 0.51282,0.13919 0.95645,0.34856 1.33008,0.62695 0.37363,0.27106 0.66645,0.61123 0.87891,1.02148 0.21978,0.40293 0.33008,0.87145 0.33008,1.40625 0,0.54945 -0.1103,1.02237 -0.33008,1.41797 -0.21246,0.38828 -0.50528,0.70795 -0.87891,0.95703 -0.37363,0.24909 -0.81286,0.43601 -1.31836,0.56055 -0.49817,0.11722 -1.03648,0.17578 -1.61523,0.17578 h -2.02149 v 1.13086 h 2.02149 c 0.60073,0 1.16393,0.0586 1.6914,0.17578 0.5348,0.10989 1.00088,0.29437 1.39649,0.55078 0.40293,0.25641 0.72064,0.59219 0.95508,1.00977 0.23443,0.41758 0.35156,0.93783 0.35156,1.56054 0,0.57143 -0.11957,1.06924 -0.36133,1.49415 -0.23443,0.4249 -0.55654,0.78069 -0.9668,1.0664 -0.40293,0.28572 -0.87584,0.50192 -1.41797,0.64844 -0.53479,0.13919 -1.10239,0.20898 -1.70312,0.20898 -0.57143,0 -1.11413,-0.0854 -1.62695,-0.2539 -0.5055,-0.1685 -0.95157,-0.4052 -1.33985,-0.71289 -0.38095,-0.3077 -0.685,-0.68154 -0.91211,-1.1211 -0.2271,-0.43956 -0.34863,-0.93053 -0.36328,-1.47265 h -1.31836 c 0.0146,0.78388 0.17912,1.4686 0.49414,2.05468 0.32235,0.57876 0.73914,1.0629 1.25196,1.45118 0.52014,0.38827 1.11019,0.6811 1.76953,0.8789 0.65934,0.19048 1.34162,0.28516 2.04492,0.28516 0.7619,0 1.48958,-0.0947 2.18555,-0.28516 0.69597,-0.19047 1.30846,-0.47647 1.83593,-0.85742 0.52748,-0.38095 0.94866,-0.85631 1.26368,-1.42773 0.32234,-0.57143 0.48437,-1.2381 0.48437,-2 0,-0.52748 -0.081,-1.00039 -0.24219,-1.41797 -0.15384,-0.42491 -0.37444,-0.79436 -0.66015,-1.10938 -0.27839,-0.31502 -0.61416,-0.58051 -1.00977,-0.79297 -0.3956,-0.21978 -0.82801,-0.39547 -1.29687,-0.52734 0.4249,-0.14652 0.8168,-0.33344 1.17578,-0.56055 0.35897,-0.2271 0.66985,-0.49065 0.93359,-0.79101 0.26374,-0.30037 0.46872,-0.63614 0.61524,-1.00977 0.15384,-0.38095 0.23046,-0.7953 0.23046,-1.24219 0,-0.75457 -0.14641,-1.41002 -0.43945,-1.96679 -0.28571,-0.55678 -0.67761,-1.01847 -1.17578,-1.38477 -0.49817,-0.3663 -1.08382,-0.63667 -1.75781,-0.8125 -0.674,-0.17582 -1.388,-0.26562 -2.14258,-0.26562 z m 220.54101,0 c -0.63736,0 -1.21374,0.10346 -1.72656,0.30859 -0.50549,0.1978 -0.95596,0.47257 -1.35156,0.82422 -0.3956,0.35165 -0.74016,0.7616 -1.0332,1.23047 -0.28572,0.46886 -0.51998,0.97106 -0.70313,1.50586 -0.18315,0.52747 -0.32273,1.07701 -0.41797,1.64844 -0.0879,0.5641 -0.13525,1.11803 -0.14258,1.66015 v 2.10938 c 0.007,0.54212 0.0547,1.0941 0.14258,1.6582 0.0952,0.5641 0.23482,1.11364 0.41797,1.64844 0.19048,0.52747 0.42913,1.02527 0.71485,1.49414 0.29304,0.46886 0.63759,0.88077 1.0332,1.23242 0.40293,0.34432 0.86023,0.61909 1.37305,0.82422 0.51282,0.1978 1.0848,0.29687 1.71484,0.29687 0.63736,0 1.21179,-0.0991 1.72461,-0.29687 0.51282,-0.20513 0.96328,-0.4799 1.35156,-0.82422 0.39561,-0.35165 0.73577,-0.75917 1.02149,-1.2207 0.28571,-0.46887 0.52192,-0.96667 0.70507,-1.49414 0.19048,-0.5348 0.32811,-1.08434 0.41602,-1.64844 0.0879,-0.57143 0.1372,-1.1278 0.14453,-1.66992 v -2.10938 c -0.007,-0.54945 -0.0566,-1.10777 -0.14453,-1.67187 -0.0879,-0.57143 -0.22554,-1.12097 -0.41602,-1.64844 -0.18315,-0.5348 -0.41936,-1.03504 -0.70507,-1.50391 -0.28572,-0.46886 -0.62832,-0.87638 -1.03125,-1.2207 -0.39561,-0.35165 -0.85047,-0.62642 -1.36329,-0.82422 -0.51282,-0.20513 -1.08724,-0.30859 -1.72461,-0.30859 z m 94.54688,0 c -0.63736,0 -1.21618,0.0991 -1.73633,0.29687 -0.51282,0.19048 -0.97011,0.45841 -1.37305,0.80274 -0.3956,0.33699 -0.74016,0.73328 -1.0332,1.1875 -0.29304,0.45421 -0.53608,0.94518 -0.72656,1.47265 -0.19048,0.52015 -0.3325,1.0609 -0.42774,1.625 -0.0879,0.56411 -0.13525,1.12487 -0.14257,1.68164 v 2.31836 c 0.007,0.55678 0.0547,1.11754 0.14257,1.68164 0.0952,0.56411 0.23726,1.1112 0.42774,1.63868 0.19048,0.52014 0.43352,1.00672 0.72656,1.46093 0.29304,0.45421 0.6376,0.85051 1.0332,1.1875 0.40294,0.337 0.86023,0.60298 1.37305,0.80078 0.52015,0.19048 1.09897,0.28711 1.73633,0.28711 0.7619,0 1.44663,-0.12835 2.05469,-0.38476 0.61538,-0.25641 1.14686,-0.6122 1.59375,-1.06641 0.44688,-0.46154 0.80511,-0.99985 1.07617,-1.61523 0.27106,-0.62271 0.45115,-1.29377 0.53906,-2.01172 h -1.30859 c -0.0806,0.55677 -0.22017,1.07703 -0.41797,1.56054 -0.19048,0.48352 -0.44523,0.9047 -0.76758,1.26368 -0.31502,0.35897 -0.70448,0.64057 -1.16601,0.8457 -0.45422,0.1978 -0.98814,0.29688 -1.60352,0.29688 -0.52015,0 -0.98184,-0.0879 -1.38477,-0.26368 -0.40293,-0.17582 -0.75871,-0.41008 -1.0664,-0.70312 -0.30037,-0.30037 -0.55708,-0.64493 -0.76953,-1.0332 -0.21246,-0.39561 -0.38376,-0.8124 -0.51563,-1.25196 -0.13187,-0.43956 -0.23094,-0.89002 -0.29687,-1.35156 -0.0586,-0.46154 -0.0879,-0.90956 -0.0879,-1.3418 v -2.33984 c 0,-0.43224 0.0293,-0.87587 0.0879,-1.33008 0.0659,-0.46154 0.165,-0.912 0.29687,-1.35156 0.13187,-0.43956 0.30317,-0.85391 0.51563,-1.24219 0.21245,-0.3956 0.46916,-0.74016 0.76953,-1.0332 0.30769,-0.29304 0.66347,-0.5273 1.0664,-0.70313 0.40293,-0.17582 0.86462,-0.26367 1.38477,-0.26367 0.60806,0 1.13954,0.10786 1.59375,0.32031 0.45421,0.20513 0.84172,0.48917 1.16406,0.85547 0.32235,0.35898 0.57906,0.78016 0.76953,1.26367 0.19781,0.48352 0.33983,1.00133 0.42774,1.55078 h 1.30859 c -0.0806,-0.7326 -0.25628,-1.41049 -0.52734,-2.0332 -0.26374,-0.62271 -0.61952,-1.16102 -1.06641,-1.61523 -0.44688,-0.46154 -0.97836,-0.82172 -1.59375,-1.07813 -0.60806,-0.25641 -1.29961,-0.38476 -2.07617,-0.38476 z m 377.65039,0 c -0.78388,0 -1.48666,0.13714 -2.10937,0.4082 -0.62272,0.26374 -1.15419,0.62879 -1.59375,1.09766 -0.43956,0.46886 -0.78852,1.02279 -1.04493,1.66015 -0.24908,0.63737 -0.38866,1.32209 -0.41796,2.05469 h 1.29687 c 0.0513,-0.60073 0.16597,-1.15466 0.3418,-1.66016 0.18315,-0.50549 0.43107,-0.93594 0.74609,-1.29492 0.32234,-0.3663 0.71424,-0.64985 1.17578,-0.84765 0.46154,-0.20513 0.99741,-0.30665 1.60547,-0.30665 0.46887,0 0.89688,0.0766 1.28516,0.23047 0.38828,0.14652 0.73283,0.3515 1.0332,0.61524 0.30037,0.25641 0.56147,0.56046 0.78125,0.91211 0.22711,0.35165 0.41207,0.73671 0.55859,1.15429 0.14652,0.41026 0.25438,0.84511 0.32032,1.30665 0.0733,0.45421 0.11376,0.91346 0.12109,1.375 v 0.92187 h -5.78125 v 1.10937 h 5.78125 v 1 c -0.007,0.46154 -0.0478,0.92323 -0.12109,1.38477 -0.0659,0.45421 -0.1738,0.89101 -0.32032,1.30859 -0.14652,0.41026 -0.33148,0.79093 -0.55859,1.14258 -0.21978,0.35165 -0.48088,0.66009 -0.78125,0.92383 -0.30037,0.25641 -0.64492,0.46139 -1.0332,0.61523 -0.38828,0.14653 -0.81629,0.21876 -1.28516,0.21876 -0.61538,0 -1.1537,-0.0991 -1.61523,-0.29688 -0.46154,-0.20513 -0.851,-0.48673 -1.16602,-0.8457 -0.31502,-0.3663 -0.56294,-0.79871 -0.74609,-1.29688 -0.17583,-0.50549 -0.29052,-1.06186 -0.3418,-1.66992 h -1.29687 c 0.0293,0.76923 0.16888,1.47201 0.41796,2.10938 0.24909,0.63736 0.59365,1.18689 1.03321,1.64843 0.43956,0.46154 0.97104,0.82172 1.59375,1.07813 0.63003,0.25641 1.33721,0.38476 2.12109,0.38476 0.59341,0 1.13855,-0.0854 1.63672,-0.2539 0.50549,-0.17583 0.95596,-0.41448 1.35156,-0.71485 0.40293,-0.30769 0.75432,-0.67031 1.05469,-1.08789 0.30037,-0.41758 0.55024,-0.87488 0.74805,-1.37304 0.20512,-0.49817 0.35837,-1.02526 0.46093,-1.58204 0.10257,-0.55677 0.1543,-1.12437 0.1543,-1.70312 v -3.01172 c 0,-0.57875 -0.0517,-1.14635 -0.1543,-1.70312 -0.10256,-0.55678 -0.25581,-1.08387 -0.46093,-1.58204 -0.19781,-0.49816 -0.44768,-0.95546 -0.74805,-1.37304 -0.30037,-0.42491 -0.65176,-0.78753 -1.05469,-1.08789 -0.3956,-0.3077 -0.84607,-0.54635 -1.35156,-0.71485 -0.49817,-0.1685 -1.04331,-0.2539 -1.63672,-0.2539 z m 33.20508,0 c -0.49084,0 -0.92764,0.0898 -1.30859,0.26562 -0.38096,0.17583 -0.71429,0.41936 -1,0.73438 -0.28572,0.30769 -0.5312,0.67031 -0.73633,1.08789 -0.19781,0.41025 -0.35984,0.85828 -0.48438,1.34179 -0.12454,0.47619 -0.21483,0.974 -0.27344,1.49414 -0.0513,0.52015 -0.0781,1.03601 -0.0781,1.54883 v 1.09961 H 965.0957 V 736 h -1.28515 v 16 h 1.28515 v -7.53906 h 1.69141 v 1.29687 c 0,0.76923 0.0674,1.53937 0.19922,2.3086 0.13187,0.76923 0.34807,1.46078 0.64844,2.07617 0.30769,0.61538 0.71081,1.11758 1.20898,1.50586 0.49817,0.38095 1.10871,0.57226 1.83398,0.57226 0.74726,0 1.37342,-0.19131 1.87891,-0.57226 0.51282,-0.38828 0.92278,-0.89048 1.23047,-1.50586 0.31502,-0.61539 0.54245,-1.30694 0.68164,-2.07617 0.13919,-0.76923 0.20898,-1.53937 0.20898,-2.3086 v -3.50586 c 0,-0.51282 -0.0317,-1.02868 -0.0977,-1.54883 -0.0586,-0.52014 -0.15524,-1.01795 -0.28711,-1.49414 -0.13187,-0.48351 -0.30073,-0.93154 -0.50586,-1.34179 -0.20513,-0.41758 -0.45745,-0.7802 -0.75781,-1.08789 -0.29304,-0.31502 -0.6376,-0.55855 -1.03321,-0.73438 -0.38827,-0.17582 -0.82995,-0.26562 -1.32812,-0.26562 z M 23.986328,736 18.777344,752 h 1.330078 l 1.416016,-4.46094 h 6.08789 L 29.019531,752 h 1.31836 l -5.166016,-16 z m 27.115234,0 v 16 h 4.605469 c 0.754579,0 1.439303,-0.10591 2.054688,-0.31836 0.615384,-0.21245 1.142471,-0.51406 1.582031,-0.90234 0.43956,-0.39561 0.777287,-0.87096 1.011719,-1.42774 0.241758,-0.5641 0.361328,-1.19465 0.361328,-1.89062 0,-0.7033 -0.11957,-1.32946 -0.361328,-1.87891 -0.234432,-0.55678 -0.572159,-1.0253 -1.011719,-1.40625 -0.43956,-0.38828 -0.966647,-0.6855 -1.582031,-0.89062 -0.615385,-0.20513 -1.300109,-0.31104 -2.054688,-0.31836 h -3.287109 v -5.84571 h 8.287109 V 736 Z m 31.677735,0 v 16 H 87.8125 c 0.659341,-0.007 1.289892,-0.11323 1.890625,-0.31836 0.608059,-0.20513 1.141977,-0.49795 1.603516,-0.87891 0.461538,-0.38827 0.828547,-0.8568 1.099609,-1.40625 0.271062,-0.55677 0.401857,-1.19172 0.394531,-1.90234 0,-0.49084 -0.08346,-0.94814 -0.251953,-1.37305 -0.161172,-0.4249 -0.384207,-0.80314 -0.669922,-1.13281 -0.285714,-0.337 -0.627833,-0.6186 -1.023437,-0.8457 -0.388279,-0.22711 -0.811899,-0.39597 -1.273438,-0.50586 0.373627,-0.1392 0.720625,-0.3105 1.042969,-0.51563 0.322344,-0.21245 0.601505,-0.45794 0.835938,-0.73632 0.241758,-0.28572 0.431118,-0.60783 0.570312,-0.9668 0.139194,-0.3663 0.208984,-0.77626 0.208984,-1.23047 0.0073,-0.72527 -0.134694,-1.34899 -0.427734,-1.86914 -0.285714,-0.52747 -0.666388,-0.95988 -1.142578,-1.29688 -0.476191,-0.34432 -1.023287,-0.59664 -1.638672,-0.75781 -0.608059,-0.1685 -1.234218,-0.25634 -1.878906,-0.26367 z m 65.199223,0 -0.27344,5.75781 c -0.0366,1.0989 -0.10398,2.1438 -0.19922,3.13281 -0.0952,0.98169 -0.23287,1.87578 -0.41602,2.68165 -0.17582,0.79853 -0.40325,1.48325 -0.68164,2.05468 -0.27839,0.57143 -0.62294,0.99261 -1.0332,1.26367 h -0.68164 l 0.14258,4.98829 h 1.14258 V 752 h 8.57226 v 3.87891 h 1.1875 l 0.0977,-4.98829 h -1.18555 V 736 Z m 59.45312,0 3.24219,7.97852 L 207.0918,752 h 1.58203 l 3.1875,-7.53906 h 0.86719 V 752 h 1.27539 v -7.53906 h 0.82421 L 218.01367,752 h 1.58399 L 216.01367,743.97852 219.25586,736 H 217.75 l -2.8125,7.33984 h -0.93359 V 736 h -1.27539 v 7.33984 H 211.75 L 208.92578,736 Z m 64.03516,0 v 16 h 1.29687 l 7.1543,-13.41797 L 279.90625,752 h 1.29687 v -16 h -1.29687 l -7.1543,13.40625 L 272.76367,736 Z m 31.49023,0 v 16 h 1.29688 L 311.4082,738.58203 311.39648,752 h 1.29688 v -16 h -1.29688 L 304.24219,749.40625 304.25391,736 Z m 31.91797,0 v 16 h 1.29688 v -7.52734 h 2.05468 L 344.13867,752 h 1.62695 L 339.34766,743.86719 345.30469,736 h -1.53907 l -5.54882,7.36328 h -2.04492 V 736 Z m 32.75391,0 -0.21875,7.73633 c -0.007,0.47619 -0.0298,0.98082 -0.0664,1.51562 -0.0293,0.5348 -0.081,1.06628 -0.1543,1.59375 -0.0733,0.52748 -0.17233,1.0365 -0.29687,1.52735 -0.11722,0.48351 -0.26363,0.91348 -0.43946,1.28711 -0.17582,0.3663 -0.38324,0.66156 -0.625,0.88867 -0.24175,0.2271 -0.52091,0.34179 -0.83593,0.34179 h -0.39453 V 752 h 0.43945 c 0.49084,0 0.91886,-0.12152 1.28516,-0.36328 0.3663,-0.24909 0.68401,-0.57803 0.95507,-0.98828 0.27107,-0.41758 0.49605,-0.90172 0.67188,-1.45117 0.18315,-0.54945 0.32956,-1.12827 0.43945,-1.73633 0.10989,-0.61539 0.18651,-1.24155 0.23047,-1.87891 0.0513,-0.63736 0.083,-1.2523 0.0977,-1.8457 l 0.17578,-6.61524 h 5.53906 V 752 h 1.29688 v -16 z m 29.7539,0 v 16 h 1.28711 v -7.08789 l -0.11133,-7 3.29688,9.27539 h 0.85742 l 3.54883,-9.42969 -0.0977,7.1543 V 752 h 1.28516 v -16 h -1.72461 l -3.42969,9.05469 L 399.07617,736 Z m 31.40235,0 v 16 h 1.24218 v -7.66992 h 7.51758 V 752 h 1.24024 v -16 h -1.24024 v 7.1875 h -7.51758 V 736 Z m 63.14648,0 v 16 h 1.29492 v -14.87891 h 7.07813 V 752 h 1.29687 v -16 z m 31.95117,0 v 16 h 1.31836 v -6.59375 h 3.71485 c 0.69597,-0.007 1.35141,-0.11762 1.96679,-0.33008 0.61539,-0.21245 1.14931,-0.5165 1.60352,-0.91211 0.46154,-0.40293 0.82415,-0.88951 1.08789,-1.46094 0.26374,-0.57875 0.39648,-1.23419 0.39648,-1.96679 0,-0.7326 -0.13274,-1.38804 -0.39648,-1.9668 -0.26374,-0.57875 -0.62635,-1.06972 -1.08789,-1.47265 -0.45421,-0.41026 -0.98813,-0.72554 -1.60352,-0.94532 -0.60806,-0.21978 -1.2635,-0.33691 -1.96679,-0.35156 z m 61.63867,0 v 1.1543 h 5.11133 L 590.62109,752 h 1.28516 v -14.8457 h 5.09961 V 736 Z m 30.75391,0 6.09961,11.80273 -0.59375,1.17579 c -0.13187,0.26373 -0.28267,0.52288 -0.45117,0.77929 -0.1685,0.25641 -0.36469,0.48823 -0.5918,0.69336 -0.2271,0.1978 -0.48382,0.35788 -0.76953,0.48242 -0.28571,0.12455 -0.61661,0.1875 -0.99023,0.1875 -0.21246,0 -0.43549,-0.0224 -0.66993,-0.0664 -0.23443,-0.044 -0.43501,-0.0845 -0.60351,-0.1211 l -0.2207,1.04493 c 0.17582,0.0586 0.39885,0.11278 0.66992,0.16406 0.27839,0.0586 0.58244,0.0879 0.91211,0.0879 0.54945,0 1.02919,-0.081 1.43945,-0.24219 0.41758,-0.16117 0.7802,-0.37737 1.08789,-0.64844 0.31502,-0.27838 0.58735,-0.59171 0.81445,-0.94336 0.23444,-0.35897 0.44625,-0.73281 0.63672,-1.12109 L 629.30859,736 h -1.54882 l -4.70313,10.41797 -0.39648,-0.97852 L 617.79297,736 Z m 37.29297,0 v 2.17578 c -0.76191,0.0366 -1.46469,0.20793 -2.10938,0.51563 -0.63736,0.30036 -1.18689,0.71227 -1.64843,1.23242 -0.46154,0.51282 -0.82416,1.11653 -1.08789,1.8125 -0.25641,0.68864 -0.38477,1.43632 -0.38477,2.24219 0,0.81318 0.12836,1.5677 0.38477,2.26367 0.26373,0.68864 0.62635,1.28991 1.08789,1.80273 0.46154,0.51282 1.01107,0.92278 1.64843,1.23047 0.64469,0.30037 1.34747,0.46728 2.10938,0.50391 V 752 h 1.29687 v -2.2207 c 0.75458,-0.0366 1.45053,-0.20794 2.08789,-0.51563 0.64469,-0.30769 1.20106,-0.71765 1.66993,-1.23047 0.46886,-0.52014 0.83148,-1.12385 1.08789,-1.8125 0.26373,-0.69597 0.39648,-1.45048 0.39648,-2.26367 0,-0.80586 -0.13275,-1.55354 -0.39648,-2.24219 -0.25641,-0.69597 -0.61903,-1.29724 -1.08789,-1.80273 -0.46887,-0.51282 -1.02524,-0.92034 -1.66993,-1.2207 -0.63736,-0.3077 -1.33331,-0.479 -2.08789,-0.51563 V 736 Z m 26.7207,0 4.82422,7.89062 L 680.13477,752 h 1.55078 l 4.20703,-7.05469 L 690.0918,752 h 1.53711 L 686.65234,743.89062 691.47656,736 h -1.55078 l -4.05469,6.83594 L 681.83789,736 Z m 32.29297,0 v 16 h 9.75781 v 3.85742 h 1.19727 l 0.0996,-4.99023 h -1.41797 V 736 h -1.29687 v 14.86719 h -0.0117 v 0.0234 h -7.03125 V 736 Z m 31.54492,0 -0.0117,4.42773 c 0.0147,1.61173 0.3885,2.83671 1.1211,3.67188 0.73992,0.82784 1.85022,1.24023 3.33008,1.24023 0.67399,0 1.28209,-0.0586 1.82421,-0.17578 0.54946,-0.11721 1.0946,-0.26363 1.63672,-0.43945 V 752 h 1.29688 v -16 h -1.29688 v 7.60352 c -0.55677,0.17582 -1.11753,0.32663 -1.68164,0.45117 -0.55677,0.11721 -1.14682,0.17334 -1.76953,0.16601 -1.09157,0 -1.8866,-0.31527 -2.38476,-0.94531 -0.49817,-0.63736 -0.75049,-1.58758 -0.75782,-2.84766 L 745.42383,736 Z m 30.78711,0 v 16 h 10.53711 v -16 h -1.27344 v 14.89062 h -3.35156 V 736 h -1.27539 v 14.89062 h -3.35156 V 736 Z m 31.51172,0 v 16 h 10.18555 v 3.85742 h 1.16601 l 0.0977,-4.97851 h -0.91211 V 736 h -1.27344 v 14.87891 h -0.30859 v 0.0117 h -3.04297 V 736 h -1.27539 v 14.89062 h -3.35156 V 736 Z m 30.49024,0 v 1.12109 h 4.0332 V 752 h 3.58203 c 0.72527,0 1.3651,-0.11274 1.92187,-0.33984 0.56411,-0.23444 1.03702,-0.5541 1.41797,-0.95704 0.38828,-0.40293 0.68111,-0.87828 0.87891,-1.42773 0.20513,-0.55678 0.30859,-1.16244 0.30859,-1.81445 0,-0.65202 -0.10346,-1.25133 -0.30859,-1.80078 -0.1978,-0.54945 -0.49063,-1.02237 -0.87891,-1.41797 -0.38095,-0.39561 -0.85386,-0.70405 -1.41797,-0.92383 -0.55677,-0.22711 -1.1966,-0.34424 -1.92187,-0.35156 h -2.29687 V 736 Z m 32.83007,0 v 16 h 2.9668 c 0.68865,-0.007 1.28991,-0.12885 1.80273,-0.36328 0.52015,-0.24176 0.94816,-0.56387 1.28516,-0.9668 0.34432,-0.41025 0.60103,-0.89 0.76953,-1.43945 0.1685,-0.54945 0.25196,-1.1395 0.25196,-1.76953 0,-0.63004 -0.0835,-1.21569 -0.25196,-1.75782 -0.1685,-0.54212 -0.42521,-1.01503 -0.76953,-1.41796 -0.337,-0.40293 -0.76501,-0.72065 -1.28516,-0.95508 -0.51282,-0.23443 -1.11408,-0.35596 -1.80273,-0.36328 h -1.68164 V 736 Z m 8.70313,0 v 16 h 1.28516 v -16 z m 23.18359,0 v 16 h 4.5918 c 0.75458,0 1.4393,-0.10591 2.05469,-0.31836 0.61538,-0.21245 1.14442,-0.51406 1.58398,-0.90234 0.43956,-0.39561 0.77533,-0.87096 1.00977,-1.42774 0.24176,-0.5641 0.36328,-1.19465 0.36328,-1.89062 0,-0.7033 -0.12152,-1.32946 -0.36328,-1.87891 -0.23444,-0.55678 -0.57021,-1.0253 -1.00977,-1.40625 -0.43956,-0.38828 -0.9686,-0.6855 -1.58398,-0.89062 -0.61539,-0.20513 -1.30011,-0.31104 -2.05469,-0.31836 h -3.28516 V 736 Z m 98.94139,0 c -0.79119,0.007 -1.51642,0.11762 -2.17576,0.33008 -0.65202,0.21245 -1.21278,0.51894 -1.68164,0.92187 -0.46154,0.40293 -0.81976,0.8983 -1.07618,1.48438 -0.24908,0.57875 -0.37304,1.24103 -0.37304,1.98828 0,1.01831 0.27477,1.88313 0.82422,2.59375 0.54945,0.7033 1.32446,1.23038 2.32812,1.58203 L 994.69531,752 h 1.41797 l 3.43945,-6.73633 h 4.35157 V 752 h 1.3184 v -16 z m -29.90623,0.93359 c 0.54945,0 0.99991,0.16203 1.35156,0.48438 0.35165,0.32234 0.62642,0.73913 0.82422,1.25195 0.1978,0.51282 0.33299,1.08481 0.40625,1.71485 0.0733,0.62271 0.10938,1.23764 0.10938,1.8457 v 3.52734 c 0,0.41026 -0.0156,0.82461 -0.0449,1.24219 -0.0293,0.41758 -0.0835,0.8251 -0.16406,1.2207 -0.0733,0.39561 -0.17477,0.7675 -0.30664,1.11914 -0.12454,0.34433 -0.28657,0.64594 -0.48437,0.90235 -0.19781,0.25641 -0.43646,0.46139 -0.71485,0.61523 -0.27839,0.14652 -0.6005,0.21875 -0.9668,0.21875 -0.35897,0 -0.66985,-0.0722 -0.93359,-0.21875 -0.26374,-0.15384 -0.49116,-0.35882 -0.68164,-0.61523 -0.19048,-0.25641 -0.34811,-0.55802 -0.47266,-0.90235 -0.12454,-0.35164 -0.22361,-0.72353 -0.29687,-1.11914 -0.0733,-0.3956 -0.12499,-0.80312 -0.1543,-1.2207 -0.0293,-0.41758 -0.043,-0.83193 -0.043,-1.24219 v -3.52734 c 0,-0.40293 0.0137,-0.81289 0.043,-1.23047 0.0293,-0.42491 0.081,-0.83242 0.1543,-1.2207 0.0733,-0.39561 0.16989,-0.76506 0.28711,-1.10938 0.12454,-0.34432 0.28023,-0.64398 0.4707,-0.90039 0.19048,-0.25641 0.41791,-0.45895 0.68164,-0.60547 0.26374,-0.15384 0.57657,-0.23047 0.93555,-0.23047 z m -505.40235,0.0332 c 0.51283,0 0.97012,0.0878 1.37305,0.26367 0.40293,0.17582 0.75432,0.41448 1.05469,0.71484 0.30037,0.30037 0.55268,0.65176 0.75781,1.05469 0.21246,0.3956 0.38571,0.81239 0.51758,1.25195 0.13187,0.43956 0.22655,0.89003 0.28516,1.35157 0.0586,0.46153 0.0923,0.90517 0.0996,1.33007 v 2.13282 c -0.007,0.4249 -0.041,0.86854 -0.0996,1.33007 -0.0513,0.45422 -0.14353,0.90468 -0.27539,1.35157 -0.12455,0.43956 -0.29341,0.86074 -0.50586,1.26367 -0.20513,0.3956 -0.45745,0.7426 -0.75782,1.04297 -0.30036,0.30036 -0.65175,0.54146 -1.05468,0.72461 -0.39561,0.17582 -0.8529,0.26562 -1.37305,0.26562 -0.51282,0 -0.97012,-0.0898 -1.37305,-0.26562 -0.40293,-0.18315 -0.75627,-0.42425 -1.05664,-0.72461 -0.30036,-0.30037 -0.55512,-0.64737 -0.76758,-1.04297 -0.20512,-0.40293 -0.37399,-0.82411 -0.50586,-1.26367 -0.13186,-0.44689 -0.23094,-0.89735 -0.29687,-1.35157 -0.0586,-0.46153 -0.0923,-0.90517 -0.0996,-1.33007 v -2.13282 c 0.007,-0.41758 0.041,-0.85682 0.0996,-1.31836 0.0586,-0.46153 0.15329,-0.912 0.28516,-1.35156 0.13186,-0.43956 0.30073,-0.85635 0.50585,-1.25195 0.21246,-0.40293 0.46917,-0.75432 0.76954,-1.05469 0.30036,-0.30037 0.64736,-0.53902 1.04296,-0.71484 0.40294,-0.18315 0.86218,-0.27539 1.375,-0.27539 z m -316.05664,0.15429 h 4.14454 v 13.76953 h -6.22071 c 0.35165,-0.50549 0.64204,-1.12482 0.86914,-1.85742 0.22711,-0.73992 0.40964,-1.52372 0.54883,-2.35156 0.14652,-0.82784 0.25243,-1.66776 0.31836,-2.51758 0.0733,-0.85714 0.12499,-1.65899 0.1543,-2.40625 z m 375.99219,0 h 3.71485 c 0.53479,0.0147 1.02821,0.10934 1.48242,0.28516 0.45421,0.1685 0.8505,0.41154 1.1875,0.72656 0.33699,0.30769 0.60054,0.68398 0.79101,1.13086 0.19048,0.44689 0.28516,0.94469 0.28516,1.49414 0,0.54945 -0.0991,1.04042 -0.29688,1.47266 -0.19047,0.43223 -0.45401,0.79924 -0.79101,1.09961 -0.337,0.30036 -0.73134,0.53462 -1.18555,0.70312 -0.45421,0.1685 -0.94518,0.25635 -1.47265,0.26368 h -3.71485 z m 475.37303,0 h 3.3301 v 7.01172 h -3.6816 c -0.56415,-0.007 -1.07318,-0.0971 -1.52739,-0.26562 -0.44688,-0.17583 -0.82756,-0.41253 -1.14258,-0.71289 -0.31501,-0.30037 -0.55611,-0.66055 -0.72461,-1.07813 -0.16849,-0.41758 -0.2539,-0.87488 -0.2539,-1.37305 0,-0.5641 0.0922,-1.06629 0.27539,-1.50585 0.19048,-0.43956 0.45841,-0.81341 0.80273,-1.1211 0.34433,-0.30769 0.76111,-0.54195 1.25196,-0.70312 0.49817,-0.16118 1.05453,-0.24463 1.6699,-0.25196 z m -916.476544,0.0332 h 3.087891 c 0.468864,0.007 0.92616,0.0683 1.373047,0.18554 0.446886,0.10989 0.84757,0.28559 1.199218,0.52735 0.351649,0.23443 0.633249,0.54287 0.845704,0.92383 0.212454,0.37362 0.318359,0.82848 0.318359,1.36328 0,0.51282 -0.101512,0.95645 -0.306641,1.33008 -0.205128,0.37362 -0.477456,0.6845 -0.814453,0.93359 -0.32967,0.24908 -0.710343,0.436 -1.142578,0.56055 -0.432234,0.12454 -0.878305,0.18994 -1.339844,0.19726 h -3.220703 z m -59.517578,0.79101 2.658203,8.41797 h -5.339843 z m 628.988282,1.35157 v 9.36328 c -0.60806,-0.0293 -1.1532,-0.16645 -1.63672,-0.40821 -0.48352,-0.24908 -0.89542,-0.57802 -1.23242,-0.98828 -0.337,-0.41758 -0.59615,-0.90416 -0.7793,-1.46094 -0.18315,-0.55677 -0.27539,-1.16487 -0.27539,-1.82421 0,-0.65202 0.0922,-1.25768 0.27539,-1.81446 0.18315,-0.55677 0.4423,-1.03896 0.7793,-1.44922 0.337,-0.41758 0.7489,-0.74847 1.23242,-0.99023 0.48352,-0.24908 1.02866,-0.3911 1.63672,-0.42773 z m 1.29687,0 c 0.60074,0.0366 1.14344,0.17621 1.62696,0.41796 0.49084,0.24176 0.90324,0.56631 1.24023,0.97657 0.34432,0.41025 0.60787,0.89439 0.79102,1.45117 0.18315,0.55677 0.27539,1.16244 0.27539,1.81445 0,0.65934 -0.0922,1.26988 -0.27539,1.83399 -0.18315,0.55677 -0.4467,1.04335 -0.79102,1.46093 -0.33699,0.41759 -0.74939,0.75092 -1.24023,1 -0.48352,0.24909 -1.02622,0.38867 -1.62696,0.41797 z m -602.445308,4.79101 h 3.287109 c 0.564103,0.007 1.073132,0.0908 1.527344,0.25195 0.461538,0.16118 0.849044,0.3886 1.164063,0.68164 0.322344,0.28572 0.567829,0.63467 0.736328,1.04493 0.175824,0.41025 0.263672,0.86755 0.263672,1.37304 0,0.51282 -0.08785,0.98134 -0.263672,1.40625 -0.168499,0.41759 -0.413984,0.7802 -0.736328,1.08789 -0.315019,0.30037 -0.700085,0.53463 -1.154297,0.70313 -0.454213,0.16117 -0.965681,0.24658 -1.53711,0.2539 h -3.287109 z m 789.814458,0 h 2.29687 c 0.5348,0.007 1.00332,0.0996 1.40625,0.27539 0.40293,0.17583 0.73626,0.41253 1,0.71289 0.27106,0.30037 0.47165,0.65615 0.60352,1.06641 0.13186,0.40293 0.19921,0.83533 0.19921,1.29687 0,0.46887 -0.0674,0.9125 -0.19921,1.33008 -0.12455,0.41758 -0.32074,0.78264 -0.5918,1.09766 -0.26374,0.30769 -0.59707,0.55318 -1,0.73633 -0.40293,0.18315 -0.87585,0.27978 -1.41797,0.2871 h -2.29687 z m 28.79687,0 h 1.68164 c 0.49817,0.007 0.92374,0.10201 1.27539,0.28516 0.35165,0.18315 0.63764,0.42863 0.85742,0.73633 0.22711,0.30769 0.39158,0.66347 0.49414,1.0664 0.10257,0.40293 0.1543,0.82411 0.1543,1.26367 0,0.44689 -0.0517,0.8793 -0.1543,1.29688 -0.0952,0.41025 -0.25287,0.77726 -0.47265,1.09961 -0.21978,0.31502 -0.51017,0.56733 -0.86914,0.75781 -0.35165,0.19048 -0.77966,0.28955 -1.28516,0.29687 h -1.68164 z m 31.9082,0 h 3.28516 c 0.5641,0.007 1.07313,0.0908 1.52734,0.25195 0.46154,0.16118 0.851,0.3886 1.16602,0.68164 0.32234,0.28572 0.56783,0.63467 0.73633,1.04493 0.17582,0.41025 0.26367,0.86755 0.26367,1.37304 0,0.51282 -0.0879,0.98134 -0.26367,1.40625 -0.1685,0.41759 -0.41399,0.7802 -0.73633,1.08789 -0.31502,0.30037 -0.70009,0.53463 -1.1543,0.70313 -0.45421,0.16117 -0.96763,0.24658 -1.53906,0.2539 h -3.28516 z m -818.841794,0.2207 h 3.845703 c 0.468865,0.0147 0.916889,0.0937 1.341797,0.24024 0.432235,0.14652 0.808515,0.35589 1.13086,0.62695 0.32967,0.27106 0.586381,0.6044 0.769531,1 0.190476,0.38828 0.285156,0.83435 0.285156,1.33984 0,0.52015 -0.09907,0.98623 -0.296875,1.39649 -0.190476,0.40293 -0.454019,0.74749 -0.791016,1.0332 -0.32967,0.28572 -0.712783,0.50875 -1.152343,0.66992 -0.439561,0.15385 -0.901249,0.23487 -1.384766,0.24219 h -3.748047 z"
       id="text836"
       inkscape:connector-curvature="0"
       transform="translate(0,587.99998)" />
    <path
       style="font-style:normal;font-variant:normal;font-weight:300;font-stretch:normal;font-size:45.01099014px;line-height:1.25;font-family:'Roboto Mono';-inkscape-font-specification:'Roboto Mono weight=251';letter-spacing:0px;word-spacing:9.00219822px;fill:#800080;fill-opacity:1;stroke:none;stroke-width:0.56263739"
       d="m 550.70312,478.87891 c 0.0293,0.86447 0.19817,1.64826 0.50586,2.35156 0.32235,0.68864 0.76159,1.28308 1.31836,1.78125 0.57143,0.48352 1.2381,0.85736 2,1.12109 0.77656,0.26374 1.62575,0.39453 2.54883,0.39453 0.92308,0 1.76544,-0.13079 2.52735,-0.39453 0.7619,-0.26373 1.42173,-0.63757 1.97851,-1.12109 0.55678,-0.49817 0.98918,-1.09261 1.29688,-1.78125 0.32234,-0.7033 0.49804,-1.48709 0.52734,-2.35156 h -2.24219 c -0.0586,1.15751 -0.44611,2.07405 -1.16406,2.74804 -0.7033,0.674 -1.67841,1.00977 -2.92383,1.00977 -1.28938,0 -2.29182,-0.32894 -3.00976,-0.98828 -0.7033,-0.674 -1.07714,-1.59737 -1.1211,-2.76953 z m 26.59376,0.28515 c 0.0293,0.86447 0.19816,1.64827 0.50585,2.35156 0.32235,0.68865 0.76159,1.28309 1.31836,1.78126 0.57143,0.48351 1.2381,0.85735 2,1.12109 0.77656,0.26374 1.62575,0.39453 2.54883,0.39453 0.92308,0 1.76544,-0.13079 2.52735,-0.39453 0.7619,-0.26374 1.42173,-0.63758 1.97851,-1.12109 0.55678,-0.49817 0.98918,-1.09261 1.29688,-1.78126 0.32234,-0.70329 0.49804,-1.48709 0.52734,-2.35156 h -2.24219 c -0.0586,1.15751 -0.44611,2.07406 -1.16406,2.74805 -0.7033,0.67399 -1.67841,1.01172 -2.92383,1.01172 -1.28938,0 -2.29182,-0.3309 -3.00976,-0.99024 -0.7033,-0.67399 -1.07714,-1.59737 -1.1211,-2.76953 z m -209.75782,0.39649 c -1.39194,0 -2.72527,0.20497 -4,0.61523 -1.27472,0.39561 -2.40308,0.97442 -3.38476,1.73633 -0.96704,0.74725 -1.75083,1.67063 -2.35157,2.76953 -0.60073,1.08425 -0.916,2.31412 -0.94531,3.69141 h 2.63672 c 0.0293,-1.02564 0.26357,-1.94024 0.70313,-2.7461 0.45421,-0.82051 1.04864,-1.50963 1.78125,-2.0664 0.74725,-0.57143 1.59644,-1.00384 2.54882,-1.29688 0.96704,-0.30769 1.97143,-0.46094 3.01172,-0.46094 1.18682,0 2.29272,0.13958 3.31836,0.41797 1.02564,0.27839 1.91095,0.69518 2.6582,1.25196 0.74726,0.54212 1.33486,1.22245 1.75977,2.04296 0.43956,0.80587 0.6582,1.74486 0.6582,2.81446 0,1.0989 -0.21864,2.04277 -0.6582,2.83398 -0.42491,0.77656 -1.01251,1.41394 -1.75977,1.91211 -0.74725,0.49817 -1.62572,0.87201 -2.63671,1.1211 -0.99634,0.23443 -2.07296,0.35156 -3.23047,0.35156 h -4.04492 v 2.26367 h 4.04492 c 1.20146,0 2.32982,0.11713 3.38476,0.35156 1.0696,0.21978 1.99981,0.58679 2.79102,1.09961 0.80586,0.51282 1.44324,1.18632 1.91211,2.02149 0.46886,0.83516 0.70312,1.87567 0.70312,3.12109 0,1.14286 -0.24109,2.14042 -0.72461,2.99023 -0.46886,0.84982 -1.11503,1.55944 -1.93554,2.13086 -0.80586,0.57143 -1.74974,1.00384 -2.83399,1.29688 -1.06959,0.27839 -2.20478,0.41797 -3.40625,0.41797 -1.14285,0 -2.22826,-0.16887 -3.2539,-0.50586 -1.01099,-0.337 -1.90509,-0.81235 -2.68164,-1.42774 -0.76191,-0.61538 -1.37001,-1.36306 -1.82422,-2.24218 -0.45422,-0.87912 -0.69531,-1.86107 -0.72461,-2.94532 h -2.63672 c 0.0293,1.56777 0.35824,2.93722 0.98828,4.10938 0.64469,1.15751 1.48022,2.12579 2.50586,2.90234 1.04029,0.77656 2.22038,1.36221 3.53906,1.75781 1.31868,0.38096 2.6813,0.57032 4.08789,0.57032 1.52381,0 2.98111,-0.18936 4.37305,-0.57032 1.39194,-0.38095 2.61498,-0.95293 3.66992,-1.71484 1.05495,-0.7619 1.89731,-1.71456 2.52735,-2.85742 0.64468,-1.14286 0.96679,-2.47619 0.96679,-4 0,-1.05495 -0.16008,-1.99882 -0.48242,-2.83398 -0.30769,-0.84982 -0.74693,-1.59067 -1.31836,-2.22071 -0.55678,-0.63003 -1.23223,-1.15712 -2.02344,-1.58203 -0.79121,-0.43956 -1.65406,-0.79095 -2.59179,-1.05469 0.84981,-0.29304 1.63361,-0.66688 2.35156,-1.12109 0.71795,-0.45421 1.33971,-0.9813 1.86719,-1.58203 0.52747,-0.60073 0.93742,-1.27619 1.23047,-2.02344 0.30769,-0.7619 0.46289,-1.58865 0.46289,-2.48242 0,-1.50916 -0.29478,-2.82004 -0.88086,-3.93359 -0.57143,-1.11356 -1.35523,-2.03694 -2.35157,-2.76954 -0.99633,-0.7326 -2.16764,-1.2753 -3.51562,-1.62695 -1.34799,-0.35165 -2.776,-0.52734 -4.28516,-0.52734 z m 54.79102,8.21875 c -1.52381,0 -2.89326,0.32406 -4.10938,0.96875 -1.21611,0.64469 -2.24296,1.55245 -3.07812,2.72461 l -0.10938,-3.25196 h -2.46093 v 32.92188 h 2.63671 v -12.04297 c 0.83517,1.08425 1.86884,1.91099 3.09961,2.48242 1.23077,0.57143 2.5846,0.85742 4.06446,0.85742 1.61172,0 3.00362,-0.33772 4.17578,-1.01172 1.17216,-0.68864 2.14044,-1.58957 2.90234,-2.70312 0.77656,-1.12821 1.34659,-2.41664 1.71289,-3.86719 0.38095,-1.4652 0.57227,-2.9674 0.57227,-4.50586 v -0.46094 c 0,-1.58241 -0.19132,-3.10023 -0.57227,-4.55078 -0.3663,-1.4652 -0.9295,-2.75363 -1.6914,-3.86718 -0.76191,-1.12821 -1.73702,-2.0223 -2.92383,-2.68164 -1.18682,-0.674 -2.59238,-1.01172 -4.21875,-1.01172 z m 26.48242,0 c -1.26007,0 -2.44699,0.17765 -3.56055,0.52929 -1.0989,0.35165 -2.06522,0.84067 -2.90039,1.47071 -0.83516,0.61538 -1.50183,1.3494 -2,2.19922 -0.48351,0.84981 -0.74706,1.78002 -0.79101,2.79101 l 2.63672,0.0215 c 0.0293,-0.74726 0.22745,-1.41392 0.59375,-2 0.3663,-0.60074 0.8436,-1.10537 1.42968,-1.51563 0.60074,-0.41026 1.28107,-0.72553 2.04297,-0.94531 0.77656,-0.21978 1.58964,-0.33008 2.43945,-0.33008 0.93773,0 1.80255,0.11713 2.59376,0.35156 0.80586,0.23443 1.49497,0.58583 2.0664,1.05469 0.58608,0.45421 1.04777,1.0262 1.38477,1.71484 0.33699,0.674 0.51269,1.45779 0.52734,2.35157 v 2.70312 h -5.14258 c -1.47985,0 -2.8942,0.13958 -4.24219,0.41797 -1.34798,0.27839 -2.5349,0.71763 -3.56054,1.31836 -1.02564,0.58608 -1.83872,1.35621 -2.43946,2.30859 -0.60073,0.95238 -0.90234,2.10807 -0.90234,3.47071 0,1.02564 0.19815,1.9578 0.59375,2.79297 0.41026,0.82051 0.96663,1.52329 1.66992,2.10937 0.71795,0.58608 1.55348,1.04094 2.50586,1.36328 0.96704,0.32235 2.00754,0.48242 3.1211,0.48242 0.89377,0 1.75175,-0.10151 2.57226,-0.30664 0.82051,-0.19047 1.58186,-0.45597 2.28516,-0.79297 0.71795,-0.35164 1.37778,-0.7616 1.97851,-1.23046 0.60074,-0.46887 1.12782,-0.98034 1.58204,-1.53711 0.0293,0.61538 0.0879,1.22348 0.17578,1.82421 0.0879,0.58608 0.21187,1.12 0.37304,1.60352 h 2.81446 l -0.0234,-0.26367 c -0.20513,-0.7326 -0.38082,-1.50273 -0.52734,-2.3086 -0.13187,-0.80586 -0.19727,-1.60332 -0.19727,-2.39453 v -11.51758 c -0.0146,-1.28937 -0.26453,-2.41577 -0.74805,-3.38281 -0.46886,-0.96703 -1.11308,-1.77328 -1.93359,-2.41797 -0.80586,-0.64468 -1.76535,-1.12882 -2.87891,-1.45117 -1.0989,-0.32234 -2.27899,-0.48437 -3.53906,-0.48437 z m 27.29688,0 c -1.72894,0 -3.23797,0.33089 -4.52735,0.99023 -1.28938,0.65934 -2.366,1.53782 -3.23047,2.63672 -0.84981,1.0989 -1.49403,2.36684 -1.93359,3.80273 -0.42491,1.42125 -0.63867,2.901 -0.63867,4.43946 v 0.92383 c 0,1.53846 0.21376,3.02504 0.63867,4.46093 0.43956,1.42125 1.08378,2.6804 1.93359,3.7793 0.86447,1.0989 1.94109,1.97933 3.23047,2.63867 1.28938,0.65934 2.80719,0.98828 4.55078,0.98828 1.21612,0 2.3718,-0.19131 3.47071,-0.57226 1.0989,-0.39561 2.07401,-0.93636 2.92382,-1.625 0.84982,-0.68865 1.53894,-1.51051 2.06641,-2.46289 0.52747,-0.95238 0.8203,-1.99094 0.87891,-3.11914 h -2.52735 c -0.0586,0.86447 -0.28603,1.63948 -0.68164,2.32812 -0.38095,0.67399 -0.87875,1.25281 -1.49414,1.73633 -0.61538,0.48352 -1.32695,0.85736 -2.13281,1.12109 -0.79121,0.24909 -1.62479,0.375 -2.50391,0.375 -1.39194,0 -2.57886,-0.27916 -3.56054,-0.83593 -0.96704,-0.55678 -1.75962,-1.28201 -2.375,-2.17579 -0.61539,-0.90842 -1.06829,-1.9421 -1.36133,-3.0996 -0.27839,-1.15751 -0.41797,-2.33565 -0.41797,-3.53711 v -0.92383 c 0,-1.18682 0.13958,-2.35129 0.41797,-3.49414 0.29304,-1.15751 0.74594,-2.19119 1.36133,-3.09961 0.61538,-0.90843 1.40796,-1.64049 2.375,-2.19727 0.98168,-0.55677 2.15982,-0.83594 3.53711,-0.83594 0.95238,0 1.83281,0.1552 2.63867,0.4629 0.82051,0.30769 1.53012,0.73814 2.13086,1.29492 0.60073,0.55677 1.08487,1.21661 1.45117,1.97851 0.3663,0.76191 0.57128,1.5906 0.61523,2.48438 h 2.52735 c -0.0586,-1.23077 -0.32899,-2.35913 -0.8125,-3.38477 -0.48352,-1.04029 -1.14335,-1.93439 -1.97852,-2.68164 -0.82051,-0.7619 -1.79562,-1.34755 -2.92383,-1.75781 -1.11355,-0.42491 -2.32975,-0.63867 -3.64843,-0.63867 z m 161.95703,0 c -1.72894,0 -3.23797,0.33089 -4.52735,0.99023 -1.28937,0.65934 -2.366,1.53782 -3.23047,2.63672 -0.84981,1.0989 -1.49598,2.36684 -1.93554,3.80273 -0.42491,1.42125 -0.63672,2.901 -0.63672,4.43946 v 0.92383 c 0,1.53846 0.21181,3.02504 0.63672,4.46093 0.43956,1.42125 1.08573,2.6804 1.93554,3.7793 0.86447,1.0989 1.9411,1.97933 3.23047,2.63867 1.28938,0.65934 2.80524,0.98828 4.54883,0.98828 1.21612,0 2.37376,-0.19131 3.47266,-0.57226 1.0989,-0.39561 2.07401,-0.93636 2.92383,-1.625 0.84981,-0.68865 1.53698,-1.51051 2.06445,-2.46289 0.52747,-0.95238 0.8203,-1.99094 0.8789,-3.11914 h -2.52734 c -0.0586,0.86447 -0.28408,1.63948 -0.67969,2.32812 -0.38095,0.67399 -0.88071,1.25281 -1.49609,1.73633 -0.61539,0.48352 -1.325,0.85736 -2.13086,1.12109 -0.79121,0.24909 -1.62674,0.375 -2.50586,0.375 -1.33333,0 -2.47535,-0.24988 -3.42773,-0.74804 -0.93773,-0.51282 -1.7147,-1.18632 -2.33008,-2.02149 -0.61539,-0.84981 -1.08391,-1.81809 -1.40625,-2.90234 -0.30769,-1.08425 -0.48339,-2.19699 -0.52735,-3.33985 h 11.00977 v -2.2207 h -11.00977 c 0.044,-1.1282 0.21966,-2.22728 0.52735,-3.29687 0.32234,-1.08425 0.79086,-2.04375 1.40625,-2.87891 0.61538,-0.83516 1.39235,-1.50866 2.33008,-2.02148 0.95238,-0.51282 2.08756,-0.76954 3.40625,-0.76954 0.95238,0 1.83085,0.1552 2.63671,0.4629 0.82052,0.30769 1.53208,0.73814 2.13282,1.29492 0.60073,0.55677 1.08292,1.21661 1.44922,1.97851 0.3663,0.76191 0.57127,1.5906 0.61523,2.48438 h 2.52734 c -0.0586,-1.23077 -0.32898,-2.35913 -0.8125,-3.38477 -0.48351,-1.04029 -1.14335,-1.93439 -1.97851,-2.68164 -0.82051,-0.7619 -1.79367,-1.34755 -2.92188,-1.75781 -1.11355,-0.42491 -2.32975,-0.63867 -3.64843,-0.63867 z m -248.24219,0.4414 -0.39649,8.5918 c -0.0879,1.52381 -0.2187,2.94499 -0.39453,4.26367 -0.16117,1.31868 -0.40226,2.52122 -0.72461,3.60547 -0.32234,1.08425 -0.73425,2.05741 -1.23242,2.92188 -0.49817,0.84981 -1.10627,1.57504 -1.82422,2.17578 h -1.91211 l 0.19922,9.20898 h 2.30664 V 512 h 17.86914 v 6.98828 h 2.41797 l 0.19727,-9.20898 h -2.46289 v -21.5586 z m 101.89062,0 v 2.24024 h 9.7793 V 512 h 2.66016 v -21.53906 h 10.13086 v -2.24024 z m 28.57032,0 V 512 h 10.50586 c 1.18681,0 2.3015,-0.12396 3.34179,-0.37305 1.05495,-0.26373 1.96271,-0.66002 2.72461,-1.1875 0.77656,-0.54212 1.38466,-1.22245 1.82422,-2.04297 0.43956,-0.83516 0.6582,-1.83272 0.6582,-2.99023 0,-0.7326 -0.12396,-1.41293 -0.37304,-2.04297 -0.24909,-0.63004 -0.60048,-1.18836 -1.05469,-1.67187 -0.45421,-0.48352 -0.99692,-0.89348 -1.62695,-1.23047 -0.63004,-0.337 -1.33965,-0.57126 -2.13086,-0.70313 1.30403,-0.41025 2.32892,-1.03202 3.07617,-1.86719 0.7619,-0.83516 1.15136,-1.94106 1.16601,-3.31835 0,-1.17217 -0.24304,-2.16289 -0.72656,-2.96875 -0.48351,-0.80587 -1.14335,-1.45691 -1.97851,-1.95508 -0.83517,-0.49817 -1.80833,-0.85639 -2.92188,-1.07617 -1.0989,-0.21978 -2.26337,-0.33691 -3.49414,-0.35157 z m 24.59375,0 10.68164,23.16407 -1.62696,3.51562 c -0.21978,0.49817 -0.49698,1.00476 -0.83398,1.51758 -0.32234,0.52747 -0.70497,0.99599 -1.14453,1.40625 -0.42491,0.42491 -0.91393,0.76947 -1.4707,1.0332 -0.55678,0.26374 -1.17367,0.39453 -1.84766,0.39453 -0.24909,0 -0.56436,-0.0205 -0.94531,-0.0644 -0.3663,-0.0293 -0.67279,-0.0586 -0.92188,-0.0879 l -0.30859,2.19727 c 0.29304,0.0733 0.65321,0.13865 1.07812,0.19726 0.42491,0.0733 0.81242,0.10938 1.16406,0.10938 1.01099,0 1.90509,-0.16691 2.68165,-0.50391 0.7912,-0.337 1.48715,-0.78502 2.08789,-1.3418 0.60073,-0.54212 1.12098,-1.15706 1.56054,-1.8457 0.43956,-0.68865 0.82024,-1.39143 1.14258,-2.10938 l 12.28516,-27.58203 h -2.98828 l -8.59375,20.24024 -0.48243,-1.29688 -8.55078,-18.94336 z m 29.47265,0 V 512 h 2.61524 l 13.42968,-19.64844 V 512 h 2.65821 v -23.7793 h -2.65821 L 576.9668,507.89062 V 488.2207 Z m 25.31836,0 v 2.24024 h 9.78125 V 512 h 2.65821 v -21.53906 h 10.13281 v -2.24024 z m -177.93359,1.84571 c 1.34798,0 2.48317,0.29282 3.40625,0.8789 0.93773,0.57143 1.69907,1.32595 2.28515,2.26367 0.58608,0.92308 1.01166,1.97042 1.27539,3.14258 0.26374,1.17216 0.39649,2.35225 0.39649,3.53906 v 0.46094 c 0,1.18682 -0.13275,2.37374 -0.39649,3.56055 -0.26373,1.17216 -0.68931,2.22633 -1.27539,3.16406 -0.57142,0.92308 -1.32594,1.67759 -2.26367,2.26367 -0.92307,0.58608 -2.05143,0.88086 -3.38476,0.88086 -1.47986,0 -2.79074,-0.36017 -3.9336,-1.07812 -1.14285,-0.71795 -2.02133,-1.69111 -2.63672,-2.92188 v -11.78125 c 0.29304,-0.64469 0.65127,-1.23034 1.07618,-1.75781 0.43956,-0.54212 0.93053,-1.00381 1.47265,-1.38476 0.55678,-0.39561 1.16488,-0.69527 1.82422,-0.9004 0.67399,-0.21978 1.39239,-0.33007 2.1543,-0.33007 z m 101.1875,0.39453 h 6.35156 c 0.86447,0 1.68438,0.0674 2.46094,0.19922 0.79121,0.11721 1.48032,0.33586 2.0664,0.6582 0.60074,0.30769 1.07609,0.73327 1.42774,1.27539 0.35165,0.54212 0.52734,1.22246 0.52734,2.04297 0,0.79121 -0.16886,1.45787 -0.50586,2 -0.32234,0.52747 -0.76841,0.95988 -1.33984,1.29687 -0.55678,0.32235 -1.21661,0.55661 -1.97852,0.70313 -0.74725,0.14652 -1.5535,0.2207 -2.41797,0.2207 h -6.59179 z m -130.57227,0.2207 h 8.87891 v 19.09766 h -12.63672 c 0.63004,-0.71795 1.15029,-1.5447 1.56055,-2.48242 0.41025,-0.93773 0.73919,-1.95579 0.98828,-3.05469 0.26373,-1.0989 0.46188,-2.27216 0.59375,-3.51758 0.13187,-1.24542 0.24216,-2.54947 0.33008,-3.91211 z m 58.13282,9.51563 h 4.79101 v 5.20898 c -0.30769,0.68864 -0.73327,1.32603 -1.27539,1.91211 -0.54212,0.57143 -1.16389,1.06923 -1.86719,1.49414 -0.70329,0.41026 -1.48026,0.73236 -2.33008,0.9668 -0.83516,0.23443 -1.71559,0.34473 -2.63867,0.33008 -0.77655,0 -1.50179,-0.10152 -2.17578,-0.30665 -0.67399,-0.21978 -1.25964,-0.52822 -1.75781,-0.92382 -0.49817,-0.41026 -0.89251,-0.90123 -1.18555,-1.47266 -0.29304,-0.57143 -0.4414,-1.21565 -0.4414,-1.93359 0,-1.01099 0.24304,-1.85335 0.72656,-2.52735 0.49817,-0.67399 1.158,-1.20986 1.97851,-1.60547 0.82052,-0.41025 1.76439,-0.70308 2.83399,-0.8789 1.0696,-0.17583 2.18429,-0.26367 3.3418,-0.26367 z m 72.43945,0.85742 h 7.86719 c 0.7912,0 1.54572,0.0879 2.26367,0.26367 0.71795,0.16117 1.34167,0.41788 1.86914,0.76953 0.54212,0.337 0.97453,0.77624 1.29687,1.31836 0.32235,0.54212 0.48242,1.19513 0.48242,1.95703 0,0.79121 -0.15324,1.46471 -0.46093,2.02149 -0.30769,0.55677 -0.73327,1.01846 -1.27539,1.38476 -0.52748,0.35165 -1.14924,0.61519 -1.86719,0.79102 -0.71795,0.16117 -1.48808,0.24218 -2.30859,0.24218 h -7.86719 z m 142.39453,6.85742 c -0.68865,0 -1.23818,0.2206 -1.64844,0.66016 -0.3956,0.4249 -0.59375,0.94516 -0.59375,1.56054 0,0.61539 0.19815,1.12686 0.59375,1.53711 0.41026,0.39561 0.95979,0.59375 1.64844,0.59375 0.7033,0 1.25283,-0.19814 1.64844,-0.59375 0.41025,-0.41025 0.61523,-0.92172 0.61523,-1.53711 0,-0.61538 -0.20498,-1.13564 -0.61523,-1.56054 -0.39561,-0.43956 -0.94514,-0.66016 -1.64844,-0.66016 z"
       transform="translate(0,587.99998)"
       id="text890"
       inkscape:connector-curvature="0" />
    <path
       style="font-style:normal;font-variant:normal;font-weight:300;font-stretch:normal;font-size:45.01099014px;line-height:1.25;font-family:'Roboto Mono';-inkscape-font-specification:'Roboto Mono weight=251';letter-spacing:0px;word-spacing:9.00219822px;fill:#800080;fill-opacity:1;stroke:none;stroke-width:0.56263739"
       d="m 200.99805,544 9.64843,15.7793 L 200.68945,576 h 3.09961 L 212.20703,561.89062 220.60156,576 h 3.07813 L 213.72266,559.7793 223.37109,544 h -3.09765 L 212.16211,557.66992 204.09766,544 Z m 296.84765,0.63672 v 7.58398 H 481.40625 V 576 h 2.70313 v -21.51562 h 16.41796 v -9.84766 z m -259.04492,7.14258 c -1.65568,0 -3.14421,0.32406 -4.46289,0.96875 -1.30403,0.64469 -2.40993,1.51633 -3.31836,2.61523 -0.89377,1.08425 -1.58289,2.35023 -2.06641,3.80078 -0.48351,1.45055 -0.73144,2.98203 -0.74609,4.59375 v 0.72657 c 0.0146,1.61172 0.26258,3.14124 0.74609,4.59179 0.48352,1.45055 1.17947,2.72532 2.0879,3.82422 0.90842,1.08425 2.01628,1.94906 3.32031,2.59375 1.31868,0.63004 2.81209,0.94531 4.48242,0.94531 1.67033,0 3.15691,-0.31527 4.46094,-0.94531 1.30403,-0.64469 2.41189,-1.5095 3.32031,-2.59375 0.90842,-1.0989 1.59559,-2.37367 2.06445,-3.82422 0.48352,-1.45055 0.7334,-2.98007 0.74805,-4.59179 v -0.72657 c -0.0146,-1.61172 -0.26453,-3.1432 -0.74805,-4.59375 -0.48351,-1.45055 -1.17946,-2.71653 -2.08789,-3.80078 -0.90842,-1.0989 -2.02116,-1.97054 -3.33984,-2.61523 -1.30403,-0.64469 -2.79061,-0.96875 -4.46094,-0.96875 z m 27.58203,0 c -1.52381,0 -2.89326,0.32406 -4.10937,0.96875 -1.21612,0.64469 -2.24296,1.55245 -3.07813,2.72461 l -0.10937,-3.25196 H 256.625 v 32.92188 h 2.63672 v -12.04297 c 0.83516,1.08425 1.86884,1.91099 3.09961,2.48242 1.23077,0.57143 2.5846,0.85742 4.06445,0.85742 1.61172,0 3.00362,-0.33772 4.17578,-1.01172 1.17216,-0.68864 2.14044,-1.58957 2.90235,-2.70312 0.77655,-1.12821 1.34659,-2.41664 1.71289,-3.86719 0.38095,-1.4652 0.57226,-2.9674 0.57226,-4.50586 v -0.46094 c 0,-1.58241 -0.19131,-3.10023 -0.57226,-4.55078 -0.3663,-1.4652 -0.9295,-2.75363 -1.69141,-3.86718 -0.7619,-1.12821 -1.73701,-2.0223 -2.92383,-2.68164 -1.18681,-0.674 -2.59237,-1.01172 -4.21875,-1.01172 z m 26.39453,0 c -1.65567,0 -3.14225,0.32406 -4.46093,0.96875 -1.30403,0.64469 -2.40994,1.51633 -3.31836,2.61523 -0.89378,1.08425 -1.58289,2.35023 -2.06641,3.80078 -0.48352,1.45055 -0.73144,2.98203 -0.74609,4.59375 v 0.72657 c 0.0147,1.61172 0.26257,3.14124 0.74609,4.59179 0.48352,1.45055 1.17947,2.72532 2.08789,3.82422 0.90843,1.08425 2.01433,1.94906 3.31836,2.59375 1.31868,0.63004 2.81405,0.94531 4.48438,0.94531 1.67033,0 3.1569,-0.31527 4.46093,-0.94531 1.30403,-0.64469 2.40994,-1.5095 3.31836,-2.59375 0.90843,-1.0989 1.59754,-2.37367 2.06641,-3.82422 0.48352,-1.45055 0.73339,-2.98007 0.74805,-4.59179 v -0.72657 c -0.0147,-1.61172 -0.26453,-3.1432 -0.74805,-4.59375 -0.48352,-1.45055 -1.17947,-2.71653 -2.08789,-3.80078 -0.90843,-1.0989 -2.02116,-1.97054 -3.33985,-2.61523 -1.30402,-0.64469 -2.79256,-0.96875 -4.46289,-0.96875 z m 54.06641,0 c -1.26007,0 -2.44699,0.17765 -3.56055,0.52929 -1.0989,0.35165 -2.06522,0.84067 -2.90039,1.47071 -0.83516,0.61538 -1.50183,1.3494 -2,2.19922 -0.48351,0.84981 -0.74706,1.78002 -0.79101,2.79101 l 2.63672,0.0215 c 0.0293,-0.74726 0.22745,-1.41392 0.59375,-2 0.3663,-0.60074 0.84165,-1.10537 1.42773,-1.51563 0.60073,-0.41026 1.28302,-0.72553 2.04492,-0.94531 0.77656,-0.21978 1.58964,-0.33008 2.43946,-0.33008 0.93772,0 1.80254,0.11713 2.59374,0.35156 0.80587,0.23443 1.49303,0.58583 2.06446,1.05469 0.58608,0.45421 1.04777,1.0262 1.38476,1.71484 0.337,0.674 0.5127,1.45779 0.52735,2.35157 v 2.70312 h -5.14258 c -1.47985,0 -2.8942,0.13958 -4.24219,0.41797 -1.34798,0.27839 -2.53295,0.71763 -3.55859,1.31836 -1.02564,0.58608 -1.84068,1.35621 -2.44141,2.30859 -0.60073,0.95238 -0.90039,2.10807 -0.90039,3.47071 0,1.02564 0.19815,1.9578 0.59375,2.79297 0.41026,0.82051 0.96663,1.52329 1.66992,2.10937 0.71795,0.58608 1.55348,1.04094 2.50586,1.36328 0.96704,0.32235 2.00754,0.48242 3.1211,0.48242 0.89377,0 1.7498,-0.10151 2.57031,-0.30664 0.82051,-0.19047 1.58381,-0.45597 2.28711,-0.79297 0.71795,-0.35164 1.37583,-0.7616 1.97656,-1.23046 0.60073,-0.46887 1.12977,-0.98034 1.58398,-1.53711 0.0293,0.61538 0.0879,1.22348 0.17579,1.82421 0.0879,0.58608 0.21187,1.12 0.37304,1.60352 h 2.8125 l -0.0215,-0.26367 c -0.20513,-0.7326 -0.38082,-1.50273 -0.52735,-2.3086 -0.13186,-0.80586 -0.19726,-1.60332 -0.19726,-2.39453 v -11.51758 c -0.0146,-1.28937 -0.26453,-2.41577 -0.74805,-3.38281 -0.46886,-0.96703 -1.11308,-1.77328 -1.93359,-2.41797 -0.80586,-0.64468 -1.76535,-1.12882 -2.87891,-1.45117 -1.0989,-0.32234 -2.27899,-0.48437 -3.53906,-0.48437 z m 116.87109,0 c -1.65567,0 -3.14421,0.32406 -4.46289,0.96875 -1.30403,0.64469 -2.40993,1.51633 -3.31836,2.61523 -0.89377,1.08425 -1.58289,2.35023 -2.0664,3.80078 -0.48352,1.45055 -0.73144,2.98203 -0.7461,4.59375 v 0.72657 c 0.0147,1.61172 0.26258,3.14124 0.7461,4.59179 0.48351,1.45055 1.18142,2.72532 2.08984,3.82422 0.90843,1.08425 2.01433,1.94906 3.31836,2.59375 1.31868,0.63004 2.81209,0.94531 4.48242,0.94531 1.67033,0 3.15886,-0.31527 4.46289,-0.94531 1.30403,-0.64469 2.40994,-1.5095 3.31836,-2.59375 0.90843,-1.0989 1.59559,-2.37367 2.06446,-3.82422 0.48351,-1.45055 0.73339,-2.98007 0.74804,-4.59179 v -0.72657 c -0.0147,-1.61172 -0.26453,-3.1432 -0.74804,-4.59375 -0.48352,-1.45055 -1.17947,-2.71653 -2.0879,-3.80078 -0.90842,-1.0989 -2.02116,-1.97054 -3.33984,-2.61523 -1.30403,-0.64469 -2.79061,-0.96875 -4.46094,-0.96875 z m 53.97657,0 c -1.65568,0 -3.14226,0.32406 -4.46094,0.96875 -1.30403,0.64469 -2.40994,1.51633 -3.31836,2.61523 -0.89377,1.08425 -1.58289,2.35023 -2.06641,3.80078 -0.48351,1.45055 -0.73144,2.98203 -0.74609,4.59375 v 0.72657 c 0.0147,1.61172 0.26258,3.14124 0.74609,4.59179 0.48352,1.45055 1.17947,2.72532 2.08789,3.82422 0.90843,1.08425 2.01433,1.94906 3.31836,2.59375 1.31868,0.63004 2.81405,0.94531 4.48438,0.94531 1.67033,0 3.15691,-0.31527 4.46094,-0.94531 1.30402,-0.64469 2.40993,-1.5095 3.31835,-2.59375 0.90843,-1.0989 1.59755,-2.37367 2.06641,-3.82422 0.48352,-1.45055 0.7334,-2.98007 0.74805,-4.59179 v -0.72657 c -0.0146,-1.61172 -0.26453,-3.1432 -0.74805,-4.59375 -0.48352,-1.45055 -1.17946,-2.71653 -2.08789,-3.80078 -0.90842,-1.0989 -2.02116,-1.97054 -3.33984,-2.61523 -1.30403,-0.64469 -2.79256,-0.96875 -4.46289,-0.96875 z m 54.0664,0 c -1.26007,0 -2.44699,0.17765 -3.56054,0.52929 -1.09891,0.35165 -2.06523,0.84067 -2.90039,1.47071 -0.83517,0.61538 -1.50184,1.3494 -2,2.19922 -0.48352,0.84981 -0.74706,1.78002 -0.79102,2.79101 l 2.63672,0.0215 c 0.0293,-0.74726 0.22745,-1.41392 0.59375,-2 0.3663,-0.60074 0.84165,-1.10537 1.42773,-1.51563 0.60074,-0.41026 1.28302,-0.72553 2.04492,-0.94531 0.77656,-0.21978 1.58964,-0.33008 2.43946,-0.33008 0.93773,0 1.80254,0.11713 2.59375,0.35156 0.80586,0.23443 1.49498,0.58583 2.0664,1.05469 0.58608,0.45421 1.04582,1.0262 1.38282,1.71484 0.33699,0.674 0.51464,1.45779 0.52929,2.35157 v 2.70312 h -5.14453 c -1.47985,0 -2.89225,0.13958 -4.24023,0.41797 -1.34799,0.27839 -2.53491,0.71763 -3.56055,1.31836 -1.02564,0.58608 -1.83872,1.35621 -2.43945,2.30859 -0.60074,0.95238 -0.90235,2.10807 -0.90235,3.47071 0,1.02564 0.19815,1.9578 0.59375,2.79297 0.41026,0.82051 0.96663,1.52329 1.66993,2.10937 0.71794,0.58608 1.55347,1.04094 2.50585,1.36328 0.96704,0.32235 2.00755,0.48242 3.1211,0.48242 0.89377,0 1.75175,-0.10151 2.57226,-0.30664 0.82052,-0.19047 1.58186,-0.45597 2.28516,-0.79297 0.71795,-0.35164 1.37778,-0.7616 1.97852,-1.23046 0.60073,-0.46887 1.12782,-0.98034 1.58203,-1.53711 0.0293,0.61538 0.0879,1.22348 0.17578,1.82421 0.0879,0.58608 0.21187,1.12 0.37305,1.60352 h 2.8125 l -0.0215,-0.26367 c -0.20513,-0.7326 -0.38082,-1.50273 -0.52734,-2.3086 -0.13187,-0.80586 -0.19727,-1.60332 -0.19727,-2.39453 v -11.51758 c -0.0147,-1.28937 -0.26453,-2.41577 -0.74804,-3.38281 -0.46887,-0.96703 -1.11309,-1.77328 -1.9336,-2.41797 -0.80586,-0.64468 -1.76535,-1.12882 -2.8789,-1.45117 -1.09891,-0.32234 -2.27899,-0.48437 -3.53907,-0.48437 z m 63.28907,0 c -1.72894,0 -3.23797,0.33089 -4.52735,0.99023 -1.28938,0.65934 -2.36795,1.53782 -3.23242,2.63672 -0.84982,1.0989 -1.49403,2.36684 -1.93359,3.80273 -0.42491,1.42125 -0.63672,2.901 -0.63672,4.43946 v 0.92383 c 0,1.53846 0.21181,3.02504 0.63672,4.46093 0.43956,1.42125 1.08377,2.6804 1.93359,3.7793 0.86447,1.0989 1.94304,1.97933 3.23242,2.63867 1.28938,0.65934 2.80524,0.98828 4.54883,0.98828 1.21612,0 2.37375,-0.19131 3.47266,-0.57226 1.0989,-0.39561 2.07205,-0.93636 2.92187,-1.625 0.84982,-0.68865 1.53893,-1.51051 2.06641,-2.46289 0.52747,-0.95238 0.8203,-1.99094 0.8789,-3.11914 h -2.52734 c -0.0586,0.86447 -0.28604,1.63948 -0.68164,2.32812 -0.38095,0.67399 -0.87876,1.25281 -1.49414,1.73633 -0.61539,0.48352 -1.325,0.85736 -2.13086,1.12109 -0.79121,0.24909 -1.62674,0.375 -2.50586,0.375 -1.39194,0 -2.57886,-0.27916 -3.56055,-0.83593 -0.96703,-0.55678 -1.75766,-1.28201 -2.37304,-2.17579 -0.61539,-0.90842 -1.07025,-1.9421 -1.36329,-3.0996 -0.27838,-1.15751 -0.41796,-2.33565 -0.41796,-3.53711 v -0.92383 c 0,-1.18682 0.13958,-2.35129 0.41796,-3.49414 0.29304,-1.15751 0.7479,-2.19119 1.36329,-3.09961 0.61538,-0.90843 1.40601,-1.64049 2.37304,-2.19727 0.98169,-0.55677 2.16178,-0.83594 3.53907,-0.83594 0.95238,0 1.83085,0.1552 2.63671,0.4629 0.82052,0.30769 1.53013,0.73814 2.13086,1.29492 0.60074,0.55677 1.08487,1.21661 1.45117,1.97851 0.36631,0.76191 0.57128,1.5906 0.61524,2.48438 h 2.52734 c -0.0586,-1.23077 -0.32898,-2.35913 -0.8125,-3.38477 -0.48351,-1.04029 -1.14335,-1.93439 -1.97851,-2.68164 -0.82052,-0.7619 -1.79367,-1.34755 -2.92188,-1.75781 -1.11355,-0.42491 -2.32975,-0.63867 -3.64843,-0.63867 z m 27.00976,0 c -1.72894,0 -3.23797,0.33089 -4.52734,0.99023 -1.28938,0.65934 -2.366,1.53782 -3.23047,2.63672 -0.84982,1.0989 -1.49404,2.36684 -1.9336,3.80273 -0.4249,1.42125 -0.63867,2.901 -0.63867,4.43946 v 0.92383 c 0,1.53846 0.21377,3.02504 0.63867,4.46093 0.43956,1.42125 1.08378,2.6804 1.9336,3.7793 0.86447,1.0989 1.94109,1.97933 3.23047,2.63867 1.28937,0.65934 2.80719,0.98828 4.55078,0.98828 1.21612,0 2.3718,-0.19131 3.4707,-0.57226 1.0989,-0.39561 2.07401,-0.93636 2.92383,-1.625 0.84982,-0.68865 1.53893,-1.51051 2.06641,-2.46289 0.52747,-0.95238 0.82029,-1.99094 0.8789,-3.11914 h -2.52734 c -0.0586,0.86447 -0.28604,1.63948 -0.68164,2.32812 -0.38095,0.67399 -0.87876,1.25281 -1.49414,1.73633 -0.61539,0.48352 -1.32695,0.85736 -2.13282,1.12109 -0.7912,0.24909 -1.62478,0.375 -2.5039,0.375 -1.33334,0 -2.47731,-0.24988 -3.42969,-0.74804 -0.93773,-0.51282 -1.71469,-1.18632 -2.33008,-2.02149 -0.61538,-0.84981 -1.0839,-1.81809 -1.40625,-2.90234 -0.30769,-1.08425 -0.48339,-2.19699 -0.52734,-3.33985 h 11.01172 v -2.2207 h -11.01172 c 0.0439,-1.1282 0.21965,-2.22728 0.52734,-3.29687 0.32235,-1.08425 0.79087,-2.04375 1.40625,-2.87891 0.61539,-0.83516 1.39235,-1.50866 2.33008,-2.02148 0.95238,-0.51282 2.08757,-0.76954 3.40625,-0.76954 0.95238,0 1.83281,0.1552 2.63867,0.4629 0.82052,0.30769 1.53013,0.73814 2.13086,1.29492 0.60073,0.55677 1.08487,1.21661 1.45117,1.97851 0.3663,0.76191 0.57128,1.5906 0.61524,2.48438 h 2.52734 c -0.0586,-1.23077 -0.32898,-2.35913 -0.8125,-3.38477 -0.48351,-1.04029 -1.14335,-1.93439 -1.97851,-2.68164 -0.82052,-0.7619 -1.79563,-1.34755 -2.92383,-1.75781 -1.11356,-0.42491 -2.32976,-0.63867 -3.64844,-0.63867 z m 53.56055,0 c -1.65568,0 -3.14226,0.32406 -4.46094,0.96875 -1.30403,0.64469 -2.40993,1.51633 -3.31836,2.61523 -0.89377,1.08425 -1.58289,2.35023 -2.06641,3.80078 -0.48351,1.45055 -0.73339,2.98203 -0.74804,4.59375 v 0.72657 c 0.0146,1.61172 0.26453,3.14124 0.74804,4.59179 0.48352,1.45055 1.17947,2.72532 2.0879,3.82422 0.90842,1.08425 2.01433,1.94906 3.31835,2.59375 1.31869,0.63004 2.81405,0.94531 4.48438,0.94531 1.67033,0 3.15691,-0.31527 4.46094,-0.94531 1.30403,-0.64469 2.40993,-1.5095 3.31836,-2.59375 0.90842,-1.0989 1.59754,-2.37367 2.0664,-3.82422 0.48352,-1.45055 0.7334,-2.98007 0.74805,-4.59179 v -0.72657 c -0.0146,-1.61172 -0.26453,-3.1432 -0.74805,-4.59375 -0.48351,-1.45055 -1.17946,-2.71653 -2.08789,-3.80078 -0.90842,-1.0989 -2.02116,-1.97054 -3.33984,-2.61523 -1.30403,-0.64469 -2.79256,-0.96875 -4.46289,-0.96875 z m -406.28907,0.4414 V 576 h 20.94532 v -23.7793 h -2.57227 v 21.5586 h -6.57226 v -21.5586 h -2.5918 v 21.5586 h -6.63867 v -21.5586 z m 62.83399,0 c -1.23077,0.0147 -2.37962,0.18157 -3.44922,0.50391 -1.0696,0.32234 -2.00176,0.78403 -2.79297,1.38477 -0.79121,0.60073 -1.41297,1.34158 -1.86719,2.2207 -0.45421,0.87912 -0.68164,1.87473 -0.68164,2.98828 0,0.86447 0.12397,1.66388 0.37305,2.39648 0.24908,0.71795 0.60926,1.369 1.07813,1.95508 0.46886,0.57143 1.02523,1.0624 1.66992,1.47266 0.65934,0.41025 1.40019,0.72553 2.2207,0.94531 L 362.51367,576 h 2.92383 l 6,-9.58203 h 8.33008 V 576 h 2.63672 v -23.7793 z m 55.24414,0 V 576 h 2.63867 v -21.51562 h 13.40625 V 576 h 2.65821 v -23.7793 z m 112.35156,0 -0.39453,8.5918 c -0.0879,1.52381 -0.22066,2.94499 -0.39648,4.26367 -0.16118,1.31868 -0.40227,2.52122 -0.72461,3.60547 -0.32235,1.08425 -0.7323,2.05741 -1.23047,2.92188 -0.49817,0.84981 -1.10627,1.57504 -1.82422,2.17578 h -1.91211 l 0.19727,9.20898 h 2.30664 V 576 h 17.86914 v 6.98828 h 2.41797 l 0.19726,-9.20898 h -2.46094 v -21.5586 z m 139.46485,0 V 576 h 10.5039 c 1.18682,0 2.30151,-0.12396 3.3418,-0.37305 1.05494,-0.26373 1.9627,-0.66002 2.72461,-1.1875 0.77656,-0.54212 1.38466,-1.22245 1.82422,-2.04297 0.43956,-0.83516 0.66015,-1.83272 0.66015,-2.99023 0,-0.7326 -0.12591,-1.41293 -0.375,-2.04297 -0.24908,-0.63004 -0.60047,-1.18836 -1.05468,-1.67187 -0.45422,-0.48352 -0.99497,-0.89348 -1.625,-1.23047 -0.63004,-0.337 -1.34161,-0.57126 -2.13282,-0.70313 1.30403,-0.41025 2.33088,-1.03202 3.07813,-1.86719 0.7619,-0.83516 1.14941,-1.94106 1.16406,-3.31835 0,-1.17217 -0.24109,-2.16289 -0.72461,-2.96875 -0.48351,-0.80587 -1.14335,-1.45691 -1.97851,-1.95508 -0.83517,-0.49817 -1.81028,-0.85639 -2.92383,-1.07617 -1.0989,-0.21978 -2.26337,-0.33691 -3.49414,-0.35157 z m 58.46093,0 -0.39648,8.5918 c -0.0879,1.52381 -0.21871,2.94499 -0.39453,4.26367 -0.16117,1.31868 -0.40227,2.52122 -0.72461,3.60547 -0.32235,1.08425 -0.73425,2.05741 -1.23242,2.92188 -0.49817,0.84981 -1.10627,1.57504 -1.82422,2.17578 h -1.91211 l 0.19922,9.20898 h 2.30664 V 576 h 17.86914 v 6.98828 h 2.41601 l 0.19922,-9.20898 h -2.46289 v -21.5586 z m 22.59375,0 V 576 h 2.61524 v -10.90039 h 13.42773 V 576 h 2.66016 v -23.7793 h -2.66016 v 10.65821 H 762.89258 V 552.2207 Z m 34.72461,0 c -1.23077,0.0147 -2.38157,0.18157 -3.45117,0.50391 -1.0696,0.32234 -1.99981,0.78403 -2.79101,1.38477 -0.79121,0.60073 -1.41298,1.34158 -1.86719,2.2207 -0.45421,0.87912 -0.68164,1.87473 -0.68164,2.98828 0,0.86447 0.12396,1.66388 0.37304,2.39648 0.24909,0.71795 0.60926,1.369 1.07813,1.95508 0.46886,0.57143 1.02523,1.0624 1.66992,1.47266 0.65934,0.41025 1.39824,0.72553 2.21875,0.94531 L 785.35352,576 h 2.92382 l 6,-9.58203 h 8.33008 V 576 h 2.63672 v -23.7793 z m -556.20117,1.80078 c 1.28938,0 2.4314,0.27917 3.42774,0.83594 0.99633,0.54213 1.83186,1.26736 2.50586,2.17578 0.67399,0.89378 1.18741,1.92745 1.53906,3.09961 0.35165,1.17216 0.52734,2.37958 0.52734,3.625 v 0.72657 c 0,1.26007 -0.17569,2.47627 -0.52734,3.64843 -0.35165,1.17216 -0.86507,2.21072 -1.53906,3.11914 -0.65935,0.89378 -1.48804,1.61218 -2.48438,2.1543 -0.98169,0.54212 -2.11687,0.81445 -3.40625,0.81445 -1.30403,0 -2.45483,-0.27233 -3.45117,-0.81445 -0.98169,-0.54212 -1.80843,-1.26052 -2.48242,-2.1543 -0.674,-0.90842 -1.18742,-1.94698 -1.53907,-3.11914 -0.35164,-1.17216 -0.52734,-2.38836 -0.52734,-3.64843 v -0.72657 c 0,-1.24542 0.1757,-2.45284 0.52734,-3.625 0.35165,-1.17216 0.85824,-2.20583 1.51758,-3.09961 0.67399,-0.90842 1.50074,-1.63365 2.48242,-2.17578 0.99634,-0.55677 2.14031,-0.83594 3.42969,-0.83594 z m 53.97656,0 c 1.28938,0 2.43335,0.27917 3.42969,0.83594 0.99634,0.54213 1.83187,1.26736 2.50586,2.17578 0.67399,0.89378 1.18546,1.92745 1.53711,3.09961 0.35165,1.17216 0.52734,2.37958 0.52734,3.625 v 0.72657 c 0,1.26007 -0.17569,2.47627 -0.52734,3.64843 -0.35165,1.17216 -0.86312,2.21072 -1.53711,3.11914 -0.65934,0.89378 -1.48804,1.61218 -2.48437,2.1543 -0.98169,0.54212 -2.11688,0.81445 -3.40625,0.81445 -1.30403,0 -2.45484,-0.27233 -3.45118,-0.81445 -0.98168,-0.54212 -1.80843,-1.26052 -2.48242,-2.1543 -0.67399,-0.90842 -1.18741,-1.94698 -1.53906,-3.11914 -0.35165,-1.17216 -0.52734,-2.38836 -0.52734,-3.64843 v -0.72657 c 0,-1.24542 0.17569,-2.45284 0.52734,-3.625 0.35165,-1.17216 0.85628,-2.20583 1.51562,-3.09961 0.674,-0.90842 1.50269,-1.63365 2.48438,-2.17578 0.99634,-0.55677 2.13836,-0.83594 3.42773,-0.83594 z m 170.9375,0 c 1.28938,0 2.4314,0.27917 3.42774,0.83594 0.99634,0.54213 1.83186,1.26736 2.50586,2.17578 0.67399,0.89378 1.18741,1.92745 1.53906,3.09961 0.35165,1.17216 0.52734,2.37958 0.52734,3.625 v 0.72657 c 0,1.26007 -0.17569,2.47627 -0.52734,3.64843 -0.35165,1.17216 -0.86507,2.21072 -1.53906,3.11914 -0.65934,0.89378 -1.48804,1.61218 -2.48438,2.1543 -0.98168,0.54212 -2.11687,0.81445 -3.40625,0.81445 -1.30403,0 -2.45288,-0.27233 -3.44922,-0.81445 -0.98168,-0.54212 -1.81038,-1.26052 -2.48437,-2.1543 -0.67399,-0.90842 -1.18742,-1.94698 -1.53906,-3.11914 -0.35165,-1.17216 -0.52735,-2.38836 -0.52735,-3.64843 v -0.72657 c 0,-1.24542 0.1757,-2.45284 0.52735,-3.625 0.35164,-1.17216 0.85823,-2.20583 1.51757,-3.09961 0.674,-0.90842 1.50074,-1.63365 2.48243,-2.17578 0.99633,-0.55677 2.14031,-0.83594 3.42968,-0.83594 z m 53.97657,0 c 1.28937,0 2.43335,0.27917 3.42968,0.83594 0.99634,0.54213 1.83187,1.26736 2.50586,2.17578 0.674,0.89378 1.18546,1.92745 1.53711,3.09961 0.35165,1.17216 0.52735,2.37958 0.52735,3.625 v 0.72657 c 0,1.26007 -0.1757,2.47627 -0.52735,3.64843 -0.35165,1.17216 -0.86311,2.21072 -1.53711,3.11914 -0.65934,0.89378 -1.48803,1.61218 -2.48437,2.1543 -0.98169,0.54212 -2.11687,0.81445 -3.40625,0.81445 -1.30403,0 -2.45484,-0.27233 -3.45117,-0.81445 -0.98169,-0.54212 -1.80843,-1.26052 -2.48243,-2.1543 -0.67399,-0.90842 -1.18741,-1.94698 -1.53906,-3.11914 -0.35165,-1.17216 -0.52734,-2.38836 -0.52734,-3.64843 v -0.72657 c 0,-1.24542 0.17569,-2.45284 0.52734,-3.625 0.35165,-1.17216 0.85629,-2.20583 1.51563,-3.09961 0.67399,-0.90842 1.50269,-1.63365 2.48437,-2.17578 0.99634,-0.55677 2.13836,-0.83594 3.42774,-0.83594 z m 197.92578,0 c 1.28937,0 2.43335,0.27917 3.42969,0.83594 0.99633,0.54213 1.82991,1.26736 2.5039,2.17578 0.67399,0.89378 1.18742,1.92745 1.53906,3.09961 0.35165,1.17216 0.52735,2.37958 0.52735,3.625 v 0.72657 c 0,1.26007 -0.1757,2.47627 -0.52735,3.64843 -0.35164,1.17216 -0.86507,2.21072 -1.53906,3.11914 -0.65934,0.89378 -1.48608,1.61218 -2.48242,2.1543 -0.98169,0.54212 -2.11687,0.81445 -3.40625,0.81445 -1.30403,0 -2.45484,-0.27233 -3.45117,-0.81445 -0.98169,-0.54212 -1.81038,-1.26052 -2.48438,-2.1543 -0.67399,-0.90842 -1.18546,-1.94698 -1.53711,-3.11914 -0.35165,-1.17216 -0.52734,-2.38836 -0.52734,-3.64843 v -0.72657 c 0,-1.24542 0.17569,-2.45284 0.52734,-3.625 0.35165,-1.17216 0.85629,-2.20583 1.51563,-3.09961 0.67399,-0.90842 1.50269,-1.63365 2.48437,-2.17578 0.99634,-0.55677 2.13836,-0.83594 3.42774,-0.83594 z m -449.82813,0.0449 c 1.34799,0 2.48318,0.29282 3.40625,0.8789 0.93773,0.57143 1.69908,1.32595 2.28516,2.26367 0.58608,0.92308 1.01165,1.97042 1.27539,3.14258 0.26374,1.17216 0.39648,2.35225 0.39648,3.53906 v 0.46094 c 0,1.18682 -0.13274,2.37374 -0.39648,3.56055 -0.26374,1.17216 -0.68931,2.22633 -1.27539,3.16406 -0.57143,0.92308 -1.32594,1.67759 -2.26367,2.26367 -0.92308,0.58608 -2.05144,0.88086 -3.38477,0.88086 -1.47985,0 -2.79074,-0.36017 -3.93359,-1.07812 -1.14286,-0.71795 -2.02134,-1.69111 -2.63672,-2.92188 v -11.78125 c 0.29304,-0.64469 0.65126,-1.23034 1.07617,-1.75781 0.43956,-0.54212 0.93053,-1.00381 1.47266,-1.38476 0.55677,-0.39561 1.16487,-0.69527 1.82422,-0.9004 0.67399,-0.21978 1.39239,-0.33007 2.15429,-0.33007 z m 106.37305,0.39453 h 7.60547 v 9.71484 h -8.35156 c -0.82052,-0.0147 -1.56137,-0.13861 -2.22071,-0.37305 -0.65934,-0.23443 -1.23132,-0.55654 -1.71484,-0.96679 -0.46887,-0.42491 -0.83392,-0.9315 -1.09766,-1.51758 -0.24908,-0.58608 -0.37304,-1.23713 -0.37304,-1.95508 0,-0.7619 0.15324,-1.44419 0.46093,-2.04492 0.32235,-0.61539 0.75475,-1.12881 1.29688,-1.53906 0.55677,-0.42491 1.20782,-0.74702 1.95508,-0.9668 0.7619,-0.23443 1.57498,-0.35156 2.43945,-0.35156 z m 309.69727,0 h 6.35156 c 0.86447,0 1.68438,0.0673 2.46094,0.19922 0.7912,0.11721 1.48032,0.33586 2.0664,0.6582 0.60073,0.30769 1.07804,0.73327 1.42969,1.27539 0.35165,0.54212 0.52734,1.22246 0.52734,2.04297 0,0.79121 -0.16886,1.45787 -0.50586,2 -0.32234,0.52747 -0.77037,0.95988 -1.34179,1.29687 -0.55678,0.32235 -1.21466,0.55661 -1.97657,0.70313 -0.74725,0.14652 -1.5535,0.2207 -2.41797,0.2207 h -6.59374 z m 113.14257,0 h 7.60547 v 9.71484 h -8.35156 c -0.82051,-0.0147 -1.56136,-0.13861 -2.2207,-0.37305 -0.65934,-0.23443 -1.23133,-0.55654 -1.71485,-0.96679 -0.46886,-0.42491 -0.83392,-0.9315 -1.09765,-1.51758 -0.24909,-0.58608 -0.375,-1.23713 -0.375,-1.95508 0,-0.7619 0.15519,-1.44419 0.46289,-2.04492 0.32234,-0.61539 0.75475,-1.12881 1.29687,-1.53906 0.55678,-0.42491 1.20783,-0.74702 1.95508,-0.9668 0.7619,-0.23443 1.57498,-0.35156 2.43945,-0.35156 z m -252.71679,0.2207 h 8.8789 v 19.09766 h -12.63672 c 0.63004,-0.71795 1.15029,-1.5447 1.56055,-2.48242 0.41026,-0.93773 0.7392,-1.95579 0.98828,-3.05469 0.26374,-1.0989 0.46188,-2.27216 0.59375,-3.51758 0.13187,-1.24542 0.24217,-2.54947 0.33008,-3.91211 z m 197.92578,0 h 8.8789 v 19.09766 h -12.63672 c 0.63004,-0.71795 1.1503,-1.5447 1.56055,-2.48242 0.41026,-0.93773 0.7392,-1.95579 0.98828,-3.05469 0.26374,-1.0989 0.46188,-2.27216 0.59375,-3.51758 0.13187,-1.24542 0.24217,-2.54947 0.33008,-3.91211 z m -391.69727,9.51563 h 4.79102 v 5.20898 c -0.30769,0.68864 -0.73132,1.32603 -1.27344,1.91211 -0.54212,0.57143 -1.16584,1.06923 -1.86914,1.49414 -0.7033,0.41026 -1.48026,0.73236 -2.33008,0.9668 -0.83516,0.23443 -1.71364,0.34473 -2.63672,0.33008 -0.77655,0 -1.50179,-0.10152 -2.17578,-0.30665 -0.67399,-0.21978 -1.25964,-0.52822 -1.75781,-0.92382 -0.49817,-0.41026 -0.89446,-0.90123 -1.1875,-1.47266 -0.29304,-0.57143 -0.43945,-1.21565 -0.43945,-1.93359 0,-1.01099 0.24304,-1.85335 0.72656,-2.52735 0.49817,-0.67399 1.15605,-1.20986 1.97656,-1.60547 0.82051,-0.41025 1.76634,-0.70308 2.83594,-0.8789 1.0696,-0.17583 2.18233,-0.26367 3.33984,-0.26367 z m 224.91406,0 h 4.79297 v 5.20898 c -0.30769,0.68864 -0.73326,1.32603 -1.27539,1.91211 -0.54212,0.57143 -1.16584,1.06923 -1.86914,1.49414 -0.70329,0.41026 -1.47831,0.73236 -2.32812,0.9668 -0.83517,0.23443 -1.7156,0.34473 -2.63867,0.33008 -0.77656,0 -1.50179,-0.10152 -2.17579,-0.30665 -0.67399,-0.21978 -1.25964,-0.52822 -1.75781,-0.92382 -0.49817,-0.41026 -0.89446,-0.90123 -1.1875,-1.47266 -0.29304,-0.57143 -0.43945,-1.21565 -0.43945,-1.93359 0,-1.01099 0.24304,-1.85335 0.72656,-2.52735 0.49817,-0.67399 1.15605,-1.20986 1.97656,-1.60547 0.82052,-0.41025 1.76634,-0.70308 2.83594,-0.8789 1.0696,-0.17583 2.18234,-0.26367 3.33984,-0.26367 z m 108.43165,0.85742 h 7.86718 c 0.79121,0 1.54768,0.0879 2.26563,0.26367 0.71795,0.16117 1.33971,0.41788 1.86719,0.76953 0.54212,0.337 0.97453,0.77624 1.29687,1.31836 0.32234,0.54212 0.48242,1.19513 0.48242,1.95703 0,0.79121 -0.15324,1.46471 -0.46094,2.02149 -0.30769,0.55677 -0.73326,1.01846 -1.27539,1.38476 -0.52747,0.35165 -1.14924,0.61519 -1.86718,0.79102 -0.71795,0.16117 -1.48808,0.24218 -2.3086,0.24218 h -7.86718 z m 138.63671,6.8125 v 3.42969 c 0,2.25641 -0.64421,4.29935 -1.93359,6.13085 l 1.66992,1.05665 c 0.49817,-0.48352 0.93741,-1.01939 1.31836,-1.60547 0.38095,-0.57143 0.69623,-1.1727 0.94531,-1.80274 0.26374,-0.63003 0.46189,-1.26742 0.59375,-1.91211 0.14652,-0.64469 0.22071,-1.2889 0.22071,-1.93359 v -3.36328 z"
       transform="translate(0,587.99998)"
       id="text894"
       inkscape:connector-curvature="0" />
    <path
       style="font-style:normal;font-variant:normal;font-weight:300;font-stretch:normal;font-size:45.01099014px;line-height:1.25;font-family:'Roboto Mono';-inkscape-font-specification:'Roboto Mono weight=251';letter-spacing:0px;word-spacing:9.00219822px;fill:#800080;fill-opacity:1;stroke:none;stroke-width:0.56263739"
       d="m 683.43164,607.56055 c -1.26007,0 -2.43333,0.19131 -3.51758,0.57226 -1.06959,0.3663 -2.00664,0.89339 -2.8125,1.58203 -0.79121,0.68865 -1.42176,1.52418 -1.89062,2.50586 -0.46887,0.96704 -0.72558,2.05049 -0.76953,3.25196 h 2.63867 c 0.0293,-0.89378 0.21183,-1.68441 0.54883,-2.37305 0.35164,-0.7033 0.81333,-1.2909 1.38476,-1.75977 0.57143,-0.46886 1.23126,-0.82708 1.97852,-1.07617 0.7619,-0.24908 1.57498,-0.37305 2.43945,-0.37305 0.93773,0 1.78009,0.13959 2.52734,0.41797 0.74726,0.27839 1.37586,0.67273 1.88868,1.18555 0.52747,0.49817 0.93059,1.1131 1.20898,1.8457 0.27839,0.7326 0.41797,1.54568 0.41797,2.43946 0,0.83516 -0.12396,1.60529 -0.37305,2.30859 -0.24908,0.7033 -0.58681,1.36996 -1.01172,2 -0.4249,0.61539 -0.90904,1.20787 -1.45117,1.7793 -0.52747,0.55677 -1.07505,1.10631 -1.64648,1.64843 -0.65934,0.60074 -1.21767,1.16589 -1.67188,1.69336 -0.43956,0.51282 -0.79095,1.05553 -1.05469,1.62696 -0.26373,0.57143 -0.46188,1.20002 -0.59374,1.88867 -0.11722,0.67399 -0.18262,1.47341 -0.19727,2.39648 h 2.63672 c 0,-0.63003 0.0381,-1.20885 0.11133,-1.73632 0.0733,-0.52748 0.20405,-1.02528 0.39453,-1.49415 0.19047,-0.48351 0.44035,-0.93837 0.74804,-1.36328 0.3077,-0.4249 0.70203,-0.85731 1.18555,-1.29687 0.7033,-0.60073 1.39241,-1.23812 2.06641,-1.91211 0.67399,-0.68865 1.26843,-1.42071 1.78125,-2.19727 0.51282,-0.79121 0.92277,-1.62673 1.23047,-2.50586 0.32234,-0.89377 0.48242,-1.84643 0.48242,-2.85742 0,-1.24542 -0.20498,-2.36499 -0.61524,-3.36133 -0.41025,-1.01098 -0.98907,-1.8758 -1.73632,-2.59375 -0.74726,-0.71794 -1.65502,-1.26748 -2.72461,-1.64843 -1.0696,-0.39561 -2.27019,-0.59375 -3.60352,-0.59375 z m -314.81836,8.21875 c -1.72894,0 -3.23797,0.33089 -4.52734,0.99023 -1.28938,0.65934 -2.366,1.53782 -3.23047,2.63672 -0.84982,1.0989 -1.49599,2.36684 -1.93555,3.80273 -0.42491,1.42125 -0.63672,2.901 -0.63672,4.43946 v 0.92383 c 0,1.53846 0.21181,3.02504 0.63672,4.46093 0.43956,1.42125 1.08573,2.6804 1.93555,3.7793 0.86447,1.0989 1.94109,1.97933 3.23047,2.63867 1.28937,0.65934 2.80524,0.98828 4.54883,0.98828 1.21611,0 2.37375,-0.19131 3.47265,-0.57226 1.0989,-0.39561 2.07401,-0.93636 2.92383,-1.625 0.84982,-0.68865 1.53893,-1.51051 2.06641,-2.46289 0.52747,-0.95238 0.82029,-1.99094 0.8789,-3.11914 h -2.52734 c -0.0586,0.86447 -0.28604,1.63948 -0.68164,2.32812 -0.38095,0.67399 -0.87876,1.25281 -1.49414,1.73633 -0.61539,0.48352 -1.32695,0.85736 -2.13282,1.12109 -0.7912,0.24909 -1.62673,0.375 -2.50585,0.375 -1.33334,0 -2.47536,-0.24988 -3.42774,-0.74804 -0.93773,-0.51282 -1.71469,-1.18632 -2.33008,-2.02149 -0.61538,-0.84981 -1.0839,-1.81809 -1.40625,-2.90234 -0.30769,-1.08425 -0.48338,-2.19699 -0.52734,-3.33985 h 11.00976 v -2.2207 h -11.00976 c 0.044,-1.1282 0.21965,-2.22728 0.52734,-3.29687 0.32235,-1.08425 0.79087,-2.04375 1.40625,-2.87891 0.61539,-0.83516 1.39235,-1.50866 2.33008,-2.02148 0.95238,-0.51282 2.08757,-0.76954 3.40625,-0.76954 0.95238,0 1.83086,0.1552 2.63672,0.4629 0.82051,0.30769 1.53208,0.73814 2.13281,1.29492 0.60074,0.55677 1.08292,1.21661 1.44922,1.97851 0.3663,0.76191 0.57323,1.5906 0.61719,2.48438 h 2.52734 c -0.0586,-1.23077 -0.33093,-2.35913 -0.81445,-3.38477 -0.48352,-1.04029 -1.1414,-1.93439 -1.97656,-2.68164 -0.82052,-0.7619 -1.79563,-1.34755 -2.92383,-1.75781 -1.11355,-0.42491 -2.32976,-0.63867 -3.64844,-0.63867 z m 90.14453,0 c -1.52381,0 -2.89326,0.32406 -4.10937,0.96875 -1.21612,0.64469 -2.24101,1.55245 -3.07617,2.72461 l -0.11133,-3.25196 H 449 v 32.92188 h 2.63672 v -12.04297 c 0.83516,1.08425 1.86884,1.91099 3.09961,2.48242 1.23077,0.57143 2.58655,0.85742 4.0664,0.85742 1.61173,0 3.00362,-0.33772 4.17579,-1.01172 1.17216,-0.68864 2.13848,-1.58957 2.90039,-2.70312 0.77655,-1.12821 1.34854,-2.41664 1.71484,-3.86719 0.38095,-1.4652 0.57031,-2.9674 0.57031,-4.50586 v -0.46094 c 0,-1.58241 -0.18936,-3.10023 -0.57031,-4.55078 -0.3663,-1.4652 -0.93145,-2.75363 -1.69336,-3.86718 -0.7619,-1.12821 -1.73506,-2.0223 -2.92187,-2.68164 -1.18682,-0.674 -2.59433,-1.01172 -4.22071,-1.01172 z m 26.48438,0 c -1.26008,0 -2.447,0.17765 -3.56055,0.52929 -1.0989,0.35165 -2.06718,0.84067 -2.90234,1.47071 -0.83517,0.61538 -1.50183,1.3494 -2,2.19922 -0.48352,0.84981 -0.74706,1.78002 -0.79102,2.79101 l 2.63867,0.0215 c 0.0293,-0.74726 0.22745,-1.41392 0.59375,-2 0.3663,-0.60074 0.84166,-1.10537 1.42774,-1.51563 0.60073,-0.41026 1.28106,-0.72553 2.04297,-0.94531 C 483.46796,618.1103 484.283,618 485.13281,618 c 0.93773,0 1.80059,0.11713 2.5918,0.35156 0.80586,0.23443 1.49498,0.58583 2.06641,1.05469 0.58608,0.45421 1.04776,1.0262 1.38476,1.71484 0.337,0.674 0.51269,1.45779 0.52734,2.35157 v 2.70312 h -5.14257 c -1.47986,0 -2.89421,0.13958 -4.24219,0.41797 -1.34799,0.27839 -2.53491,0.71763 -3.56055,1.31836 -1.02564,0.58608 -1.83872,1.35621 -2.43945,2.30859 -0.60073,0.95238 -0.90039,2.10807 -0.90039,3.47071 0,1.02564 0.19814,1.9578 0.59375,2.79297 0.41026,0.82051 0.96662,1.52329 1.66992,2.10937 0.71795,0.58608 1.55348,1.04094 2.50586,1.36328 0.96703,0.32235 2.00754,0.48242 3.12109,0.48242 0.89378,0 1.7498,-0.10151 2.57032,-0.30664 0.82051,-0.19047 1.58186,-0.45597 2.28515,-0.79297 0.71795,-0.35164 1.37779,-0.7616 1.97852,-1.23046 0.60073,-0.46887 1.12782,-0.98034 1.58203,-1.53711 0.0293,0.61538 0.0879,1.22348 0.17578,1.82421 0.0879,0.58608 0.21383,1.12 0.375,1.60352 h 2.8125 l -0.0215,-0.26367 c -0.20513,-0.7326 -0.38083,-1.50273 -0.52735,-2.3086 -0.13187,-0.80586 -0.19922,-1.60332 -0.19922,-2.39453 v -11.51758 c -0.0146,-1.28937 -0.26257,-2.41577 -0.74609,-3.38281 -0.46886,-0.96703 -1.11308,-1.77328 -1.93359,-2.41797 -0.80586,-0.64468 -1.76731,-1.12882 -2.88086,-1.45117 -1.0989,-0.32234 -2.27704,-0.48437 -3.53711,-0.48437 z m 80.96679,0 c -1.26007,0 -2.44699,0.17765 -3.56054,0.52929 -1.0989,0.35165 -2.06523,0.84067 -2.90039,1.47071 -0.83517,0.61538 -1.50183,1.3494 -2,2.19922 -0.48352,0.84981 -0.74902,1.78002 -0.79297,2.79101 l 2.63867,0.0215 c 0.0293,-0.74726 0.22745,-1.41392 0.59375,-2 0.3663,-0.60074 0.84165,-1.10537 1.42773,-1.51563 0.60074,-0.41026 1.28302,-0.72553 2.04493,-0.94531 0.77655,-0.21978 1.58963,-0.33008 2.43945,-0.33008 0.93773,0 1.80059,0.11713 2.5918,0.35156 0.80586,0.23443 1.49497,0.58583 2.0664,1.05469 0.58608,0.45421 1.04777,1.0262 1.38477,1.71484 0.33699,0.674 0.51269,1.45779 0.52734,2.35157 v 2.70312 h -5.14258 c -1.47985,0 -2.8942,0.13958 -4.24218,0.41797 -1.34799,0.27839 -2.53491,0.71763 -3.56055,1.31836 -1.02564,0.58608 -1.83872,1.35621 -2.43945,2.30859 -0.60074,0.95238 -0.90039,2.10807 -0.90039,3.47071 0,1.02564 0.19814,1.9578 0.59375,2.79297 0.41025,0.82051 0.96662,1.52329 1.66992,2.10937 0.71795,0.58608 1.55348,1.04094 2.50586,1.36328 0.96703,0.32235 2.00754,0.48242 3.12109,0.48242 0.89377,0 1.7498,-0.10151 2.57031,-0.30664 0.82052,-0.19047 1.58382,-0.45597 2.28711,-0.79297 0.71795,-0.35164 1.37583,-0.7616 1.97657,-1.23046 0.60073,-0.46887 1.12781,-0.98034 1.58203,-1.53711 0.0293,0.61538 0.0879,1.22348 0.17578,1.82421 0.0879,0.58608 0.21383,1.12 0.375,1.60352 h 2.8125 l -0.0215,-0.26367 c -0.20513,-0.7326 -0.38082,-1.50273 -0.52734,-2.3086 -0.13187,-0.80586 -0.19727,-1.60332 -0.19727,-2.39453 v -11.51758 c -0.0146,-1.28937 -0.26453,-2.41577 -0.74804,-3.38281 -0.46887,-0.96703 -1.11308,-1.77328 -1.9336,-2.41797 -0.80586,-0.64468 -1.76535,-1.12882 -2.8789,-1.45117 -1.0989,-0.32234 -2.27899,-0.48437 -3.53907,-0.48437 z m -234.32031,0.4414 V 640 h 2.61524 v -10.90039 h 13.42773 V 640 h 2.66016 v -23.7793 h -2.66016 v 10.65821 H 334.50391 V 616.2207 Z m 89.96875,0 V 640 h 2.63672 v -21.51562 h 13.40625 V 640 h 2.66016 v -23.7793 z m 80.87891,0 V 640 h 10.50586 c 1.18681,0 2.29955,-0.12396 3.33984,-0.37305 1.05495,-0.26373 1.96466,-0.66002 2.72656,-1.1875 0.77656,-0.54212 1.38466,-1.22245 1.82422,-2.04297 0.43956,-0.83516 0.65821,-1.83272 0.65821,-2.99023 0,-0.7326 -0.12397,-1.41293 -0.37305,-2.04297 -0.24909,-0.63004 -0.60048,-1.18836 -1.05469,-1.67187 -0.45421,-0.48352 -0.99692,-0.89348 -1.62695,-1.23047 -0.63004,-0.337 -1.34161,-0.57126 -2.13281,-0.70313 1.30402,-0.41025 2.33087,-1.03202 3.07812,-1.86719 0.76191,-0.83516 1.14941,-1.94106 1.16406,-3.31835 0,-1.17217 -0.24109,-2.16289 -0.72461,-2.96875 -0.48351,-0.80587 -1.14335,-1.45691 -1.97851,-1.95508 -0.83517,-0.49817 -1.80832,-0.85639 -2.92188,-1.07617 -1.0989,-0.21978 -2.26532,-0.33691 -3.49609,-0.35157 z m 31.47265,0 -0.39648,8.5918 c -0.0879,1.52381 -0.21871,2.94499 -0.39453,4.26367 -0.16117,1.31868 -0.40422,2.52122 -0.72656,3.60547 -0.32235,1.08425 -0.7323,2.05741 -1.23047,2.92188 -0.49817,0.84981 -1.10627,1.57504 -1.82422,2.17578 h -1.91211 l 0.19922,9.20898 h 2.30664 V 640 h 17.86914 v 6.98828 h 2.41601 l 0.19922,-9.20898 h -2.46289 v -21.5586 z m 88.62891,0 -0.24219,10.50391 c -0.0146,0.83516 -0.0439,1.68631 -0.0879,2.55078 -0.0293,0.86447 -0.10348,1.69805 -0.2207,2.50391 -0.10256,0.80586 -0.25581,1.56233 -0.46094,2.26562 -0.19047,0.7033 -0.45402,1.31823 -0.79101,1.8457 -0.337,0.52748 -0.76257,0.9511 -1.27539,1.27344 -0.49817,0.30769 -1.10627,0.46289 -1.82422,0.46289 l -0.83399,0.0215 -0.0449,2.35156 h 0.9668 c 1.04029,0 1.93439,-0.1757 2.68164,-0.52734 0.7619,-0.3663 1.40612,-0.85728 1.93359,-1.47266 0.52747,-0.63004 0.95305,-1.3621 1.27539,-2.19727 0.337,-0.84981 0.60054,-1.76636 0.79102,-2.74804 0.19047,-0.98169 0.32322,-2.00658 0.39648,-3.07617 0.0733,-1.08425 0.11621,-2.16966 0.13086,-3.25391 l 0.17578,-8.24023 h 10.22071 V 640 h 2.6582 v -23.7793 z m 23.93359,0 V 640 h 2.61524 l 13.42773,-19.64844 V 640 h 2.66016 v -23.7793 h -2.66016 l -13.42773,19.66992 V 616.2207 Z m -188.60742,1.84571 c 1.34799,0 2.48513,0.29282 3.40821,0.8789 0.93772,0.57143 1.69907,1.32595 2.28515,2.26367 0.58608,0.92308 1.01166,1.97042 1.27539,3.14258 0.26374,1.17216 0.39453,2.35225 0.39453,3.53906 v 0.46094 c 0,1.18682 -0.13079,2.37374 -0.39453,3.56055 -0.26373,1.17216 -0.68931,2.22633 -1.27539,3.16406 -0.57143,0.92308 -1.32594,1.67759 -2.26367,2.26367 -0.92308,0.58608 -2.05143,0.88086 -3.38477,0.88086 -1.47985,0 -2.79073,-0.36017 -3.93359,-1.07812 -1.14286,-0.71795 -2.02329,-1.69111 -2.63867,-2.92188 v -11.78125 c 0.29304,-0.64469 0.65322,-1.23034 1.07812,-1.75781 0.43956,-0.54212 0.93054,-1.00381 1.47266,-1.38476 0.55678,-0.39561 1.16488,-0.69527 1.82422,-0.9004 0.67399,-0.21978 1.39044,-0.33007 2.15234,-0.33007 z m 47.20899,0.39453 h 6.35156 c 0.86447,0 1.68633,0.0673 2.46289,0.19922 0.79121,0.11721 1.47837,0.33586 2.06445,0.6582 0.60074,0.30769 1.07804,0.73327 1.42969,1.27539 0.35165,0.54212 0.52734,1.22246 0.52734,2.04297 0,0.79121 -0.16886,1.45787 -0.50586,2 -0.32234,0.52747 -0.76841,0.95988 -1.33984,1.29687 -0.55678,0.32235 -1.21661,0.55661 -1.97851,0.70313 -0.74726,0.14652 -1.5535,0.2207 -2.41797,0.2207 h -6.59375 z m 31.36328,0.2207 h 8.8789 v 19.09766 h -12.63671 c 0.63003,-0.71795 1.15029,-1.5447 1.56054,-2.48242 0.41026,-0.93773 0.7392,-1.95579 0.98828,-3.05469 0.26374,-1.0989 0.46189,-2.27216 0.59375,-3.51758 0.13187,-1.24542 0.24217,-2.54947 0.33008,-3.91211 z m -49.82422,9.51563 h 4.79101 v 5.20898 c -0.30769,0.68864 -0.73326,1.32603 -1.27539,1.91211 -0.54212,0.57143 -1.16389,1.06923 -1.86718,1.49414 -0.7033,0.41026 -1.48026,0.73236 -2.33008,0.9668 -0.83517,0.23443 -1.71364,0.34473 -2.63672,0.33008 -0.77656,0 -1.50179,-0.10152 -2.17578,-0.30665 -0.67399,-0.21978 -1.25965,-0.52822 -1.75781,-0.92382 -0.49817,-0.41026 -0.89446,-0.90123 -1.1875,-1.47266 -0.29304,-0.57143 -0.43946,-1.21565 -0.43946,-1.93359 0,-1.01099 0.2411,-1.85335 0.72461,-2.52735 0.49817,-0.67399 1.15801,-1.20986 1.97852,-1.60547 0.82051,-0.41025 1.76634,-0.70308 2.83594,-0.8789 1.06959,-0.17583 2.18233,-0.26367 3.33984,-0.26367 z m 80.9668,0 h 4.79101 v 5.20898 c -0.30769,0.68864 -0.73131,1.32603 -1.27344,1.91211 -0.54212,0.57143 -1.16584,1.06923 -1.86914,1.49414 -0.70329,0.41026 -1.48026,0.73236 -2.33007,0.9668 -0.83517,0.23443 -1.71365,0.34473 -2.63672,0.33008 -0.77656,0 -1.50179,-0.10152 -2.17578,-0.30665 -0.674,-0.21978 -1.25965,-0.52822 -1.75782,-0.92382 -0.49817,-0.41026 -0.89446,-0.90123 -1.1875,-1.47266 C 559.14641,634.83482 559,634.1906 559,633.47266 c 0,-1.01099 0.24109,-1.85335 0.72461,-2.52735 0.49817,-0.67399 1.158,-1.20986 1.97851,-1.60547 0.82052,-0.41025 1.76635,-0.70308 2.83594,-0.8789 1.0696,-0.17583 2.18234,-0.26367 3.33985,-0.26367 z m -62.50586,0.85742 h 7.86914 c 0.79121,0 1.54572,0.0879 2.26367,0.26367 0.71795,0.16117 1.33971,0.41788 1.86719,0.76953 0.54212,0.337 0.97453,0.77624 1.29687,1.31836 0.32235,0.54212 0.48438,1.19513 0.48438,1.95703 0,0.79121 -0.1552,1.46471 -0.46289,2.02149 -0.3077,0.55677 -0.73132,1.01846 -1.27344,1.38476 -0.52747,0.35165 -1.15119,0.61519 -1.86914,0.79102 -0.71795,0.16117 -1.48613,0.24218 -2.30664,0.24218 h -7.86914 z m 177.46484,7.51758 c -0.57143,0 -1.02628,0.18252 -1.36328,0.54882 -0.337,0.35165 -0.50586,0.78406 -0.50586,1.29688 0,0.49817 0.16886,0.91496 0.50586,1.25195 0.337,0.337 0.79185,0.50586 1.36328,0.50586 0.57143,0 1.03312,-0.16886 1.38477,-0.50586 0.35164,-0.33699 0.52734,-0.75378 0.52734,-1.25195 0,-0.51282 -0.1757,-0.94523 -0.52734,-1.29688 -0.35165,-0.3663 -0.81334,-0.54882 -1.38477,-0.54882 z"
       transform="translate(0,587.99998)"
       id="text898"
       inkscape:connector-curvature="0" />
    <text
       id="text902"
       y="492.00003"
       x="498.52747"
       style="font-style:normal;font-variant:normal;font-weight:300;font-stretch:normal;font-size:45.01099014px;line-height:1.25;font-family:'Roboto Mono';-inkscape-font-specification:'Roboto Mono weight=251';letter-spacing:0px;word-spacing:9.00219822px;fill:#000000;fill-opacity:1;stroke:none;stroke-width:0.56263739"
       xml:space="preserve"><tspan
         style="stroke-width:0.56263739"
         y="492.00003"
         x="498.52747"
         id="tspan900"
         sodipodi:role="line">Ӕ</tspan></text>
    <text
       xml:space="preserve"
       style="font-style:normal;font-variant:normal;font-weight:300;font-stretch:normal;font-size:22.50549507px;line-height:1.25;font-family:'Roboto Mono';-inkscape-font-specification:'Roboto Mono weight=251';text-align:start;letter-spacing:0px;word-spacing:4.50109911px;text-anchor:start;fill:#000000;fill-opacity:1;stroke:none;stroke-width:0.28131869"
       x="17.667027"
       y="860"
       id="text906"><tspan
         id="tspan904"
         sodipodi:role="line"
         x="17.667027"
         y="860"
         style="text-align:start;text-anchor:start;stroke-width:0.28131869">А Б В Ґ Д Є Ж З И Й К Л М Н О П Р С Т Ў Ф Х Ц Ч Ш Щ Ъ Ы Ь Э Ю Я</tspan></text>
    <text
       xml:space="preserve"
       style="font-style:normal;font-variant:normal;font-weight:300;font-stretch:normal;font-size:45.01099014px;line-height:1.25;font-family:'Roboto Mono';-inkscape-font-specification:'Roboto Mono weight=251';letter-spacing:0px;word-spacing:9.00219822px;fill:#000000;fill-opacity:1;stroke:none;stroke-width:0.56263739"
       x="354.28571"
       y="620"
       id="text910"><tspan
         sodipodi:role="line"
         id="tspan908"
         x="354.28571"
         y="620"
         style="stroke-width:0.56263739">Здраствўйтє.</tspan></text>
    <text
       id="text914"
       y="684"
       x="198.33847"
       style="font-style:normal;font-variant:normal;font-weight:300;font-stretch:normal;font-size:45.01099014px;line-height:1.25;font-family:'Roboto Mono';-inkscape-font-specification:'Roboto Mono weight=251';letter-spacing:0px;word-spacing:9.00219822px;fill:#000000;fill-opacity:1;stroke:none;stroke-width:0.56263739"
       xml:space="preserve"><tspan
         style="stroke-width:0.56263739"
         y="684"
         x="198.33847"
         id="tspan912"
         sodipodi:role="line">Хорошая поґода сєводня,</tspan></text>
    <text
       id="text918"
       y="748"
       x="327.73407"
       style="font-style:normal;font-variant:normal;font-weight:300;font-stretch:normal;font-size:45.01099014px;line-height:1.25;font-family:'Roboto Mono';-inkscape-font-specification:'Roboto Mono weight=251';letter-spacing:0px;word-spacing:9.00219822px;fill:#000000;fill-opacity:1;stroke:none;stroke-width:0.56263739"
       xml:space="preserve"><tspan
         style="stroke-width:0.56263739"
         y="748"
         x="327.73407"
         id="tspan916"
         sodipodi:role="line">нє правда ли?</tspan></text>
    <path
       style="font-style:normal;font-variant:normal;font-weight:300;font-stretch:normal;font-size:45.01099014px;line-height:1.25;font-family:'Roboto Mono';-inkscape-font-specification:'Roboto Mono weight=251';letter-spacing:0px;word-spacing:9.00219822px;fill:#800080;fill-opacity:1;stroke:none;stroke-width:0.56263739"
       d="M 511.86719 32 L 499.73633 64 L 502.48438 64 L 505.56055 55.451172 L 513.07617 55.451172 L 513.20898 64 L 524.26367 64 L 524.26367 61.779297 L 515.60352 61.779297 L 515.42773 48.460938 L 522.68164 48.460938 L 522.68164 46.220703 L 515.38477 46.220703 L 515.20898 34.242188 L 523.60352 34.242188 L 523.60352 32 L 511.86719 32 z M 512.8125 35.427734 L 513.05469 52.966797 L 506.46094 52.966797 L 512.8125 35.427734 z "
       transform="translate(0,907.99998)"
       id="text937" />
  </g>
</svg>
