<?xml version="1.0" encoding="UTF-8" standalone="no"?>
<svg
   xmlns:dc="http://purl.org/dc/elements/1.1/"
   xmlns:cc="http://creativecommons.org/ns#"
   xmlns:rdf="http://www.w3.org/1999/02/22-rdf-syntax-ns#"
   xmlns:svg="http://www.w3.org/2000/svg"
   xmlns="http://www.w3.org/2000/svg"
   xmlns:sodipodi="http://sodipodi.sourceforge.net/DTD/sodipodi-0.dtd"
   xmlns:inkscape="http://www.inkscape.org/namespaces/inkscape"
   inkscape:export-ydpi="96"
   inkscape:export-xdpi="96"
   inkscape:export-filename="G:\Низкогория\Language.png"
   sodipodi:docname="Language.svg"
   inkscape:version="1.0 (4035a4fb49, 2020-05-01)"
   id="svg8"
   version="1.1"
   viewBox="0 0 1024 384"
   height="384"
   width="1024">
  <defs
     id="defs2" />
  <sodipodi:namedview
     inkscape:document-rotation="0"
     inkscape:guide-bbox="true"
     showguides="true"
     inkscape:snap-center="true"
     inkscape:snap-object-midpoints="true"
     inkscape:snap-page="true"
     inkscape:snap-smooth-nodes="true"
     inkscape:object-paths="true"
     inkscape:snap-bbox-midpoints="true"
     inkscape:snap-bbox-edge-midpoints="true"
     inkscape:bbox-nodes="true"
     inkscape:bbox-paths="true"
     inkscape:snap-bbox="true"
     inkscape:window-maximized="1"
     inkscape:window-y="-8"
     inkscape:window-x="-8"
     inkscape:window-height="706"
     inkscape:window-width="1366"
     units="px"
     showgrid="false"
     inkscape:current-layer="layer1"
     inkscape:document-units="px"
     inkscape:cy="239.23059"
     inkscape:cx="507.98433"
     inkscape:zoom="1"
     inkscape:pageshadow="2"
     inkscape:pageopacity="0.0"
     borderopacity="1.0"
     bordercolor="#666666"
     pagecolor="#ffffff"
     id="base">
    <inkscape:grid
       empspacing="4"
       id="grid832"
       type="xygrid" />
  </sodipodi:namedview>
  <metadata
     id="metadata5">
    <rdf:RDF>
      <cc:Work
         rdf:about="">
        <dc:format>image/svg+xml</dc:format>
        <dc:type
           rdf:resource="http://purl.org/dc/dcmitype/StillImage" />
        <dc:title />
      </cc:Work>
    </rdf:RDF>
  </metadata>
  <g
     transform="translate(0,-907.99998)"
     id="layer1"
     inkscape:groupmode="layer"
     inkscape:label="Layer 1">
    <rect
       y="908"
       x="0"
       height="384"
       width="1024"
       id="rect831"
       style="opacity:1;fill:#ffffff;fill-opacity:1;stroke:none;stroke-width:4.24264;stroke-linecap:round;stroke-linejoin:round;stroke-miterlimit:4;stroke-dasharray:none;stroke-dashoffset:0;stroke-opacity:1;paint-order:normal" />
    <rect
       style="opacity:0.125;fill:#000000;fill-opacity:0.25;stroke:none;stroke-width:4.24264;stroke-linecap:round;stroke-linejoin:round;stroke-miterlimit:4;stroke-dasharray:none;stroke-dashoffset:0;stroke-opacity:1;paint-order:normal"
       id="rect824"
       width="1024"
       height="384"
       x="0"
       y="908" />
    <text
       id="text906"
       y="796"
       x="13.939425"
       style="font-style:normal;font-variant:normal;font-weight:300;font-stretch:normal;font-size:22.5055px;line-height:1.25;font-family:'Roboto Mono';-inkscape-font-specification:'Roboto Mono weight=251';text-align:start;letter-spacing:0px;word-spacing:2.8px;text-anchor:start;fill:#000000;fill-opacity:1;stroke:none;stroke-width:1;"
       xml:space="preserve"><tspan
         style="text-align:start;text-anchor:start;stroke-width:1;"
         y="796"
         x="13.939425"
         sodipodi:role="line"
         id="tspan904">А Б В Г Ґ Д Е Ё Ж З И Й К Л М Н О П Р С Т У Ў Ф Х Ц Ч Ш Ъ Ы Ь Э Ю Я</tspan></text>
    <g
       style="font-style:normal;font-variant:normal;font-weight:300;font-stretch:normal;font-size:22.5055px;line-height:1.25;font-family:'Roboto Mono';-inkscape-font-specification:'Roboto Mono weight=251';text-align:start;letter-spacing:0px;word-spacing:2.8px;text-anchor:start;fill:#800080;fill-opacity:1;stroke:none;stroke-width:1"
       id="text922"
       aria-label="А Б В Г Ґ Д Е Ё Ж З И Й К Л М Н О П Р С Т У Ў Ф Х Ц Ч Ш Ъ Ы Ь Э Ю Я">
      <path
         id="path993"
         style="text-align:start;text-anchor:start;fill:#800080;fill-opacity:1;stroke:none;stroke-width:1"
         d="M 23.884483,1271.5385 H 17.796569 L 16.378987,1276 h -1.329671 l 5.208793,-16 h 1.186813 l 5.164837,16 h -1.318682 z m -5.714287,-1.1759 h 5.340661 l -2.659342,-8.4175 z" />
      <path
         id="path995"
         style="text-align:start;text-anchor:start;fill:#800080;fill-opacity:1;stroke:none;stroke-width:1"
         d="m 55.277898,1261.1209 h -8.285717 v 5.8461 h 3.285715 q 1.131869,0.011 2.054946,0.3187 0.923077,0.3077 1.582418,0.8901 0.659341,0.5715 1.010989,1.4066 0.362638,0.8242 0.362638,1.8791 0,1.044 -0.362638,1.8901 -0.351648,0.8352 -1.010989,1.4286 -0.659341,0.5824 -1.582418,0.9011 Q 51.409765,1276 50.277896,1276 H 45.6735 v -16 h 9.604398 z m -8.285717,6.967 v 6.8022 h 3.285715 q 0.857144,-0.011 1.538462,-0.2527 0.681319,-0.2528 1.153847,-0.7033 0.483517,-0.4616 0.736264,-1.0879 0.263736,-0.6374 0.263736,-1.4066 0,-0.7583 -0.263736,-1.3737 -0.252747,-0.6154 -0.736264,-1.0439 -0.472528,-0.4396 -1.164836,-0.6813 -0.681318,-0.2418 -1.527473,-0.2528 z" />
      <path
         id="path997"
         style="text-align:start;text-anchor:start;fill:#800080;fill-opacity:1;stroke:none;stroke-width:1"
         d="m 75.649331,1276 v -16 h 4.373628 q 0.967033,0.011 1.879121,0.2637 0.923078,0.2418 1.637364,0.7583 0.714285,0.5055 1.142857,1.2967 0.439561,0.7802 0.428572,1.8681 0,0.6813 -0.208792,1.2308 -0.208791,0.5384 -0.571428,0.967 -0.351649,0.4176 -0.835166,0.7363 -0.483516,0.3077 -1.043956,0.5165 0.692308,0.1648 1.274726,0.5055 0.593407,0.3406 1.021978,0.8461 0.428572,0.4945 0.67033,1.1319 0.252747,0.6373 0.252747,1.3736 0.01099,1.0659 -0.395604,1.9011 -0.406594,0.8242 -1.098902,1.4066 -0.692308,0.5714 -1.604396,0.8791 -0.901099,0.3077 -1.89011,0.3187 z m 1.318682,-7.6923 v 6.5494 h 3.747254 q 0.725275,-0.011 1.384616,-0.2417 0.659341,-0.2418 1.153846,-0.6703 0.505495,-0.4286 0.791209,-1.033 0.296704,-0.6154 0.296704,-1.3956 0,-0.7583 -0.285715,-1.3407 -0.274725,-0.5934 -0.769231,-1 -0.483516,-0.4066 -1.131868,-0.6264 -0.637363,-0.2197 -1.34066,-0.2417 z m 0,-1.1319 h 3.219781 q 0.692308,-0.011 1.34066,-0.1978 0.648352,-0.1868 1.142857,-0.5604 0.505495,-0.3736 0.813187,-0.9341 0.307693,-0.5604 0.307693,-1.3297 0,-0.8022 -0.318682,-1.3626 -0.318681,-0.5714 -0.846154,-0.9231 -0.527472,-0.3626 -1.197802,-0.5274 -0.67033,-0.1759 -1.373627,-0.1869 h -3.087913 z" />
      <path
         id="path999"
         style="text-align:start;text-anchor:start;fill:#800080;fill-opacity:1;stroke:none;stroke-width:1"
         d="m 114.99879,1261.1209 h -8.28571 V 1276 h -1.31868 v -16 h 9.60439 z" />
      <path
         id="path1001"
         style="text-align:start;text-anchor:start;fill:#800080;fill-opacity:1;stroke:none;stroke-width:1"
         d="m 145.06254,1261.1209 h -8.5055 V 1276 h -1.31868 v -16 h 8.50549 v -3.8901 h 1.31869 z" />
      <path
         id="path1003"
         style="text-align:start;text-anchor:start;fill:#800080;fill-opacity:1;stroke:none;stroke-width:1"
         d="m 173.90651,1274.8901 h 1.18681 l -0.0989,4.989 H 173.8076 V 1276 h -8.57143 v 3.8791 h -1.14285 l -0.14286,-4.989 h 0.68132 q 0.61538,-0.4066 1.03296,-1.2637 0.41759,-0.8572 0.68132,-2.055 0.27473,-1.2088 0.41759,-2.6813 0.14285,-1.4835 0.1978,-3.1319 L 167.23617,1260 h 6.67034 z m -5.62638,-9.1319 q -0.044,1.1209 -0.15385,2.4066 -0.0989,1.2748 -0.31868,2.5165 -0.20879,1.2418 -0.54945,2.3517 -0.34066,1.0989 -0.86813,1.8571 h 6.21978 v -13.7692 h -4.14286 z" />
      <path
         id="path1005"
         style="text-align:start;text-anchor:start;fill:#800080;fill-opacity:1;stroke:none;stroke-width:1"
         d="m 203.24497,1268.3297 h -7.05494 v 6.5274 h 8.13187 V 1276 h -9.43957 v -16 h 9.39561 v 1.1538 h -8.08791 v 6.033 h 7.05494 z" />
      <path
         id="path1007"
         style="text-align:start;text-anchor:start;fill:#800080;fill-opacity:1;stroke:none;stroke-width:1"
         d="m 233.03399,1268.3297 h -7.05495 v 6.5274 h 8.13187 V 1276 h -9.43956 v -16 h 9.39561 v 1.1538 h -8.08792 v 6.033 h 7.05495 z M 225.39662,1257 q 0,-0.3626 0.24176,-0.6264 0.24176,-0.2637 0.65934,-0.2637 0.41759,0 0.65934,0.2637 0.25275,0.2638 0.25275,0.6264 0,0.3516 -0.25275,0.6154 -0.24175,0.2527 -0.65934,0.2527 -0.41758,0 -0.65934,-0.2527 -0.24176,-0.2638 -0.24176,-0.6154 z m 4.81319,0.011 q 0,-0.3627 0.24176,-0.6264 0.24176,-0.2637 0.65934,-0.2637 0.41758,0 0.65934,0.2637 0.25275,0.2637 0.25275,0.6264 0,0.3516 -0.25275,0.6154 -0.24176,0.2527 -0.65934,0.2527 -0.41758,0 -0.65934,-0.2527 -0.24176,-0.2638 -0.24176,-0.6154 z" />
      <path
         id="path1009"
         style="text-align:start;text-anchor:start;fill:#800080;fill-opacity:1;stroke:none;stroke-width:1"
         d="m 260.47136,1268.4615 h -0.82418 V 1276 h -1.27472 v -7.5385 h -0.86814 L 254.31751,1276 h -1.58242 l 3.58242,-8.022 -3.24176,-7.978 h 1.49451 l 2.82417,7.3407 h 0.97803 V 1260 h 1.27472 v 7.3407 h 0.93407 L 263.39443,1260 h 1.5055 l -3.24176,7.978 3.58242,8.022 h -1.58242 z" />
      <path
         id="path1011"
         style="text-align:start;text-anchor:start;fill:#800080;fill-opacity:1;stroke:none;stroke-width:1"
         d="m 288.72191,1267.2747 q 0.86813,0 1.61539,-0.1758 0.75824,-0.1868 1.31868,-0.5604 0.56044,-0.3737 0.87912,-0.9561 0.32967,-0.5934 0.32967,-1.4176 0,-0.8022 -0.32967,-1.4066 -0.31868,-0.6153 -0.87912,-1.0219 -0.56044,-0.4176 -1.32967,-0.6264 -0.76923,-0.2088 -1.65934,-0.2088 -0.78022,0 -1.5055,0.2308 -0.71428,0.2197 -1.27472,0.6483 -0.54945,0.4176 -0.89011,1.033 -0.32967,0.6044 -0.35165,1.3736 h -1.31868 q 0.022,-1.033 0.47252,-1.8461 0.45055,-0.8242 1.17583,-1.3847 0.73626,-0.5714 1.69231,-0.8681 0.95604,-0.3077 2,-0.3077 1.13187,0 2.14285,0.2638 1.01099,0.2637 1.75825,0.8131 0.74725,0.5495 1.17582,1.3847 0.43956,0.8351 0.43956,1.967 0,0.6703 -0.23077,1.2417 -0.21978,0.5605 -0.61538,1.011 -0.39561,0.4506 -0.93407,0.7912 -0.53846,0.3407 -1.17582,0.5605 0.70329,0.1978 1.2967,0.5275 0.59341,0.3186 1.01099,0.7912 0.42857,0.4725 0.65934,1.1099 0.24176,0.6263 0.24176,1.4175 0,1.1429 -0.48352,2 -0.47253,0.8572 -1.26373,1.4286 -0.79121,0.5714 -1.83517,0.8572 -1.04396,0.2857 -2.18681,0.2857 -1.05495,0 -2.04396,-0.2857 -0.98901,-0.2967 -1.76923,-0.8792 -0.76923,-0.5824 -1.25275,-1.4505 -0.47253,-0.8791 -0.4945,-2.055 h 1.31868 q 0.022,0.8132 0.36263,1.4726 0.34066,0.6593 0.91209,1.1208 0.58242,0.4616 1.34066,0.7143 0.76923,0.2528 1.62638,0.2528 0.9011,0 1.70329,-0.2088 0.81319,-0.2198 1.41759,-0.6484 0.61538,-0.4285 0.96703,-1.0659 0.36264,-0.6374 0.36264,-1.4945 0,-0.9341 -0.35165,-1.5604 -0.35165,-0.6264 -0.95605,-1.011 -0.5934,-0.3846 -1.3956,-0.5495 -0.79121,-0.1758 -1.69231,-0.1758 h -2.02198 v -1.1319 z" />
      <path
         id="path1013"
         style="text-align:start;text-anchor:start;fill:#800080;fill-opacity:1;stroke:none;stroke-width:1"
         d="m 322.14831,1260 h 1.2967 v 16 h -1.2967 l 0.011,-13.4176 -7.15385,13.4176 h -1.29671 v -16 h 1.29671 l -0.011,13.4066 z" />
      <path
         id="path1015"
         style="text-align:start;text-anchor:start;fill:#800080;fill-opacity:1;stroke:none;stroke-width:1"
         d="m 351.93731,1260 h 1.2967 v 16 h -1.2967 l 0.011,-13.4176 -7.15385,13.4176 h -1.2967 v -16 h 1.2967 l -0.011,13.4066 z m -0.5055,-4.1209 q -0.022,0.6484 -0.26373,1.1758 -0.23077,0.5165 -0.64835,0.8901 -0.41759,0.3627 -0.98902,0.5605 -0.57142,0.1978 -1.26373,0.1978 -0.69231,0 -1.27473,-0.1978 -0.57143,-0.1978 -1,-0.5605 -0.41758,-0.3736 -0.65934,-0.8901 -0.23077,-0.5274 -0.25275,-1.1758 h 1.12088 q 0.033,0.8791 0.56044,1.3846 0.53846,0.4945 1.5055,0.4945 0.93406,0 1.46154,-0.5055 0.53846,-0.5055 0.58241,-1.3736 z" />
      <path
         id="path1017"
         style="text-align:start;text-anchor:start;fill:#800080;fill-opacity:1;stroke:none;stroke-width:1"
         d="m 377.067,1268.4725 h -2.05495 V 1276 h -1.2967 v -16 h 1.2967 v 7.3626 h 2.04396 L 382.60546,1260 h 1.53846 l -5.95604,7.8681 6.41758,8.1319 h -1.62637 z" />
      <path
         id="path1019"
         style="text-align:start;text-anchor:start;fill:#800080;fill-opacity:1;stroke:none;stroke-width:1"
         d="m 412.86702,1260 v 16 h -1.2967 v -14.8791 h -5.53847 l -0.17582,6.6154 q -0.022,0.8901 -0.0989,1.8461 -0.0659,0.9561 -0.23077,1.8791 -0.16484,0.9121 -0.43956,1.7363 -0.26374,0.8242 -0.67033,1.4506 -0.40659,0.6153 -0.95604,0.989 -0.54946,0.3626 -1.28572,0.3626 h -0.43956 v -1.1099 h 0.3956 q 0.47253,0 0.83517,-0.3406 0.36264,-0.3407 0.62637,-0.8902 0.26374,-0.5604 0.43956,-1.2857 0.18682,-0.7362 0.29671,-1.5274 0.10989,-0.7913 0.15384,-1.5935 0.055,-0.8022 0.0659,-1.5164 L 404.76812,1260 Z" />
      <path
         id="path1021"
         style="text-align:start;text-anchor:start;fill:#800080;fill-opacity:1;stroke:none;stroke-width:1"
         d="m 434.51316,1260 3.21978,9.0549 3.42858,-9.0549 h 1.72527 v 16 h -1.28571 v -7.0879 l 0.0989,-7.1539 -3.54945,9.4286 h -0.85715 l -3.2967,-9.2747 0.10989,7 V 1276 h -1.28571 v -16 z" />
      <path
         id="path1023"
         style="text-align:start;text-anchor:start;fill:#800080;fill-opacity:1;stroke:none;stroke-width:1"
         d="m 472.52198,1276 h -1.24176 v -7.6703 h -7.51649 V 1276 h -1.24175 v -16 h 1.24175 v 7.1868 h 7.51649 V 1260 h 1.24176 z" />
      <path
         id="path1025"
         style="text-align:start;text-anchor:start;fill:#800080;fill-opacity:1;stroke:none;stroke-width:1"
         d="m 502.68461,1269.0659 q -0.011,0.8132 -0.14286,1.6704 -0.13187,0.8461 -0.41758,1.6483 -0.27473,0.7912 -0.7033,1.4945 -0.42857,0.6923 -1.02198,1.2198 -0.58242,0.5165 -1.35165,0.8242 -0.76923,0.2967 -1.72527,0.2967 -0.94506,0 -1.71429,-0.2967 -0.76923,-0.3077 -1.37363,-0.8242 -0.5934,-0.5275 -1.03296,-1.2308 -0.42857,-0.7033 -0.71429,-1.4945 -0.27472,-0.8022 -0.41758,-1.6483 -0.13187,-0.8462 -0.14286,-1.6594 v -2.1099 q 0.011,-0.8131 0.14286,-1.6593 0.14286,-0.8571 0.41758,-1.6484 0.27473,-0.8021 0.7033,-1.5054 0.43956,-0.7033 1.03297,-1.2308 0.5934,-0.5275 1.35164,-0.8242 0.76923,-0.3077 1.72528,-0.3077 0.95604,0 1.72527,0.3077 0.76924,0.2967 1.36264,0.8242 0.6044,0.5165 1.03297,1.2198 0.42857,0.7033 0.7033,1.5055 0.28571,0.7912 0.41758,1.6483 0.13187,0.8462 0.14286,1.6703 z m -1.29671,-2.1318 q -0.011,-0.6374 -0.0989,-1.3297 -0.0879,-0.6923 -0.28571,-1.3517 -0.19781,-0.6593 -0.51649,-1.2527 -0.30769,-0.6044 -0.75824,-1.0549 -0.45055,-0.4506 -1.05494,-0.7143 -0.6044,-0.2638 -1.37363,-0.2638 -0.76923,0 -1.37363,0.2748 -0.5934,0.2637 -1.04395,0.7142 -0.45055,0.4506 -0.76923,1.055 -0.3077,0.5934 -0.5055,1.2527 -0.1978,0.6594 -0.28571,1.3517 -0.0879,0.6923 -0.0989,1.3187 v 2.1318 q 0.011,0.6374 0.0989,1.3297 0.0989,0.6813 0.2967,1.3517 0.1978,0.6593 0.50549,1.2637 0.31869,0.5934 0.76924,1.0439 0.45054,0.4506 1.05494,0.7253 0.6044,0.2638 1.37363,0.2638 0.78022,0 1.37362,-0.2638 0.6044,-0.2747 1.05495,-0.7253 0.45055,-0.4505 0.75824,-1.0439 0.31868,-0.6044 0.5055,-1.2637 0.1978,-0.6704 0.27472,-1.3517 0.0879,-0.6923 0.0989,-1.3297 z" />
      <path
         id="path1027"
         style="text-align:start;text-anchor:start;fill:#800080;fill-opacity:1;stroke:none;stroke-width:1"
         d="m 531.93518,1276 h -1.29671 v -14.8791 h -7.07692 V 1276 h -1.29671 v -16 h 9.67034 z" />
      <path
         id="path1029"
         style="text-align:start;text-anchor:start;fill:#800080;fill-opacity:1;stroke:none;stroke-width:1"
         d="M 553.83407,1269.4066 V 1276 h -1.31869 v -16 h 5.03297 q 1.05495,0.022 1.96704,0.3516 0.92307,0.3297 1.60439,0.9451 0.69231,0.6044 1.08791,1.4725 0.39561,0.8682 0.39561,1.9671 0,1.0989 -0.39561,1.967 -0.3956,0.8571 -1.08791,1.4615 -0.68132,0.5934 -1.60439,0.9121 -0.92308,0.3187 -1.96704,0.3297 z m 0,-1.1099 h 3.71428 q 0.79121,-0.011 1.47253,-0.2637 0.68132,-0.2528 1.18681,-0.7033 0.5055,-0.4506 0.79121,-1.0989 0.29671,-0.6484 0.29671,-1.4726 0,-0.8241 -0.28572,-1.4945 -0.28571,-0.6703 -0.79121,-1.1318 -0.50549,-0.4726 -1.18681,-0.7253 -0.68132,-0.2637 -1.48352,-0.2857 h -3.71428 z" />
      <path
         id="path1031"
         style="text-align:start;text-anchor:start;fill:#800080;fill-opacity:1;stroke:none;stroke-width:1"
         d="m 592.00775,1271.1429 q -0.13187,1.0769 -0.53847,2.0109 -0.40659,0.9231 -1.07692,1.6154 -0.67033,0.6813 -1.59341,1.066 -0.91208,0.3846 -2.05494,0.3846 -0.95605,0 -1.73627,-0.2857 -0.76923,-0.2967 -1.37362,-0.8022 -0.59341,-0.5055 -1.03297,-1.1868 -0.43956,-0.6814 -0.72528,-1.4616 -0.28571,-0.7912 -0.42857,-1.6373 -0.13186,-0.8462 -0.14285,-1.6814 v -2.3186 q 0.011,-0.8352 0.14285,-1.6814 0.14286,-0.8461 0.42857,-1.6263 0.28572,-0.7913 0.72528,-1.4726 0.43956,-0.6813 1.03297,-1.1868 0.60439,-0.5165 1.37362,-0.8022 0.78022,-0.2967 1.73627,-0.2967 1.16483,0 2.07692,0.3846 0.92308,0.3846 1.59341,1.077 0.67033,0.6813 1.06593,1.6153 0.4066,0.9341 0.52748,2.033 h -1.3077 q -0.13186,-0.8242 -0.42857,-1.5494 -0.28571,-0.7253 -0.76923,-1.2638 -0.48352,-0.5494 -1.16483,-0.8571 -0.68132,-0.3187 -1.59341,-0.3187 -0.78022,0 -1.38462,0.2637 -0.60439,0.2638 -1.06593,0.7033 -0.45055,0.4396 -0.76923,1.033 -0.31868,0.5824 -0.51649,1.2418 -0.1978,0.6593 -0.2967,1.3516 -0.0879,0.6813 -0.0879,1.3297 v 2.3406 q 0,0.6484 0.0879,1.3407 0.0989,0.6923 0.2967,1.3516 0.19781,0.6594 0.51649,1.2528 0.31868,0.5824 0.76923,1.033 0.46154,0.4395 1.06593,0.7033 0.6044,0.2637 1.38462,0.2637 0.92308,0 1.60439,-0.2967 0.69231,-0.3077 1.16484,-0.8462 0.48352,-0.5384 0.76923,-1.2637 0.2967,-0.7253 0.41758,-1.5604 z" />
      <path
         id="path1033"
         style="text-align:start;text-anchor:start;fill:#800080;fill-opacity:1;stroke:none;stroke-width:1"
         d="m 622.23631,1261.1538 h -5.0989 V 1276 h -1.28572 l 0.011,-14.8462 h -5.10989 V 1260 h 11.48352 z" />
      <path
         id="path1035"
         style="text-align:start;text-anchor:start;fill:#800080;fill-opacity:1;stroke:none;stroke-width:1"
         d="m 646.19014,1269.4396 0.39561,0.978 4.7033,-10.4176 h 1.54945 l -6.26374,13.2747 q -0.28572,0.5824 -0.63736,1.1209 -0.34066,0.5275 -0.81319,0.9451 -0.46154,0.4066 -1.08791,0.6483 -0.61539,0.2418 -1.43956,0.2418 -0.49451,0 -0.91209,-0.088 -0.4066,-0.077 -0.67033,-0.1649 l 0.21978,-1.0439 q 0.25274,0.055 0.60439,0.1208 0.35165,0.066 0.67033,0.066 0.56044,0 0.98901,-0.1868 0.42858,-0.1868 0.76924,-0.4836 0.34065,-0.3076 0.5934,-0.6923 0.25275,-0.3846 0.45055,-0.7802 l 0.59341,-1.1758 -6.0989,-11.8022 h 1.51648 z" />
      <path
         id="path1037"
         style="text-align:start;text-anchor:start;fill:#800080;fill-opacity:1;stroke:none;stroke-width:1"
         d="m 675.97914,1269.4396 0.39561,0.978 4.7033,-10.4176 h 1.54945 l -6.26374,13.2747 q -0.28571,0.5824 -0.63736,1.1209 -0.34066,0.5275 -0.81319,0.9451 -0.46154,0.4066 -1.08791,0.6483 -0.61539,0.2418 -1.43956,0.2418 -0.49451,0 -0.91209,-0.088 -0.40659,-0.077 -0.67033,-0.1649 l 0.21978,-1.0439 q 0.25275,0.055 0.60439,0.1208 0.35165,0.066 0.67033,0.066 0.56044,0 0.98902,-0.1868 0.42857,-0.1868 0.76923,-0.4836 0.34066,-0.3076 0.5934,-0.6923 0.25275,-0.3846 0.45055,-0.7802 l 0.59341,-1.1758 -6.0989,-11.8022 h 1.51648 z m 3.65935,-13.6264 q -0.022,0.6483 -0.26374,1.1758 -0.23077,0.5165 -0.64835,0.8901 -0.41758,0.3627 -0.98901,0.5605 -0.57143,0.1978 -1.26374,0.1978 -0.69231,0 -1.27473,-0.1978 -0.57142,-0.1978 -1,-0.5605 -0.41758,-0.3736 -0.65934,-0.8901 -0.23077,-0.5275 -0.25274,-1.1758 h 1.12088 q 0.033,0.8791 0.56044,1.3846 0.53846,0.4945 1.50549,0.4945 0.93407,0 1.46154,-0.5055 0.53846,-0.5055 0.58242,-1.3736 z" />
      <path
         id="path1039"
         style="text-align:start;text-anchor:start;fill:#800080;fill-opacity:1;stroke:none;stroke-width:1"
         d="m 706.48249,1262.1758 q 1.13187,0.055 2.08792,0.5165 0.96703,0.4506 1.67033,1.2198 0.70329,0.7582 1.08791,1.8022 0.3956,1.033 0.3956,2.2417 0,1.2198 -0.3956,2.2638 -0.38462,1.0329 -1.08791,1.8132 -0.7033,0.7692 -1.67033,1.2307 -0.95605,0.4616 -2.08792,0.5165 V 1276 h -1.2967 v -2.2198 q -1.14286,-0.055 -2.10989,-0.5055 -0.95605,-0.4615 -1.64835,-1.2307 -0.69231,-0.7693 -1.08792,-1.8022 -0.38461,-1.044 -0.38461,-2.2638 0,-1.2088 0.38461,-2.2417 0.39561,-1.044 1.08792,-1.8132 0.6923,-0.7802 1.64835,-1.2308 0.96703,-0.4615 2.10989,-0.5165 V 1260 h 1.2967 z m 3.93407,5.7802 q 0,-0.978 -0.27473,-1.8131 -0.27472,-0.8352 -0.7912,-1.4506 -0.5055,-0.6154 -1.24176,-0.978 -0.72528,-0.3627 -1.62638,-0.4176 v 9.3736 q 0.9011,-0.044 1.62638,-0.4176 0.73626,-0.3736 1.24176,-1 0.51648,-0.6263 0.7912,-1.4615 0.27473,-0.8461 0.27473,-1.8352 z m -9.15385,0.022 q 0,0.989 0.27473,1.8242 0.27472,0.8352 0.78022,1.4615 0.50549,0.6154 1.23077,0.989 0.72527,0.3627 1.63736,0.4066 v -9.3626 q -0.91209,0.055 -1.63736,0.4286 -0.72528,0.3626 -1.23077,0.989 -0.5055,0.6154 -0.78022,1.4505 -0.27473,0.8352 -0.27473,1.8132 z" />
      <path
         id="path1041"
         style="text-align:start;text-anchor:start;fill:#800080;fill-opacity:1;stroke:none;stroke-width:1"
         d="M 735.78798,1266.8352 739.84292,1260 h 1.54945 l -4.82417,7.8901 4.97802,8.1099 h -1.53846 l -4.1978,-7.0549 -4.2088,7.0549 h -1.54945 l 4.97803,-8.1099 -4.82418,-7.8901 h 1.54945 z" />
      <path
         id="path1043"
         style="text-align:start;text-anchor:start;fill:#800080;fill-opacity:1;stroke:none;stroke-width:1"
         d="m 760.79676,1260 h 1.2967 v 14.8901 h 7.03297 v -0.022 h 0.011 V 1260 h 1.2967 v 14.8681 h 1.41759 l -0.0989,4.989 H 770.555 V 1276 h -9.75824 z" />
      <path
         id="path1045"
         style="text-align:start;text-anchor:start;fill:#800080;fill-opacity:1;stroke:none;stroke-width:1"
         d="m 799.83857,1260 v 16 h -1.2967 v -7.2747 q -0.81319,0.2637 -1.63737,0.4395 -0.81318,0.1759 -1.82417,0.1759 -2.21978,0 -3.32967,-1.2418 -1.09891,-1.2527 -1.12088,-3.6703 l 0.011,-4.4286 h 1.2967 l 0.011,4.4286 q 0.011,1.8901 0.75824,2.8461 0.74725,0.9451 2.38462,0.9451 0.93406,0.011 1.76923,-0.1649 0.84615,-0.1868 1.68132,-0.4505 V 1260 Z" />
      <path
         id="path1047"
         style="text-align:start;text-anchor:start;fill:#800080;fill-opacity:1;stroke:none;stroke-width:1"
         d="m 821.01218,1260 v 14.8901 h 3.35165 V 1260 h 1.27473 v 14.8901 h 3.35165 V 1260 h 1.27472 v 16 h -10.53846 v -16 z" />
      <path
         id="path1049"
         style="text-align:start;text-anchor:start;fill:#800080;fill-opacity:1;stroke:none;stroke-width:1"
         d="m 848.53745,1260 h 5.31868 v 6.967 h 2.29671 q 1.08791,0.011 1.92307,0.3517 0.84616,0.3296 1.41759,0.9231 0.58241,0.5934 0.87912,1.4175 0.30769,0.8242 0.30769,1.8022 0,0.9781 -0.30769,1.8132 -0.29671,0.8242 -0.87912,1.4286 -0.57143,0.6044 -1.41759,0.956 -0.83516,0.3407 -1.92307,0.3407 h -3.58242 v -14.8791 h -4.03297 z m 5.31868,8.0879 v 6.8022 h 2.29671 q 0.81318,-0.011 1.41758,-0.2857 0.60439,-0.2747 1,-0.7363 0.40659,-0.4725 0.59341,-1.0989 0.1978,-0.6263 0.1978,-1.3296 0,-0.6923 -0.1978,-1.2967 -0.19781,-0.6154 -0.6044,-1.066 -0.3956,-0.4505 -1,-0.7143 -0.6044,-0.2637 -1.40659,-0.2747 z" />
      <path
         id="path1051"
         style="text-align:start;text-anchor:start;fill:#800080;fill-opacity:1;stroke:none;stroke-width:1"
         d="m 880.95283,1266.967 h 1.68131 q 1.03297,0.011 1.8022,0.3627 0.78022,0.3516 1.28572,0.956 0.51648,0.6044 0.76923,1.4176 0.25275,0.8132 0.25275,1.7582 0,0.9451 -0.25275,1.7693 -0.25275,0.8241 -0.76923,1.4395 -0.5055,0.6044 -1.28572,0.9671 -0.76923,0.3516 -1.8022,0.3626 h -2.96703 v -16 h 1.28572 z m 0,1.1209 v 6.8022 h 1.68131 q 0.75825,-0.011 1.28572,-0.2967 0.53846,-0.2857 0.86813,-0.7582 0.32967,-0.4836 0.47253,-1.0989 0.15384,-0.6264 0.15384,-1.2967 0,-0.6594 -0.15384,-1.2638 -0.15385,-0.6044 -0.49451,-1.0659 -0.32967,-0.4616 -0.85714,-0.7363 -0.52747,-0.2747 -1.27473,-0.2857 z m 8.70329,7.9121 h -1.28571 v -16 h 1.28571 z" />
      <path
         id="path1053"
         style="text-align:start;text-anchor:start;fill:#800080;fill-opacity:1;stroke:none;stroke-width:1"
         d="m 911.15947,1266.967 h 3.28572 q 1.13186,0.011 2.05494,0.3187 0.92308,0.3077 1.58242,0.8901 0.65934,0.5715 1.01099,1.4066 0.36264,0.8242 0.36264,1.8791 0,1.044 -0.36264,1.8901 -0.35165,0.8352 -1.01099,1.4286 -0.65934,0.5824 -1.58242,0.9011 -0.92308,0.3187 -2.05494,0.3187 h -4.59341 v -16 h 1.30769 z m 0,1.1209 v 6.8022 h 3.28572 q 0.85714,-0.011 1.53846,-0.2527 0.68132,-0.2528 1.15384,-0.7033 0.48352,-0.4616 0.73627,-1.0879 0.26373,-0.6374 0.26373,-1.4066 0,-0.7583 -0.26373,-1.3737 -0.25275,-0.6154 -0.73627,-1.0439 -0.47252,-0.4396 -1.16483,-0.6813 -0.68132,-0.2418 -1.52747,-0.2528 z" />
      <path
         id="path1055"
         style="text-align:start;text-anchor:start;fill:#800080;fill-opacity:1;stroke:none;stroke-width:1"
         d="m 940.11331,1271 q 0.0769,0.9121 0.34066,1.6703 0.27472,0.7473 0.74725,1.2967 0.47253,0.5385 1.16483,0.8462 0.69231,0.2967 1.61539,0.2967 0.7033,0 1.28571,-0.2198 0.58242,-0.2308 1.03297,-0.6154 0.45055,-0.3956 0.78022,-0.9231 0.34066,-0.5274 0.56044,-1.1428 0.21978,-0.6264 0.31868,-1.3077 0.10989,-0.6923 0.12088,-1.3846 v -1 h -5.78022 v -1.1099 h 5.78022 v -0.9231 q -0.011,-0.6923 -0.12088,-1.3736 -0.0989,-0.6923 -0.31868,-1.3077 -0.21978,-0.6264 -0.56044,-1.1539 -0.32967,-0.5274 -0.78022,-0.912 -0.45055,-0.3956 -1.03297,-0.6154 -0.58241,-0.2308 -1.28571,-0.2308 -0.91209,0 -1.6044,0.3077 -0.6923,0.2967 -1.17582,0.8462 -0.47253,0.5384 -0.74725,1.2967 -0.26374,0.7582 -0.34066,1.6593 h -1.29671 q 0.044,-1.0989 0.41759,-2.0549 0.38461,-0.9561 1.04395,-1.6594 0.65934,-0.7033 1.59341,-1.0989 0.93407,-0.4066 2.10989,-0.4066 0.89011,0 1.63736,0.2528 0.75824,0.2527 1.35165,0.7142 0.6044,0.4506 1.05495,1.088 0.45055,0.6263 0.74725,1.3736 0.30769,0.7472 0.46154,1.5824 0.15384,0.8352 0.15384,1.7033 v 3.011 q 0,0.8681 -0.15384,1.7033 -0.15385,0.8352 -0.46154,1.5824 -0.2967,0.7473 -0.74725,1.3736 -0.45055,0.6264 -1.05495,1.0879 -0.59341,0.4506 -1.35165,0.7143 -0.74725,0.2528 -1.63736,0.2528 -1.17582,0 -2.12088,-0.3846 -0.93407,-0.3847 -1.59341,-1.077 -0.65934,-0.6923 -1.03296,-1.6483 -0.37363,-0.9561 -0.41759,-2.1099 z" />
      <path
         id="path1057"
         style="text-align:start;text-anchor:start;fill:#800080;fill-opacity:1;stroke:none;stroke-width:1"
         d="m 979.49572,1269.7582 q 0,1.1539 -0.20879,2.3077 -0.2088,1.1539 -0.68132,2.077 -0.46154,0.923 -1.23077,1.5055 -0.75824,0.5714 -1.87912,0.5714 -1.08792,0 -1.83517,-0.5714 -0.74725,-0.5825 -1.20879,-1.5055 -0.45055,-0.9231 -0.64835,-2.077 -0.1978,-1.1538 -0.1978,-2.3077 v -1.2967 H 969.9133 V 1276 h -1.28572 v -16 h 1.28572 v 7.3516 h 1.69231 v -1.0989 q 0,-0.7692 0.0769,-1.5494 0.0879,-0.7802 0.27472,-1.4945 0.18682,-0.7253 0.48352,-1.3407 0.30769,-0.6263 0.73626,-1.0879 0.42858,-0.4725 1,-0.7362 0.57143,-0.2638 1.3077,-0.2638 0.74725,0 1.32967,0.2638 0.5934,0.2637 1.03297,0.7362 0.45054,0.4616 0.75824,1.0879 0.30769,0.6154 0.50549,1.3407 0.1978,0.7143 0.28572,1.4945 0.0989,0.7802 0.0989,1.5494 z m -1.31868,-3.5274 q 0,-0.9121 -0.10989,-1.8462 -0.10989,-0.945 -0.4066,-1.7143 -0.2967,-0.7692 -0.82417,-1.2527 -0.52748,-0.4835 -1.35165,-0.4835 -0.53846,0 -0.93407,0.2307 -0.3956,0.2198 -0.68132,0.6044 -0.28571,0.3846 -0.47253,0.9011 -0.17582,0.5165 -0.28571,1.1099 -0.10989,0.5824 -0.15385,1.2198 -0.0439,0.6264 -0.0439,1.2308 v 3.5274 q 0,0.6154 0.0439,1.2418 0.044,0.6264 0.15385,1.2198 0.10989,0.5934 0.2967,1.1209 0.18682,0.5164 0.47253,0.9011 0.28572,0.3846 0.68132,0.6153 0.3956,0.2198 0.93407,0.2198 0.54945,0 0.96703,-0.2198 0.41758,-0.2307 0.71429,-0.6153 0.2967,-0.3847 0.48351,-0.9011 0.1978,-0.5275 0.30769,-1.1209 0.12088,-0.5934 0.16484,-1.2198 0.044,-0.6264 0.044,-1.2418 z" />
      <path
         id="path1059"
         style="text-align:start;text-anchor:start;fill:#800080;fill-opacity:1;stroke:none;stroke-width:1"
         d="m 1007.021,1276 v -6.7363 h -4.3516 L 999.22983,1276 h -1.41758 l 3.72525,-7.0989 q -1.5055,-0.5275 -2.32965,-1.5824 -0.82417,-1.066 -0.82417,-2.5934 0,-1.1209 0.37362,-1.989 0.38462,-0.8792 1.07693,-1.4836 0.70327,-0.6044 1.68127,-0.923 0.9891,-0.3187 2.1759,-0.3297 h 4.6483 v 16 z m -7.32963,-11.2967 q 0,0.7472 0.25275,1.3736 0.25278,0.6264 0.72528,1.0769 0.4725,0.4506 1.1429,0.7143 0.6813,0.2528 1.5274,0.2638 h 3.6813 v -7.011 h -3.3296 q -0.9231,0.011 -1.6704,0.2527 -0.7362,0.2418 -1.2527,0.7033 -0.5165,0.4616 -0.8022,1.1209 -0.27473,0.6593 -0.27473,1.5055 z" />
    </g>
    <text
       id="text1122"
       y="1116"
       x="179.0054"
       style="font-style:normal;font-variant:normal;font-weight:300;font-stretch:normal;font-size:22.5055px;line-height:1.25;font-family:'Roboto Mono';-inkscape-font-specification:'Roboto Mono weight=251';letter-spacing:0px;word-spacing:4.5011px;fill:#800080;fill-opacity:1;stroke:none;stroke-width:1;"
       xml:space="preserve"><tspan
         style="stroke-width:1;fill:#800080;fill-opacity:1;"
         y="1116"
         x="179.0054"
         id="tspan1120"
         sodipodi:role="line">даст мошьный толчёк подъёму сельсково хозяйства.</tspan></text>
    <text
       xml:space="preserve"
       style="font-style:normal;font-variant:normal;font-weight:300;font-stretch:normal;font-size:22.5055px;line-height:1.25;font-family:'Roboto Mono';-inkscape-font-specification:'Roboto Mono weight=251';letter-spacing:0px;word-spacing:4.5011px;fill:#800080;fill-opacity:1;stroke:none;stroke-width:1;"
       x="175.21638"
       y="1004"
       id="text1130"><tspan
         sodipodi:role="line"
         id="tspan1128"
         x="175.21638"
         y="1004"
         style="stroke-width:1;fill:#800080;fill-opacity:1;">Здраствуйте. Лепая погода севодня, не правда ли?</tspan></text>
    <text
       xml:space="preserve"
       style="font-style:normal;font-variant:normal;font-weight:300;font-stretch:normal;font-size:22.5055px;line-height:1.25;font-family:'Roboto Mono';-inkscape-font-specification:'Roboto Mono weight=251';letter-spacing:0px;word-spacing:4.5011px;fill:#800080;fill-opacity:1;stroke:none;stroke-width:1;"
       x="255.89113"
       y="1084"
       id="text1134"><tspan
         sodipodi:role="line"
         id="tspan1132"
         x="255.89113"
         y="1084"
         style="stroke-width:1;fill:#800080;fill-opacity:1;">Шырокая электрификацыя южных ґуберний</tspan></text>
    <text
       xml:space="preserve"
       style="font-style:normal;font-variant:normal;font-weight:300;font-stretch:normal;font-size:22.5055px;line-height:1.25;font-family:'Roboto Mono';-inkscape-font-specification:'Roboto Mono weight=251';letter-spacing:0px;word-spacing:4.5011px;fill:#000000;fill-opacity:1;stroke:none;stroke-width:1;"
       x="179.0054"
       y="636"
       id="text1223"><tspan
         sodipodi:role="line"
         id="tspan1221"
         x="179.0054"
         y="636"
         style="stroke-width:1;">даст мошьный толчёк подъёму сельсково хозяйства.</tspan></text>
    <text
       xml:space="preserve"
       style="font-style:normal;font-variant:normal;font-weight:300;font-stretch:normal;font-size:22.5055px;line-height:1.25;font-family:'Roboto Mono';-inkscape-font-specification:'Roboto Mono weight=251';letter-spacing:0px;word-spacing:0px;fill:#000000;fill-opacity:1;stroke:none;stroke-width:1"
       x="150.19221"
       y="716"
       id="text1227"><tspan
         sodipodi:role="line"
         id="tspan1225"
         x="150.19221"
         y="716"
         style="stroke-width:1">Ф чяшях юга жыл бы цытрус? Да, но фальшывый экзэмпляр!</tspan></text>
    <text
       id="text1231"
       y="524"
       x="175.21638"
       style="font-style:normal;font-variant:normal;font-weight:300;font-stretch:normal;font-size:22.5055px;line-height:1.25;font-family:'Roboto Mono';-inkscape-font-specification:'Roboto Mono weight=251';letter-spacing:0px;word-spacing:4.5011px;fill:#000000;fill-opacity:1;stroke:none;stroke-width:1;"
       xml:space="preserve"><tspan
         style="stroke-width:1;"
         y="524"
         x="175.21638"
         id="tspan1229"
         sodipodi:role="line">Здраствуйте. Лепая погода севодня, не правда ли?</tspan></text>
    <text
       id="text1235"
       y="604"
       x="255.89113"
       style="font-style:normal;font-variant:normal;font-weight:300;font-stretch:normal;font-size:22.5055px;line-height:1.25;font-family:'Roboto Mono';-inkscape-font-specification:'Roboto Mono weight=251';letter-spacing:0px;word-spacing:4.5011px;fill:#000000;fill-opacity:1;stroke:none;stroke-width:1;"
       xml:space="preserve"><tspan
         style="stroke-width:1;"
         y="604"
         x="255.89113"
         id="tspan1233"
         sodipodi:role="line">Шырокая электрификацыя южных ґуберний</tspan></text>
    <g
       style="font-style:normal;font-variant:normal;font-weight:300;font-stretch:normal;font-size:22.5055px;line-height:1.25;font-family:'Roboto Mono';-inkscape-font-specification:'Roboto Mono weight=251';letter-spacing:0px;word-spacing:0px;fill:#800080;fill-opacity:1;stroke:none;stroke-width:1"
       id="text1575"
       aria-label="Ф чяшях юга жыл бы цытрус? Да, но фальшывый экзэмпляр!">
      <path
         id="path1577"
         style="fill:#800080;fill-opacity:1;stroke-width:1"
         d="m 157.58782,1182.1758 q 1.13187,0.055 2.08791,0.5165 0.96704,0.4506 1.67033,1.2198 0.7033,0.7582 1.08792,1.8022 0.3956,1.033 0.3956,2.2417 0,1.2198 -0.3956,2.2638 -0.38462,1.0329 -1.08792,1.8132 -0.70329,0.7692 -1.67033,1.2307 -0.95604,0.4616 -2.08791,0.5165 V 1196 h -1.2967 v -2.2198 q -1.14286,-0.055 -2.10989,-0.5055 -0.95605,-0.4615 -1.64836,-1.2307 -0.6923,-0.7693 -1.08791,-1.8022 -0.38461,-1.044 -0.38461,-2.2638 0,-1.2088 0.38461,-2.2417 0.39561,-1.044 1.08791,-1.8132 0.69231,-0.7802 1.64836,-1.2308 0.96703,-0.4615 2.10989,-0.5165 V 1180 h 1.2967 z m 3.93407,5.7802 q 0,-0.978 -0.27473,-1.8131 -0.27472,-0.8352 -0.79121,-1.4506 -0.50549,-0.6154 -1.24175,-0.978 -0.72528,-0.3627 -1.62638,-0.4176 v 9.3736 q 0.9011,-0.044 1.62638,-0.4176 0.73626,-0.3736 1.24175,-1 0.51649,-0.6263 0.79121,-1.4615 0.27473,-0.8461 0.27473,-1.8352 z m -9.15385,0.022 q 0,0.989 0.27473,1.8242 0.27472,0.8352 0.78022,1.4615 0.50549,0.6154 1.23076,0.989 0.72528,0.3627 1.63737,0.4066 v -9.3626 q -0.91209,0.055 -1.63737,0.4286 -0.72527,0.3626 -1.23076,0.989 -0.5055,0.6154 -0.78022,1.4505 -0.27473,0.8352 -0.27473,1.8132 z" />
      <path
         id="path1579"
         style="fill:#800080;fill-opacity:1;stroke-width:1"
         d="m 188.60981,1196 h -1.31868 v -5.011 q -0.81319,0.2857 -1.7033,0.4396 -0.87912,0.1538 -1.81319,0.1648 -1.14285,0 -2.03296,-0.2527 -0.89011,-0.2638 -1.51649,-0.8022 -0.61538,-0.5495 -0.94505,-1.3956 -0.32967,-0.8462 -0.32967,-2.022 l -0.011,-3.011 h 1.31868 v 3.011 q 0.011,1.7802 0.91209,2.5824 0.9011,0.7912 2.60439,0.7582 0.86813,-0.011 1.78022,-0.1318 0.92308,-0.1319 1.73627,-0.4176 v -5.8022 h 1.31868 z" />
      <path
         id="path1581"
         style="fill:#800080;fill-opacity:1;stroke-width:1"
         d="M 201.74168,1184.1099 V 1196 H 200.423 v -4.7912 h -4.16484 l -3,4.7912 h -1.46154 l 3.0989,-4.956 q -0.61538,-0.1649 -1.10989,-0.4726 -0.48351,-0.3077 -0.83516,-0.7362 -0.35165,-0.4396 -0.53846,-0.9781 -0.18682,-0.5494 -0.18682,-1.1978 0,-0.8351 0.34066,-1.4945 0.34066,-0.6593 0.93407,-1.1099 0.59341,-0.4505 1.3956,-0.6923 0.8022,-0.2417 1.72528,-0.2527 z m -8.1978,3.5714 q 0,0.5385 0.18681,0.978 0.1978,0.4396 0.54945,0.7583 0.36264,0.3077 0.85714,0.4835 0.49451,0.1758 1.10989,0.1868 h 4.17583 v -4.8571 h -3.8022 q -0.64835,0 -1.21978,0.1758 -0.56044,0.1648 -0.97802,0.4835 -0.4066,0.3077 -0.64835,0.7692 -0.23077,0.4506 -0.23077,1.022 z" />
      <path
         id="path1583"
         style="fill:#800080;fill-opacity:1;stroke-width:1"
         d="m 206.97245,1184.1099 v 10.7802 h 3.31868 v -10.7802 h 1.29671 v 10.7802 h 3.28571 v -10.7802 h 1.28572 V 1196 h -10.47253 v -11.8901 z" />
      <path
         id="path1585"
         style="fill:#800080;fill-opacity:1;stroke-width:1"
         d="M 228.7307,1184.1099 V 1196 h -1.31868 v -4.7912 h -4.16484 l -3,4.7912 h -1.46154 l 3.09891,-4.956 q -0.61539,-0.1649 -1.10989,-0.4726 -0.48352,-0.3077 -0.83517,-0.7362 -0.35165,-0.4396 -0.53846,-0.9781 -0.18681,-0.5494 -0.18681,-1.1978 0,-0.8351 0.34065,-1.4945 0.34066,-0.6593 0.93407,-1.1099 0.59341,-0.4505 1.39561,-0.6923 0.80219,-0.2417 1.72527,-0.2527 z m -8.1978,3.5714 q 0,0.5385 0.18681,0.978 0.1978,0.4396 0.54945,0.7583 0.36264,0.3077 0.85714,0.4835 0.49451,0.1758 1.10989,0.1868 h 4.17583 v -4.8571 h -3.8022 q -0.64835,0 -1.21978,0.1758 -0.56044,0.1648 -0.97802,0.4835 -0.4066,0.3077 -0.64835,0.7692 -0.23077,0.4506 -0.23077,1.022 z" />
      <path
         id="path1587"
         style="fill:#800080;fill-opacity:1;stroke-width:1"
         d="m 238.01642,1188.967 3.6923,-4.8571 h 1.59341 l -4.52747,5.8352 4.7033,6.0549 h -1.56044 l -3.87913,-5.0659 -3.87912,5.0659 h -1.57143 l 4.7033,-6.0549 -4.52747,-5.8352 h 1.57143 z" />
      <path
         id="path1589"
         style="fill:#800080;fill-opacity:1;stroke-width:1"
         d="m 260.80763,1189.5275 h 2.07693 q 0.033,-1.022 0.26373,-2.033 0.24176,-1.011 0.7033,-1.8132 0.47253,-0.8022 1.1978,-1.2967 0.72528,-0.4945 1.74726,-0.4945 0.71428,0 1.27472,0.2528 0.57143,0.2417 1.01099,0.6703 0.43956,0.4286 0.74725,1.011 0.31869,0.5714 0.51649,1.2417 0.1978,0.6704 0.28571,1.3956 0.0989,0.7143 0.0989,1.4176 v 0.3627 q 0,1.0659 -0.21978,2.1318 -0.20879,1.066 -0.68132,1.9231 -0.46153,0.8571 -1.20879,1.3956 -0.73626,0.5275 -1.8022,0.5275 -0.68131,0 -1.23076,-0.2198 -0.53847,-0.2308 -0.96704,-0.6154 -0.42857,-0.3956 -0.74725,-0.9231 -0.30769,-0.5384 -0.52747,-1.1538 -0.2088,-0.6154 -0.32967,-1.2967 -0.10989,-0.6813 -0.13187,-1.3626 h -2.07693 V 1196 h -1.28571 v -11.8901 h 1.28571 z m 3.38462,0.7143 q 0,0.8022 0.12088,1.6593 0.13187,0.8571 0.42857,1.5714 0.2967,0.7143 0.8022,1.1759 0.50549,0.4615 1.27472,0.4615 0.51649,0 0.9011,-0.2088 0.39561,-0.2198 0.68132,-0.5824 0.28572,-0.3627 0.48352,-0.8462 0.1978,-0.4835 0.30769,-1.022 0.12088,-0.5494 0.17583,-1.1098 0.0549,-0.5715 0.0549,-1.0989 v -0.3627 q 0,-0.5275 -0.0549,-1.0879 -0.055,-0.5714 -0.17583,-1.1099 -0.12088,-0.5384 -0.31868,-1.022 -0.1978,-0.4835 -0.49451,-0.8461 -0.28571,-0.3736 -0.68131,-0.5824 -0.39561,-0.2198 -0.9011,-0.2198 -0.5055,0 -0.9011,0.2198 -0.38462,0.2088 -0.68132,0.5824 -0.28572,0.3626 -0.48352,0.8461 -0.18681,0.4836 -0.30769,1.022 -0.12088,0.5385 -0.17582,1.1099 -0.055,0.5604 -0.055,1.0879 z" />
      <path
         id="path1591"
         style="fill:#800080;fill-opacity:1;stroke-width:1"
         d="m 283.21423,1185.2418 h -8.05495 V 1196 h -1.35164 v -11.8901 h 9.40659 z" />
      <path
         id="path1593"
         style="fill:#800080;fill-opacity:1;stroke-width:1"
         d="m 295.43402,1196 q -0.12088,-0.3626 -0.18681,-0.8022 -0.0659,-0.4505 -0.0879,-0.9121 -0.34065,0.4176 -0.7912,0.7692 -0.45055,0.3517 -0.98902,0.6154 -0.52747,0.2528 -1.14285,0.3956 -0.61539,0.1539 -1.28572,0.1539 -0.83516,0 -1.56044,-0.2418 -0.71428,-0.2417 -1.25275,-0.6813 -0.52747,-0.4396 -0.83516,-1.0549 -0.2967,-0.6264 -0.2967,-1.3956 0,-1.022 0.45055,-1.7363 0.45055,-0.7143 1.21978,-1.1539 0.76923,-0.4505 1.78022,-0.6593 1.01099,-0.2088 2.12088,-0.2088 h 2.57143 v -1.3516 q -0.011,-0.6704 -0.26374,-1.1759 -0.25275,-0.5164 -0.69231,-0.8571 -0.42857,-0.3517 -1.03297,-0.5275 -0.5934,-0.1758 -1.2967,-0.1758 -0.63736,0 -1.21978,0.1648 -0.57143,0.1649 -1.02198,0.4726 -0.43956,0.3077 -0.71428,0.7582 -0.27473,0.4396 -0.29671,1 l -1.31868,-0.011 q 0.033,-0.7582 0.39561,-1.3956 0.37362,-0.6374 1,-1.0989 0.62637,-0.4725 1.45055,-0.7363 0.83516,-0.2637 1.78022,-0.2637 0.94505,0 1.76923,0.2418 0.83516,0.2417 1.43956,0.7252 0.61538,0.4836 0.96703,1.2088 0.36264,0.7253 0.37363,1.6923 v 5.7583 q 0,0.5934 0.0989,1.1978 0.10989,0.6044 0.26373,1.1538 l 0.011,0.1319 z m -4.34066,-0.9451 q 0.69231,0.011 1.31868,-0.1648 0.63736,-0.1758 1.16484,-0.4835 0.52747,-0.3187 0.93406,-0.7473 0.4066,-0.4395 0.63737,-0.956 v -2.6044 h -2.39561 q -0.86813,0 -1.67033,0.1319 -0.8022,0.1318 -1.41758,0.4395 -0.61539,0.2967 -0.98901,0.8022 -0.36264,0.5055 -0.36264,1.2638 0,0.5384 0.21978,0.967 0.21978,0.4286 0.59341,0.7363 0.37362,0.2967 0.87912,0.4615 0.50549,0.1538 1.08791,0.1538 z" />
      <path
         id="path1595"
         style="fill:#800080;fill-opacity:1;stroke-width:1"
         d="m 320.3571,1190.5055 h -0.93407 V 1196 h -1.28571 v -5.4945 h -0.94506 L 313.87358,1196 h -1.56044 l 3.81319,-6.1099 -3.35165,-5.7802 h 1.49451 l 2.87912,5.2198 h 0.98901 v -5.2198 h 1.28571 v 5.2198 h 1 l 2.87912,-5.2198 h 1.5055 l -3.37363,5.7802 3.83517,6.1099 h -1.58242 z" />
      <path
         id="path1597"
         style="fill:#800080;fill-opacity:1;stroke-width:1"
         d="m 328.70875,1188.6264 h 1.95604 q 0.86813,0.011 1.53846,0.2967 0.68132,0.2857 1.14286,0.7802 0.46154,0.4945 0.69231,1.1648 0.24176,0.6594 0.24176,1.4286 0,0.7582 -0.24176,1.4286 -0.23077,0.6703 -0.69231,1.1758 -0.46154,0.5055 -1.14286,0.8022 -0.67033,0.2857 -1.53846,0.2967 h -3.24176 v -11.8901 h 1.28572 z m 0,1.1209 v 5.1428 h 1.94505 q 0.59341,-0.011 1.02198,-0.2198 0.43956,-0.2088 0.71429,-0.5604 0.28571,-0.3517 0.41758,-0.8132 0.14286,-0.4615 0.14286,-0.978 0,-0.4945 -0.14286,-0.9561 -0.13187,-0.4615 -0.41758,-0.8132 -0.28572,-0.3626 -0.71429,-0.5714 -0.42857,-0.2198 -1.02198,-0.2307 z m 8.63736,6.2527 h -1.28571 v -11.8901 h 1.28571 z" />
      <path
         id="path1599"
         style="fill:#800080;fill-opacity:1;stroke-width:1"
         d="M 350.44503,1184.1099 V 1196 h -1.32967 v -10.7582 h -5.10989 l -0.0879,4.1208 q -0.011,0.8132 -0.0659,1.6264 -0.0549,0.8022 -0.1978,1.5385 -0.14286,0.7362 -0.39561,1.3736 -0.24175,0.6264 -0.63736,1.0989 -0.3956,0.4615 -0.96703,0.7363 -0.56044,0.2637 -1.34066,0.2637 h -0.48352 l 0.022,-1.1758 0.41758,-0.011 q 0.53846,0 0.91209,-0.2308 0.38462,-0.2417 0.63736,-0.6373 0.25275,-0.3957 0.39561,-0.9231 0.15384,-0.5275 0.23077,-1.1319 0.0879,-0.6044 0.10989,-1.2527 0.033,-0.6484 0.0439,-1.2748 l 0.12088,-5.2527 z" />
      <path
         id="path1601"
         style="fill:#800080;fill-opacity:1;stroke-width:1"
         d="m 373.00547,1184.9011 q 1.15385,0 2.08791,0.4066 0.93407,0.4066 1.59341,1.1209 0.67033,0.7143 1.03297,1.6923 0.36264,0.967 0.36264,2.0989 v 0.3626 q 0,1.1868 -0.37363,2.2198 -0.36264,1.022 -1.04396,1.7802 -0.67033,0.7583 -1.64835,1.1978 -0.96703,0.4396 -2.17582,0.4396 -1.2088,0 -2.18682,-0.4396 -0.96703,-0.4395 -1.65934,-1.1978 -0.68132,-0.7582 -1.05494,-1.7802 -0.36264,-1.033 -0.37363,-2.2198 v -0.3626 -0.044 -0.7582 q 0,-1.6594 0.31868,-3.1099 0.32967,-1.4506 0.98901,-2.5714 0.65934,-1.1209 1.65934,-1.8572 1,-0.7472 2.37363,-0.989 0.53846,-0.099 1.06593,-0.2088 0.53847,-0.1209 0.96704,-0.3297 0.42857,-0.2087 0.70329,-0.5384 0.27473,-0.3407 0.29671,-0.8791 h 1.13187 q -0.022,0.6153 -0.18682,1.0659 -0.16483,0.4396 -0.45055,0.7582 -0.28571,0.3187 -0.65934,0.5385 -0.37362,0.2088 -0.8022,0.3516 -0.41758,0.1429 -0.87912,0.2418 -0.46154,0.088 -0.91208,0.1648 -0.92308,0.1539 -1.65935,0.5715 -0.73626,0.4066 -1.28571,1.0439 -0.53846,0.6374 -0.89011,1.4726 -0.35165,0.8351 -0.51648,1.8241 0.72527,-0.945 1.7912,-1.5055 1.07693,-0.5604 2.38462,-0.5604 z m -0.18681,1.1099 q -0.91209,0 -1.63737,0.3406 -0.72527,0.3297 -1.24175,0.9011 -0.5055,0.5715 -0.78022,1.3407 -0.26374,0.7692 -0.27473,1.6264 v 0.3626 q 0,0.9231 0.26374,1.7473 0.27472,0.8132 0.76923,1.4395 0.50549,0.6154 1.24176,0.9781 0.73626,0.3626 1.68132,0.3626 0.93406,0 1.65934,-0.3626 0.72527,-0.3627 1.23077,-0.9781 0.50549,-0.6263 0.76923,-1.4505 0.26373,-0.8242 0.26373,-1.7363 v -0.3626 q -0.011,-0.8682 -0.28571,-1.6264 -0.27473,-0.7692 -0.78022,-1.3407 -0.5055,-0.5714 -1.24176,-0.9011 -0.72527,-0.3406 -1.63736,-0.3406 z" />
      <path
         id="path1603"
         style="fill:#800080;fill-opacity:1;stroke-width:1"
         d="m 382.68679,1188.6264 h 1.95604 q 0.86814,0.011 1.53847,0.2967 0.68132,0.2857 1.14285,0.7802 0.46154,0.4945 0.69231,1.1648 0.24176,0.6594 0.24176,1.4286 0,0.7582 -0.24176,1.4286 -0.23077,0.6703 -0.69231,1.1758 -0.46153,0.5055 -1.14285,0.8022 -0.67033,0.2857 -1.53847,0.2967 h -3.24175 v -11.8901 h 1.28571 z m 0,1.1209 v 5.1428 h 1.94506 q 0.5934,-0.011 1.02197,-0.2198 0.43956,-0.2088 0.71429,-0.5604 0.28571,-0.3517 0.41758,-0.8132 0.14286,-0.4615 0.14286,-0.978 0,-0.4945 -0.14286,-0.9561 -0.13187,-0.4615 -0.41758,-0.8132 -0.28571,-0.3626 -0.71429,-0.5714 -0.42857,-0.2198 -1.02197,-0.2307 z m 8.63736,6.2527 h -1.28571 v -11.8901 h 1.28571 z" />
      <path
         id="path1605"
         style="fill:#800080;fill-opacity:1;stroke-width:1"
         d="m 408.97252,1184.1099 h 1.31868 v 10.7802 h 6.4066 v -10.7802 h 1.32967 v 10.7802 h 1.20879 l -0.0989,4.6374 h -1.20879 V 1196 h -8.95605 z" />
      <path
         id="path1607"
         style="fill:#800080;fill-opacity:1;stroke-width:1"
         d="m 423.17033,1188.6264 h 1.95604 q 0.86813,0.011 1.53846,0.2967 0.68132,0.2857 1.14286,0.7802 0.46154,0.4945 0.69231,1.1648 0.24176,0.6594 0.24176,1.4286 0,0.7582 -0.24176,1.4286 -0.23077,0.6703 -0.69231,1.1758 -0.46154,0.5055 -1.14286,0.8022 -0.67033,0.2857 -1.53846,0.2967 h -3.24176 v -11.8901 h 1.28572 z m 0,1.1209 v 5.1428 h 1.94505 q 0.59341,-0.011 1.02198,-0.2198 0.43956,-0.2088 0.71429,-0.5604 0.28571,-0.3517 0.41758,-0.8132 0.14286,-0.4615 0.14286,-0.978 0,-0.4945 -0.14286,-0.9561 -0.13187,-0.4615 -0.41758,-0.8132 -0.28572,-0.3626 -0.71429,-0.5714 -0.42857,-0.2198 -1.02198,-0.2307 z m 8.63736,6.2527 h -1.28571 v -11.8901 h 1.28571 z" />
      <path
         id="path1609"
         style="fill:#800080;fill-opacity:1;stroke-width:1"
         d="m 446.1044,1185.2308 h -5.06594 V 1196 h -1.32967 v -10.7692 h -4.89011 v -1.1209 h 11.28572 z" />
      <path
         id="path1611"
         style="fill:#800080;fill-opacity:1;stroke-width:1"
         d="m 458.80769,1190.1758 q 0,1.1539 -0.28571,2.2528 -0.27473,1.0879 -0.85714,1.934 -0.57143,0.8352 -1.45055,1.3517 -0.87913,0.5055 -2.08792,0.5055 -1.10989,0 -2.03296,-0.4286 -0.92308,-0.4286 -1.54946,-1.2417 v 6.0219 h -1.31868 v -16.4615 h 1.23077 l 0.055,1.6264 q 0.62637,-0.8792 1.53846,-1.3627 0.91209,-0.4835 2.05495,-0.4835 1.21978,0 2.10989,0.5055 0.89011,0.4945 1.46153,1.3407 0.57143,0.8351 0.84616,1.934 0.28571,1.0879 0.28571,2.2748 z m -1.31868,-0.2307 q 0,-0.8902 -0.1978,-1.7693 -0.1978,-0.8791 -0.63736,-1.5714 -0.43956,-0.7033 -1.14286,-1.1319 -0.69231,-0.4395 -1.7033,-0.4395 -0.57143,0 -1.07692,0.1648 -0.49451,0.1538 -0.91209,0.4505 -0.40659,0.2858 -0.73626,0.6924 -0.31868,0.3956 -0.53847,0.8791 v 5.8901 q 0.46154,0.9231 1.31869,1.4615 0.85714,0.5385 1.96703,0.5385 1,0 1.69231,-0.4396 0.7033,-0.4395 1.13187,-1.1318 0.43956,-0.7033 0.63736,-1.5825 0.1978,-0.8901 0.1978,-1.7802 z" />
      <path
         id="path1613"
         style="fill:#800080;fill-opacity:1;stroke-width:1"
         d="m 467.15934,1193.5824 0.24176,0.6484 4.2967,-10.1209 h 1.49451 l -6.14286,13.7912 q -0.24176,0.5385 -0.57143,1.0549 -0.32967,0.5165 -0.78022,0.9231 -0.45055,0.4176 -1.04395,0.6704 -0.58242,0.2527 -1.34066,0.2527 -0.26374,0 -0.58242,-0.055 -0.31868,-0.044 -0.53846,-0.099 l 0.15384,-1.0989 q 0.18682,0.022 0.46154,0.044 0.28572,0.033 0.47253,0.033 0.50549,0 0.92308,-0.1978 0.41758,-0.1978 0.73626,-0.5165 0.32967,-0.3077 0.57143,-0.7033 0.25275,-0.3846 0.41758,-0.7583 l 0.81319,-1.7582 -5.34066,-11.5824 h 1.48352 z" />
      <path
         id="path1615"
         style="fill:#800080;fill-opacity:1;stroke-width:1"
         d="m 481.0055,1195.1099 q 0.65934,0 1.25274,-0.1868 0.6044,-0.1978 1.06594,-0.5605 0.46154,-0.3626 0.74725,-0.8681 0.29671,-0.5165 0.34066,-1.1648 h 1.26374 q -0.044,0.8461 -0.43956,1.5604 -0.39561,0.7143 -1.03297,1.2308 -0.63736,0.5165 -1.46154,0.8132 -0.82417,0.2857 -1.73626,0.2857 -1.3077,0 -2.27473,-0.4945 -0.96703,-0.4945 -1.61538,-1.3187 -0.63737,-0.8242 -0.96704,-1.8901 -0.31868,-1.0769 -0.31868,-2.2308 v -0.4615 q 0,-1.1539 0.31868,-2.2198 0.32967,-1.0769 0.96704,-1.9011 0.64835,-0.8242 1.61538,-1.3187 0.96703,-0.4945 2.26374,-0.4945 0.98901,0 1.82417,0.3187 0.84616,0.3077 1.46154,0.8791 0.62638,0.5604 0.98901,1.3407 0.36264,0.7692 0.4066,1.6923 h -1.26374 q -0.033,-0.6704 -0.30769,-1.2418 -0.27473,-0.5714 -0.72528,-0.989 -0.45055,-0.4176 -1.06593,-0.6483 -0.6044,-0.2308 -1.31868,-0.2308 -1.03297,0 -1.76923,0.4176 -0.72528,0.4176 -1.18682,1.0989 -0.46154,0.6813 -0.68132,1.5494 -0.20879,0.8572 -0.20879,1.7473 v 0.4615 q 0,0.9011 0.20879,1.7692 0.21978,0.8682 0.68132,1.5495 0.46154,0.6703 1.18682,1.0879 0.73626,0.4176 1.78022,0.4176 z" />
      <path
         id="path1617"
         style="fill:#800080;fill-opacity:1;stroke-width:1"
         d="m 493.48901,1191.5604 q 0.011,-0.6923 0.0989,-1.1978 0.0989,-0.5164 0.2967,-0.945 0.1978,-0.4286 0.52747,-0.8132 0.34066,-0.3956 0.83517,-0.8462 0.42857,-0.4066 0.82417,-0.8241 0.4066,-0.4286 0.72528,-0.8901 0.31868,-0.4726 0.50549,-1 0.18682,-0.5275 0.18682,-1.1539 0,-0.6703 -0.2088,-1.2198 -0.20879,-0.5494 -0.60439,-0.9231 -0.38462,-0.3846 -0.94506,-0.5934 -0.56044,-0.2087 -1.26373,-0.2087 -0.64836,0 -1.21978,0.1868 -0.56044,0.1868 -0.98902,0.5384 -0.42857,0.3517 -0.6923,0.8791 -0.25275,0.5165 -0.27473,1.1869 h -1.31868 q 0.033,-0.9011 0.38462,-1.6264 0.35164,-0.7363 0.94505,-1.2528 0.6044,-0.5164 1.40659,-0.7912 0.81319,-0.2857 1.75825,-0.2857 1,0 1.8022,0.2967 0.80219,0.2857 1.36263,0.8242 0.56044,0.5385 0.86813,1.2967 0.3077,0.7473 0.3077,1.6813 0,0.7583 -0.24176,1.4286 -0.23077,0.6593 -0.61539,1.2527 -0.38461,0.5825 -0.89011,1.0989 -0.50549,0.5055 -1.03296,0.9561 -0.36264,0.3297 -0.59341,0.6483 -0.23077,0.3187 -0.37363,0.6814 -0.14285,0.3516 -0.1978,0.7472 -0.0549,0.3956 -0.0549,0.8681 z m -0.25274,3.6484 q 0,-0.3846 0.25274,-0.6484 0.25275,-0.2747 0.68132,-0.2747 0.42857,0 0.69231,0.2747 0.26374,0.2638 0.26374,0.6484 0,0.3736 -0.26374,0.6264 -0.26374,0.2527 -0.69231,0.2527 -0.42857,0 -0.68132,-0.2527 -0.25274,-0.2528 -0.25274,-0.6264 z" />
      <path
         id="path1619"
         style="fill:#800080;fill-opacity:1;stroke-width:1"
         d="m 525.56597,1194.8901 h 1.18682 l -0.0989,4.989 h -1.18681 V 1196 h -8.57143 v 3.8791 h -1.14286 l -0.14285,-4.989 h 0.68131 q 0.61539,-0.4066 1.03297,-1.2637 0.41758,-0.8572 0.68132,-2.055 0.27473,-1.2088 0.41758,-2.6813 0.14286,-1.4835 0.19781,-3.1319 L 518.89564,1180 h 6.67033 z m -5.62637,-9.1319 q -0.044,1.1209 -0.15385,2.4066 -0.0989,1.2748 -0.31868,2.5165 -0.20879,1.2418 -0.54945,2.3517 -0.34066,1.0989 -0.86813,1.8571 h 6.21978 v -13.7692 h -4.14286 z" />
      <path
         id="path1621"
         style="fill:#800080;fill-opacity:1;stroke-width:1"
         d="m 538.3352,1196 q -0.12088,-0.3626 -0.18681,-0.8022 -0.0659,-0.4505 -0.0879,-0.9121 -0.34066,0.4176 -0.79121,0.7692 -0.45055,0.3517 -0.98901,0.6154 -0.52747,0.2528 -1.14286,0.3956 -0.61538,0.1539 -1.28571,0.1539 -0.83517,0 -1.56044,-0.2418 -0.71429,-0.2417 -1.25275,-0.6813 -0.52747,-0.4396 -0.83517,-1.0549 -0.2967,-0.6264 -0.2967,-1.3956 0,-1.022 0.45055,-1.7363 0.45055,-0.7143 1.21978,-1.1539 0.76923,-0.4505 1.78022,-0.6593 1.01099,-0.2088 2.12088,-0.2088 h 2.57143 v -1.3516 q -0.011,-0.6704 -0.26374,-1.1759 -0.25274,-0.5164 -0.6923,-0.8571 -0.42858,-0.3517 -1.03297,-0.5275 -0.59341,-0.1758 -1.29671,-0.1758 -0.63736,0 -1.21978,0.1648 -0.57142,0.1649 -1.02197,0.4726 -0.43956,0.3077 -0.71429,0.7582 -0.27473,0.4396 -0.2967,1 l -1.31869,-0.011 q 0.033,-0.7582 0.39561,-1.3956 0.37363,-0.6374 1,-1.0989 0.62637,-0.4725 1.45055,-0.7363 0.83516,-0.2637 1.78022,-0.2637 0.94505,0 1.76923,0.2418 0.83517,0.2417 1.43956,0.7252 0.61539,0.4836 0.96703,1.2088 0.36264,0.7253 0.37363,1.6923 v 5.7583 q 0,0.5934 0.0989,1.1978 0.10989,0.6044 0.26374,1.1538 l 0.011,0.1319 z m -4.34066,-0.9451 q 0.69231,0.011 1.31869,-0.1648 0.63736,-0.1758 1.16483,-0.4835 0.52747,-0.3187 0.93407,-0.7473 0.40659,-0.4395 0.63736,-0.956 v -2.6044 h -2.39561 q -0.86813,0 -1.67033,0.1319 -0.80219,0.1318 -1.41758,0.4395 -0.61538,0.2967 -0.98901,0.8022 -0.36264,0.5055 -0.36264,1.2638 0,0.5384 0.21978,0.967 0.21978,0.4286 0.59341,0.7363 0.37363,0.2967 0.87912,0.4615 0.5055,0.1538 1.08791,0.1538 z" />
      <path
         id="path1623"
         style="fill:#800080;fill-opacity:1;stroke-width:1"
         d="m 548.1374,1195.6154 q 0,0.4835 -0.10989,0.967 -0.0989,0.4835 -0.2967,0.9561 -0.18681,0.4725 -0.47253,0.9011 -0.28571,0.4395 -0.65934,0.8022 l -0.83516,-0.5275 q 0.96703,-1.3736 0.96703,-3.0659 v -1.7143 h 1.40659 z" />
      <path
         id="path1625"
         style="fill:#800080;fill-opacity:1;stroke-width:1"
         d="m 579.95059,1196 h -1.32967 v -5.4506 h -6.71429 V 1196 h -1.30769 v -11.8901 h 1.30769 v 5.3297 h 6.71429 v -5.3297 h 1.32967 z" />
      <path
         id="path1627"
         style="fill:#800080;fill-opacity:1;stroke-width:1"
         d="m 583.45609,1189.8791 q 0.011,-1.2088 0.37362,-2.2967 0.36264,-1.0879 1.03297,-1.9011 0.68132,-0.8242 1.65934,-1.3077 0.98901,-0.4835 2.23077,-0.4835 1.25275,0 2.23077,0.4835 0.98901,0.4835 1.67033,1.3077 0.68132,0.8132 1.04396,1.9011 0.36263,1.0879 0.37362,2.2967 v 0.3627 q -0.011,1.2087 -0.37362,2.2967 -0.35165,1.0879 -1.03297,1.912 -0.68132,0.8132 -1.65934,1.2968 -0.97802,0.4725 -2.23077,0.4725 -1.25275,0 -2.24176,-0.4725 -0.97802,-0.4836 -1.65934,-1.2968 -0.68132,-0.8241 -1.04396,-1.912 -0.36263,-1.088 -0.37362,-2.2967 z m 1.31868,0.3627 q 0,0.945 0.26373,1.8241 0.26374,0.8792 0.76924,1.5605 0.50549,0.6703 1.24175,1.0769 0.74726,0.4066 1.72528,0.4066 0.96703,0 1.7033,-0.4066 0.74725,-0.4066 1.24175,-1.0769 0.5055,-0.6813 0.76924,-1.5605 0.26373,-0.8791 0.26373,-1.8241 v -0.3627 q 0,-0.934 -0.26373,-1.8132 -0.26374,-0.8791 -0.76924,-1.5494 -0.50549,-0.6813 -1.25274,-1.0879 -0.74726,-0.4176 -1.71429,-0.4176 -0.96703,0 -1.71429,0.4176 -0.73626,0.4066 -1.24175,1.0879 -0.49451,0.6703 -0.75825,1.5494 -0.26373,0.8792 -0.26373,1.8132 z" />
      <path
         id="path1629"
         style="fill:#800080;fill-opacity:1;stroke-width:1"
         d="m 610.4451,1189.8791 q 0.011,-1.1209 0.31868,-2.1428 0.31868,-1.033 0.91209,-1.8352 0.6044,-0.8022 1.46154,-1.3187 0.85714,-0.5275 1.95604,-0.6483 v -4.8132 h 1.31868 v 4.8132 q 1.09891,0.1318 1.95605,0.6593 0.85714,0.5165 1.45055,1.3187 0.60439,0.7912 0.91209,1.8132 0.31868,1.022 0.32967,2.1538 v 0.3627 q -0.011,1.1318 -0.32967,2.1538 -0.3077,1.022 -0.9011,1.8242 -0.59341,0.8022 -1.46154,1.3187 -0.85714,0.5164 -1.95605,0.6373 v 4.3956 h -1.31868 v -4.3956 q -1.0989,-0.1318 -1.95604,-0.6483 -0.85714,-0.5165 -1.46154,-1.3187 -0.59341,-0.8022 -0.91209,-1.8132 -0.30769,-1.022 -0.31868,-2.1538 z m 1.31868,0.3627 q 0,0.8681 0.21978,1.6813 0.21978,0.8022 0.63736,1.4615 0.41759,0.6484 1.03297,1.0989 0.62638,0.4396 1.43956,0.5714 v -9.989 q -0.81318,0.1319 -1.43956,0.5824 -0.61538,0.4506 -1.03297,1.1099 -0.41758,0.6484 -0.63736,1.4616 -0.21978,0.8022 -0.21978,1.6593 z m 7.97803,-0.3627 q 0,-0.8461 -0.21978,-1.6483 -0.21978,-0.8132 -0.64836,-1.4616 -0.41758,-0.6483 -1.04395,-1.0989 -0.61539,-0.4505 -1.41759,-0.5934 v 9.989 q 0.81319,-0.1318 1.42858,-0.5824 0.62637,-0.4505 1.04395,-1.0989 0.41759,-0.6593 0.63737,-1.4725 0.21978,-0.8132 0.21978,-1.6703 z" />
      <path
         id="path1631"
         style="fill:#800080;fill-opacity:1;stroke-width:1"
         d="m 632.79675,1196 q -0.12088,-0.3626 -0.18681,-0.8022 -0.0659,-0.4505 -0.0879,-0.9121 -0.34066,0.4176 -0.79121,0.7692 -0.45055,0.3517 -0.98901,0.6154 -0.52748,0.2528 -1.14286,0.3956 -0.61539,0.1539 -1.28572,0.1539 -0.83516,0 -1.56044,-0.2418 -0.71428,-0.2417 -1.25274,-0.6813 -0.52748,-0.4396 -0.83517,-1.0549 -0.2967,-0.6264 -0.2967,-1.3956 0,-1.022 0.45055,-1.7363 0.45055,-0.7143 1.21978,-1.1539 0.76923,-0.4505 1.78022,-0.6593 1.01099,-0.2088 2.12088,-0.2088 h 2.57143 v -1.3516 q -0.011,-0.6704 -0.26374,-1.1759 -0.25275,-0.5164 -0.69231,-0.8571 -0.42857,-0.3517 -1.03296,-0.5275 -0.59341,-0.1758 -1.29671,-0.1758 -0.63736,0 -1.21978,0.1648 -0.57143,0.1649 -1.02198,0.4726 -0.43956,0.3077 -0.71428,0.7582 -0.27473,0.4396 -0.29671,1 l -1.31868,-0.011 q 0.033,-0.7582 0.39561,-1.3956 0.37362,-0.6374 1,-1.0989 0.62637,-0.4725 1.45055,-0.7363 0.83516,-0.2637 1.78022,-0.2637 0.94505,0 1.76923,0.2418 0.83516,0.2417 1.43956,0.7252 0.61538,0.4836 0.96703,1.2088 0.36264,0.7253 0.37363,1.6923 v 5.7583 q 0,0.5934 0.0989,1.1978 0.10989,0.6044 0.26374,1.1538 l 0.011,0.1319 z m -4.34066,-0.9451 q 0.69231,0.011 1.31868,-0.1648 0.63737,-0.1758 1.16484,-0.4835 0.52747,-0.3187 0.93406,-0.7473 0.4066,-0.4395 0.63737,-0.956 v -2.6044 h -2.39561 q -0.86813,0 -1.67033,0.1319 -0.8022,0.1318 -1.41758,0.4395 -0.61539,0.2967 -0.98901,0.8022 -0.36264,0.5055 -0.36264,1.2638 0,0.5384 0.21978,0.967 0.21978,0.4286 0.59341,0.7363 0.37362,0.2967 0.87912,0.4615 0.50549,0.1538 1.08791,0.1538 z" />
      <path
         id="path1633"
         style="fill:#800080;fill-opacity:1;stroke-width:1"
         d="M 647.32423,1184.1099 V 1196 h -1.32967 v -10.7582 h -5.1099 l -0.0879,4.1208 q -0.011,0.8132 -0.0659,1.6264 -0.0549,0.8022 -0.1978,1.5385 -0.14286,0.7362 -0.39561,1.3736 -0.24176,0.6264 -0.63736,1.0989 -0.39561,0.4615 -0.96704,0.7363 -0.56043,0.2637 -1.34065,0.2637 h -0.48352 l 0.022,-1.1758 0.41758,-0.011 q 0.53846,0 0.91209,-0.2308 0.38461,-0.2417 0.63736,-0.6373 0.25275,-0.3957 0.3956,-0.9231 0.15385,-0.5275 0.23077,-1.1319 0.0879,-0.6044 0.10989,-1.2527 0.033,-0.6484 0.044,-1.2748 l 0.12088,-5.2527 z" />
      <path
         id="path1635"
         style="fill:#800080;fill-opacity:1;stroke-width:1"
         d="m 652.87368,1188.6264 h 3.85714 q 0.95604,0.011 1.76923,0.2637 0.82418,0.2418 1.42857,0.7143 0.6044,0.4615 0.94506,1.1429 0.35165,0.6813 0.35165,1.5494 0,0.8791 -0.35165,1.5604 -0.34066,0.6814 -0.94506,1.1649 -0.5934,0.4725 -1.41758,0.7253 -0.82418,0.2527 -1.78022,0.2527 h -5.17583 v -11.8901 h 1.31869 z m 0,1.1209 v 5.1428 h 3.85714 q 0.67033,-0.011 1.25275,-0.1758 0.58242,-0.1758 1.01099,-0.5055 0.42857,-0.3297 0.67033,-0.8022 0.24175,-0.4725 0.24175,-1.0879 0,-0.6044 -0.25274,-1.0769 -0.24176,-0.4726 -0.67033,-0.8022 -0.42857,-0.3297 -1.01099,-0.5055 -0.57143,-0.1868 -1.24176,-0.1868 z" />
      <path
         id="path1637"
         style="fill:#800080;fill-opacity:1;stroke-width:1"
         d="m 665.7858,1184.1099 v 10.7802 h 3.31868 v -10.7802 h 1.2967 v 10.7802 h 3.28572 v -10.7802 h 1.28571 V 1196 h -10.47253 v -11.8901 z" />
      <path
         id="path1639"
         style="fill:#800080;fill-opacity:1;stroke-width:1"
         d="m 679.56602,1188.6264 h 1.95604 q 0.86813,0.011 1.53846,0.2967 0.68132,0.2857 1.14286,0.7802 0.46154,0.4945 0.69231,1.1648 0.24176,0.6594 0.24176,1.4286 0,0.7582 -0.24176,1.4286 -0.23077,0.6703 -0.69231,1.1758 -0.46154,0.5055 -1.14286,0.8022 -0.67033,0.2857 -1.53846,0.2967 h -3.24176 v -11.8901 h 1.28572 z m 0,1.1209 v 5.1428 h 1.94505 q 0.59341,-0.011 1.02198,-0.2198 0.43956,-0.2088 0.71429,-0.5604 0.28571,-0.3517 0.41758,-0.8132 0.14286,-0.4615 0.14286,-0.978 0,-0.4945 -0.14286,-0.9561 -0.13187,-0.4615 -0.41758,-0.8132 -0.28572,-0.3626 -0.71429,-0.5714 -0.42857,-0.2198 -1.02198,-0.2307 z m 8.63736,6.2527 h -1.28571 v -11.8901 h 1.28571 z" />
      <path
         id="path1641"
         style="fill:#800080;fill-opacity:1;stroke-width:1"
         d="m 692.00558,1196 v -11.8901 h 4.4945 q 0.92308,0.011 1.74726,0.1758 0.83516,0.1648 1.46154,0.5385 0.62637,0.3736 0.98901,0.978 0.36264,0.6044 0.36264,1.4835 -0.011,1.033 -0.58242,1.6594 -0.56044,0.6263 -1.53846,0.934 0.5934,0.099 1.06593,0.3517 0.47253,0.2527 0.81319,0.6154 0.34066,0.3626 0.52747,0.8351 0.18681,0.4725 0.18681,1.022 0,0.8681 -0.32967,1.4945 -0.32967,0.6154 -0.91209,1.022 -0.57142,0.3956 -1.36263,0.5934 -0.78022,0.1868 -1.67033,0.1868 z m 1.31868,-5.4725 v 4.3736 h 3.93407 q 0.61538,0 1.15384,-0.1209 0.53846,-0.1318 0.93407,-0.3956 0.40659,-0.2747 0.63736,-0.6923 0.23077,-0.4176 0.23077,-1.011 0,-0.5714 -0.24176,-0.978 -0.24176,-0.4066 -0.64835,-0.6593 -0.3956,-0.2638 -0.93406,-0.3847 -0.53847,-0.1318 -1.13187,-0.1318 z m 0,-1.0989 h 3.2967 q 0.64836,0 1.2088,-0.1099 0.57142,-0.1099 0.98901,-0.3517 0.42857,-0.2527 0.67033,-0.6483 0.25274,-0.4066 0.25274,-1 0,-0.6154 -0.26373,-1.022 -0.26374,-0.4066 -0.71429,-0.6374 -0.43956,-0.2417 -1.03297,-0.3296 -0.58241,-0.099 -1.23077,-0.099 h -3.17582 z" />
      <path
         id="path1643"
         style="fill:#800080;fill-opacity:1;stroke-width:1"
         d="m 706.55503,1188.6264 h 1.95604 q 0.86814,0.011 1.53847,0.2967 0.68132,0.2857 1.14285,0.7802 0.46154,0.4945 0.69231,1.1648 0.24176,0.6594 0.24176,1.4286 0,0.7582 -0.24176,1.4286 -0.23077,0.6703 -0.69231,1.1758 -0.46153,0.5055 -1.14285,0.8022 -0.67033,0.2857 -1.53847,0.2967 h -3.24175 v -11.8901 h 1.28571 z m 0,1.1209 v 5.1428 h 1.94506 q 0.5934,-0.011 1.02197,-0.2198 0.43956,-0.2088 0.71429,-0.5604 0.28571,-0.3517 0.41758,-0.8132 0.14286,-0.4615 0.14286,-0.978 0,-0.4945 -0.14286,-0.9561 -0.13187,-0.4615 -0.41758,-0.8132 -0.28571,-0.3626 -0.71429,-0.5714 -0.42857,-0.2198 -1.02197,-0.2307 z M 715.1924,1196 h -1.28572 v -11.8901 h 1.28572 z" />
      <path
         id="path1645"
         style="fill:#800080;fill-opacity:1;stroke-width:1"
         d="m 727.06053,1184.1099 h 1.32967 V 1196 h -1.32967 v -9.8242 L 720.34624,1196 h -1.30769 v -11.8901 h 1.30769 v 9.8352 z m -0.1978,-4.5275 q -0.022,0.6484 -0.26374,1.1758 -0.23077,0.5165 -0.64835,0.8901 -0.41758,0.3627 -0.98901,0.5605 -0.57143,0.1978 -1.26374,0.1978 -0.69231,0 -1.27473,-0.1978 -0.57142,-0.1978 -1,-0.5605 -0.41758,-0.3736 -0.65934,-0.8901 -0.23077,-0.5274 -0.25274,-1.1758 h 1.12088 q 0.033,0.8791 0.56043,1.3846 0.53847,0.4945 1.5055,0.4945 0.93407,0 1.46154,-0.5055 0.53846,-0.5055 0.58242,-1.3736 z" />
      <path
         id="path1647"
         style="fill:#800080;fill-opacity:1;stroke-width:1"
         d="m 750.2913,1185.011 q -0.65934,0 -1.28572,0.1868 -0.61538,0.1868 -1.0989,0.5494 -0.48351,0.3627 -0.79121,0.8902 -0.2967,0.5164 -0.30769,1.1868 h -1.28571 q 0.033,-0.8682 0.43956,-1.5824 0.40659,-0.7253 1.05494,-1.2418 0.65934,-0.5275 1.5055,-0.8132 0.84615,-0.2967 1.76923,-0.2967 1.34066,0 2.36264,0.4835 1.02198,0.4726 1.71428,1.2967 0.7033,0.8132 1.05495,1.8901 0.36264,1.077 0.36264,2.2638 v 0.4615 q 0,1.1978 -0.36264,2.2747 -0.35165,1.077 -1.04396,1.8901 -0.69231,0.8132 -1.72527,1.2968 -1.02198,0.4725 -2.35165,0.4725 -1.01099,0 -1.87912,-0.3077 -0.85715,-0.3077 -1.49451,-0.8572 -0.63736,-0.5604 -1.01099,-1.3406 -0.36264,-0.7802 -0.3956,-1.7363 h 1.28571 q 0.011,0.7143 0.28572,1.2967 0.27472,0.5715 0.74725,0.978 0.47253,0.4066 1.0989,0.6374 0.63736,0.2198 1.36264,0.2198 1.03297,0 1.8022,-0.3736 0.76923,-0.3847 1.27472,-1.011 0.51649,-0.6374 0.78022,-1.4616 0.26374,-0.8241 0.30769,-1.7143 h -5.79121 v -1.1098 h 5.79121 q -0.0549,-0.8792 -0.32967,-1.6814 -0.27472,-0.8022 -0.79121,-1.4066 -0.51648,-0.6153 -1.27472,-0.978 -0.75824,-0.3626 -1.78022,-0.3626 z" />
      <path
         id="path1649"
         style="fill:#800080;fill-opacity:1;stroke-width:1"
         d="m 763.18141,1190.5494 h -2.15385 V 1196 h -1.32967 v -11.8901 h 1.32967 v 5.2747 h 2.13187 l 4.76923,-5.2747 h 1.68132 l -5.27472,5.7692 5.84615,6.1209 h -1.75824 z" />
      <path
         id="path1651"
         style="fill:#800080;fill-opacity:1;stroke-width:1"
         d="m 777.92866,1189.3626 q 0.64836,0 1.27473,-0.088 0.63736,-0.099 1.13187,-0.3406 0.4945,-0.2418 0.8022,-0.6484 0.30769,-0.4066 0.30769,-1.033 0,-0.6044 -0.30769,-1.0329 -0.3077,-0.4286 -0.81319,-0.6923 -0.5055,-0.2748 -1.15385,-0.3956 -0.63736,-0.1209 -1.2967,-0.1209 -0.61539,0 -1.26374,0.1428 -0.63736,0.1319 -1.17582,0.4176 -0.53846,0.2857 -0.89011,0.7253 -0.34066,0.4286 -0.35165,1.022 h -1.34066 q 0.055,-0.8682 0.50549,-1.5055 0.45055,-0.6484 1.15385,-1.066 0.7033,-0.4285 1.57143,-0.6373 0.87912,-0.2088 1.79121,-0.2088 0.92308,0 1.8022,0.1758 0.89011,0.1758 1.57143,0.5824 0.6923,0.4066 1.0989,1.055 0.41758,0.6373 0.41758,1.5604 0,0.5055 -0.1978,0.9231 -0.18681,0.4066 -0.51649,0.7363 -0.31868,0.3186 -0.75824,0.5604 -0.43956,0.2418 -0.94505,0.4066 0.57143,0.1429 1.05494,0.3736 0.48352,0.2308 0.83517,0.5824 0.36264,0.3407 0.56044,0.8132 0.20879,0.4616 0.20879,1.066 0,0.6263 -0.20879,1.1208 -0.20879,0.4945 -0.57143,0.8792 -0.36264,0.3846 -0.85714,0.6703 -0.48352,0.2747 -1.05495,0.4615 -0.57143,0.1759 -1.1978,0.2528 -0.61539,0.088 -1.23077,0.088 -0.6044,0 -1.21978,-0.088 -0.61539,-0.088 -1.18682,-0.2638 -0.56044,-0.1868 -1.06593,-0.4725 -0.50549,-0.2967 -0.89011,-0.6923 -0.37363,-0.4066 -0.61538,-0.9231 -0.23077,-0.5274 -0.26374,-1.1758 h 1.34066 q 0,0.6374 0.36264,1.1099 0.36263,0.4725 0.92307,0.7912 0.56044,0.3077 1.25275,0.4615 0.69231,0.1539 1.36264,0.1539 0.67033,0 1.34066,-0.1209 0.68132,-0.1319 1.21978,-0.4066 0.54945,-0.2857 0.89011,-0.7253 0.34066,-0.4505 0.34066,-1.0989 0,-0.7033 -0.34066,-1.1428 -0.32967,-0.4396 -0.86813,-0.6813 -0.53847,-0.2528 -1.20879,-0.3407 -0.65935,-0.088 -1.32968,-0.088 h -2.26373 v -1.1429 z" />
      <path
         id="path1653"
         style="fill:#800080;fill-opacity:1;stroke-width:1"
         d="m 790.77482,1185.011 q -0.65934,0 -1.28572,0.1868 -0.61538,0.1868 -1.0989,0.5494 -0.48351,0.3627 -0.79121,0.8902 -0.2967,0.5164 -0.30769,1.1868 h -1.28571 q 0.033,-0.8682 0.43956,-1.5824 0.40659,-0.7253 1.05494,-1.2418 0.65934,-0.5275 1.5055,-0.8132 0.84615,-0.2967 1.76923,-0.2967 1.34066,0 2.36264,0.4835 1.02198,0.4726 1.71428,1.2967 0.7033,0.8132 1.05495,1.8901 0.36264,1.077 0.36264,2.2638 v 0.4615 q 0,1.1978 -0.36264,2.2747 -0.35165,1.077 -1.04396,1.8901 -0.69231,0.8132 -1.72527,1.2968 -1.02198,0.4725 -2.35165,0.4725 -1.01099,0 -1.87912,-0.3077 -0.85715,-0.3077 -1.49451,-0.8572 -0.63736,-0.5604 -1.01099,-1.3406 -0.36264,-0.7802 -0.3956,-1.7363 h 1.28571 q 0.011,0.7143 0.28572,1.2967 0.27472,0.5715 0.74725,0.978 0.47253,0.4066 1.0989,0.6374 0.63736,0.2198 1.36264,0.2198 1.03297,0 1.8022,-0.3736 0.76923,-0.3847 1.27472,-1.011 0.51649,-0.6374 0.78022,-1.4616 0.26374,-0.8241 0.30769,-1.7143 h -5.79121 v -1.1098 h 5.79121 q -0.0549,-0.8792 -0.32967,-1.6814 -0.27472,-0.8022 -0.7912,-1.4066 -0.51649,-0.6153 -1.27473,-0.978 -0.75824,-0.3626 -1.78022,-0.3626 z" />
      <path
         id="path1655"
         style="fill:#800080;fill-opacity:1;stroke-width:1"
         d="m 804.55504,1194.2198 3.32967,-10.1099 h 1.58242 V 1196 h -1.2967 v -9.044 l -3.15385,9.044 h -0.92308 l -3.23077,-9.3187 V 1196 h -1.28571 v -11.8901 h 1.65934 z" />
      <path
         id="path1657"
         style="fill:#800080;fill-opacity:1;stroke-width:1"
         d="m 822.85175,1196 h -1.32967 v -10.7582 h -6.7033 V 1196 h -1.31868 v -11.8901 h 9.35165 z" />
      <path
         id="path1659"
         style="fill:#800080;fill-opacity:1;stroke-width:1"
         d="M 836.24735,1184.1099 V 1196 h -1.32967 v -10.7582 h -5.10989 l -0.0879,4.1208 q -0.011,0.8132 -0.0659,1.6264 -0.0549,0.8022 -0.1978,1.5385 -0.14286,0.7362 -0.3956,1.3736 -0.24176,0.6264 -0.63737,1.0989 -0.3956,0.4615 -0.96703,0.7363 Q 826.8957,1196 826.11548,1196 h -0.48352 l 0.022,-1.1758 0.41759,-0.011 q 0.53846,0 0.91208,-0.2308 0.38462,-0.2417 0.63737,-0.6373 0.25274,-0.3957 0.3956,-0.9231 0.15385,-0.5275 0.23077,-1.1319 0.0879,-0.6044 0.10989,-1.2527 0.033,-0.6484 0.044,-1.2748 l 0.12088,-5.2527 z" />
      <path
         id="path1661"
         style="fill:#800080;fill-opacity:1;stroke-width:1"
         d="M 849.47812,1184.1099 V 1196 h -1.31868 v -4.7912 h -4.16484 l -3,4.7912 h -1.46153 l 3.0989,-4.956 q -0.61539,-0.1649 -1.10989,-0.4726 -0.48352,-0.3077 -0.83517,-0.7362 -0.35165,-0.4396 -0.53846,-0.9781 -0.18681,-0.5494 -0.18681,-1.1978 0,-0.8351 0.34066,-1.4945 0.34066,-0.6593 0.93406,-1.1099 0.59341,-0.4505 1.39561,-0.6923 0.8022,-0.2417 1.72527,-0.2527 z m -8.1978,3.5714 q 0,0.5385 0.18681,0.978 0.1978,0.4396 0.54945,0.7583 0.36264,0.3077 0.85715,0.4835 0.4945,0.1758 1.10989,0.1868 h 4.17582 v -4.8571 h -3.8022 q -0.64835,0 -1.21978,0.1758 -0.56044,0.1648 -0.97802,0.4835 -0.40659,0.3077 -0.64835,0.7692 -0.23077,0.4506 -0.23077,1.022 z" />
      <path
         id="path1663"
         style="fill:#800080;fill-opacity:1;stroke-width:1"
         d="m 863.64296,1190.1758 q 0,1.1539 -0.28571,2.2528 -0.27473,1.0879 -0.85715,1.934 -0.57143,0.8352 -1.45055,1.3517 -0.87912,0.5055 -2.08791,0.5055 -1.10989,0 -2.03297,-0.4286 -0.92308,-0.4286 -1.54945,-1.2417 v 6.0219 h -1.31868 v -16.4615 h 1.23077 l 0.0549,1.6264 q 0.62638,-0.8792 1.53847,-1.3627 0.91208,-0.4835 2.05494,-0.4835 1.21978,0 2.10989,0.5055 0.89011,0.4945 1.46154,1.3407 0.57143,0.8351 0.84616,1.934 0.28571,1.0879 0.28571,2.2748 z m -1.31868,-0.2307 q 0,-0.8902 -0.1978,-1.7693 -0.19781,-0.8791 -0.63737,-1.5714 -0.43956,-0.7033 -1.14285,-1.1319 -0.69231,-0.4395 -1.7033,-0.4395 -0.57143,0 -1.07693,0.1648 -0.4945,0.1538 -0.91208,0.4505 -0.4066,0.2858 -0.73627,0.6924 -0.31868,0.3956 -0.53846,0.8791 v 5.8901 q 0.46154,0.9231 1.31868,1.4615 0.85715,0.5385 1.96704,0.5385 1,0 1.6923,-0.4396 0.7033,-0.4395 1.13187,-1.1318 0.43956,-0.7033 0.63737,-1.5825 0.1978,-0.8901 0.1978,-1.7802 z" />
      <path
         id="path1665"
         style="fill:#800080;fill-opacity:1;stroke-width:1"
         d="m 872.58801,1191.2198 h -1.31868 V 1180 h 1.31868 z m -1.53846,3.989 q 0,-0.3846 0.25275,-0.6484 0.25275,-0.2747 0.68132,-0.2747 0.43956,0 0.69231,0.2747 0.26373,0.2638 0.26373,0.6484 0,0.3736 -0.26373,0.6264 -0.26374,0.2527 -0.69231,0.2527 -0.42857,0 -0.68132,-0.2527 -0.25275,-0.2528 -0.25275,-0.6264 z" />
    </g>
  </g>
</svg>
