<?xml version="1.0" encoding="UTF-8" standalone="no"?>
<svg
   xmlns:dc="http://purl.org/dc/elements/1.1/"
   xmlns:cc="http://creativecommons.org/ns#"
   xmlns:rdf="http://www.w3.org/1999/02/22-rdf-syntax-ns#"
   xmlns:svg="http://www.w3.org/2000/svg"
   xmlns="http://www.w3.org/2000/svg"
   xmlns:sodipodi="http://sodipodi.sourceforge.net/DTD/sodipodi-0.dtd"
   xmlns:inkscape="http://www.inkscape.org/namespaces/inkscape"
   inkscape:export-ydpi="96"
   inkscape:export-xdpi="96"
   inkscape:export-filename="G:\Низкогория\Language.png"
   sodipodi:docname="Language.svg"
   inkscape:version="1.0beta2 (2715ced, 2020-01-03)"
   id="svg8"
   version="1.1"
   viewBox="0 0 1024 384"
   height="384"
   width="1024">
  <defs
     id="defs2" />
  <sodipodi:namedview
     inkscape:document-rotation="0"
     inkscape:guide-bbox="true"
     showguides="true"
     inkscape:snap-center="true"
     inkscape:snap-object-midpoints="true"
     inkscape:snap-page="true"
     inkscape:snap-smooth-nodes="true"
     inkscape:object-paths="true"
     inkscape:snap-bbox-midpoints="true"
     inkscape:snap-bbox-edge-midpoints="true"
     inkscape:bbox-nodes="true"
     inkscape:bbox-paths="true"
     inkscape:snap-bbox="true"
     inkscape:window-maximized="1"
     inkscape:window-y="-8"
     inkscape:window-x="-8"
     inkscape:window-height="706"
     inkscape:window-width="1366"
     units="px"
     showgrid="false"
     inkscape:current-layer="layer1"
     inkscape:document-units="px"
     inkscape:cy="355.15054"
     inkscape:cx="330.42296"
     inkscape:zoom="1"
     inkscape:pageshadow="2"
     inkscape:pageopacity="0.0"
     borderopacity="1.0"
     bordercolor="#666666"
     pagecolor="#ffffff"
     id="base">
    <inkscape:grid
       empspacing="4"
       id="grid832"
       type="xygrid" />
  </sodipodi:namedview>
  <metadata
     id="metadata5">
    <rdf:RDF>
      <cc:Work
         rdf:about="">
        <dc:format>image/svg+xml</dc:format>
        <dc:type
           rdf:resource="http://purl.org/dc/dcmitype/StillImage" />
        <dc:title />
      </cc:Work>
    </rdf:RDF>
  </metadata>
  <g
     transform="translate(0,-907.99998)"
     id="layer1"
     inkscape:groupmode="layer"
     inkscape:label="Layer 1">
    <rect
       y="908"
       x="0"
       height="384"
       width="1024"
       id="rect831"
       style="opacity:1;fill:#ffffff;fill-opacity:1;stroke:none;stroke-width:4.24264;stroke-linecap:round;stroke-linejoin:round;stroke-miterlimit:4;stroke-dasharray:none;stroke-dashoffset:0;stroke-opacity:1;paint-order:normal" />
    <rect
       style="opacity:0.125;fill:#000000;fill-opacity:0.25;stroke:none;stroke-width:4.24264;stroke-linecap:round;stroke-linejoin:round;stroke-miterlimit:4;stroke-dasharray:none;stroke-dashoffset:0;stroke-opacity:1;paint-order:normal"
       id="rect824"
       width="1024"
       height="384"
       x="0"
       y="908" />
    <text
       id="text906"
       y="836"
       x="13.939425"
       style="font-style:normal;font-variant:normal;font-weight:300;font-stretch:normal;font-size:22.5055px;line-height:1.25;font-family:'Roboto Mono';-inkscape-font-specification:'Roboto Mono weight=251';text-align:start;letter-spacing:0px;word-spacing:2.8px;text-anchor:start;fill:#000000;fill-opacity:1;stroke:none;stroke-width:0.281319;"
       xml:space="preserve"><tspan
         style="text-align:start;word-spacing:2.8px;text-anchor:start;stroke-width:0.281319;"
         y="836"
         x="13.939425"
         sodipodi:role="line"
         id="tspan904">А Б В Г Ґ Д Е Ё Ж З И Й К Л М Н О П Р С Т Ў Ф Х Ц Ч Ш Щ Ъ Ы Ь Э Ю Я</tspan></text>
    <text
       id="text910"
       y="596"
       x="354.28568"
       style="font-style:normal;font-variant:normal;font-weight:300;font-stretch:normal;font-size:45.011px;line-height:1.25;font-family:'Roboto Mono';-inkscape-font-specification:'Roboto Mono weight=251';letter-spacing:0px;word-spacing:9.0022px;fill:#000000;fill-opacity:1;stroke:none;stroke-width:0.562637"
       xml:space="preserve"><tspan
         style="stroke-width:0.562637"
         y="596"
         x="354.28568"
         id="tspan908"
         sodipodi:role="line">Здраствўйте.</tspan></text>
    <text
       xml:space="preserve"
       style="font-style:normal;font-variant:normal;font-weight:300;font-stretch:normal;font-size:45.011px;line-height:1.25;font-family:'Roboto Mono';-inkscape-font-specification:'Roboto Mono weight=251';letter-spacing:0px;word-spacing:9.0022px;fill:#000000;fill-opacity:1;stroke:none;stroke-width:0.562637"
       x="225.96475"
       y="660"
       id="text914"><tspan
         sodipodi:role="line"
         id="tspan912"
         x="225.96475"
         y="660"
         style="stroke-width:0.562637">Лепая погода севодня,</tspan></text>
    <text
       xml:space="preserve"
       style="font-style:normal;font-variant:normal;font-weight:300;font-stretch:normal;font-size:45.011px;line-height:1.25;font-family:'Roboto Mono';-inkscape-font-specification:'Roboto Mono weight=251';letter-spacing:0px;word-spacing:9.0022px;fill:#000000;fill-opacity:1;stroke:none;stroke-width:0.562637"
       x="327.73401"
       y="724"
       id="text918"><tspan
         sodipodi:role="line"
         id="tspan916"
         x="327.73401"
         y="724"
         style="stroke-width:0.562637">не правда ли?</tspan></text>
    <g
       aria-label="Здраствўйте."
       id="text32"
       style="font-style:normal;font-variant:normal;font-weight:300;font-stretch:normal;font-size:45.011px;line-height:1.25;font-family:'Roboto Mono';-inkscape-font-specification:'Roboto Mono weight=251';letter-spacing:0px;word-spacing:9.0022px;fill:#800080;fill-opacity:1;stroke:none;stroke-width:0.562637">
      <path
         inkscape:connector-curvature="0"
         d="m 367.64832,1018.5494 q 1.73626,0 3.23077,-0.3516 1.51648,-0.3736 2.63736,-1.1209 1.12088,-0.7472 1.75824,-1.9121 0.65934,-1.1868 0.65934,-2.8351 0,-1.6044 -0.65934,-2.8132 -0.63736,-1.2308 -1.75824,-2.044 -1.12088,-0.8351 -2.65934,-1.2527 -1.53846,-0.4176 -3.31868,-0.4176 -1.56044,0 -3.01099,0.4615 -1.42858,0.4396 -2.54946,1.2967 -1.0989,0.8352 -1.78022,2.066 -0.65934,1.2088 -0.70329,2.7472 h -2.63737 q 0.044,-2.0659 0.94506,-3.6923 0.9011,-1.6483 2.35165,-2.7692 1.47253,-1.1429 3.38461,-1.7363 1.91209,-0.6154 4.00001,-0.6154 2.26373,0 4.28571,0.5275 2.02198,0.5275 3.51649,1.6264 1.4945,1.0989 2.35164,2.7692 0.87913,1.6703 0.87913,3.9341 0,1.3406 -0.46154,2.4835 -0.43956,1.1209 -1.23077,2.022 -0.79121,0.9011 -1.86813,1.5824 -1.07693,0.6813 -2.35165,1.1209 1.40659,0.3956 2.5934,1.0549 1.18682,0.6374 2.02198,1.5824 0.85715,0.9451 1.31868,2.2198 0.48352,1.2528 0.48352,2.8352 0,2.2857 -0.96703,4 -0.94506,1.7143 -2.52748,2.8571 -1.58241,1.1429 -3.67033,1.7143 -2.08791,0.5714 -4.37362,0.5714 -2.10989,0 -4.08792,-0.5714 -1.97802,-0.5934 -3.53846,-1.7582 -1.53846,-1.1649 -2.50549,-2.9011 -0.94506,-1.7583 -0.98902,-4.1099 h 2.63737 q 0.0439,1.6264 0.72527,2.945 0.68132,1.3187 1.82418,2.2418 1.16483,0.9231 2.68132,1.4286 1.53846,0.5055 3.25275,0.5055 1.80219,0 3.40659,-0.4176 1.62637,-0.4396 2.83517,-1.2967 1.23077,-0.8572 1.93406,-2.1319 0.72528,-1.2747 0.72528,-2.989 0,-1.8681 -0.7033,-3.1209 -0.7033,-1.2527 -1.91209,-2.022 -1.18681,-0.7692 -2.79121,-1.0989 -1.58242,-0.3516 -3.38461,-0.3516 h -4.04396 v -2.2638 z"
         style="fill:#800080;fill-opacity:1;stroke-width:0.562637"
         id="path104" />
      <path
         inkscape:connector-curvature="0"
         d="m 385.25272,1033.7802 q 1.07692,-0.9011 1.82417,-2.1758 0.74726,-1.2967 1.23077,-2.9231 0.48352,-1.6264 0.72528,-3.6044 0.26373,-1.978 0.3956,-4.2637 l 0.39561,-8.5934 h 14.04396 v 21.5604 h 2.46154 l -0.19781,9.2088 h -2.41758 V 1036 h -17.86814 v 6.989 h -2.30769 l -0.1978,-9.2088 z m 6.81319,-12.967 q -0.13187,2.0439 -0.32967,3.9121 -0.19781,1.8681 -0.59341,3.5165 -0.37363,1.6483 -0.98901,3.0549 -0.61539,1.4066 -1.56044,2.4835 h 12.63736 v -19.0989 h -8.87912 z"
         style="fill:#800080;fill-opacity:1;stroke-width:0.562637"
         id="path106" />
      <path
         inkscape:connector-curvature="0"
         d="m 431.73625,1024.3516 q 0,2.3077 -0.57143,4.5055 -0.54945,2.1759 -1.71429,3.8682 -1.14285,1.6703 -2.9011,2.7033 -1.75824,1.011 -4.17582,1.011 -2.21978,0 -4.06594,-0.8572 -1.84615,-0.8571 -3.0989,-2.4835 v 12.044 h -2.63736 v -32.9231 h 2.46154 l 0.10989,3.2527 q 1.25274,-1.7582 3.07692,-2.7253 1.82418,-0.967 4.10989,-0.967 2.43956,0 4.21978,1.011 1.78022,0.989 2.92308,2.6813 1.14286,1.6704 1.69231,3.8682 0.57143,2.1758 0.57143,4.5494 z m -2.63737,-0.4615 q 0,-1.7802 -0.3956,-3.5385 -0.3956,-1.7582 -1.27473,-3.1428 -0.87912,-1.4066 -2.28571,-2.2638 -1.38462,-0.8791 -3.40659,-0.8791 -1.14286,0 -2.15385,0.3297 -0.98901,0.3077 -1.82418,0.9011 -0.81319,0.5714 -1.47253,1.3846 -0.63736,0.7912 -1.07692,1.7583 v 11.7802 q 0.92308,1.8461 2.63736,2.9231 1.71429,1.0769 3.93407,1.0769 2,0 3.38462,-0.8791 1.40659,-0.8792 2.26373,-2.2638 0.87913,-1.4066 1.27473,-3.1648 0.3956,-1.7802 0.3956,-3.5605 z"
         style="fill:#800080;fill-opacity:1;stroke-width:0.562637"
         id="path108" />
      <path
         inkscape:connector-curvature="0"
         d="m 455.84614,1036 q -0.24175,-0.7253 -0.37362,-1.6044 -0.13187,-0.9011 -0.17583,-1.8242 -0.68132,0.8352 -1.58242,1.5385 -0.90109,0.7033 -1.97802,1.2308 -1.05494,0.5055 -2.28571,0.7912 -1.23077,0.3077 -2.57143,0.3077 -1.67033,0 -3.12088,-0.4836 -1.42857,-0.4835 -2.5055,-1.3626 -1.05494,-0.8791 -1.67033,-2.1099 -0.5934,-1.2527 -0.5934,-2.7912 0,-2.044 0.9011,-3.4725 0.90109,-1.4286 2.43956,-2.3077 1.53846,-0.9011 3.56044,-1.3187 2.02198,-0.4176 4.24176,-0.4176 h 5.14285 v -2.7033 q -0.022,-1.3406 -0.52747,-2.3516 -0.50549,-1.033 -1.38461,-1.7143 -0.85715,-0.7033 -2.06594,-1.055 -1.18681,-0.3516 -2.59341,-0.3516 -1.27472,0 -2.43956,0.3297 -1.14285,0.3296 -2.04395,0.945 -0.87912,0.6154 -1.42858,1.5165 -0.54945,0.8791 -0.5934,2 l -2.63737,-0.022 q 0.0659,-1.5165 0.79121,-2.7912 0.74726,-1.2747 2,-2.1978 1.25275,-0.945 2.9011,-1.4725 1.67033,-0.5275 3.56044,-0.5275 1.89012,0 3.53847,0.4835 1.67033,0.4835 2.87912,1.4506 1.23077,0.967 1.93407,2.4176 0.72527,1.4505 0.74725,3.3846 v 11.5165 q 0,1.1868 0.1978,2.3956 0.21978,1.2088 0.52747,2.3077 l 0.022,0.2637 z m -8.68132,-1.8901 q 1.38462,0.022 2.63737,-0.3297 1.27472,-0.3516 2.32967,-0.967 1.05494,-0.6374 1.86813,-1.4945 0.81319,-0.8791 1.27472,-1.9121 v -5.2088 h -4.79121 q -1.73626,0 -3.34066,0.2637 -1.60439,0.2638 -2.83516,0.8792 -1.23077,0.5934 -1.97802,1.6044 -0.72528,1.0109 -0.72528,2.5274 0,1.0769 0.43956,1.9341 0.43956,0.8571 1.18682,1.4725 0.74725,0.5934 1.75824,0.9231 1.01099,0.3077 2.17582,0.3077 z"
         style="fill:#800080;fill-opacity:1;stroke-width:0.562637"
         id="path110" />
      <path
         inkscape:connector-curvature="0"
         d="m 476.13187,1034.2198 q 1.31868,0 2.50549,-0.3736 1.20879,-0.3957 2.13187,-1.1209 0.92308,-0.7253 1.49451,-1.7363 0.5934,-1.033 0.68132,-2.3297 h 2.52747 q -0.0879,1.6923 -0.87912,3.1209 -0.79121,1.4286 -2.06594,2.4616 -1.27472,1.0329 -2.92308,1.6263 -1.64835,0.5715 -3.47252,0.5715 -2.61539,0 -4.54946,-0.9891 -1.93406,-0.989 -3.23077,-2.6373 -1.27472,-1.6484 -1.93406,-3.7802 -0.63736,-2.1539 -0.63736,-4.4616 v -0.9231 q 0,-2.3076 0.63736,-4.4395 0.65934,-2.1539 1.93406,-3.8022 1.29671,-1.6484 3.23077,-2.6374 1.93407,-0.989 4.52748,-0.989 1.97802,0 3.64835,0.6374 1.69231,0.6154 2.92308,1.7582 1.25275,1.1209 1.97802,2.6813 0.72528,1.5385 0.81319,3.3847 h -2.52747 q -0.0659,-1.3407 -0.61539,-2.4836 -0.54945,-1.1428 -1.45055,-1.978 -0.9011,-0.8352 -2.13187,-1.2967 -1.20879,-0.4615 -2.63736,-0.4615 -2.06594,0 -3.53846,0.8351 -1.45055,0.8352 -2.37363,2.1978 -0.92308,1.3627 -1.36264,3.0989 -0.41758,1.7143 -0.41758,3.4945 v 0.9231 q 0,1.8022 0.41758,3.5385 0.43956,1.7363 1.36264,3.0989 0.92308,1.3406 2.37363,2.1758 1.47252,0.8352 3.56044,0.8352 z"
         style="fill:#800080;fill-opacity:1;stroke-width:0.562637"
         id="path112" />
      <path
         inkscape:connector-curvature="0"
         d="M 514.28573,1014.4615 H 504.15386 V 1036 h -2.65935 v -21.5385 h -9.78022 v -2.2417 h 22.57144 z"
         style="fill:#800080;fill-opacity:1;stroke-width:0.562637"
         id="path114" />
      <path
         inkscape:connector-curvature="0"
         d="m 520.28572,1036 v -23.7802 h 8.98902 q 1.84615,0.022 3.4945,0.3516 1.67033,0.3297 2.92308,1.0769 1.25275,0.7473 1.97802,1.9561 0.72528,1.2088 0.72528,2.967 -0.022,2.066 -1.16484,3.3187 -1.12088,1.2528 -3.07692,1.8681 1.18681,0.1978 2.13187,0.7033 0.94505,0.5055 1.62637,1.2308 0.68132,0.7253 1.05495,1.6703 0.37362,0.9451 0.37362,2.044 0,1.7363 -0.65934,2.989 -0.65934,1.2308 -1.82417,2.044 -1.14286,0.7912 -2.72528,1.1868 -1.56044,0.3736 -3.34066,0.3736 z m 2.63737,-10.9451 v 8.7473 h 7.86813 q 1.23077,0 2.30769,-0.2418 1.07693,-0.2637 1.86814,-0.7912 0.81318,-0.5494 1.27472,-1.3846 0.46154,-0.8352 0.46154,-2.022 0,-1.1428 -0.48352,-1.956 -0.48351,-0.8132 -1.2967,-1.3187 -0.79121,-0.5275 -1.86813,-0.7692 -1.07693,-0.2638 -2.26374,-0.2638 z m 0,-2.1978 h 6.5934 q 1.29671,0 2.41759,-0.2197 1.14286,-0.2198 1.97802,-0.7033 0.85714,-0.5055 1.34066,-1.2967 0.50549,-0.8132 0.50549,-2 0,-1.2308 -0.52747,-2.044 -0.52747,-0.8132 -1.42857,-1.2747 -0.87912,-0.4835 -2.06593,-0.6594 -1.16484,-0.1978 -2.46154,-0.1978 h -6.35165 z"
         style="fill:#800080;fill-opacity:1;stroke-width:0.562637"
         id="path116" />
      <path
         inkscape:connector-curvature="0"
         d="m 556.39563,1031.1648 0.48352,1.2967 8.59341,-20.2417 h 2.98901 l -12.28572,27.5824 q -0.48351,1.0769 -1.14285,2.1099 -0.65935,1.033 -1.56044,1.8461 -0.9011,0.8352 -2.08792,1.3407 -1.16483,0.5055 -2.68132,0.5055 -0.52747,0 -1.16483,-0.1099 -0.63736,-0.088 -1.07693,-0.1978 l 0.3077,-2.1978 q 0.37362,0.044 0.92307,0.088 0.57143,0.066 0.94506,0.066 1.01099,0 1.84615,-0.3956 0.83517,-0.3956 1.47253,-1.0329 0.65934,-0.6154 1.14286,-1.4066 0.50549,-0.7692 0.83516,-1.5165 l 1.62638,-3.5165 -10.68132,-23.1648 h 2.96703 z m 7.01099,-28.2857 q -0.0439,1.2967 -0.52747,2.3517 -0.46154,1.0329 -1.2967,1.7802 -0.83517,0.7253 -1.97802,1.1209 -1.14286,0.3956 -2.52748,0.3956 -1.38461,0 -2.54945,-0.3956 -1.14286,-0.3956 -2,-1.1209 -0.83516,-0.7473 -1.31868,-1.7802 -0.46154,-1.055 -0.5055,-2.3517 h 2.24176 q 0.0659,1.7583 1.12088,2.7692 1.07693,0.9891 3.01099,0.9891 1.86813,0 2.92308,-1.011 1.07692,-1.011 1.16484,-2.7473 z"
         style="fill:#800080;fill-opacity:1;stroke-width:0.562637"
         id="path118" />
      <path
         inkscape:connector-curvature="0"
         d="m 590.39564,1012.2198 h 2.65934 V 1036 h -2.65934 v -19.6484 L 576.96706,1036 h -2.61538 v -23.7802 h 2.61538 v 19.6703 z m -0.39561,-9.055 q -0.0439,1.2967 -0.52747,2.3517 -0.46154,1.0329 -1.2967,1.7802 -0.83517,0.7253 -1.97803,1.1209 -1.14285,0.3956 -2.52747,0.3956 -1.38461,0 -2.54945,-0.3956 -1.14286,-0.3956 -2,-1.1209 -0.83517,-0.7473 -1.31868,-1.7802 -0.46154,-1.055 -0.5055,-2.3517 h 2.24176 q 0.0659,1.7583 1.12088,2.7693 1.07692,0.989 3.01099,0.989 1.86813,0 2.92308,-1.011 1.07692,-1.011 1.16483,-2.7473 z"
         style="fill:#800080;fill-opacity:1;stroke-width:0.562637"
         id="path120" />
      <path
         inkscape:connector-curvature="0"
         d="M 622.2418,1014.4615 H 612.10992 V 1036 h -2.65934 v -21.5385 h -9.78022 v -2.2417 h 22.57144 z"
         style="fill:#800080;fill-opacity:1;stroke-width:0.562637"
         id="path122" />
      <path
         inkscape:connector-curvature="0"
         d="m 638.57148,1036.4396 q -2.48352,0 -4.52747,-0.9231 -2.04396,-0.9231 -3.51649,-2.5055 -1.45055,-1.5824 -2.26373,-3.6923 -0.79121,-2.1319 -0.81319,-4.5275 v -0.945 q 0.022,-2.5495 0.83516,-4.7473 0.83517,-2.1978 2.26374,-3.8242 1.42857,-1.6264 3.36264,-2.5494 1.93407,-0.9451 4.15385,-0.9451 2.37362,0 4.1978,0.8572 1.82418,0.8571 3.05495,2.3516 1.25274,1.4725 1.89011,3.4506 0.65934,1.978 0.68132,4.2417 v 1.6044 h -17.80221 v 0.5055 q 0.022,1.8681 0.63737,3.5824 0.61538,1.6923 1.73626,2.989 1.12088,1.2967 2.7033,2.0879 1.58241,0.7693 3.51648,0.7693 2.1978,0.022 3.97802,-0.8132 1.78022,-0.8352 3.03297,-2.4176 l 1.67033,1.2528 q -0.65934,0.923 -1.56044,1.7142 -0.9011,0.7693 -2.02198,1.3187 -1.0989,0.5495 -2.41758,0.8572 -1.31868,0.3077 -2.79121,0.3077 z m -0.50549,-22.4176 q -1.6044,0 -2.94506,0.6154 -1.34066,0.5934 -2.35165,1.6703 -1.01099,1.0769 -1.67033,2.5494 -0.65934,1.4506 -0.9011,3.1869 h 15.05495 v -0.2858 q -0.0439,-1.4725 -0.54945,-2.8571 -0.48352,-1.4066 -1.40659,-2.4835 -0.9011,-1.0769 -2.21978,-1.7363 -1.31869,-0.6593 -3.01099,-0.6593 z"
         style="fill:#800080;fill-opacity:1;stroke-width:0.562637"
         id="path124" />
      <path
         inkscape:connector-curvature="0"
         d="m 663.07698,1034.1319 q 0,-0.9231 0.5934,-1.5605 0.61539,-0.6593 1.64836,-0.6593 1.05494,0 1.64835,0.6593 0.61538,0.6374 0.61538,1.5605 0,0.923 -0.61538,1.5384 -0.59341,0.5934 -1.64835,0.5934 -1.03297,0 -1.64836,-0.5934 -0.5934,-0.6154 -0.5934,-1.5384 z"
         style="fill:#800080;fill-opacity:1;stroke-width:0.562637"
         id="path126" />
    </g>
    <g
       aria-label="Лепая погода севодня,"
       id="text36"
       style="font-style:normal;font-variant:normal;font-weight:300;font-stretch:normal;font-size:45.011px;line-height:1.25;font-family:'Roboto Mono';-inkscape-font-specification:'Roboto Mono weight=251';letter-spacing:0px;word-spacing:9.0022px;fill:#800080;fill-opacity:1;stroke:none;stroke-width:0.562637">
      <path
         inkscape:connector-curvature="0"
         d="m 249.30542,1068 v 32 h -2.59341 v -29.7583 h -11.07693 l -0.35164,13.2308 q -0.044,1.7802 -0.19781,3.6923 -0.13186,1.9121 -0.46153,3.7583 -0.32968,1.8242 -0.87913,3.4725 -0.52747,1.6484 -1.34066,2.9011 -0.81318,1.2308 -1.91208,1.978 Q 229.39332,1100 227.9208,1100 h -0.87912 v -2.2198 h 0.7912 q 0.94506,0 1.67033,-0.6813 0.72528,-0.6813 1.25275,-1.7802 0.52748,-1.1209 0.87912,-2.5714 0.37363,-1.4726 0.59341,-3.055 0.21978,-1.5824 0.30769,-3.1868 0.10989,-1.6044 0.13187,-3.033 L 233.10761,1068 Z"
         style="fill:#800080;fill-opacity:1;stroke-width:0.562637"
         id="path65" />
      <path
         inkscape:connector-curvature="0"
         d="m 267.34938,1100.4396 q -2.48352,0 -4.52747,-0.9231 -2.04396,-0.9231 -3.51649,-2.5055 -1.45055,-1.5824 -2.26374,-3.6923 -0.7912,-2.1319 -0.81318,-4.5275 v -0.945 q 0.022,-2.5495 0.83516,-4.7473 0.83517,-2.1978 2.26374,-3.8242 1.42857,-1.6264 3.36264,-2.5494 1.93406,-0.9451 4.15385,-0.9451 2.37362,0 4.1978,0.8572 1.82418,0.8571 3.05494,2.3516 1.25275,1.4725 1.89012,3.4506 0.65934,1.978 0.68131,4.2417 v 1.6044 h -17.8022 v 0.5055 q 0.022,1.8681 0.63736,3.5824 0.61539,1.6923 1.73627,2.989 1.12088,1.2967 2.7033,2.0879 1.58241,0.7693 3.51648,0.7693 2.1978,0.022 3.97802,-0.8132 1.78022,-0.8352 3.03297,-2.4176 l 1.67033,1.2528 q -0.65934,0.923 -1.56044,1.7142 -0.9011,0.7693 -2.02198,1.3187 -1.0989,0.5495 -2.41758,0.8572 -1.31868,0.3077 -2.79121,0.3077 z m -0.50549,-22.4176 q -1.6044,0 -2.94506,0.6154 -1.34066,0.5934 -2.35165,1.6703 -1.01099,1.0769 -1.67033,2.5494 -0.65934,1.4506 -0.9011,3.1869 h 15.05495 v -0.2858 q -0.044,-1.4725 -0.54945,-2.8571 -0.48352,-1.4066 -1.40659,-2.4835 -0.9011,-1.0769 -2.21978,-1.7363 -1.31869,-0.6593 -3.01099,-0.6593 z"
         style="fill:#800080;fill-opacity:1;stroke-width:0.562637"
         id="path67" />
      <path
         inkscape:connector-curvature="0"
         d="m 302.79994,1100 h -2.65934 v -21.5165 H 286.734 V 1100 h -2.63736 v -23.7802 h 18.7033 z"
         style="fill:#800080;fill-opacity:1;stroke-width:0.562637"
         id="path69" />
      <path
         inkscape:connector-curvature="0"
         d="m 327.52522,1100 q -0.24176,-0.7253 -0.37363,-1.6044 -0.13186,-0.9011 -0.17582,-1.8242 -0.68132,0.8352 -1.58242,1.5385 -0.9011,0.7033 -1.97802,1.2308 -1.05495,0.5055 -2.28572,0.7912 -1.23076,0.3077 -2.57142,0.3077 -1.67033,0 -3.12088,-0.4836 -1.42858,-0.4835 -2.5055,-1.3626 -1.05495,-0.8791 -1.67033,-2.1099 -0.59341,-1.2527 -0.59341,-2.7912 0,-2.044 0.9011,-3.4725 0.9011,-1.4286 2.43956,-2.3077 1.53847,-0.9011 3.56044,-1.3187 2.02198,-0.4176 4.24176,-0.4176 h 5.14286 v -2.7033 q -0.022,-1.3406 -0.52747,-2.3516 -0.5055,-1.033 -1.38462,-1.7143 -0.85714,-0.7033 -2.06593,-1.055 -1.18681,-0.3516 -2.59341,-0.3516 -1.27472,0 -2.43956,0.3297 -1.14286,0.3296 -2.04396,0.945 -0.87912,0.6154 -1.42857,1.5165 -0.54945,0.8791 -0.5934,2 l -2.63737,-0.022 q 0.0659,-1.5165 0.79121,-2.7912 0.74725,-1.2747 2,-2.1978 1.25275,-0.945 2.9011,-1.4725 1.67033,-0.5275 3.56044,-0.5275 1.89011,0 3.53846,0.4835 1.67033,0.4835 2.87913,1.4506 1.23077,0.967 1.93406,2.4176 0.72528,1.4505 0.74726,3.3846 v 11.5165 q 0,1.1868 0.1978,2.3956 0.21978,1.2088 0.52747,2.3077 l 0.022,0.2637 z m -8.68132,-1.8901 q 1.38462,0.022 2.63736,-0.3297 1.27473,-0.3516 2.32967,-0.967 1.05495,-0.6374 1.86814,-1.4945 0.81318,-0.8791 1.27472,-1.9121 v -5.2088 h -4.79121 q -1.73626,0 -3.34066,0.2637 -1.60439,0.2638 -2.83516,0.8792 -1.23077,0.5934 -1.97803,1.6044 -0.72527,1.0109 -0.72527,2.5274 0,1.0769 0.43956,1.9341 0.43956,0.8571 1.18681,1.4725 0.74726,0.5934 1.75824,0.9231 1.01099,0.3077 2.17583,0.3077 z"
         style="fill:#800080;fill-opacity:1;stroke-width:0.562637"
         id="path71" />
      <path
         inkscape:connector-curvature="0"
         d="M 356.0527,1076.2198 V 1100 h -2.63736 v -9.5824 h -8.32967 l -6,9.5824 h -2.92308 l 6.1978,-9.9121 q -1.23077,-0.3297 -2.21978,-0.945 -0.96703,-0.6154 -1.67033,-1.4726 -0.7033,-0.8791 -1.07692,-1.956 -0.37363,-1.0989 -0.37363,-2.3956 0,-1.6704 0.68132,-2.989 0.68132,-1.3187 1.86813,-2.2198 1.18682,-0.9011 2.79121,-1.3846 1.6044,-0.4835 3.45055,-0.5055 z m -16.3956,7.1428 q 0,1.077 0.37362,1.9561 0.39561,0.8791 1.0989,1.5165 0.72528,0.6153 1.71429,0.967 0.98901,0.3516 2.21978,0.3736 h 8.35165 v -9.7143 h -7.6044 q -1.2967,0 -2.43956,0.3517 -1.12088,0.3297 -1.95604,0.967 -0.81319,0.6154 -1.29671,1.5385 -0.46153,0.9011 -0.46153,2.0439 z"
         style="fill:#800080;fill-opacity:1;stroke-width:0.562637"
         id="path73" />
      <path
         inkscape:connector-curvature="0"
         d="m 419.75821,1100 h -2.65934 v -21.5165 h -13.4066 V 1100 h -2.63736 v -23.7802 h 18.7033 z"
         style="fill:#800080;fill-opacity:1;stroke-width:0.562637"
         id="path75" />
      <path
         inkscape:connector-curvature="0"
         d="m 426.76921,1087.7582 q 0.022,-2.4175 0.74726,-4.5934 0.72527,-2.1758 2.06593,-3.8022 1.36264,-1.6483 3.31868,-2.6154 1.97803,-0.967 4.46154,-0.967 2.5055,0 4.46154,0.967 1.97802,0.9671 3.34066,2.6154 1.36264,1.6264 2.08791,3.8022 0.72528,2.1759 0.74726,4.5934 v 0.7253 q -0.022,2.4176 -0.74726,4.5934 -0.70329,2.1758 -2.06593,3.8242 -1.36264,1.6264 -3.31868,2.5934 -1.95605,0.9451 -4.46154,0.9451 -2.5055,0 -4.48352,-0.9451 -1.95604,-0.967 -3.31868,-2.5934 -1.36264,-1.6484 -2.08791,-3.8242 -0.72528,-2.1758 -0.74726,-4.5934 z m 2.63737,0.7253 q 0,1.8901 0.52747,3.6484 0.52747,1.7582 1.53846,3.1208 1.01099,1.3407 2.48352,2.1539 1.4945,0.8132 3.45055,0.8132 1.93406,0 3.40659,-0.8132 1.49451,-0.8132 2.48352,-2.1539 1.01099,-1.3626 1.53846,-3.1208 0.52747,-1.7583 0.52747,-3.6484 v -0.7253 q 0,-1.8681 -0.52747,-3.6263 -0.52747,-1.7583 -1.53846,-3.0989 -1.01099,-1.3627 -2.5055,-2.1759 -1.4945,-0.8351 -3.42857,-0.8351 -1.93406,0 -3.42857,0.8351 -1.47253,0.8132 -2.48352,2.1759 -0.98901,1.3406 -1.51648,3.0989 -0.52747,1.7582 -0.52747,3.6263 z"
         style="fill:#800080;fill-opacity:1;stroke-width:0.562637"
         id="path77" />
      <path
         inkscape:connector-curvature="0"
         d="m 474.02197,1078.4835 h -16.1099 V 1100 h -2.70329 v -23.7802 h 18.81319 z"
         style="fill:#800080;fill-opacity:1;stroke-width:0.562637"
         id="path79" />
      <path
         inkscape:connector-curvature="0"
         d="m 480.74726,1087.7582 q 0.022,-2.4175 0.74725,-4.5934 0.72527,-2.1758 2.06593,-3.8022 1.36264,-1.6483 3.31869,-2.6154 1.97802,-0.967 4.46153,-0.967 2.5055,0 4.46154,0.967 1.97803,0.9671 3.34066,2.6154 1.36264,1.6264 2.08792,3.8022 0.72527,2.1759 0.74725,4.5934 v 0.7253 q -0.022,2.4176 -0.74725,4.5934 -0.7033,2.1758 -2.06594,3.8242 -1.36263,1.6264 -3.31868,2.5934 -1.95604,0.9451 -4.46154,0.9451 -2.50549,0 -4.48352,-0.9451 -1.95604,-0.967 -3.31868,-2.5934 -1.36264,-1.6484 -2.08791,-3.8242 -0.72528,-2.1758 -0.74725,-4.5934 z m 2.63736,0.7253 q 0,1.8901 0.52747,3.6484 0.52747,1.7582 1.53846,3.1208 1.01099,1.3407 2.48352,2.1539 1.49451,0.8132 3.45055,0.8132 1.93407,0 3.4066,-0.8132 1.4945,-0.8132 2.48351,-2.1539 1.01099,-1.3626 1.53846,-3.1208 0.52748,-1.7583 0.52748,-3.6484 v -0.7253 q 0,-1.8681 -0.52748,-3.6263 -0.52747,-1.7583 -1.53846,-3.0989 -1.01099,-1.3627 -2.50549,-2.1759 -1.49451,-0.8351 -3.42858,-0.8351 -1.93406,0 -3.42857,0.8351 -1.47253,0.8132 -2.48351,2.1759 -0.98902,1.3406 -1.51649,3.0989 -0.52747,1.7582 -0.52747,3.6263 z"
         style="fill:#800080;fill-opacity:1;stroke-width:0.562637"
         id="path81" />
      <path
         inkscape:connector-curvature="0"
         d="m 508.83517,1097.7802 q 1.07692,-0.9011 1.82418,-2.1758 0.74725,-1.2967 1.23077,-2.9231 0.48351,-1.6264 0.72527,-3.6044 0.26374,-1.978 0.39561,-4.2637 l 0.3956,-8.5934 h 14.04396 v 21.5604 h 2.46154 l -0.1978,9.2088 h -2.41759 V 1100 h -17.86813 v 6.989 h -2.3077 l -0.1978,-9.2088 z m 6.81319,-12.967 q -0.13187,2.0439 -0.32967,3.9121 -0.1978,1.8681 -0.59341,3.5165 -0.37362,1.6483 -0.98901,3.0549 -0.61538,1.4066 -1.56044,2.4835 h 12.63737 v -19.0989 h -8.87913 z"
         style="fill:#800080;fill-opacity:1;stroke-width:0.562637"
         id="path83" />
      <path
         inkscape:connector-curvature="0"
         d="m 552.43957,1100 q -0.24176,-0.7253 -0.37362,-1.6044 -0.13187,-0.9011 -0.17583,-1.8242 -0.68132,0.8352 -1.58242,1.5385 -0.90109,0.7033 -1.97802,1.2308 -1.05494,0.5055 -2.28571,0.7912 -1.23077,0.3077 -2.57143,0.3077 -1.67033,0 -3.12088,-0.4836 -1.42857,-0.4835 -2.5055,-1.3626 -1.05494,-0.8791 -1.67033,-2.1099 -0.5934,-1.2527 -0.5934,-2.7912 0,-2.044 0.90109,-3.4725 0.9011,-1.4286 2.43957,-2.3077 1.53846,-0.9011 3.56044,-1.3187 2.02198,-0.4176 4.24176,-0.4176 h 5.14285 v -2.7033 q -0.022,-1.3406 -0.52747,-2.3516 -0.50549,-1.033 -1.38461,-1.7143 -0.85715,-0.7033 -2.06594,-1.055 -1.18681,-0.3516 -2.59341,-0.3516 -1.27472,0 -2.43956,0.3297 -1.14285,0.3296 -2.04395,0.945 -0.87912,0.6154 -1.42858,1.5165 -0.54945,0.8791 -0.5934,2 l -2.63737,-0.022 q 0.0659,-1.5165 0.79121,-2.7912 0.74726,-1.2747 2,-2.1978 1.25275,-0.945 2.9011,-1.4725 1.67033,-0.5275 3.56044,-0.5275 1.89011,0 3.53847,0.4835 1.67033,0.4835 2.87912,1.4506 1.23077,0.967 1.93406,2.4176 0.72528,1.4505 0.74726,3.3846 v 11.5165 q 0,1.1868 0.1978,2.3956 0.21978,1.2088 0.52747,2.3077 l 0.022,0.2637 z m -8.68132,-1.8901 q 1.38462,0.022 2.63737,-0.3297 1.27472,-0.3516 2.32967,-0.967 1.05494,-0.6374 1.86813,-1.4945 0.81319,-0.8791 1.27472,-1.9121 v -5.2088 h -4.79121 q -1.73626,0 -3.34066,0.2637 -1.60439,0.2638 -2.83516,0.8792 -1.23077,0.5934 -1.97802,1.6044 -0.72528,1.0109 -0.72528,2.5274 0,1.0769 0.43956,1.9341 0.43956,0.8571 1.18682,1.4725 0.74725,0.5934 1.75824,0.9231 1.01099,0.3077 2.17582,0.3077 z"
         style="fill:#800080;fill-opacity:1;stroke-width:0.562637"
         id="path85" />
      <path
         inkscape:connector-curvature="0"
         d="m 608.71653,1098.2198 q 1.31868,0 2.50549,-0.3736 1.2088,-0.3957 2.13187,-1.1209 0.92308,-0.7253 1.49451,-1.7363 0.59341,-1.033 0.68132,-2.3297 h 2.52747 q -0.0879,1.6923 -0.87912,3.1209 -0.79121,1.4286 -2.06593,2.4616 -1.27473,1.0329 -2.92308,1.6263 -1.64835,0.5715 -3.47253,0.5715 -2.61539,0 -4.54945,-0.9891 -1.93407,-0.989 -3.23077,-2.6373 -1.27473,-1.6484 -1.93407,-3.7802 -0.63736,-2.1539 -0.63736,-4.4616 v -0.9231 q 0,-2.3076 0.63736,-4.4395 0.65934,-2.1539 1.93407,-3.8022 1.2967,-1.6484 3.23077,-2.6374 1.93406,-0.989 4.52747,-0.989 1.97802,0 3.64835,0.6374 1.69231,0.6154 2.92308,1.7582 1.25275,1.1209 1.97802,2.6813 0.72528,1.5385 0.81319,3.3847 h -2.52747 q -0.0659,-1.3407 -0.61539,-2.4836 -0.54945,-1.1428 -1.45055,-1.978 -0.9011,-0.8352 -2.13186,-1.2967 -1.2088,-0.4615 -2.63737,-0.4615 -2.06593,0 -3.53846,0.8351 -1.45055,0.8352 -2.37363,2.1978 -0.92307,1.3627 -1.36264,3.0989 -0.41758,1.7143 -0.41758,3.4945 v 0.9231 q 0,1.8022 0.41758,3.5385 0.43957,1.7363 1.36264,3.0989 0.92308,1.3406 2.37363,2.1758 1.47253,0.8352 3.56044,0.8352 z"
         style="fill:#800080;fill-opacity:1;stroke-width:0.562637"
         id="path87" />
      <path
         inkscape:connector-curvature="0"
         d="m 636.21104,1100.4396 q -2.48352,0 -4.52748,-0.9231 -2.04395,-0.9231 -3.51648,-2.5055 -1.45055,-1.5824 -2.26374,-3.6923 -0.79121,-2.1319 -0.81318,-4.5275 v -0.945 q 0.022,-2.5495 0.83516,-4.7473 0.83517,-2.1978 2.26374,-3.8242 1.42857,-1.6264 3.36264,-2.5494 1.93406,-0.9451 4.15384,-0.9451 2.37363,0 4.19781,0.8572 1.82417,0.8571 3.05494,2.3516 1.25275,1.4725 1.89011,3.4506 0.65934,1.978 0.68132,4.2417 v 1.6044 h -17.8022 v 0.5055 q 0.022,1.8681 0.63736,3.5824 0.61539,1.6923 1.73627,2.989 1.12088,1.2967 2.70329,2.0879 1.58242,0.7693 3.51649,0.7693 2.1978,0.022 3.97802,-0.8132 1.78022,-0.8352 3.03297,-2.4176 l 1.67033,1.2528 q -0.65934,0.923 -1.56044,1.7142 -0.9011,0.7693 -2.02198,1.3187 -1.0989,0.5495 -2.41758,0.8572 -1.31868,0.3077 -2.79121,0.3077 z m -0.5055,-22.4176 q -1.60439,0 -2.94505,0.6154 -1.34066,0.5934 -2.35165,1.6703 -1.01099,1.0769 -1.67033,2.5494 -0.65934,1.4506 -0.9011,3.1869 h 15.05495 v -0.2858 q -0.044,-1.4725 -0.54945,-2.8571 -0.48352,-1.4066 -1.4066,-2.4835 -0.9011,-1.0769 -2.21978,-1.7363 -1.31868,-0.6593 -3.01099,-0.6593 z"
         style="fill:#800080;fill-opacity:1;stroke-width:0.562637"
         id="path89" />
      <path
         inkscape:connector-curvature="0"
         d="m 652.87038,1100 v -23.7802 h 8.98901 q 1.84616,0.022 3.49451,0.3516 1.67033,0.3297 2.92308,1.0769 1.25274,0.7473 1.97802,1.9561 0.72527,1.2088 0.72527,2.967 -0.022,2.066 -1.16483,3.3187 -1.12088,1.2528 -3.07693,1.8681 1.18682,0.1978 2.13187,0.7033 0.94506,0.5055 1.62638,1.2308 0.68132,0.7253 1.05494,1.6703 0.37363,0.9451 0.37363,2.044 0,1.7363 -0.65934,2.989 -0.65934,1.2308 -1.82418,2.044 -1.14286,0.7912 -2.72527,1.1868 Q 665.1561,1100 663.37588,1100 Z m 2.63736,-10.9451 v 8.7473 h 7.86814 q 1.23077,0 2.30769,-0.2418 1.07692,-0.2637 1.86813,-0.7912 0.81319,-0.5494 1.27473,-1.3846 0.46154,-0.8352 0.46154,-2.022 0,-1.1428 -0.48352,-1.956 -0.48352,-0.8132 -1.2967,-1.3187 -0.79121,-0.5275 -1.86814,-0.7692 -1.07692,-0.2638 -2.26373,-0.2638 z m 0,-2.1978 h 6.59341 q 1.2967,0 2.41758,-0.2197 1.14286,-0.2198 1.97803,-0.7033 0.85714,-0.5055 1.34066,-1.2967 0.50549,-0.8132 0.50549,-2 0,-1.2308 -0.52747,-2.044 -0.52747,-0.8132 -1.42857,-1.2747 -0.87913,-0.4835 -2.06594,-0.6594 -1.16483,-0.1978 -2.46154,-0.1978 h -6.35165 z"
         style="fill:#800080;fill-opacity:1;stroke-width:0.562637"
         id="path91" />
      <path
         inkscape:connector-curvature="0"
         d="m 678.67258,1087.7582 q 0.022,-2.4175 0.74725,-4.5934 0.72528,-2.1758 2.06594,-3.8022 1.36263,-1.6483 3.31868,-2.6154 1.97802,-0.967 4.46154,-0.967 2.50549,0 4.46154,0.967 1.97802,0.9671 3.34066,2.6154 1.36264,1.6264 2.08791,3.8022 0.72528,2.1759 0.74725,4.5934 v 0.7253 q -0.022,2.4176 -0.74725,4.5934 -0.7033,2.1758 -2.06593,3.8242 -1.36264,1.6264 -3.31869,2.5934 -1.95604,0.9451 -4.46154,0.9451 -2.50549,0 -4.48351,-0.9451 -1.95605,-0.967 -3.31869,-2.5934 -1.36263,-1.6484 -2.08791,-3.8242 -0.72527,-2.1758 -0.74725,-4.5934 z m 2.63736,0.7253 q 0,1.8901 0.52747,3.6484 0.52748,1.7582 1.53847,3.1208 1.01099,1.3407 2.48351,2.1539 1.49451,0.8132 3.45055,0.8132 1.93407,0 3.4066,-0.8132 1.4945,-0.8132 2.48352,-2.1539 1.01099,-1.3626 1.53846,-3.1208 0.52747,-1.7583 0.52747,-3.6484 v -0.7253 q 0,-1.8681 -0.52747,-3.6263 -0.52747,-1.7583 -1.53846,-3.0989 -1.01099,-1.3627 -2.5055,-2.1759 -1.49451,-0.8351 -3.42857,-0.8351 -1.93407,0 -3.42857,0.8351 -1.47253,0.8132 -2.48352,2.1759 -0.98901,1.3406 -1.51649,3.0989 -0.52747,1.7582 -0.52747,3.6263 z"
         style="fill:#800080;fill-opacity:1;stroke-width:0.562637"
         id="path93" />
      <path
         inkscape:connector-curvature="0"
         d="m 706.76049,1097.7802 q 1.07693,-0.9011 1.82418,-2.1758 0.74725,-1.2967 1.23077,-2.9231 0.48352,-1.6264 0.72527,-3.6044 0.26374,-1.978 0.39561,-4.2637 l 0.3956,-8.5934 h 14.04396 v 21.5604 h 2.46154 l -0.1978,9.2088 h -2.41758 V 1100 H 707.3539 v 6.989 h -2.30769 l -0.1978,-9.2088 z m 6.81319,-12.967 q -0.13187,2.0439 -0.32967,3.9121 -0.1978,1.8681 -0.5934,3.5165 -0.37363,1.6483 -0.98902,3.0549 -0.61538,1.4066 -1.56044,2.4835 h 12.63737 v -19.0989 h -8.87912 z"
         style="fill:#800080;fill-opacity:1;stroke-width:0.562637"
         id="path95" />
      <path
         inkscape:connector-curvature="0"
         d="m 752.62866,1100 h -2.65934 v -10.9011 H 736.54075 V 1100 h -2.61539 v -23.7802 h 2.61539 v 10.6593 h 13.42857 v -10.6593 h 2.65934 z"
         style="fill:#800080;fill-opacity:1;stroke-width:0.562637"
         id="path97" />
      <path
         inkscape:connector-curvature="0"
         d="M 778.8924,1076.2198 V 1100 h -2.63736 v -9.5824 h -8.32967 l -6,9.5824 h -2.92308 l 6.1978,-9.9121 q -1.23077,-0.3297 -2.21978,-0.945 -0.96703,-0.6154 -1.67033,-1.4726 -0.7033,-0.8791 -1.07692,-1.956 -0.37363,-1.0989 -0.37363,-2.3956 0,-1.6704 0.68132,-2.989 0.68132,-1.3187 1.86813,-2.2198 1.18682,-0.9011 2.79121,-1.3846 1.6044,-0.4835 3.45055,-0.5055 z m -16.39561,7.1428 q 0,1.077 0.37363,1.9561 0.3956,0.8791 1.0989,1.5165 0.72528,0.6153 1.71429,0.967 0.98901,0.3516 2.21978,0.3736 h 8.35165 v -9.7143 h -7.6044 q -1.2967,0 -2.43956,0.3517 -1.12088,0.3297 -1.95604,0.967 -0.81319,0.6154 -1.29671,1.5385 -0.46154,0.9011 -0.46154,2.0439 z"
         style="fill:#800080;fill-opacity:1;stroke-width:0.562637"
         id="path99" />
      <path
         inkscape:connector-curvature="0"
         d="m 796.95834,1099.2308 q 0,0.967 -0.21978,1.934 -0.19781,0.9671 -0.59341,1.9121 -0.37363,0.9451 -0.94506,1.8022 -0.57142,0.8791 -1.31868,1.6044 l -1.67033,-1.0549 q 1.93407,-2.7473 1.93407,-6.1319 v -3.4286 h 2.81319 z"
         style="fill:#800080;fill-opacity:1;stroke-width:0.562637"
         id="path101" />
    </g>
    <g
       aria-label="не правда ли?"
       id="text40"
       style="font-style:normal;font-variant:normal;font-weight:300;font-stretch:normal;font-size:45.011px;line-height:1.25;font-family:'Roboto Mono';-inkscape-font-specification:'Roboto Mono weight=251';letter-spacing:0px;word-spacing:9.0022px;fill:#800080;fill-opacity:1;stroke:none;stroke-width:0.562637">
      <path
         inkscape:connector-curvature="0"
         d="m 350.59116,1164 h -2.65934 v -10.9011 H 334.50324 V 1164 h -2.61538 v -23.7802 h 2.61538 v 10.6593 h 13.42858 v -10.6593 h 2.65934 z"
         style="fill:#800080;fill-opacity:1;stroke-width:0.562637"
         id="path42" />
      <path
         inkscape:connector-curvature="0"
         d="m 369.11864,1164.4396 q -2.48352,0 -4.52748,-0.9231 -2.04395,-0.9231 -3.51648,-2.5055 -1.45055,-1.5824 -2.26374,-3.6923 -0.79121,-2.1319 -0.81319,-4.5275 v -0.945 q 0.022,-2.5495 0.83517,-4.7473 0.83516,-2.1978 2.26374,-3.8242 1.42857,-1.6264 3.36263,-2.5494 1.93407,-0.9451 4.15385,-0.9451 2.37363,0 4.19781,0.8572 1.82417,0.8571 3.05494,2.3516 1.25275,1.4725 1.89011,3.4506 0.65934,1.978 0.68132,4.2417 v 1.6044 h -17.8022 v 0.5055 q 0.022,1.8681 0.63736,3.5824 0.61539,1.6923 1.73626,2.989 1.12088,1.2967 2.7033,2.0879 1.58242,0.7693 3.51649,0.7693 2.1978,0.022 3.97802,-0.8132 1.78022,-0.8352 3.03297,-2.4176 l 1.67033,1.2528 q -0.65934,0.923 -1.56044,1.7142 -0.9011,0.7693 -2.02198,1.3187 -1.0989,0.5495 -2.41758,0.8572 -1.31869,0.3077 -2.79121,0.3077 z m -0.5055,-22.4176 q -1.60439,0 -2.94505,0.6154 -1.34066,0.5934 -2.35165,1.6703 -1.01099,1.0769 -1.67033,2.5494 -0.65934,1.4506 -0.9011,3.1869 h 15.05495 v -0.2858 q -0.044,-1.4725 -0.54945,-2.8571 -0.48352,-1.4066 -1.4066,-2.4835 -0.9011,-1.0769 -2.21978,-1.7363 -1.31868,-0.6593 -3.01099,-0.6593 z"
         style="fill:#800080;fill-opacity:1;stroke-width:0.562637"
         id="path44" />
      <path
         inkscape:connector-curvature="0"
         d="m 440.56042,1164 h -2.65934 v -21.5165 h -13.4066 V 1164 h -2.63736 v -23.7802 h 18.7033 z"
         style="fill:#800080;fill-opacity:1;stroke-width:0.562637"
         id="path46" />
      <path
         inkscape:connector-curvature="0"
         d="m 468.16482,1152.3516 q 0,2.3077 -0.57143,4.5055 -0.54945,2.1759 -1.71429,3.8682 -1.14285,1.6703 -2.9011,2.7033 -1.75824,1.011 -4.17582,1.011 -2.21978,0 -4.06594,-0.8572 -1.84615,-0.8571 -3.0989,-2.4835 v 12.044 h -2.63736 v -32.9231 h 2.46154 l 0.10989,3.2527 q 1.25274,-1.7582 3.07692,-2.7253 1.82418,-0.967 4.10989,-0.967 2.43956,0 4.21978,1.011 1.78022,0.989 2.92308,2.6813 1.14286,1.6704 1.69231,3.8682 0.57143,2.1758 0.57143,4.5494 z m -2.63737,-0.4615 q 0,-1.7802 -0.3956,-3.5385 -0.3956,-1.7582 -1.27473,-3.1428 -0.87912,-1.4066 -2.28571,-2.2638 -1.38462,-0.8791 -3.4066,-0.8791 -1.14285,0 -2.15384,0.3297 -0.98901,0.3077 -1.82418,0.9011 -0.81319,0.5714 -1.47253,1.3846 -0.63736,0.7912 -1.07692,1.7583 v 11.7802 q 0.92308,1.8461 2.63736,2.9231 1.71429,1.0769 3.93407,1.0769 2,0 3.38462,-0.8791 1.40659,-0.8792 2.26373,-2.2638 0.87913,-1.4066 1.27473,-3.1648 0.3956,-1.7802 0.3956,-3.5605 z"
         style="fill:#800080;fill-opacity:1;stroke-width:0.562637"
         id="path48" />
      <path
         inkscape:connector-curvature="0"
         d="m 492.27472,1164 q -0.24176,-0.7253 -0.37363,-1.6044 -0.13187,-0.9011 -0.17582,-1.8242 -0.68132,0.8352 -1.58242,1.5385 -0.9011,0.7033 -1.97802,1.2308 -1.05495,0.5055 -2.28572,0.7912 -1.23077,0.3077 -2.57143,0.3077 -1.67033,0 -3.12088,-0.4836 -1.42857,-0.4835 -2.50549,-1.3626 -1.05495,-0.8791 -1.67033,-2.1099 -0.59341,-1.2527 -0.59341,-2.7912 0,-2.044 0.9011,-3.4725 0.9011,-1.4286 2.43956,-2.3077 1.53846,-0.9011 3.56044,-1.3187 2.02198,-0.4176 4.24176,-0.4176 h 5.14286 v -2.7033 q -0.022,-1.3406 -0.52747,-2.3516 -0.5055,-1.033 -1.38462,-1.7143 -0.85714,-0.7033 -2.06593,-1.055 -1.18682,-0.3516 -2.59341,-0.3516 -1.27473,0 -2.43956,0.3297 -1.14286,0.3296 -2.04396,0.945 -0.87912,0.6154 -1.42857,1.5165 -0.54945,0.8791 -0.59341,2 l -2.63736,-0.022 q 0.0659,-1.5165 0.79121,-2.7912 0.74725,-1.2747 2,-2.1978 1.25275,-0.945 2.9011,-1.4725 1.67033,-0.5275 3.56044,-0.5275 1.89011,0 3.53846,0.4835 1.67033,0.4835 2.87912,1.4506 1.23077,0.967 1.93407,2.4176 0.72527,1.4505 0.74725,3.3846 v 11.5165 q 0,1.1868 0.1978,2.3956 0.21978,1.2088 0.52748,2.3077 l 0.022,0.2637 z m -8.68132,-1.8901 q 1.38461,0.022 2.63736,-0.3297 1.27473,-0.3516 2.32967,-0.967 1.05495,-0.6374 1.86813,-1.4945 0.81319,-0.8791 1.27473,-1.9121 v -5.2088 h -4.79121 q -1.73627,0 -3.34066,0.2637 -1.6044,0.2638 -2.83517,0.8792 -1.23077,0.5934 -1.97802,1.6044 -0.72527,1.0109 -0.72527,2.5274 0,1.0769 0.43956,1.9341 0.43956,0.8571 1.18681,1.4725 0.74725,0.5934 1.75824,0.9231 1.01099,0.3077 2.17583,0.3077 z"
         style="fill:#800080;fill-opacity:1;stroke-width:0.562637"
         id="path50" />
      <path
         inkscape:connector-curvature="0"
         d="m 502.73625,1164 v -23.7802 h 8.98902 q 1.84615,0.022 3.4945,0.3516 1.67033,0.3297 2.92308,1.0769 1.25275,0.7473 1.97802,1.9561 0.72528,1.2088 0.72528,2.967 -0.022,2.066 -1.16484,3.3187 -1.12088,1.2528 -3.07692,1.8681 1.18681,0.1978 2.13187,0.7033 0.94505,0.5055 1.62637,1.2308 0.68132,0.7253 1.05495,1.6703 0.37362,0.9451 0.37362,2.044 0,1.7363 -0.65934,2.989 -0.65934,1.2308 -1.82417,2.044 -1.14286,0.7912 -2.72528,1.1868 -1.56044,0.3736 -3.34066,0.3736 z m 2.63737,-10.9451 v 8.7473 h 7.86813 q 1.23077,0 2.30769,-0.2418 1.07693,-0.2637 1.86814,-0.7912 0.81318,-0.5494 1.27472,-1.3846 0.46154,-0.8352 0.46154,-2.022 0,-1.1428 -0.48352,-1.956 -0.48351,-0.8132 -1.2967,-1.3187 -0.79121,-0.5275 -1.86813,-0.7692 -1.07693,-0.2638 -2.26374,-0.2638 z m 0,-2.1978 h 6.59341 q 1.2967,0 2.41758,-0.2197 1.14286,-0.2198 1.97802,-0.7033 0.85714,-0.5055 1.34066,-1.2967 0.5055,-0.8132 0.5055,-2 0,-1.2308 -0.52748,-2.044 -0.52747,-0.8132 -1.42857,-1.2747 -0.87912,-0.4835 -2.06593,-0.6594 -1.16484,-0.1978 -2.46154,-0.1978 h -6.35165 z"
         style="fill:#800080;fill-opacity:1;stroke-width:0.562637"
         id="path52" />
      <path
         inkscape:connector-curvature="0"
         d="m 529.63737,1161.7802 q 1.07692,-0.9011 1.82418,-2.1758 0.74725,-1.2967 1.23077,-2.9231 0.48351,-1.6264 0.72527,-3.6044 0.26374,-1.978 0.39561,-4.2637 l 0.3956,-8.5934 h 14.04396 v 21.5604 h 2.46154 l -0.1978,9.2088 h -2.41759 V 1164 h -17.86813 v 6.989 h -2.3077 l -0.1978,-9.2088 z m 6.81319,-12.967 q -0.13187,2.0439 -0.32967,3.9121 -0.1978,1.8681 -0.59341,3.5165 -0.37362,1.6483 -0.98901,3.0549 -0.61538,1.4066 -1.56044,2.4835 h 12.63737 v -19.0989 h -8.87913 z"
         style="fill:#800080;fill-opacity:1;stroke-width:0.562637"
         id="path54" />
      <path
         inkscape:connector-curvature="0"
         d="m 573.24177,1164 q -0.24175,-0.7253 -0.37362,-1.6044 -0.13187,-0.9011 -0.17583,-1.8242 -0.68132,0.8352 -1.58242,1.5385 -0.90109,0.7033 -1.97802,1.2308 -1.05494,0.5055 -2.28571,0.7912 -1.23077,0.3077 -2.57143,0.3077 -1.67033,0 -3.12088,-0.4836 -1.42857,-0.4835 -2.5055,-1.3626 -1.05494,-0.8791 -1.67033,-2.1099 -0.5934,-1.2527 -0.5934,-2.7912 0,-2.044 0.9011,-3.4725 0.90109,-1.4286 2.43956,-2.3077 1.53846,-0.9011 3.56044,-1.3187 2.02198,-0.4176 4.24176,-0.4176 h 5.14285 v -2.7033 q -0.022,-1.3406 -0.52747,-2.3516 -0.50549,-1.033 -1.38461,-1.7143 -0.85715,-0.7033 -2.06594,-1.055 -1.18681,-0.3516 -2.59341,-0.3516 -1.27472,0 -2.43956,0.3297 -1.14285,0.3296 -2.04395,0.945 -0.87912,0.6154 -1.42858,1.5165 -0.54945,0.8791 -0.5934,2 l -2.63737,-0.022 q 0.0659,-1.5165 0.79121,-2.7912 0.74726,-1.2747 2,-2.1978 1.25275,-0.945 2.9011,-1.4725 1.67033,-0.5275 3.56044,-0.5275 1.89011,0 3.53847,0.4835 1.67033,0.4835 2.87912,1.4506 1.23077,0.967 1.93407,2.4176 0.72527,1.4505 0.74725,3.3846 v 11.5165 q 0,1.1868 0.1978,2.3956 0.21978,1.2088 0.52747,2.3077 l 0.022,0.2637 z m -8.68132,-1.8901 q 1.38462,0.022 2.63737,-0.3297 1.27472,-0.3516 2.32967,-0.967 1.05494,-0.6374 1.86813,-1.4945 0.81319,-0.8791 1.27472,-1.9121 v -5.2088 h -4.79121 q -1.73626,0 -3.34066,0.2637 -1.60439,0.2638 -2.83516,0.8792 -1.23077,0.5934 -1.97802,1.6044 -0.72528,1.0109 -0.72528,2.5274 0,1.0769 0.43956,1.9341 0.43956,0.8571 1.18682,1.4725 0.74725,0.5934 1.75824,0.9231 1.01099,0.3077 2.17582,0.3077 z"
         style="fill:#800080;fill-opacity:1;stroke-width:0.562637"
         id="path56" />
      <path
         inkscape:connector-curvature="0"
         d="M 638.28795,1140.2198 V 1164 h -2.65934 v -21.5165 h -10.21979 l -0.17582,8.2418 q -0.022,1.6263 -0.13187,3.2527 -0.10989,1.6044 -0.3956,3.0769 -0.28572,1.4726 -0.79121,2.7473 -0.48352,1.2527 -1.27473,2.1978 -0.79121,0.9231 -1.93406,1.4725 -1.12088,0.5275 -2.68132,0.5275 h -0.96704 l 0.044,-2.3516 0.83516,-0.022 q 1.07693,0 1.82418,-0.4616 0.76923,-0.4835 1.27473,-1.2747 0.50549,-0.7912 0.79121,-1.8461 0.30769,-1.055 0.46153,-2.2638 0.17583,-1.2088 0.21978,-2.5055 0.0659,-1.2967 0.0879,-2.5494 l 0.24175,-10.5055 z"
         style="fill:#800080;fill-opacity:1;stroke-width:0.562637"
         id="path58" />
      <path
         inkscape:connector-curvature="0"
         d="m 662.81542,1140.2198 h 2.65934 V 1164 h -2.65934 v -19.6484 L 649.38685,1164 h -2.61539 v -23.7802 h 2.61539 v 19.6703 z"
         style="fill:#800080;fill-opacity:1;stroke-width:0.562637"
         id="path60" />
      <path
         inkscape:connector-curvature="0"
         d="m 681.47476,1155.1209 q 0.022,-1.3846 0.19781,-2.3956 0.1978,-1.033 0.5934,-1.8901 0.39561,-0.8572 1.05495,-1.6264 0.68132,-0.7912 1.67033,-1.6923 0.85714,-0.8132 1.64835,-1.6484 0.81319,-0.8571 1.45055,-1.7802 0.63736,-0.945 1.01099,-2 0.37363,-1.0549 0.37363,-2.3077 0,-1.3406 -0.41759,-2.4395 -0.41758,-1.0989 -1.20879,-1.8462 -0.76923,-0.7692 -1.89011,-1.1868 -1.12088,-0.4176 -2.52747,-0.4176 -1.29671,0 -2.43956,0.3736 -1.12088,0.3737 -1.97803,1.077 -0.85714,0.7032 -1.38461,1.7582 -0.5055,1.033 -0.54945,2.3736 h -2.63737 q 0.0659,-1.8022 0.76924,-3.2527 0.70329,-1.4726 1.89011,-2.5055 1.20879,-1.033 2.81318,-1.5824 1.62638,-0.5715 3.51649,-0.5715 2,0 3.60439,0.5934 1.6044,0.5715 2.72528,1.6484 1.12088,1.0769 1.73626,2.5934 0.61539,1.4945 0.61539,3.3626 0,1.5165 -0.48352,2.8572 -0.46154,1.3187 -1.23077,2.5055 -0.76923,1.1648 -1.78022,2.1978 -1.01099,1.011 -2.06593,1.9121 -0.72528,0.6593 -1.18682,1.2967 -0.46153,0.6373 -0.74725,1.3626 -0.28571,0.7033 -0.3956,1.4945 -0.10989,0.7912 -0.10989,1.7363 z m -0.50549,7.2967 q 0,-0.7692 0.50549,-1.2967 0.5055,-0.5495 1.36264,-0.5495 0.85714,0 1.38462,0.5495 0.52747,0.5275 0.52747,1.2967 0,0.7472 -0.52747,1.2527 -0.52748,0.5055 -1.38462,0.5055 -0.85714,0 -1.36264,-0.5055 -0.50549,-0.5055 -0.50549,-1.2527 z"
         style="fill:#800080;fill-opacity:1;stroke-width:0.562637"
         id="path62" />
    </g>
    <g
       style="font-style:normal;font-variant:normal;font-weight:300;font-stretch:normal;font-size:22.5055px;line-height:1.25;font-family:'Roboto Mono';-inkscape-font-specification:'Roboto Mono weight=251';text-align:start;letter-spacing:0px;word-spacing:2.8px;text-anchor:start;fill:#800080;fill-opacity:1;stroke:none;stroke-width:0.281319"
       id="text105"
       aria-label="А Б В Г Ґ Д Е Ё Ж З И Й К Л М Н О П Р С Т Ў Ф Х Ц Ч Ш Щ Ъ Ы Ь Э Ю Я">
      <path
         id="path107"
         style="text-align:start;word-spacing:2.8px;text-anchor:start;fill:#800080;fill-opacity:1;stroke-width:0.281319"
         d="M 23.884483,1271.5385 H 17.796569 L 16.378987,1276 h -1.329671 l 5.208793,-16 h 1.186813 l 5.164837,16 h -1.318682 z m -5.714287,-1.1759 h 5.340661 l -2.659342,-8.4175 z" />
      <path
         id="path109"
         style="text-align:start;word-spacing:2.8px;text-anchor:start;fill:#800080;fill-opacity:1;stroke-width:0.281319"
         d="m 55.277898,1261.1209 h -8.285717 v 5.8461 h 3.285715 q 1.131869,0.011 2.054946,0.3187 0.923077,0.3077 1.582418,0.8901 0.659341,0.5715 1.010989,1.4066 0.362638,0.8242 0.362638,1.8791 0,1.044 -0.362638,1.8901 -0.351648,0.8352 -1.010989,1.4286 -0.659341,0.5824 -1.582418,0.9011 Q 51.409765,1276 50.277896,1276 H 45.6735 v -16 h 9.604398 z m -8.285717,6.967 v 6.8022 h 3.285715 q 0.857144,-0.011 1.538462,-0.2527 0.681319,-0.2528 1.153847,-0.7033 0.483517,-0.4616 0.736264,-1.0879 0.263736,-0.6374 0.263736,-1.4066 0,-0.7583 -0.263736,-1.3737 -0.252747,-0.6154 -0.736264,-1.0439 -0.472528,-0.4396 -1.164836,-0.6813 -0.681318,-0.2418 -1.527473,-0.2528 z" />
      <path
         id="path111"
         style="text-align:start;word-spacing:2.8px;text-anchor:start;fill:#800080;fill-opacity:1;stroke-width:0.281319"
         d="m 75.649331,1276 v -16 h 4.373628 q 0.967033,0.011 1.879121,0.2637 0.923078,0.2418 1.637364,0.7583 0.714285,0.5055 1.142857,1.2967 0.439561,0.7802 0.428572,1.8681 0,0.6813 -0.208792,1.2308 -0.208791,0.5384 -0.571428,0.967 -0.351649,0.4176 -0.835166,0.7363 -0.483516,0.3077 -1.043956,0.5165 0.692308,0.1648 1.274726,0.5055 0.593407,0.3406 1.021978,0.8461 0.428572,0.4945 0.67033,1.1319 0.252747,0.6373 0.252747,1.3736 0.01099,1.0659 -0.395604,1.9011 -0.406594,0.8242 -1.098902,1.4066 -0.692308,0.5714 -1.604396,0.8791 -0.901099,0.3077 -1.89011,0.3187 z m 1.318682,-7.6923 v 6.5494 h 3.747254 q 0.725275,-0.011 1.384616,-0.2417 0.659341,-0.2418 1.153846,-0.6703 0.505495,-0.4286 0.791209,-1.033 0.296704,-0.6154 0.296704,-1.3956 0,-0.7583 -0.285715,-1.3407 -0.274725,-0.5934 -0.769231,-1 -0.483516,-0.4066 -1.131868,-0.6264 -0.637363,-0.2197 -1.34066,-0.2417 z m 0,-1.1319 h 3.219781 q 0.692308,-0.011 1.34066,-0.1978 0.648352,-0.1868 1.142857,-0.5604 0.505495,-0.3736 0.813187,-0.9341 0.307693,-0.5604 0.307693,-1.3297 0,-0.8022 -0.318682,-1.3626 -0.318681,-0.5714 -0.846154,-0.9231 -0.527472,-0.3626 -1.197802,-0.5274 -0.67033,-0.1759 -1.373627,-0.1869 h -3.087913 z" />
      <path
         id="path113"
         style="text-align:start;word-spacing:2.8px;text-anchor:start;fill:#800080;fill-opacity:1;stroke-width:0.281319"
         d="m 114.99879,1261.1209 h -8.28571 V 1276 h -1.31868 v -16 h 9.60439 z" />
      <path
         id="path115"
         style="text-align:start;word-spacing:2.8px;text-anchor:start;fill:#800080;fill-opacity:1;stroke-width:0.281319"
         d="m 145.06254,1261.1209 h -8.5055 V 1276 h -1.31868 v -16 h 8.50549 v -3.8901 h 1.31869 z" />
      <path
         id="path117"
         style="text-align:start;word-spacing:2.8px;text-anchor:start;fill:#800080;fill-opacity:1;stroke-width:0.281319"
         d="m 173.90651,1274.8901 h 1.18681 l -0.0989,4.989 H 173.8076 V 1276 h -8.57143 v 3.8791 h -1.14285 l -0.14286,-4.989 h 0.68132 q 0.61538,-0.4066 1.03296,-1.2637 0.41759,-0.8572 0.68132,-2.055 0.27473,-1.2088 0.41759,-2.6813 0.14285,-1.4835 0.1978,-3.1319 L 167.23617,1260 h 6.67034 z m -5.62638,-9.1319 q -0.044,1.1209 -0.15385,2.4066 -0.0989,1.2748 -0.31868,2.5165 -0.20879,1.2418 -0.54945,2.3517 -0.34066,1.0989 -0.86813,1.8571 h 6.21978 v -13.7692 h -4.14286 z" />
      <path
         id="path119"
         style="text-align:start;word-spacing:2.8px;text-anchor:start;fill:#800080;fill-opacity:1;stroke-width:0.281319"
         d="m 203.24497,1268.3297 h -7.05494 v 6.5274 h 8.13187 V 1276 h -9.43957 v -16 h 9.39561 v 1.1538 h -8.08791 v 6.033 h 7.05494 z" />
      <path
         id="path121"
         style="text-align:start;word-spacing:2.8px;text-anchor:start;fill:#800080;fill-opacity:1;stroke-width:0.281319"
         d="m 233.03399,1268.3297 h -7.05495 v 6.5274 h 8.13187 V 1276 h -9.43956 v -16 h 9.39561 v 1.1538 h -8.08792 v 6.033 h 7.05495 z M 225.39662,1257 q 0,-0.3626 0.24176,-0.6264 0.24176,-0.2637 0.65934,-0.2637 0.41759,0 0.65934,0.2637 0.25275,0.2638 0.25275,0.6264 0,0.3516 -0.25275,0.6154 -0.24175,0.2527 -0.65934,0.2527 -0.41758,0 -0.65934,-0.2527 -0.24176,-0.2638 -0.24176,-0.6154 z m 4.81319,0.011 q 0,-0.3627 0.24176,-0.6264 0.24176,-0.2637 0.65934,-0.2637 0.41758,0 0.65934,0.2637 0.25275,0.2637 0.25275,0.6264 0,0.3516 -0.25275,0.6154 -0.24176,0.2527 -0.65934,0.2527 -0.41758,0 -0.65934,-0.2527 -0.24176,-0.2638 -0.24176,-0.6154 z" />
      <path
         id="path123"
         style="text-align:start;word-spacing:2.8px;text-anchor:start;fill:#800080;fill-opacity:1;stroke-width:0.281319"
         d="m 260.47136,1268.4615 h -0.82418 V 1276 h -1.27472 v -7.5385 h -0.86814 L 254.31751,1276 h -1.58242 l 3.58242,-8.022 -3.24176,-7.978 h 1.49451 l 2.82417,7.3407 h 0.97803 V 1260 h 1.27472 v 7.3407 h 0.93407 L 263.39443,1260 h 1.5055 l -3.24176,7.978 3.58242,8.022 h -1.58242 z" />
      <path
         id="path125"
         style="text-align:start;word-spacing:2.8px;text-anchor:start;fill:#800080;fill-opacity:1;stroke-width:0.281319"
         d="m 288.72191,1267.2747 q 0.86813,0 1.61539,-0.1758 0.75824,-0.1868 1.31868,-0.5604 0.56044,-0.3737 0.87912,-0.9561 0.32967,-0.5934 0.32967,-1.4176 0,-0.8022 -0.32967,-1.4066 -0.31868,-0.6153 -0.87912,-1.0219 -0.56044,-0.4176 -1.32967,-0.6264 -0.76923,-0.2088 -1.65934,-0.2088 -0.78022,0 -1.5055,0.2308 -0.71428,0.2197 -1.27472,0.6483 -0.54945,0.4176 -0.89011,1.033 -0.32967,0.6044 -0.35165,1.3736 h -1.31868 q 0.022,-1.033 0.47252,-1.8461 0.45055,-0.8242 1.17583,-1.3847 0.73626,-0.5714 1.69231,-0.8681 0.95604,-0.3077 2,-0.3077 1.13187,0 2.14285,0.2638 1.01099,0.2637 1.75825,0.8131 0.74725,0.5495 1.17582,1.3847 0.43956,0.8351 0.43956,1.967 0,0.6703 -0.23077,1.2417 -0.21978,0.5605 -0.61538,1.011 -0.39561,0.4506 -0.93407,0.7912 -0.53846,0.3407 -1.17582,0.5605 0.70329,0.1978 1.2967,0.5275 0.59341,0.3186 1.01099,0.7912 0.42857,0.4725 0.65934,1.1099 0.24176,0.6263 0.24176,1.4175 0,1.1429 -0.48352,2 -0.47253,0.8572 -1.26373,1.4286 -0.79121,0.5714 -1.83517,0.8572 -1.04396,0.2857 -2.18681,0.2857 -1.05495,0 -2.04396,-0.2857 -0.98901,-0.2967 -1.76923,-0.8792 -0.76923,-0.5824 -1.25275,-1.4505 -0.47253,-0.8791 -0.4945,-2.055 h 1.31868 q 0.022,0.8132 0.36263,1.4726 0.34066,0.6593 0.91209,1.1208 0.58242,0.4616 1.34066,0.7143 0.76923,0.2528 1.62638,0.2528 0.9011,0 1.70329,-0.2088 0.81319,-0.2198 1.41759,-0.6484 0.61538,-0.4285 0.96703,-1.0659 0.36264,-0.6374 0.36264,-1.4945 0,-0.9341 -0.35165,-1.5604 -0.35165,-0.6264 -0.95605,-1.011 -0.5934,-0.3846 -1.3956,-0.5495 -0.79121,-0.1758 -1.69231,-0.1758 h -2.02198 v -1.1319 z" />
      <path
         id="path127"
         style="text-align:start;word-spacing:2.8px;text-anchor:start;fill:#800080;fill-opacity:1;stroke-width:0.281319"
         d="m 322.14831,1260 h 1.2967 v 16 h -1.2967 l 0.011,-13.4176 -7.15385,13.4176 h -1.29671 v -16 h 1.29671 l -0.011,13.4066 z" />
      <path
         id="path129"
         style="text-align:start;word-spacing:2.8px;text-anchor:start;fill:#800080;fill-opacity:1;stroke-width:0.281319"
         d="m 351.93731,1260 h 1.2967 v 16 h -1.2967 l 0.011,-13.4176 -7.15385,13.4176 h -1.2967 v -16 h 1.2967 l -0.011,13.4066 z m -0.5055,-4.1209 q -0.022,0.6484 -0.26373,1.1758 -0.23077,0.5165 -0.64835,0.8901 -0.41759,0.3627 -0.98902,0.5605 -0.57142,0.1978 -1.26373,0.1978 -0.69231,0 -1.27473,-0.1978 -0.57143,-0.1978 -1,-0.5605 -0.41758,-0.3736 -0.65934,-0.8901 -0.23077,-0.5274 -0.25275,-1.1758 h 1.12088 q 0.033,0.8791 0.56044,1.3846 0.53846,0.4945 1.5055,0.4945 0.93406,0 1.46154,-0.5055 0.53846,-0.5055 0.58241,-1.3736 z" />
      <path
         id="path131"
         style="text-align:start;word-spacing:2.8px;text-anchor:start;fill:#800080;fill-opacity:1;stroke-width:0.281319"
         d="m 377.067,1268.4725 h -2.05495 V 1276 h -1.2967 v -16 h 1.2967 v 7.3626 h 2.04396 L 382.60546,1260 h 1.53846 l -5.95604,7.8681 6.41758,8.1319 h -1.62637 z" />
      <path
         id="path133"
         style="text-align:start;word-spacing:2.8px;text-anchor:start;fill:#800080;fill-opacity:1;stroke-width:0.281319"
         d="m 412.86702,1260 v 16 h -1.2967 v -14.8791 h -5.53847 l -0.17582,6.6154 q -0.022,0.8901 -0.0989,1.8461 -0.0659,0.9561 -0.23077,1.8791 -0.16484,0.9121 -0.43956,1.7363 -0.26374,0.8242 -0.67033,1.4506 -0.40659,0.6153 -0.95604,0.989 -0.54946,0.3626 -1.28572,0.3626 h -0.43956 v -1.1099 h 0.3956 q 0.47253,0 0.83517,-0.3406 0.36264,-0.3407 0.62637,-0.8902 0.26374,-0.5604 0.43956,-1.2857 0.18682,-0.7362 0.29671,-1.5274 0.10989,-0.7913 0.15384,-1.5935 0.055,-0.8022 0.0659,-1.5164 L 404.76812,1260 Z" />
      <path
         id="path135"
         style="text-align:start;word-spacing:2.8px;text-anchor:start;fill:#800080;fill-opacity:1;stroke-width:0.281319"
         d="m 434.51316,1260 3.21978,9.0549 3.42858,-9.0549 h 1.72527 v 16 h -1.28571 v -7.0879 l 0.0989,-7.1539 -3.54945,9.4286 h -0.85715 l -3.2967,-9.2747 0.10989,7 V 1276 h -1.28571 v -16 z" />
      <path
         id="path137"
         style="text-align:start;word-spacing:2.8px;text-anchor:start;fill:#800080;fill-opacity:1;stroke-width:0.281319"
         d="m 472.52198,1276 h -1.24176 v -7.6703 h -7.51649 V 1276 h -1.24175 v -16 h 1.24175 v 7.1868 h 7.51649 V 1260 h 1.24176 z" />
      <path
         id="path139"
         style="text-align:start;word-spacing:2.8px;text-anchor:start;fill:#800080;fill-opacity:1;stroke-width:0.281319"
         d="m 502.68461,1269.0659 q -0.011,0.8132 -0.14286,1.6704 -0.13187,0.8461 -0.41758,1.6483 -0.27473,0.7912 -0.7033,1.4945 -0.42857,0.6923 -1.02198,1.2198 -0.58242,0.5165 -1.35165,0.8242 -0.76923,0.2967 -1.72527,0.2967 -0.94506,0 -1.71429,-0.2967 -0.76923,-0.3077 -1.37363,-0.8242 -0.5934,-0.5275 -1.03296,-1.2308 -0.42857,-0.7033 -0.71429,-1.4945 -0.27472,-0.8022 -0.41758,-1.6483 -0.13187,-0.8462 -0.14286,-1.6594 v -2.1099 q 0.011,-0.8131 0.14286,-1.6593 0.14286,-0.8571 0.41758,-1.6484 0.27473,-0.8021 0.7033,-1.5054 0.43956,-0.7033 1.03297,-1.2308 0.5934,-0.5275 1.35164,-0.8242 0.76923,-0.3077 1.72528,-0.3077 0.95604,0 1.72527,0.3077 0.76924,0.2967 1.36264,0.8242 0.6044,0.5165 1.03297,1.2198 0.42857,0.7033 0.7033,1.5055 0.28571,0.7912 0.41758,1.6483 0.13187,0.8462 0.14286,1.6703 z m -1.29671,-2.1318 q -0.011,-0.6374 -0.0989,-1.3297 -0.0879,-0.6923 -0.28571,-1.3517 -0.19781,-0.6593 -0.51649,-1.2527 -0.30769,-0.6044 -0.75824,-1.0549 -0.45055,-0.4506 -1.05494,-0.7143 -0.6044,-0.2638 -1.37363,-0.2638 -0.76923,0 -1.37363,0.2748 -0.5934,0.2637 -1.04395,0.7142 -0.45055,0.4506 -0.76923,1.055 -0.3077,0.5934 -0.5055,1.2527 -0.1978,0.6594 -0.28571,1.3517 -0.0879,0.6923 -0.0989,1.3187 v 2.1318 q 0.011,0.6374 0.0989,1.3297 0.0989,0.6813 0.2967,1.3517 0.1978,0.6593 0.50549,1.2637 0.31869,0.5934 0.76924,1.0439 0.45054,0.4506 1.05494,0.7253 0.6044,0.2638 1.37363,0.2638 0.78022,0 1.37362,-0.2638 0.6044,-0.2747 1.05495,-0.7253 0.45055,-0.4505 0.75824,-1.0439 0.31868,-0.6044 0.5055,-1.2637 0.1978,-0.6704 0.27472,-1.3517 0.0879,-0.6923 0.0989,-1.3297 z" />
      <path
         id="path141"
         style="text-align:start;word-spacing:2.8px;text-anchor:start;fill:#800080;fill-opacity:1;stroke-width:0.281319"
         d="m 531.93518,1276 h -1.29671 v -14.8791 h -7.07692 V 1276 h -1.29671 v -16 h 9.67034 z" />
      <path
         id="path143"
         style="text-align:start;word-spacing:2.8px;text-anchor:start;fill:#800080;fill-opacity:1;stroke-width:0.281319"
         d="M 553.83407,1269.4066 V 1276 h -1.31869 v -16 h 5.03297 q 1.05495,0.022 1.96704,0.3516 0.92307,0.3297 1.60439,0.9451 0.69231,0.6044 1.08791,1.4725 0.39561,0.8682 0.39561,1.9671 0,1.0989 -0.39561,1.967 -0.3956,0.8571 -1.08791,1.4615 -0.68132,0.5934 -1.60439,0.9121 -0.92308,0.3187 -1.96704,0.3297 z m 0,-1.1099 h 3.71428 q 0.79121,-0.011 1.47253,-0.2637 0.68132,-0.2528 1.18681,-0.7033 0.5055,-0.4506 0.79121,-1.0989 0.29671,-0.6484 0.29671,-1.4726 0,-0.8241 -0.28572,-1.4945 -0.28571,-0.6703 -0.79121,-1.1318 -0.50549,-0.4726 -1.18681,-0.7253 -0.68132,-0.2637 -1.48352,-0.2857 h -3.71428 z" />
      <path
         id="path145"
         style="text-align:start;word-spacing:2.8px;text-anchor:start;fill:#800080;fill-opacity:1;stroke-width:0.281319"
         d="m 592.00775,1271.1429 q -0.13187,1.0769 -0.53847,2.0109 -0.40659,0.9231 -1.07692,1.6154 -0.67033,0.6813 -1.59341,1.066 -0.91208,0.3846 -2.05494,0.3846 -0.95605,0 -1.73627,-0.2857 -0.76923,-0.2967 -1.37362,-0.8022 -0.59341,-0.5055 -1.03297,-1.1868 -0.43956,-0.6814 -0.72528,-1.4616 -0.28571,-0.7912 -0.42857,-1.6373 -0.13186,-0.8462 -0.14285,-1.6814 v -2.3186 q 0.011,-0.8352 0.14285,-1.6814 0.14286,-0.8461 0.42857,-1.6263 0.28572,-0.7913 0.72528,-1.4726 0.43956,-0.6813 1.03297,-1.1868 0.60439,-0.5165 1.37362,-0.8022 0.78022,-0.2967 1.73627,-0.2967 1.16483,0 2.07692,0.3846 0.92308,0.3846 1.59341,1.077 0.67033,0.6813 1.06593,1.6153 0.4066,0.9341 0.52748,2.033 h -1.3077 q -0.13186,-0.8242 -0.42857,-1.5494 -0.28571,-0.7253 -0.76923,-1.2638 -0.48352,-0.5494 -1.16483,-0.8571 -0.68132,-0.3187 -1.59341,-0.3187 -0.78022,0 -1.38462,0.2637 -0.60439,0.2638 -1.06593,0.7033 -0.45055,0.4396 -0.76923,1.033 -0.31868,0.5824 -0.51649,1.2418 -0.1978,0.6593 -0.2967,1.3516 -0.0879,0.6813 -0.0879,1.3297 v 2.3406 q 0,0.6484 0.0879,1.3407 0.0989,0.6923 0.2967,1.3516 0.19781,0.6594 0.51649,1.2528 0.31868,0.5824 0.76923,1.033 0.46154,0.4395 1.06593,0.7033 0.6044,0.2637 1.38462,0.2637 0.92308,0 1.60439,-0.2967 0.69231,-0.3077 1.16484,-0.8462 0.48352,-0.5384 0.76923,-1.2637 0.2967,-0.7253 0.41758,-1.5604 z" />
      <path
         id="path147"
         style="text-align:start;word-spacing:2.8px;text-anchor:start;fill:#800080;fill-opacity:1;stroke-width:0.281319"
         d="m 622.23631,1261.1538 h -5.0989 V 1276 h -1.28572 l 0.011,-14.8462 h -5.10989 V 1260 h 11.48352 z" />
      <path
         id="path149"
         style="text-align:start;word-spacing:2.8px;text-anchor:start;fill:#800080;fill-opacity:1;stroke-width:0.281319"
         d="m 646.19014,1269.4396 0.39561,0.978 4.7033,-10.4176 h 1.54945 l -6.26374,13.2747 q -0.28572,0.5824 -0.63736,1.1209 -0.34066,0.5275 -0.81319,0.9451 -0.46154,0.4066 -1.08791,0.6483 -0.61539,0.2418 -1.43956,0.2418 -0.49451,0 -0.91209,-0.088 -0.4066,-0.077 -0.67033,-0.1649 l 0.21978,-1.0439 q 0.25274,0.055 0.60439,0.1208 0.35165,0.066 0.67033,0.066 0.56044,0 0.98901,-0.1868 0.42858,-0.1868 0.76924,-0.4836 0.34065,-0.3076 0.5934,-0.6923 0.25275,-0.3846 0.45055,-0.7802 l 0.59341,-1.1758 -6.0989,-11.8022 h 1.51648 z m 3.65934,-13.6264 q -0.022,0.6483 -0.26373,1.1758 -0.23077,0.5165 -0.64835,0.8901 -0.41759,0.3627 -0.98901,0.5605 -0.57143,0.1978 -1.26374,0.1978 -0.69231,0 -1.27473,-0.1978 -0.57143,-0.1978 -1,-0.5605 -0.41758,-0.3736 -0.65934,-0.8901 -0.23077,-0.5275 -0.25275,-1.1758 h 1.12088 q 0.033,0.8791 0.56044,1.3846 0.53847,0.4945 1.5055,0.4945 0.93406,0 1.46154,-0.5055 0.53846,-0.5055 0.58242,-1.3736 z" />
      <path
         id="path151"
         style="text-align:start;word-spacing:2.8px;text-anchor:start;fill:#800080;fill-opacity:1;stroke-width:0.281319"
         d="m 676.69343,1262.1758 q 1.13187,0.055 2.08791,0.5165 0.96704,0.4506 1.67033,1.2198 0.7033,0.7582 1.08792,1.8022 0.3956,1.033 0.3956,2.2417 0,1.2198 -0.3956,2.2638 -0.38462,1.0329 -1.08792,1.8132 -0.70329,0.7692 -1.67033,1.2307 -0.95604,0.4616 -2.08791,0.5165 V 1276 h -1.2967 v -2.2198 q -1.14286,-0.055 -2.10989,-0.5055 -0.95605,-0.4615 -1.64836,-1.2307 -0.6923,-0.7693 -1.08791,-1.8022 -0.38461,-1.044 -0.38461,-2.2638 0,-1.2088 0.38461,-2.2417 0.39561,-1.044 1.08791,-1.8132 0.69231,-0.7802 1.64836,-1.2308 0.96703,-0.4615 2.10989,-0.5165 V 1260 h 1.2967 z m 3.93407,5.7802 q 0,-0.978 -0.27473,-1.8131 -0.27472,-0.8352 -0.79121,-1.4506 -0.50549,-0.6154 -1.24176,-0.978 -0.72527,-0.3627 -1.62637,-0.4176 v 9.3736 q 0.9011,-0.044 1.62637,-0.4176 0.73627,-0.3736 1.24176,-1 0.51649,-0.6263 0.79121,-1.4615 0.27473,-0.8461 0.27473,-1.8352 z m -9.15385,0.022 q 0,0.989 0.27472,1.8242 0.27473,0.8352 0.78022,1.4615 0.5055,0.6154 1.23077,0.989 0.72528,0.3627 1.63737,0.4066 v -9.3626 q -0.91209,0.055 -1.63737,0.4286 -0.72527,0.3626 -1.23077,0.989 -0.50549,0.6154 -0.78022,1.4505 -0.27472,0.8352 -0.27472,1.8132 z" />
      <path
         id="path153"
         style="text-align:start;word-spacing:2.8px;text-anchor:start;fill:#800080;fill-opacity:1;stroke-width:0.281319"
         d="M 705.99898,1266.8352 710.05392,1260 h 1.54945 l -4.82417,7.8901 4.97802,8.1099 h -1.53846 l -4.19781,-7.0549 -4.20879,7.0549 h -1.54945 l 4.97802,-8.1099 -4.82417,-7.8901 h 1.54945 z" />
      <path
         id="path155"
         style="text-align:start;word-spacing:2.8px;text-anchor:start;fill:#800080;fill-opacity:1;stroke-width:0.281319"
         d="m 731.00776,1260 h 1.2967 v 14.8901 h 7.03297 v -0.022 h 0.011 V 1260 h 1.2967 v 14.8681 h 1.41758 l -0.0989,4.989 H 740.766 V 1276 h -9.75824 z" />
      <path
         id="path157"
         style="text-align:start;word-spacing:2.8px;text-anchor:start;fill:#800080;fill-opacity:1;stroke-width:0.281319"
         d="m 770.04951,1260 v 16 h -1.29671 v -7.2747 q -0.81318,0.2637 -1.63736,0.4395 -0.81319,0.1759 -1.82418,0.1759 -2.21978,0 -3.32967,-1.2418 -1.0989,-1.2527 -1.12088,-3.6703 l 0.011,-4.4286 h 1.29671 l 0.011,4.4286 q 0.011,1.8901 0.75824,2.8461 0.74725,0.9451 2.38461,0.9451 0.93407,0.011 1.76924,-0.1649 0.84615,-0.1868 1.68131,-0.4505 V 1260 Z" />
      <path
         id="path159"
         style="text-align:start;word-spacing:2.8px;text-anchor:start;fill:#800080;fill-opacity:1;stroke-width:0.281319"
         d="m 791.22318,1260 v 14.8901 h 3.35165 V 1260 h 1.27473 v 14.8901 h 3.35165 V 1260 h 1.27472 v 16 h -10.53846 v -16 z" />
      <path
         id="path161"
         style="text-align:start;word-spacing:2.8px;text-anchor:start;fill:#800080;fill-opacity:1;stroke-width:0.281319"
         d="m 821.03416,1260 v 14.8901 h 3.35165 V 1260 h 1.27473 v 14.8901 h 3.04395 v -0.011 h 0.3077 V 1260 h 1.27472 v 14.8791 h 0.91209 l -0.0989,4.978 h -1.16484 V 1276 h -10.18681 v -16 z" />
      <path
         id="path163"
         style="text-align:start;word-spacing:2.8px;text-anchor:start;fill:#800080;fill-opacity:1;stroke-width:0.281319"
         d="m 848.53745,1260 h 5.31868 v 6.967 h 2.29671 q 1.08791,0.011 1.92307,0.3517 0.84616,0.3296 1.41759,0.9231 0.58241,0.5934 0.87912,1.4175 0.30769,0.8242 0.30769,1.8022 0,0.9781 -0.30769,1.8132 -0.29671,0.8242 -0.87912,1.4286 -0.57143,0.6044 -1.41759,0.956 -0.83516,0.3407 -1.92307,0.3407 h -3.58242 v -14.8791 h -4.03297 z m 5.31868,8.0879 v 6.8022 h 2.29671 q 0.81318,-0.011 1.41758,-0.2857 0.60439,-0.2747 1,-0.7363 0.40659,-0.4725 0.59341,-1.0989 0.1978,-0.6263 0.1978,-1.3296 0,-0.6923 -0.1978,-1.2967 -0.19781,-0.6154 -0.6044,-1.066 -0.3956,-0.4505 -1,-0.7143 -0.6044,-0.2637 -1.40659,-0.2747 z" />
      <path
         id="path165"
         style="text-align:start;word-spacing:2.8px;text-anchor:start;fill:#800080;fill-opacity:1;stroke-width:0.281319"
         d="m 880.95283,1266.967 h 1.68131 q 1.03297,0.011 1.8022,0.3627 0.78022,0.3516 1.28572,0.956 0.51648,0.6044 0.76923,1.4176 0.25275,0.8132 0.25275,1.7582 0,0.9451 -0.25275,1.7693 -0.25275,0.8241 -0.76923,1.4395 -0.5055,0.6044 -1.28572,0.9671 -0.76923,0.3516 -1.8022,0.3626 h -2.96703 v -16 h 1.28572 z m 0,1.1209 v 6.8022 h 1.68131 q 0.75825,-0.011 1.28572,-0.2967 0.53846,-0.2857 0.86813,-0.7582 0.32967,-0.4836 0.47253,-1.0989 0.15384,-0.6264 0.15384,-1.2967 0,-0.6594 -0.15384,-1.2638 -0.15385,-0.6044 -0.49451,-1.0659 -0.32967,-0.4616 -0.85714,-0.7363 -0.52747,-0.2747 -1.27473,-0.2857 z m 8.70329,7.9121 h -1.28571 v -16 h 1.28571 z" />
      <path
         id="path167"
         style="text-align:start;word-spacing:2.8px;text-anchor:start;fill:#800080;fill-opacity:1;stroke-width:0.281319"
         d="m 911.15947,1266.967 h 3.28572 q 1.13186,0.011 2.05494,0.3187 0.92308,0.3077 1.58242,0.8901 0.65934,0.5715 1.01099,1.4066 0.36264,0.8242 0.36264,1.8791 0,1.044 -0.36264,1.8901 -0.35165,0.8352 -1.01099,1.4286 -0.65934,0.5824 -1.58242,0.9011 -0.92308,0.3187 -2.05494,0.3187 h -4.59341 v -16 h 1.30769 z m 0,1.1209 v 6.8022 h 3.28572 q 0.85714,-0.011 1.53846,-0.2527 0.68132,-0.2528 1.15384,-0.7033 0.48352,-0.4616 0.73627,-1.0879 0.26373,-0.6374 0.26373,-1.4066 0,-0.7583 -0.26373,-1.3737 -0.25275,-0.6154 -0.73627,-1.0439 -0.47252,-0.4396 -1.16483,-0.6813 -0.68132,-0.2418 -1.52747,-0.2528 z" />
      <path
         id="path169"
         style="text-align:start;word-spacing:2.8px;text-anchor:start;fill:#800080;fill-opacity:1;stroke-width:0.281319"
         d="m 940.11331,1271 q 0.0769,0.9121 0.34066,1.6703 0.27472,0.7473 0.74725,1.2967 0.47253,0.5385 1.16483,0.8462 0.69231,0.2967 1.61539,0.2967 0.7033,0 1.28571,-0.2198 0.58242,-0.2308 1.03297,-0.6154 0.45055,-0.3956 0.78022,-0.9231 0.34066,-0.5274 0.56044,-1.1428 0.21978,-0.6264 0.31868,-1.3077 0.10989,-0.6923 0.12088,-1.3846 v -1 h -5.78022 v -1.1099 h 5.78022 v -0.9231 q -0.011,-0.6923 -0.12088,-1.3736 -0.0989,-0.6923 -0.31868,-1.3077 -0.21978,-0.6264 -0.56044,-1.1539 -0.32967,-0.5274 -0.78022,-0.912 -0.45055,-0.3956 -1.03297,-0.6154 -0.58241,-0.2308 -1.28571,-0.2308 -0.91209,0 -1.6044,0.3077 -0.6923,0.2967 -1.17582,0.8462 -0.47253,0.5384 -0.74725,1.2967 -0.26374,0.7582 -0.34066,1.6593 h -1.29671 q 0.044,-1.0989 0.41759,-2.0549 0.38461,-0.9561 1.04395,-1.6594 0.65934,-0.7033 1.59341,-1.0989 0.93407,-0.4066 2.10989,-0.4066 0.89011,0 1.63736,0.2528 0.75824,0.2527 1.35165,0.7142 0.6044,0.4506 1.05495,1.088 0.45055,0.6263 0.74725,1.3736 0.30769,0.7472 0.46154,1.5824 0.15384,0.8352 0.15384,1.7033 v 3.011 q 0,0.8681 -0.15384,1.7033 -0.15385,0.8352 -0.46154,1.5824 -0.2967,0.7473 -0.74725,1.3736 -0.45055,0.6264 -1.05495,1.0879 -0.59341,0.4506 -1.35165,0.7143 -0.74725,0.2528 -1.63736,0.2528 -1.17582,0 -2.12088,-0.3846 -0.93407,-0.3847 -1.59341,-1.077 -0.65934,-0.6923 -1.03296,-1.6483 -0.37363,-0.9561 -0.41759,-2.1099 z" />
      <path
         id="path171"
         style="text-align:start;word-spacing:2.8px;text-anchor:start;fill:#800080;fill-opacity:1;stroke-width:0.281319"
         d="m 979.49572,1269.7582 q 0,1.1539 -0.20879,2.3077 -0.2088,1.1539 -0.68132,2.077 -0.46154,0.923 -1.23077,1.5055 -0.75824,0.5714 -1.87912,0.5714 -1.08792,0 -1.83517,-0.5714 -0.74725,-0.5825 -1.20879,-1.5055 -0.45055,-0.9231 -0.64835,-2.077 -0.1978,-1.1538 -0.1978,-2.3077 v -1.2967 H 969.9133 V 1276 h -1.28572 v -16 h 1.28572 v 7.3516 h 1.69231 v -1.0989 q 0,-0.7692 0.0769,-1.5494 0.0879,-0.7802 0.27472,-1.4945 0.18682,-0.7253 0.48352,-1.3407 0.30769,-0.6263 0.73626,-1.0879 0.42858,-0.4725 1,-0.7362 0.57143,-0.2638 1.3077,-0.2638 0.74725,0 1.32967,0.2638 0.5934,0.2637 1.03297,0.7362 0.45054,0.4616 0.75824,1.0879 0.30769,0.6154 0.50549,1.3407 0.1978,0.7143 0.28572,1.4945 0.0989,0.7802 0.0989,1.5494 z m -1.31868,-3.5274 q 0,-0.9121 -0.10989,-1.8462 -0.10989,-0.945 -0.4066,-1.7143 -0.2967,-0.7692 -0.82417,-1.2527 -0.52748,-0.4835 -1.35165,-0.4835 -0.53846,0 -0.93407,0.2307 -0.3956,0.2198 -0.68132,0.6044 -0.28571,0.3846 -0.47253,0.9011 -0.17582,0.5165 -0.28571,1.1099 -0.10989,0.5824 -0.15385,1.2198 -0.0439,0.6264 -0.0439,1.2308 v 3.5274 q 0,0.6154 0.0439,1.2418 0.044,0.6264 0.15385,1.2198 0.10989,0.5934 0.2967,1.1209 0.18682,0.5164 0.47253,0.9011 0.28572,0.3846 0.68132,0.6153 0.3956,0.2198 0.93407,0.2198 0.54945,0 0.96703,-0.2198 0.41758,-0.2307 0.71429,-0.6153 0.2967,-0.3847 0.48351,-0.9011 0.1978,-0.5275 0.30769,-1.1209 0.12088,-0.5934 0.16484,-1.2198 0.044,-0.6264 0.044,-1.2418 z" />
      <path
         id="path173"
         style="text-align:start;word-spacing:2.8px;text-anchor:start;fill:#800080;fill-opacity:1;stroke-width:0.281319"
         d="m 1007.021,1276 v -6.7363 h -4.3516 L 999.22983,1276 h -1.41758 l 3.72525,-7.0989 q -1.5055,-0.5275 -2.32965,-1.5824 -0.82417,-1.066 -0.82417,-2.5934 0,-1.1209 0.37362,-1.989 0.38462,-0.8792 1.07693,-1.4836 0.70327,-0.6044 1.68127,-0.923 0.9891,-0.3187 2.1759,-0.3297 h 4.6483 v 16 z m -7.32963,-11.2967 q 0,0.7472 0.25275,1.3736 0.25278,0.6264 0.72528,1.0769 0.4725,0.4506 1.1429,0.7143 0.6813,0.2528 1.5274,0.2638 h 3.6813 v -7.011 h -3.3296 q -0.9231,0.011 -1.6704,0.2527 -0.7362,0.2418 -1.2527,0.7033 -0.5165,0.4616 -0.8022,1.1209 -0.27473,0.6593 -0.27473,1.5055 z" />
    </g>
  </g>
</svg>
