<?xml version="1.0" encoding="UTF-8" standalone="no"?>
<svg
   sodipodi:docname="logo.svg"
   inkscape:version="1.1 (c68e22c387, 2021-05-23)"
   id="svg8"
   version="1.1"
   viewBox="0 0 32 32"
   height="32"
   width="32"
   xmlns:inkscape="http://www.inkscape.org/namespaces/inkscape"
   xmlns:sodipodi="http://sodipodi.sourceforge.net/DTD/sodipodi-0.dtd"
   xmlns="http://www.w3.org/2000/svg"
   xmlns:svg="http://www.w3.org/2000/svg"
   xmlns:rdf="http://www.w3.org/1999/02/22-rdf-syntax-ns#"
   xmlns:cc="http://creativecommons.org/ns#"
   xmlns:dc="http://purl.org/dc/elements/1.1/">
  <defs
     id="defs2">
    <inkscape:path-effect
       end_linecap_type="butt"
       miter_limit="4"
       linejoin_type="extrp_arc"
       start_linecap_type="butt"
       interpolator_beta="0.2"
       interpolator_type="CubicBezierFit"
       sort_points="true"
       offset_points="2,0.5"
       is_visible="true"
       id="path-effect1492"
       effect="powerstroke"
       lpeversion="0"
       not_jump="false"
       scale_width="1" />
  </defs>
  <sodipodi:namedview
     inkscape:pagecheckerboard="true"
     inkscape:document-rotation="0"
     inkscape:snap-tangential="true"
     inkscape:snap-page="true"
     inkscape:snap-text-baseline="true"
     inkscape:snap-center="true"
     inkscape:snap-object-midpoints="true"
     inkscape:snap-midpoints="true"
     inkscape:snap-smooth-nodes="true"
     inkscape:snap-intersection-paths="true"
     inkscape:object-paths="true"
     inkscape:snap-bbox-midpoints="true"
     inkscape:snap-bbox-edge-midpoints="true"
     inkscape:bbox-nodes="true"
     inkscape:bbox-paths="true"
     inkscape:snap-bbox="true"
     inkscape:window-maximized="1"
     inkscape:window-y="-8"
     inkscape:window-x="-8"
     inkscape:window-height="716"
     inkscape:window-width="1366"
     units="px"
     showgrid="false"
     inkscape:current-layer="layer1"
     inkscape:document-units="px"
     inkscape:cy="29.344931"
     inkscape:cx="34.913397"
     inkscape:zoom="5.6568542"
     inkscape:pageshadow="2"
     inkscape:pageopacity="0"
     borderopacity="1"
     bordercolor="#000000"
     pagecolor="#808080"
     id="base"
     width="32px">
    <inkscape:grid
       empspacing="4"
       id="grid3713"
       type="xygrid" />
  </sodipodi:namedview>
  <metadata
     id="metadata5">
    <rdf:RDF>
      <cc:Work
         rdf:about="">
        <dc:format>image/svg+xml</dc:format>
        <dc:type
           rdf:resource="http://purl.org/dc/dcmitype/StillImage" />
      </cc:Work>
    </rdf:RDF>
  </metadata>
  <g
     transform="translate(0,84)"
     id="layer1"
     inkscape:groupmode="layer"
     inkscape:label="Layer 1">
    <g
       style="fill:#ffbf00;fill-opacity:1"
       inkscape:label="Layer 1"
       id="g837"
       transform="matrix(0.06249999,0,0,0.06249999,-6.8726318e-4,-136.74999)">
      <g
         style="fill:#ffbf00;fill-opacity:1"
         id="g835">
        <path
           inkscape:connector-curvature="0"
           id="path831"
           transform="translate(0,587.99998)"
           d="m 157.55859,334.36328 -16.9707,16.9707 -45.253906,45.25391 -56.568359,56.57031 62.224605,62.22461 56.56836,-56.56836 299.81446,299.8125 a 32,32 0 0 0 45.2539,0 32,32 0 0 0 0,-45.2539 l -299.8125,-299.81446 16.97071,-16.9707 50.91211,-50.91016 z"
           style="opacity:1;fill:#ffbf00;fill-opacity:1;stroke:none;stroke-width:17.7844;stroke-linecap:round;stroke-linejoin:round;stroke-miterlimit:4;stroke-dasharray:none;stroke-dashoffset:0;stroke-opacity:1;paint-order:markers fill stroke" />
        <path
           inkscape:connector-curvature="0"
           id="path833"
           d="m 256,256 c 0,0 167.99998,128 168,256 10e-6,64 -55.99997,136 -152,136 -63.99998,0 -104.23633,-47.76367 -104.23633,-47.76367 l -11.3125,11.3125 a 16,16 0 0 0 -22.62695,0 16,16 0 0 0 -2.47852,3.22265 32,32 0 0 0 -31.462888,8.0918 32,32 0 0 0 -9.330078,21.54492 C 65.121615,658.16051 22.991098,684.98345 4.2871094,720 l 0.029297,0.0293 A 32,32 0 0 0 4.2871094,752 32,32 0 0 0 48,763.71289 c 35.02393,-18.70801 61.85185,-60.85179 75.60156,-86.28125 a 32,32 0 0 0 21.53516,-9.31445 32,32 0 0 0 7.93164,-13.20117 C 177.58369,677.97043 224.50996,712 288,712 384.00003,712 488,640 488,512 488,352 256,256 256,256 Z"
           style="opacity:1;fill:#ffbf00;fill-opacity:1;stroke:none;stroke-width:0.864865;stroke-linecap:round;stroke-linejoin:round;stroke-miterlimit:4;stroke-dasharray:none;stroke-dashoffset:0;stroke-opacity:1;paint-order:markers fill stroke"
           transform="translate(0,587.99998)" />
      </g>
    </g>
  </g>
</svg>
