<?xml version="1.0" encoding="UTF-8" standalone="no"?>
<svg
   sodipodi:docname="translator.svg"
   inkscape:version="1.1 (c68e22c387, 2021-05-23)"
   id="svg8"
   version="1.1"
   viewBox="0 0 32 32"
   height="32"
   width="32"
   xmlns:inkscape="http://www.inkscape.org/namespaces/inkscape"
   xmlns:sodipodi="http://sodipodi.sourceforge.net/DTD/sodipodi-0.dtd"
   xmlns="http://www.w3.org/2000/svg"
   xmlns:svg="http://www.w3.org/2000/svg"
   xmlns:rdf="http://www.w3.org/1999/02/22-rdf-syntax-ns#"
   xmlns:cc="http://creativecommons.org/ns#"
   xmlns:dc="http://purl.org/dc/elements/1.1/">
  <defs
     id="defs2">
    <inkscape:path-effect
       end_linecap_type="butt"
       miter_limit="4"
       linejoin_type="extrp_arc"
       start_linecap_type="butt"
       interpolator_beta="0.2"
       interpolator_type="CubicBezierFit"
       sort_points="true"
       offset_points="2,0.5"
       is_visible="true"
       id="path-effect1492"
       effect="powerstroke"
       lpeversion="0"
       not_jump="false"
       scale_width="1" />
  </defs>
  <sodipodi:namedview
     inkscape:pagecheckerboard="true"
     inkscape:document-rotation="0"
     inkscape:snap-tangential="true"
     inkscape:snap-page="true"
     inkscape:snap-text-baseline="true"
     inkscape:snap-center="true"
     inkscape:snap-object-midpoints="true"
     inkscape:snap-midpoints="true"
     inkscape:snap-smooth-nodes="true"
     inkscape:snap-intersection-paths="true"
     inkscape:object-paths="true"
     inkscape:snap-bbox-midpoints="true"
     inkscape:snap-bbox-edge-midpoints="true"
     inkscape:bbox-nodes="true"
     inkscape:bbox-paths="true"
     inkscape:snap-bbox="true"
     inkscape:window-maximized="1"
     inkscape:window-y="-8"
     inkscape:window-x="-8"
     inkscape:window-height="716"
     inkscape:window-width="1366"
     units="px"
     showgrid="false"
     inkscape:current-layer="layer1"
     inkscape:document-units="px"
     inkscape:cy="20"
     inkscape:cx="20.625"
     inkscape:zoom="4"
     inkscape:pageshadow="2"
     inkscape:pageopacity="0"
     borderopacity="1"
     bordercolor="#000000"
     pagecolor="#808080"
     id="base"
     width="32px">
    <inkscape:grid
       empspacing="4"
       id="grid3713"
       type="xygrid" />
  </sodipodi:namedview>
  <metadata
     id="metadata5">
    <rdf:RDF>
      <cc:Work
         rdf:about="">
        <dc:format>image/svg+xml</dc:format>
        <dc:type
           rdf:resource="http://purl.org/dc/dcmitype/StillImage" />
      </cc:Work>
    </rdf:RDF>
  </metadata>
  <g
     transform="translate(0,84)"
     id="layer1"
     inkscape:groupmode="layer"
     inkscape:label="Layer 1">
    <path
       style="fill:#ffbf00;fill-opacity:1;stroke:none;stroke-width:1;stroke-linecap:round;stroke-linejoin:round;stroke-miterlimit:4;stroke-dasharray:none;stroke-dashoffset:0;stroke-opacity:1;paint-order:normal"
       d="m 2,-84 c -1.10799,0 -2,0.89201 -2,2 v 20 c 0,1.10799 0.89201,2 2,2 h 6 v 6 c 0,1.10799 0.89201,2 2,2 h 20 c 1.10799,0 2,-0.89201 2,-2 v -20 c 0,-1.10799 -0.89201,-2 -2,-2 h -6 v -6 c 0,-1.10799 -0.89201,-2 -2,-2 z m 0,2 c 6.66667,0 13.33333,0 20,0 0,2 0,4 0,6 H 10 c -1.10799,0 -2,0.89201 -2,2 v 12 c -2,0 -4,0 -6,0 0,-6.66667 0,-13.33333 0,-20 z m 16,10 h 10 v 16 h -2 v -7 h -9 l -2.5,7 H 12 Z m 1.5,2 -1.78516,5 H 26 v -5 z"
       id="rect841"
       inkscape:connector-curvature="0"
       sodipodi:nodetypes="sssscsssssscssscccssccccccccccccccccc" />
  </g>
</svg>
